<?xml version="1.0" encoding="UTF-8"?>
<svg width="349px" height="279px" viewBox="0 0 349 279" version="1.1" xmlns="http://www.w3.org/2000/svg" xmlns:xlink="http://www.w3.org/1999/xlink">
    <title>2953996</title>
    <defs>
        <polygon id="path-1" points="0.0934536082 0.400756014 341.957908 0.400756014 341.957908 89.1934708 0.0934536082 89.1934708"></polygon>
        <path d="M179.888093,111.953213 L3.34917526,111.953213 C1.77898625,111.953213 0.570824742,110.676014 0.657542955,109.104983 L2.75140893,70.9809622 C3.6404811,70.9809622 4.48829897,70.9809622 5.2830756,70.9809622 C6.87262887,59.2133849 7.62530928,49.9673711 7.86525773,42.7242955 C8.47733677,43.0913746 8.84357388,43.2892268 8.84357388,43.2892268 L10.167079,41.7384021 C11.1992784,42.8489003 12.2752577,43.933299 13.4126976,44.9814948 C13.407646,45.0269588 13.4034364,45.0732646 13.4009107,45.1195704 C13.3343986,46.3412027 14.2790378,47.340567 15.5006701,47.340567 C15.6968385,47.340567 15.8896392,47.3144674 16.0740206,47.2664777 C16.1152749,47.2993127 16.1565292,47.3321478 16.1977835,47.3649828 C17.0691753,48.0511512 17.9860309,48.7086942 18.9500344,49.3334021 L19.6799828,49.7956186 C20.1480928,50.0827148 20.747543,50.3832818 21.3158419,50.5508247 C22.0853608,50.7958247 22.8380412,50.8892784 23.5292612,50.8892784 C23.8828694,50.8892784 24.2204811,50.8648625 24.5353608,50.8236082 C26.3976976,50.5499828 27.6664777,49.8899141 28.7828694,49.2466838 C29.8933677,48.5916667 30.8152749,47.8566667 31.6765636,47.1166151 C34.9440722,44.222921 37.3545017,41.082543 39.5317182,37.6239175 C40.5959107,37.4530069 41.4571993,36.5319416 41.5178179,35.4315464 C41.5851718,34.2099141 40.6405326,33.2097079 39.4189003,33.2097079 L23.754055,33.2097079 C22.5324227,33.2097079 21.4783333,34.2099141 21.4109794,35.4315464 C21.3436254,36.6531787 22.2882646,37.6533849 23.5107388,37.6533849 L32.1968729,37.6533849 C30.5551203,38.9709966 28.8956873,40.20189 27.2665636,41.2121993 C26.5315636,41.6651546 25.7898282,42.0406529 25.1373368,42.317646 C24.789622,42.4683505 24.4503265,42.5685395 24.1918557,42.6182131 L23.809622,42.3311168 C23.1377663,41.816701 22.4718041,41.2593471 21.8201546,40.6573711 C20.4747595,39.4407904 19.1790378,38.0962371 17.9262543,36.6733849 C18.1864089,36.3180928 18.3514261,35.8903952 18.3758419,35.4315464 C18.4238316,34.5626804 17.9599313,33.8057904 17.2485052,33.4412371 L18.5888488,31.8710481 C18.5888488,31.8710481 17.4438316,30.1358419 15.5932818,27.7338316 C15.8820619,27.8820103 16.2120962,27.9653608 16.5648625,27.9653608 C17.7864948,27.9653608 18.8414261,26.9651546 18.9087801,25.7435223 C18.9752921,24.52189 18.0306529,23.5225258 16.8090206,23.5225258 C15.5873883,23.5225258 14.532457,24.52189 14.465945,25.7435223 C14.4533162,25.9607388 14.4735223,26.1712199 14.521512,26.3699141 C12.8747079,24.3164605 10.8406186,21.9691753 8.63225086,19.8500515 C7.5916323,18.8515292 6.60489691,18.1737801 5.67457045,17.7654467 L6.48786942,2.96189003 C6.57458763,1.39170103 7.92166667,0.114501718 9.49269759,0.114501718 L186.031615,0.114501718 C187.601804,0.114501718 188.809124,1.39170103 188.722405,2.96189003 L182.892079,109.104983 C182.806203,110.676014 181.458282,111.953213 179.888093,111.953213 L179.888093,111.953213 Z M67.0601203,56.3752577 L122.282784,56.3752577 C123.618918,56.3752577 124.642698,57.4588144 124.56945,58.7949485 L121.914863,107.109622 C121.904759,107.298213 122.04957,107.451443 122.238162,107.451443 C122.426753,107.451443 122.588402,107.298213 122.598505,107.109622 L125.253093,58.7949485 C125.32634,57.4588144 126.468832,56.3752577 127.804966,56.3752577 L180.944708,56.3752577 C181.134141,56.3752577 181.294948,56.2228694 181.305633,56.0334364 C181.315997,55.8448454 181.171186,55.6916151 180.982595,55.6916151 L127.842852,55.6916151 C126.506718,55.6916151 125.482938,54.6089003 125.556186,53.2727663 L128.209931,4.95809278 C128.220876,4.76950172 128.076065,4.61627148 127.887474,4.61627148 C127.698041,4.61627148 127.537234,4.76950172 127.526289,4.95809278 L124.872543,53.2727663 C124.799296,54.6089003 123.656804,55.6916151 122.319828,55.6916151 L67.0980069,55.6916151 C65.7610309,55.6916151 64.7380928,54.6089003 64.8113402,53.2727663 L67.4650859,4.95809278 C67.475189,4.76950172 67.3312199,4.61627148 67.1417869,4.61627148 C66.9531959,4.61627148 66.7915464,4.76950172 66.7814433,4.95809278 L64.1276976,53.2727663 C64.0721306,54.2813918 63.4070103,55.1460481 62.5095189,55.5089175 L63.4499485,38.3782818 L42.1054811,38.3782818 L41.8571134,42.897732 L38.2595704,42.897732 C37.0379381,42.897732 35.9830069,43.8979381 35.9164948,45.1195704 C35.8491409,46.3412027 36.7937801,47.340567 38.0154124,47.340567 L41.6129553,47.340567 L41.1541065,55.6916151 L8.43524055,55.6916151 C8.24664948,55.6916151 8.085,55.8448454 8.07439614,56.0334364 C8.06479381,56.2228694 8.20876289,56.3752577 8.39819588,56.3752577 L41.1170619,56.3752577 L40.9133162,60.0864605 L62.2266323,60.6564433 L62.4514261,56.5579553 C63.3093471,56.9208247 63.8793299,57.7854811 63.8246048,58.7949485 L61.1700172,107.109622 C61.1599141,107.298213 61.3047251,107.451443 61.4933162,107.451443 C61.6819072,107.451443 61.8435567,107.298213 61.8536598,107.109622 L64.5074055,58.7949485 C64.5814948,57.4588144 65.7239863,56.3752577 67.0601203,56.3752577 L67.0601203,56.3752577 Z M18.2487113,65.8502749 L14.7126289,100.903797 L54.0237629,103.32854 L57.652457,67.3556357 L18.2487113,65.8502749 L18.2487113,65.8502749 Z M120.072732,27.8752749 L98.7004811,29.5043986 L99.169433,51.149433 L120.553471,50.0877663 L120.072732,27.8752749 L120.072732,27.8752749 Z M72.9965292,13.3731271 L71.8035223,35.0813058 L93.1176804,35.6504467 L94.3409966,13.3731271 L72.9965292,13.3731271 L72.9965292,13.3731271 Z M24.2869931,23.5225258 C23.0645189,23.5225258 22.0104296,24.52189 21.9430756,25.7435223 C21.8757216,26.9651546 22.8203608,27.9653608 24.0428351,27.9653608 L56.2253952,27.9653608 C57.4470275,27.9653608 58.5011168,26.9651546 58.5684708,25.7435223 C58.6358247,24.52189 57.6911856,23.5225258 56.4687113,23.5225258 L24.2869931,23.5225258 L24.2869931,23.5225258 Z M24.8190893,13.8345017 C23.5966151,13.8345017 22.5425258,14.8347079 22.4751718,16.0563402 C22.4078179,17.2779725 23.353299,18.2773368 24.5749313,18.2773368 L51.9155842,18.2773368 C53.1372165,18.2773368 54.1921478,17.2779725 54.2586598,16.0563402 C54.3260137,14.8347079 53.3813746,13.8345017 52.1597423,13.8345017 L24.8190893,13.8345017 L24.8190893,13.8345017 Z M17.3411168,13.8345017 C16.1194845,13.8345017 15.0645533,14.8347079 14.9980412,16.0563402 C14.9306873,17.2779725 15.8753265,18.2773368 17.0969588,18.2773368 C18.3185911,18.2773368 19.3735223,17.2779725 19.4408763,16.0563402 C19.5073883,14.8347079 18.5627491,13.8345017 17.3411168,13.8345017 L17.3411168,13.8345017 Z M23.876134,42.6552577 C23.8188832,42.6552577 23.775945,42.6493643 23.7515292,42.6358935 C23.7111168,42.6156873 23.7481615,42.5912715 23.8449828,42.5912715 C23.8904467,42.5912715 23.9485395,42.596323 24.0192612,42.6097938 C24.043677,42.6156873 24.0739863,42.6241065 24.1059794,42.6333677 C24.0150515,42.6476804 23.9367526,42.6552577 23.876134,42.6552577 L23.876134,42.6552577 Z" id="path-3"></path>
    </defs>
    <g id="Page-1" stroke="none" stroke-width="1" fill="none" fill-rule="evenodd">
        <g id="Mobile" transform="translate(-33.000000, -150.000000)">
            <g id="2953996" transform="translate(33.000000, 150.000000)">
                <polygon id="Fill-4" fill="#E4E4DE" points="3.27304124 248.159622 68.8656873 248.159622 68.8656873 247.949141 3.27304124 247.949141"></polygon>
                <polygon id="Fill-5" fill="#E4E4DE" points="305.979381 254.563299 337.889158 254.563299 337.889158 254.352818 305.979381 254.352818"></polygon>
                <polygon id="Fill-6" fill="#E4E4DE" points="69.7084536 255.977732 85.8666667 255.977732 85.8666667 255.767251 69.7084536 255.767251"></polygon>
                <polygon id="Fill-7" fill="#E4E4DE" points="129.315859 245.875481 165.6811 245.875481 165.6811 245.665 129.315859 245.665"></polygon>
                <polygon id="Fill-8" fill="#E4E4DE" points="173.176753 245.875481 178.50866 245.875481 178.50866 245.665 173.176753 245.665"></polygon>
                <polygon id="Fill-9" fill="#E4E4DE" points="234.977371 251.008694 271.367027 251.008694 271.367027 250.798213 234.977371 250.798213"></polygon>
                <path d="M70.9704983,220.684261 L29.6050687,220.684261 C27.7604124,220.684261 26.1961168,219.332131 25.9283849,217.506838 L15.5743986,146.72457 C15.24689,144.482526 16.984622,142.47201 19.2502405,142.47201 L60.6156701,142.47201 C62.4603265,142.47201 64.0254639,143.824141 64.292354,145.648591 L74.6463402,216.431701 C74.9738488,218.673746 73.2361168,220.684261 70.9704983,220.684261" id="Fill-12" fill="#EAEAE5"></path>
                <path d="M34.5252749,220.684261 L15.0204124,220.684261 C13.1765979,220.684261 11.6114605,219.332131 11.3445704,217.506838 L0.990584192,146.72457 C0.662233677,144.482526 2.40080756,142.47201 4.66642612,142.47201 L24.1704467,142.47201 C26.0151031,142.47201 27.5793986,143.824141 27.8462887,145.648591 L38.2011168,216.431701 C38.5286254,218.673746 36.7908935,220.684261 34.5252749,220.684261" id="Fill-13" fill="#FAF9F6"></path>
                <path d="M281.415395,124.533127 L80.3596392,124.533127 C75.2533677,124.533127 70.7591753,128.361357 70.3222165,133.085395 L65.2622509,187.73555 C64.8244502,192.458746 68.6097423,196.287818 73.7160137,196.287818 L274.770928,196.287818 C279.877199,196.287818 284.371392,192.458746 284.808351,187.73555 L289.869158,133.085395 C290.306117,128.361357 286.521667,124.533127 281.415395,124.533127" id="Fill-14" fill="#D4D5CF"></path>
                <path d="M267.767801,124.533127 L66.7120447,124.533127 C61.6057732,124.533127 57.1124227,128.361357 56.674622,133.085395 L51.6146564,187.73555 C51.1776976,192.458746 54.9621478,196.287818 60.0684192,196.287818 L261.124175,196.287818 C266.229605,196.287818 270.723797,192.458746 271.161598,187.73555 L276.221564,133.085395 C276.658522,128.361357 272.874072,124.533127 267.767801,124.533127" id="Fill-15" fill="#DDDED8"></path>
                <path d="M41.3297079,214.627457 L41.3297079,195.169742 C41.3297079,191.823935 44.0415464,189.112096 47.387354,189.112096 L123.11256,189.112096 C126.458368,189.112096 129.170206,191.823935 129.170206,195.169742 L129.170206,214.627457 C129.170206,217.972423 126.458368,220.684261 123.11256,220.684261 L47.387354,220.684261 C44.0415464,220.684261 41.3297079,217.972423 41.3297079,214.627457" id="Fill-16" fill="#E4E4DE"></path>
                <path d="M150.827027,215.141031 L150.827027,194.655326 C150.827027,191.594089 153.309021,189.112096 156.370258,189.112096 L244.749588,189.112096 C247.810825,189.112096 250.292818,191.594089 250.292818,194.655326 L250.292818,215.141031 C250.292818,218.202268 247.810825,220.684261 244.749588,220.684261 L156.370258,220.684261 C153.309021,220.684261 150.827027,218.202268 150.827027,215.141031" id="Fill-17" fill="#D4D5CF"></path>
                <path d="M129.170206,215.141031 L129.170206,194.655326 C129.170206,191.594089 131.652199,189.112096 134.713436,189.112096 L223.092766,189.112096 C226.154845,189.112096 228.635997,191.594089 228.635997,194.655326 L228.635997,215.141031 C228.635997,218.202268 226.154845,220.684261 223.092766,220.684261 L134.713436,220.684261 C131.652199,220.684261 129.170206,218.202268 129.170206,215.141031" id="Fill-18" fill="#E4E4DE"></path>
                <path d="M280.861409,220.684261 L250.08823,220.684261 C247.822612,220.684261 246.340825,218.673746 246.954588,216.431701 L266.335687,145.648591 C266.834948,143.824141 268.57268,142.471168 270.416495,142.471168 L301.188832,142.471168 C303.455292,142.471168 304.936237,144.482526 304.322474,146.72457 L284.942216,217.506838 C284.442955,219.332131 282.705223,220.684261 280.861409,220.684261" id="Fill-19" fill="#EAEAE5"></path>
                <path d="M255.008436,220.684261 L235.504416,220.684261 C233.238797,220.684261 231.75701,218.673746 232.370773,216.431701 L251.751031,145.648591 C252.251134,143.824141 253.988866,142.471168 255.83268,142.471168 L275.336701,142.471168 C277.60232,142.471168 279.084107,144.482526 278.470344,146.72457 L259.090086,217.506838 C258.589983,219.332131 256.853093,220.684261 255.008436,220.684261" id="Fill-20" fill="#FAF9F6"></path>
                <polyline id="Fill-21" fill="#D4D5CF" points="238.690258 239.931495 235.730052 239.931495 228.635997 220.684261 235.969158 220.684261 238.690258 239.931495"></polyline>
                <polyline id="Fill-22" fill="#D4D5CF" points="276.256082 239.931495 273.295876 239.931495 266.201821 220.684261 273.534983 220.684261 276.256082 239.931495"></polyline>
                <polyline id="Fill-23" fill="#D4D5CF" points="62.7238488 239.931495 65.684055 239.931495 72.777268 220.684261 65.4449485 220.684261 62.7238488 239.931495"></polyline>
                <polyline id="Fill-24" fill="#D4D5CF" points="25.1580241 239.931495 28.1182302 239.931495 35.2122852 220.684261 27.8791237 220.684261 25.1580241 239.931495"></polyline>
                <polygon id="Fill-25" fill="#D4D5CF" points="57.3330069 80.2849485 281.842251 80.2849485 281.842251 0.208676976 57.3330069 0.208676976"></polygon>
                <polygon id="Fill-26" fill="#EAEAE5" points="55.2753436 80.2849485 279.783746 80.2849485 279.783746 0.208676976 55.2753436 0.208676976"></polygon>
                <polygon id="Fill-27" fill="#FAF9F6" points="62.0107388 73.5495533 273.048351 73.5495533 273.048351 6.94407216 62.0107388 6.94407216"></polygon>
                <path d="M187.502096,40.2472337 C187.502096,51.2772852 178.560017,60.2193643 167.529124,60.2193643 C156.499072,60.2193643 147.556993,51.2772852 147.556993,40.2472337 C147.556993,29.2163402 156.499072,20.2742612 167.529124,20.2742612 C178.560017,20.2742612 187.502096,29.2163402 187.502096,40.2472337" id="Fill-28" fill="#EAEAE5"></path>
                <polyline id="Fill-29" fill="#FFFFFE" points="96.2686426 73.5495533 110.256375 6.94407216 141.127216 6.94407216 127.139485 73.5495533 96.2686426 73.5495533"></polyline>
                <polyline id="Fill-30" fill="#FFFFFE" points="140.164897 73.5495533 154.152629 6.94407216 169.587629 6.94407216 155.600739 73.5495533 140.164897 73.5495533"></polyline>
                <polyline id="Fill-31" fill="#FFFFFE" points="234.410756 73.5495533 248.398488 6.94407216 263.833488 6.94407216 249.846598 73.5495533 234.410756 73.5495533"></polyline>
                <path d="M331.471168,129.945017 C326.232715,152.645825 339.046804,176.094261 333.808351,198.794227 C332.079038,198.722663 330.349725,198.6511 328.621254,198.578694 C326.891942,198.507131 325.162629,198.435567 323.433316,198.364003 C332.130395,175.807165 322.774089,152.501856 331.471168,129.945017" id="Fill-32" fill="#EAEAE5"></path>
                <path d="M318.046684,139.789639 C322.338814,161.493608 308.563247,183.195052 312.855378,204.898179 C314.585533,204.898179 316.316529,204.898179 318.046684,204.898179 C319.77768,204.898179 321.508677,204.898179 323.238832,204.898179 C315.48555,183.195052 325.799966,161.493608 318.046684,139.789639" id="Fill-33" fill="#EAEAE5"></path>
                <path d="M327.629467,121.744674 C320.763574,144.889175 333.527148,169.867388 326.661254,193.01189 C324.780395,192.83677 322.900378,192.660808 321.020361,192.484845 C319.139502,192.309725 317.259485,192.133763 315.379467,191.957801 C326.006237,169.164381 317.002698,144.538093 327.629467,121.744674" id="Fill-34" fill="#DDDED8"></path>
                <path d="M337.744347,155.073093 C339.95945,167.588299 327.610103,177.429553 329.824364,189.944759 C331.220275,190.200704 332.615344,190.456649 334.010412,190.713436 C335.405481,190.969381 336.80055,191.225326 338.195619,191.481271 C333.190378,178.454175 342.749588,168.100189 337.744347,155.073093" id="Fill-35" fill="#DDDED8"></path>
                <g id="Group-39" transform="translate(6.254296, 188.711340)">
                    <mask id="mask-2" fill="white">
                        <use xlink:href="#path-1"></use>
                    </mask>
                    <g id="Clip-37"></g>
                    <path d="M336.068436,0.400756014 C324.762234,0.400756014 313.456031,0.400756014 302.149828,0.400756014 C294.297199,16.4309966 294.297199,35.190756 302.149828,51.2201546 C313.456031,51.2201546 324.762234,51.2201546 336.068436,51.2201546 C343.921065,35.190756 343.921065,16.4309966 336.068436,0.400756014" id="Fill-36" fill="#D4D5CF" mask="url(#mask-2)"></path>
                    <path d="M326.573213,79.7100344 C326.573213,84.9754296 253.488282,89.2439863 163.333333,89.2439863 C73.1783849,89.2439863 0.0934536082,84.9754296 0.0934536082,79.7100344 C0.0934536082,74.4454811 73.1783849,70.1769244 163.333333,70.1769244 C253.488282,70.1769244 326.573213,74.4454811 326.573213,79.7100344" id="Fill-38" fill="#F1F0EC" mask="url(#mask-2)"></path>
                </g>
                <path d="M282.233746,149.168677 L100.296409,149.168677 C98.335567,149.168677 96.8184192,147.563127 96.9261856,145.602285 L103.053711,34.0599313 C103.161478,32.0982474 104.854588,30.4935395 106.81543,30.4935395 L288.752766,30.4935395 C290.71445,30.4935395 292.230756,32.0982474 292.12299,34.0599313 L285.996306,145.602285 C285.88854,147.563127 284.19543,149.168677 282.233746,149.168677" id="Fill-40" fill="#132529"></path>
                <path d="M205.701134,49.4629381 L188.115017,49.4629381 C182.250172,49.4629381 177.715567,44.6715464 178.037182,38.8159622 L178.21567,35.5619244 C178.527182,29.8890378 183.431392,25.2466667 189.11354,25.2466667 L206.688711,25.2466667 C212.55945,25.2466667 217.099107,30.04311 216.777491,35.9045876 L216.599003,39.1476804 C216.287491,44.820567 211.383282,49.4629381 205.701134,49.4629381" id="Fill-41" fill="#12142D"></path>
                <polyline id="Fill-42" fill="#4169E2" points="221.711168 264.90634 216.076168 264.90634 200.563711 27.7320275 206.198711 27.7320275 221.711168 264.90634"></polyline>
                <polyline id="Fill-43" fill="#4169E2" points="179.416254 264.90634 185.051254 264.90634 200.563711 27.7320275 194.928711 27.7320275 179.416254 264.90634"></polyline>
                <path d="M281.265533,149.168677 L99.3281959,149.168677 C97.366512,149.168677 95.8502062,147.563127 95.9571306,145.602285 L102.084656,34.0599313 C102.192423,32.0982474 103.885533,30.4935395 105.847216,30.4935395 L287.784553,30.4935395 C289.745395,30.4935395 291.262543,32.0982474 291.154777,34.0599313 L285.027251,145.602285 C284.919485,147.563127 283.226375,149.168677 281.265533,149.168677" id="Fill-44" fill="#B7BAE5"></path>
                <g id="Group-47" transform="translate(98.865979, 33.797251)">
                    <mask id="mask-4" fill="white">
                        <use xlink:href="#path-3"></use>
                    </mask>
                    <g id="Clip-46"></g>
                    <polygon id="Fill-45" fill="#12142D" mask="url(#mask-4)" points="0.570824742 111.953213 188.809124 111.953213 188.809124 0.114501718 0.570824742 0.114501718"></polygon>
                </g>
                <path d="M221.104141,141.248694 C220.91555,141.248694 220.770739,141.095464 220.780842,140.906873 L223.43543,92.5921993 C223.508677,91.2560653 222.484897,90.1725086 221.148763,90.1725086 L165.9261,90.1725086 C164.589966,90.1725086 163.447474,91.2560653 163.373385,92.5921993 L160.719639,140.906873 C160.709536,141.095464 160.547887,141.248694 160.359296,141.248694 C160.170704,141.248694 160.025893,141.095464 160.035498,140.906873 L162.690584,92.5921993 C162.745309,91.582732 162.175326,90.7180756 161.317405,90.3552062 L161.375498,89.3061684 C162.27299,88.943299 162.93811,88.0786426 162.993677,87.0700172 L165.647423,38.7553436 C165.657526,38.5667526 165.819175,38.4135223 166.007766,38.4135223 C166.197199,38.4135223 166.341168,38.5667526 166.331065,38.7553436 L163.67732,87.0700172 C163.604072,88.4061512 164.62701,89.488866 165.963986,89.488866 L221.185808,89.488866 C222.522784,89.488866 223.665275,88.4061512 223.738522,87.0700172 L226.392268,38.7553436 C226.403213,38.5667526 226.564021,38.4135223 226.753454,38.4135223 C226.942045,38.4135223 227.086856,38.5667526 227.075911,38.7553436 L224.422165,87.0700172 C224.348918,88.4061512 225.372698,89.488866 226.708832,89.488866 L279.848574,89.488866 C280.037165,89.488866 280.181976,89.6420962 280.171613,89.8306873 C280.160928,90.0201203 280.00012,90.1725086 279.810687,90.1725086 L226.670945,90.1725086 C225.334811,90.1725086 224.19232,91.2560653 224.119072,92.5921993 L221.464485,140.906873 C221.454381,141.095464 221.292732,141.248694 221.104141,141.248694 M139.983041,90.1725086 L107.264175,90.1725086 C107.074742,90.1725086 106.930773,90.0201203 106.940876,89.8306873 C106.950979,89.6420962 107.112629,89.488866 107.30122,89.488866 L140.020086,89.488866 L139.983041,90.1725086" id="Fill-48" fill="#B7BAE5"></path>
                <polyline id="Fill-49" fill="#B7BAE5" points="191.98366 69.4476976 170.669502 68.8785567 171.862509 47.170378 193.206976 47.170378 191.98366 69.4476976"></polyline>
                <path d="M190.892526,68.5148454 C183.752165,68.1671306 176.610962,67.8185739 169.468918,67.4708591 C170.654347,60.0922337 171.397766,52.6950859 171.697491,45.3189863 C178.881632,45.666701 186.064089,46.0144158 193.246546,46.3629725 C192.905567,53.740756 192.120052,61.1387457 190.892526,68.5148454" id="Fill-50" fill="#FFFFFE"></path>
                <polyline id="Fill-51" fill="#9298E6" points="198.035412 84.9466838 197.56646 63.3016495 218.938711 61.6725258 219.41945 83.8850172 198.035412 84.9466838"></polyline>
                <path d="M218.255911,83.0414089 C211.079347,83.2417869 203.902784,83.441323 196.724536,83.6408591 C197.346718,76.2243471 197.525206,68.8229897 197.259158,61.4763574 C204.479502,61.2734536 211.698162,61.0705498 218.915979,60.867646 C219.139089,68.2193299 218.919347,75.624055 218.255911,83.0414089" id="Fill-52" fill="#B7BAE5"></path>
                <polyline id="Fill-53" fill="#999CC7" points="152.889742 137.12579 113.578608 134.701048 117.114691 99.6475258 156.518436 101.152887 152.889742 137.12579"></polyline>
                <path d="M150.933952,135.538763 C137.773832,134.472045 124.612027,133.404485 111.44854,132.337766 C114.09134,120.478419 115.918316,108.558454 116.924416,96.6401718 C130.165361,97.7094158 143.40378,98.7786598 156.640515,99.8487457 C155.557801,111.767027 153.652526,123.686151 150.933952,135.538763" id="Fill-54" fill="#FFFFFE"></path>
                <path d="M115.962938,52.0745876 C114.741306,52.0745876 113.796667,51.0752234 113.864021,49.8535911 C113.930533,48.6319588 114.985464,47.6317526 116.207096,47.6317526 C117.428729,47.6317526 118.373368,48.6319588 118.306856,49.8535911 C118.239502,51.0752234 117.18457,52.0745876 115.962938,52.0745876" id="Fill-55" fill="#B7BAE5"></path>
                <path d="M150.781564,52.0745876 L123.440911,52.0745876 C122.219278,52.0745876 121.273797,51.0752234 121.341151,49.8535911 C121.408505,48.6319588 122.462595,47.6317526 123.685069,47.6317526 L151.025722,47.6317526 C152.247354,47.6317526 153.191993,48.6319588 153.124639,49.8535911 C153.058127,51.0752234 152.003196,52.0745876 150.781564,52.0745876" id="Fill-56" fill="#B7BAE5"></path>
                <path d="M115.430842,61.7626117 C115.078076,61.7626117 114.748041,61.6792612 114.459261,61.5310825 C114.124175,61.0966495 113.766357,60.6394845 113.387491,60.1671649 C113.339502,59.9684708 113.319296,59.7579897 113.331924,59.5407732 C113.398436,58.3191409 114.453368,57.3197766 115.675,57.3197766 C116.896632,57.3197766 117.841271,58.3191409 117.774759,59.5407732 C117.707405,60.7624055 116.652474,61.7626117 115.430842,61.7626117" id="Fill-57" fill="#B7BAE5"></path>
                <path d="M155.091375,61.7626117 L122.908814,61.7626117 C121.68634,61.7626117 120.741701,60.7624055 120.809055,59.5407732 C120.876409,58.3191409 121.930498,57.3197766 123.152973,57.3197766 L155.334691,57.3197766 C156.557165,57.3197766 157.501804,58.3191409 157.43445,59.5407732 C157.367096,60.7624055 156.313007,61.7626117 155.091375,61.7626117" id="Fill-58" fill="#B7BAE5"></path>
                <path d="M116.792234,70.4706357 C116.212148,69.8122509 115.642165,69.1378694 115.079759,68.4508591 L116.114485,67.238488 C116.825911,67.6030412 117.289811,68.3599313 117.241821,69.2287973 C117.217405,69.687646 117.052388,70.1153436 116.792234,70.4706357" id="Fill-59" fill="#B7BAE5"></path>
                <path d="M131.062852,71.4506357 L122.376718,71.4506357 C121.154244,71.4506357 120.209605,70.4504296 120.276959,69.2287973 C120.344313,68.0071649 121.398402,67.0069588 122.620034,67.0069588 L138.28488,67.0069588 C139.506512,67.0069588 140.451151,68.0071649 140.383797,69.2287973 C140.323179,70.3291924 139.46189,71.2502577 138.397698,71.4211684 C138.478522,71.2931959 138.559347,71.1652234 138.63933,71.035567 L135.02579,68.118299 C133.733436,69.2389003 132.404038,70.3738144 131.062852,71.4506357" id="Fill-60" fill="#B7BAE5"></path>
                <path d="M140.478935,81.1378179 L136.881392,81.1378179 C135.659759,81.1378179 134.71512,80.1384536 134.782474,78.9168213 C134.848986,77.695189 135.903918,76.6949828 137.12555,76.6949828 L140.723093,76.6949828 L140.478935,81.1378179" id="Fill-61" fill="#154C84"></path>
                <path d="M114.366649,81.1378179 C113.145017,81.1378179 112.200378,80.1384536 112.26689,78.9168213 C112.269416,78.8705155 112.273625,78.8242096 112.278677,78.7787457 C113.129863,79.5617354 114.014725,80.3253608 114.94,81.0637285 C114.755619,81.1117182 114.562818,81.1378179 114.366649,81.1378179" id="Fill-62" fill="#1A477A"></path>
                <polyline id="Fill-63" fill="#B7BAE5" points="182.338574 109.965309 171.73622 109.965309 170.278849 136.492663 180.881203 136.492663 182.338574 109.965309"></polyline>
                <polyline id="Fill-64" fill="#B7BAE5" points="198.41933 115.433608 187.817818 115.433608 186.661014 136.492663 197.262526 136.492663 198.41933 115.433608"></polyline>
                <polyline id="Fill-65" fill="#B7BAE5" points="215.576907 101.307801 204.974553 101.307801 203.042337 136.492663 213.643849 136.492663 215.576907 101.307801"></polyline>
                <path d="M174.096134,124.933883 C173.046254,124.933883 171.987955,124.9061 170.917869,124.851375 C169.065636,124.756237 166.663625,124.522182 164.503247,123.550601 C164.159742,123.396529 164.00567,122.991564 164.160584,122.647216 C164.315498,122.302869 164.719622,122.149639 165.063969,122.303711 C167.017234,123.18268 169.255069,123.397371 170.987749,123.485773 C183.708385,124.14079 194.847045,120.826976 206.05811,113.061065 C208.73122,111.208832 212.721942,107.783883 215.174467,104.223385 C215.388316,103.911873 215.81433,103.835258 216.125,104.048265 C216.43567,104.262113 216.513969,104.688127 216.30012,104.998797 C213.746564,108.707474 209.73732,112.175361 206.83689,114.184192 C196.306942,121.479467 185.824983,124.933883 174.096134,124.933883" id="Fill-66" fill="#FFFFFE"></path>
                <path d="M217.878729,109.460997 C217.79201,109.460997 217.703608,109.444158 217.617732,109.408797 C217.269175,109.264828 217.103316,108.865756 217.247285,108.516357 C218.215498,106.17244 218.419244,103.537216 217.83579,101.152887 C215.170258,102.945344 212.325395,104.455756 209.366031,105.649605 C209.01579,105.790206 208.61756,105.620979 208.476117,105.270739 C208.335515,104.92134 208.504742,104.52311 208.854983,104.381667 C212.009674,103.108677 215.03134,101.464399 217.834948,99.4942955 C218.010911,99.3705326 218.235704,99.3368557 218.440292,99.4042096 C218.645722,99.4715636 218.806529,99.6306873 218.875567,99.8352749 C219.857251,102.745808 219.724227,106.100876 218.511014,109.038351 C218.401564,109.301873 218.147302,109.460997 217.878729,109.460997" id="Fill-67" fill="#FFFFFE"></path>
                <path d="M236.337079,45.6608076 C235.327612,45.6608076 234.462113,46.4816838 234.406546,47.4911512 L232.574519,80.8321993 C232.548419,81.3129381 232.710069,81.7642096 233.03,82.1018213 C233.349089,82.439433 233.788574,82.6246564 234.268471,82.6246564 L273.707577,82.6246564 C274.716203,82.6246564 275.582543,81.8037801 275.63811,80.7943127 L277.469296,47.4541065 C277.495395,46.9725258 277.334588,46.5212543 277.014656,46.1836426 C276.695567,45.8468729 276.255241,45.6608076 275.775344,45.6608076 L236.337079,45.6608076 Z M273.707577,83.308299 L234.268471,83.308299 C233.599141,83.308299 232.982852,83.0464605 232.534107,82.5716151 C232.082835,82.0959278 231.855515,81.4644845 231.89256,80.7943127 L233.723746,47.4541065 C233.798677,46.0885052 234.971478,44.9771649 236.337079,44.9771649 L275.775344,44.9771649 C276.444674,44.9771649 277.060962,45.2390034 277.51055,45.7138488 C277.960979,46.1895361 278.189141,46.8209794 278.152096,47.4911512 L276.320069,80.8321993 C276.245979,82.1969588 275.073179,83.308299 273.707577,83.308299 L273.707577,83.308299 Z" id="Fill-68" fill="#B7BAE5"></path>
                <path d="M277.441512,54.5439519 L233.695962,54.5439519 C233.506529,54.5439519 233.354141,54.3907216 233.354141,54.2021306 C233.354141,54.0126976 233.506529,53.8603093 233.695962,53.8603093 L277.441512,53.8603093 C277.630103,53.8603093 277.782491,54.0126976 277.782491,54.2021306 C277.782491,54.3907216 277.630103,54.5439519 277.441512,54.5439519" id="Fill-69" fill="#B7BAE5"></path>
                <path d="M242.444399,83.308299 L242.425034,83.307457 C242.237285,83.297354 242.092474,83.1365464 242.102577,82.9479553 L243.682869,54.1827663 C243.692973,53.9941753 243.852096,53.8476804 244.043213,53.8603093 C244.231804,53.8704124 244.375773,54.0320619 244.36567,54.2206529 L242.785378,82.985 C242.775275,83.1676976 242.62457,83.308299 242.444399,83.308299" id="Fill-70" fill="#B7BAE5"></path>
                <path d="M272.430378,57.961323 L248.680533,57.961323 C248.491942,57.961323 248.338711,57.8080928 248.338711,57.6195017 C248.338711,57.4300687 248.491942,57.2776804 248.680533,57.2776804 L272.430378,57.2776804 C272.618969,57.2776804 272.772199,57.4300687 272.772199,57.6195017 C272.772199,57.8080928 272.618969,57.961323 272.430378,57.961323" id="Fill-71" fill="#B7BAE5"></path>
                <path d="M268.852199,62.1549485 L248.449845,62.1549485 C248.261254,62.1549485 248.108866,62.0017182 248.108866,61.8131271 C248.108866,61.6245361 248.261254,61.4713058 248.449845,61.4713058 L268.852199,61.4713058 C269.04079,61.4713058 269.194021,61.6245361 269.194021,61.8131271 C269.194021,62.0017182 269.04079,62.1549485 268.852199,62.1549485" id="Fill-72" fill="#B7BAE5"></path>
                <path d="M260.087766,66.4832818 L248.212423,66.4832818 C248.023832,66.4832818 247.870601,66.3300515 247.870601,66.1414605 C247.870601,65.9528694 248.023832,65.7996392 248.212423,65.7996392 L260.087766,65.7996392 C260.276357,65.7996392 260.428746,65.9528694 260.428746,66.1414605 C260.428746,66.3300515 260.276357,66.4832818 260.087766,66.4832818" id="Fill-73" fill="#B7BAE5"></path>
                <path d="M262.244777,74.9303093 L247.748522,74.9303093 C247.559931,74.9303093 247.406701,74.777079 247.406701,74.588488 C247.406701,74.3998969 247.559931,74.2466667 247.748522,74.2466667 L262.244777,74.2466667 C262.433368,74.2466667 262.586598,74.3998969 262.586598,74.588488 C262.586598,74.777079 262.433368,74.9303093 262.244777,74.9303093" id="Fill-74" fill="#B7BAE5"></path>
                <path d="M259.385601,79.2586426 L247.510258,79.2586426 C247.321667,79.2586426 247.168436,79.1054124 247.168436,78.9168213 C247.168436,78.7282302 247.321667,78.575 247.510258,78.575 L259.385601,78.575 C259.574192,78.575 259.727423,78.7282302 259.727423,78.9168213 C259.727423,79.1054124 259.574192,79.2586426 259.385601,79.2586426" id="Fill-75" fill="#B7BAE5"></path>
                <path d="M266.337371,79.2586426 L262.532715,79.2586426 C262.343282,79.2586426 262.190893,79.1054124 262.190893,78.9168213 C262.190893,78.7282302 262.343282,78.575 262.532715,78.575 L266.337371,78.575 C266.525962,78.575 266.679192,78.7282302 266.679192,78.9168213 C266.679192,79.1054124 266.525962,79.2586426 266.337371,79.2586426" id="Fill-76" fill="#B7BAE5"></path>
                <path d="M270.220326,70.6769072 L247.981735,70.6769072 C247.793144,70.6769072 247.640756,70.523677 247.640756,70.3350859 C247.640756,70.1464948 247.793144,69.9932646 247.981735,69.9932646 L270.220326,69.9932646 C270.408918,69.9932646 270.562148,70.1464948 270.562148,70.3350859 C270.562148,70.523677 270.408918,70.6769072 270.220326,70.6769072" id="Fill-77" fill="#B7BAE5"></path>
                <path d="M249.489622,131.813247 C244.337887,131.813247 240.115636,130.290206 237.493883,127.457973 C234.694485,124.434622 233.533471,119.680275 234.307199,114.412354 C234.781203,111.1861 235.836134,108.479313 237.440842,106.366082 C239.052285,104.246117 241.382732,102.498282 244.368196,101.170567 C250.955412,98.2406701 258.57988,98.3433849 264.764656,101.445876 C267.53543,102.835893 269.27232,104.594674 269.926495,106.672543 C270.040155,107.032887 269.839777,107.416804 269.479433,107.529622 C269.119089,107.643282 268.736014,107.442904 268.622354,107.083402 C268.083522,105.370928 266.579845,103.885773 264.151735,102.667509 C258.328986,99.7468729 251.141478,99.6551031 244.923866,102.419983 C242.151409,103.65256 240.000292,105.258952 238.52945,107.193694 C237.065344,109.120017 236.099656,111.616323 235.660172,114.611048 C234.94622,119.467268 235.980103,123.811598 238.496615,126.52933 C241.994811,130.308729 247.786409,130.578144 250.927629,130.40555 C256.766375,130.082251 261.790979,128.042268 265.073643,124.662784 C268.912818,120.709107 269.988797,114.79543 267.576684,110.907423 C267.109416,110.1539 266.105,108.868282 264.627423,108.720945 C264.251924,108.683058 263.977457,108.347973 264.015344,107.972474 C264.052388,107.596976 264.39,107.325034 264.762973,107.360395 C266.290223,107.512784 267.702131,108.516357 268.73854,110.186735 C271.471426,114.592526 270.317148,121.225206 266.054485,125.615 C262.531031,129.24201 257.185653,131.428488 251.003402,131.771151 C250.49067,131.798935 249.985515,131.813247 249.489622,131.813247" id="Fill-78" fill="#FFFFFE"></path>
                <path d="M74.7187457,60.5477148 L72.2906357,64.7792268 L69.9113574,69.1008247 C68.3445361,71.9869416 66.8475945,74.8983162 65.4811512,77.8231615 C64.8008763,79.2897938 64.1534364,80.7496907 63.5624055,82.2171649 L63.4529553,82.4823711 L63.4175945,82.5455155 L63.3460309,82.661701 C63.2997251,82.7357904 63.2702577,82.807354 63.2315292,82.9033333 C63.1683849,83.0927663 63.1928007,83.4169072 63.3325601,83.8471306 C63.6002921,84.7202062 64.3908591,85.8601718 65.3599141,86.9209966 C66.3112887,87.9885567 67.5413402,89.0796907 68.6476289,90.0369588 L66.675,94.2406873 C65.672268,93.9552749 64.837921,93.6656529 63.9539003,93.2792096 C63.0791409,92.9104467 62.2304811,92.4650687 61.3835052,91.960756 C59.7106014,90.9277148 58.0301203,89.6513574 56.6384192,87.5600172 C55.961512,86.5143471 55.3814261,85.2186254 55.1541065,83.72 C55.0505498,82.974055 55.0135052,82.1927491 55.1094845,81.4316495 C55.1515808,81.0494158 55.2079897,80.6697079 55.3022852,80.3093643 L55.4403608,79.7621134 L55.5439175,79.4295533 C56.0852749,77.7078179 56.6459966,76.0046048 57.3026976,74.3620103 C58.5824227,71.057457 60.0237973,67.8640378 61.596512,64.7556529 C62.3820275,63.2006186 63.1970103,61.6641065 64.0549313,60.1511684 C64.9187457,58.6256014 65.7581443,57.1530756 66.7457216,55.6148797 L74.7187457,60.5477148" id="Fill-79" fill="#F0B1AD"></path>
                <path d="M66.5352405,89.5612715 L70.9587113,88.4112027 L71.2121306,95.5540893 C71.2121306,95.5540893 67.7526632,96.0685052 65.6326976,93.9510653 L66.5352405,89.5612715" id="Fill-80" fill="#F0B1AD"></path>
                <polyline id="Fill-81" fill="#F0B1AD" points="77.2276804 87.2072509 76.23 93.4779038 71.2121306 95.5540893 70.9587113 88.4112027 77.2276804 87.2072509"></polyline>
                <path d="M95.5260653,26.8901031 C95.6254124,27.3792612 95.9655498,27.7227663 96.2846392,27.6579381 C96.6045704,27.592268 96.7830584,27.1435223 96.6837113,26.6543643 C96.5843643,26.1660481 96.2442268,25.822543 95.9251375,25.8873711 C95.6052062,25.9521993 95.4267182,26.400945 95.5260653,26.8901031" id="Fill-82" fill="#132529"></path>
                <path d="M95.9200859,27.7320275 C95.9200859,27.7320275 97.6056186,30.3259966 99.1059278,31.4381787 C98.4046048,32.4215464 96.8588316,32.3508247 96.8588316,32.3508247 L95.9200859,27.7320275" id="Fill-83" fill="#E67C77"></path>
                <path d="M93.1846735,24.5394502 L92.9851375,24.4611512 C92.8664261,24.351701 92.8596907,24.1656357 92.9691409,24.0469244 C94.0695361,22.8564433 95.4039863,23.0677663 95.462079,23.0778694 C95.6212027,23.104811 95.7289691,23.2563574 95.7011856,23.4154811 C95.674244,23.5754467 95.5210137,23.6815292 95.3652577,23.6554296 C95.3206357,23.6486942 94.2774914,23.4954639 93.3993643,24.4451546 C93.3421134,24.507457 93.2629725,24.5394502 93.1846735,24.5394502" id="Fill-84" fill="#132529"></path>
                <path d="M81.5997938,33.7660997 C82.4871821,38.2914433 83.3720447,46.5818729 80.2064089,49.6010137 C80.2064089,49.6010137 81.4431959,54.1911856 89.8506529,54.1911856 C99.0958247,54.1911856 94.2690722,49.6018557 94.2690722,49.6018557 C89.2234192,48.3962199 89.3539175,44.6530241 90.2328866,41.1371478 L81.5997938,33.7660997" id="Fill-85" fill="#F0B1AD"></path>
                <path d="M78.3828007,50.4404124 C77.7067354,49.1834192 76.9624742,47.7445704 78.501512,47.2941409 C80.1954639,46.7982474 91.0764948,45.8780241 94.2732818,46.8091924 C93.290756,48.5561856 94.9535567,50.7039347 94.9535567,50.7039347 L78.3828007,50.4404124" id="Fill-86" fill="#132529"></path>
                <path d="M51.9985739,260.397835 L52.1711684,260.454244 C52.287354,260.509811 52.3597595,260.59232 52.3934364,260.704296 C52.4717354,260.967818 52.3740722,261.051168 52.342079,261.078952 C52.0095189,261.360997 50.7744158,261.100842 49.9047079,260.752285 C50.4948969,260.54433 51.4496392,260.279124 51.9985739,260.397835 Z M50.9924742,261.386254 C51.6129725,261.52012 52.2334708,261.555481 52.532354,261.30122 C52.6578007,261.194296 52.7840893,260.99055 52.6737973,260.620945 C52.6165464,260.427302 52.4894158,260.281649 52.297457,260.18988 C51.4614261,259.791649 49.5426804,260.573797 49.4610137,260.607474 L49.3709278,260.737973 L49.4534364,260.874364 C49.7464261,261.015808 50.3694502,261.251546 50.9924742,261.386254 L50.9924742,261.386254 Z" id="Fill-87" fill="#3769A4"></path>
                <path d="M51.2366323,258.699674 L51.3006186,258.717354 C51.4816323,258.780498 51.4791065,258.8689 51.4782646,258.906787 C51.4681615,259.321856 50.4805842,260.155361 49.7565292,260.492973 C49.937543,259.998763 50.3509278,259.023814 50.8804983,258.753557 C51.0017354,258.692096 51.1187629,258.673574 51.2366323,258.699674 Z M49.4862715,260.886151 L49.5578351,260.882784 C50.2574742,260.679038 51.7535739,259.616529 51.7712543,258.914364 C51.774622,258.787234 51.73,258.556546 51.3965979,258.440361 C51.1802234,258.36543 50.9621649,258.38311 50.7474742,258.49256 C49.9207045,258.914364 49.3987113,260.62768 49.3768213,260.700928 L49.4130241,260.845739 L49.4862715,260.886151 L49.4862715,260.886151 Z" id="Fill-88" fill="#3769A4"></path>
                <path d="M97.6384536,261.224605 C97.7411684,261.224605 97.8371478,261.234708 97.9213402,261.25744 C98.05689,261.294485 98.1503436,261.361838 98.2084364,261.462869 C98.3119931,261.644725 98.2741065,261.734811 98.2370619,261.78701 C97.9491237,262.186082 96.3856701,262.195344 95.2356014,262.032852 C95.8089519,261.739021 96.9152405,261.224605 97.6384536,261.224605 Z M96.6576117,262.423505 C97.4515464,262.423505 98.2176976,262.314897 98.4744845,261.957921 C98.5645704,261.833316 98.6352921,261.620309 98.4626976,261.317216 C98.3658763,261.14799 98.2092784,261.032646 97.9987973,260.974553 C96.9691237,260.695034 94.8079038,261.92677 94.716134,261.979811 L94.6445704,262.130515 L94.7599141,262.250069 C95.1547766,262.32921 95.9175601,262.423505 96.6576117,262.423505 L96.6576117,262.423505 Z" id="Fill-89" fill="#3769A4"></path>
                <path d="M96.29811,259.745344 L96.386512,259.750395 C96.6491924,259.776495 96.6668729,259.880893 96.6719244,259.91457 C96.7392784,260.334691 95.7348625,261.385412 94.972921,261.843419 C95.0529038,261.356787 95.272646,260.359948 95.7895876,259.93646 C95.9453436,259.808488 96.1120447,259.745344 96.29811,259.745344 Z M94.7893814,262.253436 L94.8491581,262.239966 C95.595945,261.90488 97.0743643,260.567062 96.9615464,259.868265 C96.9346048,259.704089 96.8184192,259.499502 96.4159794,259.458247 C96.1154124,259.427938 95.8434708,259.512973 95.6035223,259.709983 C94.816323,260.355739 94.649622,262.021907 94.6428866,262.092629 L94.7035052,262.225653 L94.7893814,262.253436 L94.7893814,262.253436 Z" id="Fill-90" fill="#3769A4"></path>
                <polyline id="Fill-91" fill="#F0B1AD" points="87.9874742 262.1061 94.1730928 262.1061 94.7885395 247.783282 88.6037629 247.783282 87.9874742 262.1061"></polyline>
                <polyline id="Fill-92" fill="#F0B1AD" points="42.5917526 259.242715 48.6367698 260.551907 54.7053608 247.210773 48.6603436 245.901581 42.5917526 259.242715"></polyline>
                <path d="M49.2176976,259.94488 L42.4258935,258.474038 C42.1792096,258.420997 41.9283162,258.546443 41.8222337,258.776289 L39.4648454,263.890979 C39.2198454,264.421392 39.5439863,265.043574 40.1173368,265.157234 C42.4966151,265.629553 43.678677,265.739845 46.6649828,266.386443 C48.5029038,266.784674 52.6502234,267.794983 55.1877835,268.344759 C57.6697766,268.881907 58.6001031,266.456323 57.61,266.00421 C53.1730584,263.976856 51.3191409,262.191976 50.1185567,260.529175 C49.9021821,260.22945 49.5788832,260.023179 49.2176976,259.94488" id="Fill-93" fill="#12142D"></path>
                <path d="M94.1318385,261.390464 L87.377921,261.390464 C87.1245017,261.390464 86.9056014,261.565584 86.8508763,261.81311 L85.629244,267.310034 C85.5029553,267.880017 85.9357045,268.420533 86.5191581,268.41043 C88.9556873,268.369175 92.4766151,268.226048 95.5386942,268.226048 C99.1193986,268.226048 102.211787,268.421375 106.411306,268.421375 C108.95055,268.421375 109.655241,265.854347 108.592732,265.621976 C103.754192,264.563677 99.8030412,264.450017 95.6220447,261.872045 C95.1674055,261.591684 94.6656186,261.390464 94.1318385,261.390464" id="Fill-94" fill="#12142D"></path>
                <path d="M69.1317354,50.9994502 C63.3350859,52.3288488 58.5554811,67.127354 58.5554811,67.127354 L70.1967698,76.0003952 C70.1967698,76.0003952 74.4686942,71.9717869 76.3706014,64.5687457 C78.3634364,56.8129381 75.0597251,49.6405842 69.1317354,50.9994502" id="Fill-95" fill="#3769A4"></path>
                <path d="M70.1967698,76.0003952 L70.1959278,75.9995533 C70.2380241,75.9599828 70.8745189,75.3487457 71.7509622,74.2003608 C71.7509622,74.2020447 71.7509622,74.2003608 71.7509622,74.2020447 C70.8458935,75.3883162 70.1967698,76.0003952 70.1967698,76.0003952 M69.7699141,75.6745704 L58.5554811,67.127354 C58.5554811,67.127354 63.3350859,52.3288488 69.1317354,50.9994502 C69.2992784,50.9615636 69.4626117,50.9295704 69.6251031,50.9051546 C69.3076976,50.9640893 69.1317354,50.9994502 69.1317354,50.9994502 C70.1976117,56.2033849 70.8795704,61.4452062 71.2980069,66.5178007 C70.2674914,69.3256186 69.8288488,72.6023883 69.6806701,75.6055326 L69.7699141,75.6745704" id="Fill-96" fill="#3960D7"></path>
                <path d="M70.1934021,76.0012371 L69.7699141,75.6745704 L70.1959278,75.9995533 C70.194244,76.0012371 70.1934021,76.0012371 70.1934021,76.0012371" id="Fill-97" fill="#B1B3AF"></path>
                <path d="M70.1959278,75.9995533 L69.7699141,75.6745704 L69.6806701,75.6055326 C69.8288488,72.6023883 70.2674914,69.3256186 71.2980069,66.5178007 C71.5143814,69.1328179 71.6600344,71.7048969 71.7509622,74.2003608 C70.8745189,75.3487457 70.2380241,75.9599828 70.1959278,75.9995533" id="Fill-98" fill="#3253B7"></path>
                <path d="M103.782818,51.3185395 C103.782818,51.3185395 110.365825,58.7535739 104.149055,104.778213 C94.181512,104.778213 75.917646,104.778213 71.0673196,104.778213 C70.8391581,99.6997251 74.0300515,74.9269416 69.1317354,50.9994502 C69.1317354,50.9994502 74.8029381,49.8620103 80.2064089,49.6010137 C84.4337113,49.397268 90.5528179,49.2625601 94.2690722,49.6018557 C99.1682302,50.0489175 103.782818,51.3185395 103.782818,51.3185395" id="Fill-99" fill="#3769A4"></path>
                <path d="M104.149055,104.778213 C94.181512,104.778213 75.917646,104.778213 71.0673196,104.778213 C71.0589003,104.597199 71.0555326,104.390928 71.0555326,104.161082 C71.0563746,100.784966 71.8797766,92.2225945 71.8797766,81.4122852 C71.8797766,79.1012027 71.842732,76.6890893 71.7509622,74.2003608 C71.6600344,71.7048969 71.5143814,69.1328179 71.2980069,66.5178007 C70.8795704,61.4452062 70.1976117,56.2033849 69.1317354,50.9994502 C69.1317354,50.9994502 74.8029381,49.8620103 80.2064089,49.6010137 C82.5705326,49.487354 85.5265292,49.3947423 88.3234021,49.3947423 C90.5267182,49.3947423 92.6315292,49.4519931 94.2690722,49.6018557 C97.957543,49.9386254 101.484364,50.7409794 103.002354,51.1173196 C102.784296,51.0878522 102.568763,51.0726976 102.35744,51.0726976 C98.4104983,51.0726976 95.7702234,56.1191924 94.683299,60.6740034 C94.5620619,61.1842096 94.504811,61.6935739 94.5039691,62.2004124 C94.4997595,65.5470619 96.9724914,68.7851031 99.7777835,71.380756 C101.268832,75.2384536 104.564966,79.0001718 106.52244,81.0191065 C106.613368,79.4396564 106.680722,77.9410309 106.728711,76.5198625 C106.729553,76.5207045 106.730395,76.5207045 106.731237,76.5215464 C106.491289,83.764622 105.738608,93.0106357 104.149055,104.778213" id="Fill-100" fill="#4169E2"></path>
                <path d="M106.52244,81.0191065 C104.564966,79.0001718 101.268832,75.2384536 99.7777835,71.380756 C102.374278,73.7836082 105.257027,75.6375258 106.728711,76.5198625 C106.680722,77.9410309 106.613368,79.4396564 106.52244,81.0191065" id="Fill-101" fill="#3253B7"></path>
                <polyline id="Fill-102" fill="#BEBFBB" points="88.2863574 255.170326 88.2838316 255.170326 88.5995533 247.786649 88.6037629 247.786649 88.2863574 255.170326"></polyline>
                <polyline id="Fill-103" fill="#CC908A" points="94.471134 255.170326 88.2863574 255.170326 88.6037629 247.786649 94.7876976 247.786649 94.471134 255.170326"></polyline>
                <polyline id="Fill-104" fill="#BEBFBB" points="45.5309107 252.782629 45.5258591 252.781787 46.1328866 251.449863 46.1362543 251.450704 45.5309107 252.782629"></polyline>
                <polyline id="Fill-105" fill="#CC908A" points="51.5734021 254.090979 45.5309107 252.782629 46.1362543 251.450704 52.1804296 252.759055 51.5734021 254.090979"></polyline>
                <path d="M79.0091924,29.1683505 C80.5987457,35.0971821 81.2276632,38.6484192 84.8866667,41.1135739 C90.3894845,44.8222509 97.2419072,40.566323 97.4565979,34.2813574 C97.6493986,28.6253093 95.0183849,19.8793986 88.6559622,18.683866 C82.3869931,17.5068557 77.4204811,23.238677 79.0091924,29.1683505" id="Fill-106" fill="#F0B1AD"></path>
                <path d="M81.7319759,38.8361684 C84.2526976,40.2792268 93.4439863,35.4575258 91.5563918,28.149622 C91.5563918,28.149622 95.0579553,23.9391581 94.6622509,19.2925773 C94.2665464,14.6468385 91.0773368,12.8754296 87.6843814,13.872268 C84.693866,14.7512371 84.7805842,16.3887801 84.7805842,16.3887801 C84.7805842,16.3887801 70.6463574,18.0524227 73.6638144,23.7985567 C67.9101031,30.0708935 78.5857045,37.036134 81.7319759,38.8361684" id="Fill-107" fill="#132529"></path>
                <path d="M74.0595189,24.2759278 C74.0595189,24.2759278 72.3756701,21.3620275 69.9197766,22.993677 C71.0774227,23.0105155 72.9717526,23.2083677 74.0595189,24.2759278" id="Fill-108" fill="#132529"></path>
                <path d="M94.2118213,22.3554983 C94.2118213,22.3554983 97.2924227,15.4020447 92.4900859,13.1633677 C94.1091065,15.4163574 94.9897595,19.0526289 94.2118213,22.3554983" id="Fill-109" fill="#132529"></path>
                <path d="M89.0979725,29.4167182 C89.5012543,30.9725945 90.5233505,32.3104124 91.5934364,33.1068729 C93.2031959,34.3049313 94.4054639,33.1262371 94.2909622,31.3043127 C94.1882474,29.6650859 93.2267698,27.0660653 91.4511512,26.5802749 C89.7016323,26.1012199 88.6365979,27.63689 89.0979725,29.4167182" id="Fill-110" fill="#F0B1AD"></path>
                <path d="M92.4134708,104.778213 C92.4134708,104.778213 85.3943471,152.045533 81.5408591,169.753729 C77.321134,189.145773 54.6935739,253.30378 54.6935739,253.30378 L43.622268,250.905979 C43.622268,250.905979 59.4445533,198.622474 62.9856873,171.511667 C65.705945,150.687509 71.0673196,104.778213 71.0673196,104.778213 L92.4134708,104.778213" id="Fill-111" fill="#171E48"></path>
                <polyline id="Fill-112" fill="#375DCE" points="57.3447938 249.60689 55.2812371 253.611082 42.8249656 250.914399 43.8748454 247.169519 57.3447938 249.60689"></polyline>
                <path d="M81.6966151,169.044828 C81.6966151,169.04146 81.6966151,169.037251 81.6957732,169.033883 C82.6159966,164.713969 83.7012371,158.836495 84.8226804,152.378935 C83.7012371,158.84323 82.6151546,164.72744 81.6966151,169.044828" id="Fill-113" fill="#90938F"></path>
                <path d="M81.6957732,169.033883 C80.7199828,153.463333 79.8637457,123.210464 87.9773711,121.619227 C88.1929038,121.577131 88.4000172,121.556082 88.6003952,121.556082 C89.0348282,121.556082 89.4355842,121.653746 89.8043471,121.838127 C88.3823368,130.969639 86.5595704,142.370137 84.8226804,152.378935 C83.7012371,158.836495 82.6159966,164.713969 81.6957732,169.033883" id="Fill-114" fill="#051317"></path>
                <path d="M104.149055,104.778213 C104.149055,104.778213 105.001082,151.022595 104.328385,169.884227 C103.628746,189.502749 96.7754811,253.739897 96.7754811,253.739897 L86.2985739,253.739897 C86.2985739,253.739897 85.9138144,190.648608 85.4473883,171.381168 C84.938866,150.376838 82.4029897,104.778213 82.4029897,104.778213 L104.149055,104.778213" id="Fill-115" fill="#171E48"></path>
                <path d="M161.092612,94.4536942 L139.779296,93.8837113 L139.983041,90.1725086 L160.403918,90.1725086 C160.730584,90.1725086 161.03957,90.2373368 161.317405,90.3552062 L161.092612,94.4536942 M160.440962,89.488866 L140.020086,89.488866 L140.478935,81.1378179 L152.545395,81.1378179 C153.767869,81.1378179 154.821959,80.1384536 154.889313,78.9168213 C154.956667,77.695189 154.011186,76.6949828 152.789553,76.6949828 L140.723093,76.6949828 L140.97146,72.1755326 L162.315928,72.1755326 L161.375498,89.3061684 C161.084192,89.4240378 160.768471,89.488866 160.440962,89.488866" id="Fill-116" fill="#999CC7"></path>
                <path d="M161.317405,90.3552062 C161.03957,90.2373368 160.730584,90.1725086 160.403918,90.1725086 L139.983041,90.1725086 L140.020086,89.488866 L160.440962,89.488866 C160.768471,89.488866 161.084192,89.4240378 161.375498,89.3061684 L161.317405,90.3552062" id="Fill-117" fill="#B7BAE5"></path>
                <path d="M152.545395,81.1378179 L140.478935,81.1378179 L140.723093,76.6949828 L152.789553,76.6949828 C154.011186,76.6949828 154.956667,77.695189 154.889313,78.9168213 C154.821959,80.1384536 153.767869,81.1378179 152.545395,81.1378179" id="Fill-118" fill="#12142D"></path>
                <path d="M151.096443,86.1430584 C143.972079,85.2640893 136.846031,84.3842784 129.719983,83.5053093 C131.447612,76.2656014 132.73323,68.975378 133.573471,61.6725258 C140.741615,62.5540206 147.908918,63.4363574 155.075378,64.3186942 C154.193883,71.6207045 152.866168,78.9084021 151.096443,86.1430584" id="Fill-119" fill="#B7BAE5"></path>
                <polyline id="Fill-120" fill="#375DCE" points="98.79189 249.566478 98.2008591 253.916701 85.4558076 253.916701 85.1106186 250.034588 98.79189 249.566478"></polyline>
                <path d="M106.833952,56.9602749 C107.783643,58.4412199 108.868883,60.1048625 109.950756,61.6413746 C111.054519,63.1913574 112.156598,64.7404983 113.317612,66.2298625 C115.618591,69.2119588 118.058488,72.0778694 120.686134,74.454622 C121.337784,75.0565979 122.003746,75.6139519 122.675601,76.1283677 L123.181598,76.5089175 C123.135292,76.4819759 122.975326,76.4280928 122.885241,76.4070447 C122.665498,76.3649485 122.558574,76.4028351 122.617509,76.4331443 C122.745481,76.4996564 123.360086,76.3935739 124.003316,76.1148969 C124.655808,75.8379038 125.397543,75.4624055 126.132543,75.0094502 C129.093591,73.174055 132.152302,70.6103952 135.02579,68.118299 L138.63933,71.035567 C136.397285,74.6465808 133.931289,77.9124055 130.542543,80.913866 C129.681254,81.6539175 128.759347,82.3889175 127.648849,83.0439347 C126.532457,83.6871649 125.263677,84.3472337 123.40134,84.6208591 C122.471014,84.7420962 121.344519,84.7185223 120.181821,84.3480756 C119.613522,84.1805326 119.014072,83.8799656 118.545962,83.5928694 L117.816014,83.1306529 C116.85201,82.505945 115.935155,81.8484021 115.063763,81.1622337 C111.582405,78.4040893 108.676082,75.2940206 105.996237,72.0593471 C104.676942,70.4276976 103.397216,68.7766838 102.212629,67.0625258 C101.012045,65.3298454 99.8855498,63.6720962 98.77,61.7424055 L106.833952,56.9602749" id="Fill-121" fill="#F0B1AD"></path>
                <path d="M94.683299,60.6740034 C92.7056186,68.9661168 107.709553,77.0864777 107.709553,77.0864777 L117.454828,65.668299 C117.454828,65.668299 113.017887,58.9446907 107.49823,53.6473024 C100.680326,47.103866 96.1895017,54.3612543 94.683299,60.6740034" id="Fill-122" fill="#3769A4"></path>
                <path d="M107.709553,77.0864777 C107.709553,77.0864777 107.341632,76.8877835 106.728711,76.5198625 C105.257027,75.6375258 102.374278,73.7836082 99.7777835,71.380756 C96.9724914,68.7851031 94.4997595,65.5470619 94.5039637,62.2004124 C94.504811,61.6935739 94.5620619,61.1842096 94.683299,60.6740034 C95.7702234,56.1191924 98.4104983,51.0726976 102.35744,51.0726976 C103.881323,51.0726976 105.599691,51.825378 107.49823,53.6473024 C113.017887,58.9446907 117.454828,65.668299 117.454828,65.668299 L107.709553,77.0864777" id="Fill-123" fill="#3960D7"></path>
                <path d="M134.044948,69.8434021 L136.344244,62.4571993 L142.39768,65.4738144 C142.39768,65.4738144 141.515344,70.8629725 137.109553,71.7966667 L134.044948,69.8434021" id="Fill-124" fill="#F0B1AD"></path>
                <polyline id="Fill-125" fill="#F0B1AD" points="138.772354 60.4096392 144.231392 61.9124742 142.39768 65.4738144 136.344244 62.4571993 138.772354 60.4096392"></polyline>
            </g>
        </g>
    </g>
</svg>