<?xml version="1.0" encoding="UTF-8"?>
<svg width="350px" height="295px" viewBox="0 0 350 295" version="1.1" xmlns="http://www.w3.org/2000/svg" xmlns:xlink="http://www.w3.org/1999/xlink">
    <title>3661726</title>
    <defs>
        <polygon id="path-1" points="0.0974731183 0.0281003584 340.619373 0.0281003584 340.619373 70.1982079 0.0974731183 70.1982079"></polygon>
    </defs>
    <g id="Page-1" stroke="none" stroke-width="1" fill="none" fill-rule="evenodd">
        <g id="Mobile-Copy-5" transform="translate(-32.000000, -150.000000)">
            <g id="3661726" transform="translate(32.000000, 150.000000)">
                <polygon id="Fill-4" fill="#E4E4DE" points="320.827437 268.440269 349.913065 268.440269 349.913065 268.220735 320.827437 268.220735"></polygon>
                <polygon id="Fill-5" fill="#E4E4DE" points="247.592634 268.440269 309.769946 268.440269 309.769946 268.220735 247.592634 268.220735"></polygon>
                <polygon id="Fill-6" fill="#E4E4DE" points="196.449982 260.285018 213.303172 260.285018 213.303172 260.065484 196.449982 260.065484"></polygon>
                <polygon id="Fill-7" fill="#E4E4DE" points="0.904856631 261.761165 31.016147 261.761165 31.016147 261.541631 0.904856631 261.541631"></polygon>
                <polygon id="Fill-8" fill="#E4E4DE" points="38.8341935 261.761165 93.5842294 261.761165 93.5842294 261.541631 38.8341935 261.541631"></polygon>
                <polygon id="Fill-14" fill="#F1F0EC" points="9.3288172 191.407509 94.239319 191.407509 94.239319 17.2103405 9.3288172 17.2103405"></polygon>
                <polygon id="Fill-15" fill="#E4E4DE" points="94.239319 191.407509 95.0990143 191.407509 95.0990143 17.2103405 94.239319 17.2103405"></polygon>
                <polygon id="Fill-16" fill="#FFFFFE" points="17.5227061 182.473351 86.0454301 182.473351 86.0454301 26.1436201 17.5227061 26.1436201"></polygon>
                <polygon id="Fill-17" fill="#DDDED8" points="130.624892 155.836434 330.921613 155.836434 330.921613 7.01781362 130.624892 7.01781362"></polygon>
                <polygon id="Fill-18" fill="#F1F0EC" points="127.525072 155.836434 327.821792 155.836434 327.821792 7.01781362 127.525072 7.01781362"></polygon>
                <polygon id="Fill-19" fill="#FFFFFE" points="133.089821 149.584982 322.257921 149.584982 322.257921 13.2683871 133.089821 13.2683871"></polygon>
                <polygon id="Fill-20" fill="#DDDED8" points="133.089821 149.584982 135.432688 149.584982 135.432688 13.2683871 133.089821 13.2683871"></polygon>
                <polygon id="Fill-21" fill="#F1F0EC" points="129.826667 142.074516 325.520197 142.074516 325.520197 112.074516 129.826667 112.074516"></polygon>
                <polyline id="Fill-22" fill="#F1F0EC" points="127.525072 48.2700179 121.314014 48.2700179 121.314014 0.441451613 140.224677 0.441451613 140.224677 7.01781362 127.525072 7.01781362 127.525072 48.2700179"></polyline>
                <polyline id="Fill-23" fill="#E9E9E4" points="133.089821 48.2700179 127.525072 48.2700179 127.525072 7.01781362 140.224677 7.01781362 140.224677 13.2683871 133.089821 13.2683871 133.089821 48.2700179"></polyline>
                <polyline id="Fill-24" fill="#F1F0EC" points="140.224677 48.2700179 135.432688 48.2700179 135.432688 13.2683871 133.089821 13.2683871 133.089821 48.2700179 133.089821 13.2683871 140.224677 13.2683871 140.224677 48.2700179"></polyline>
                <polygon id="Fill-25" fill="#DDDED8" points="133.089821 48.2691398 135.432688 48.2691398 135.432688 13.2683871 133.089821 13.2683871"></polygon>
                <polygon id="Fill-26" fill="#FCFAF8" points="140.224677 30.4414516 149.598781 30.4414516 149.598781 0.441451613 140.224677 0.441451613"></polygon>
                <polygon id="Fill-27" fill="#F1F0EC" points="140.224677 37.0178136 149.598781 37.0178136 149.598781 7.01781362 140.224677 7.01781362"></polygon>
                <polygon id="Fill-28" fill="#FCFAF8" points="140.224677 44.4255376 149.598781 44.4255376 149.598781 13.2683871 140.224677 13.2683871"></polygon>
                <path d="M167.980806,30.4414516 L168.509444,30.4414516 L168.509444,0.441451613 L167.980806,0.441451613 L167.980806,30.4414516 Z M149.598781,30.4414516 L167.761272,30.4414516 L167.761272,0.441451613 L149.598781,0.441451613 L149.598781,30.4414516 Z" id="Fill-29" fill="#F1F0EC"></path>
                <polygon id="Fill-30" fill="#E0E1DC" points="167.761272 30.4414516 167.980806 30.4414516 167.980806 0.441451613 167.761272 0.441451613"></polygon>
                <polygon id="Fill-31" fill="#E9E9E4" points="149.598781 37.0178136 168.509444 37.0178136 168.509444 7.01781362 149.598781 7.01781362"></polygon>
                <polygon id="Fill-32" fill="#F1F0EC" points="149.598781 48.2691398 168.509444 48.2691398 168.509444 13.2683871 149.598781 13.2683871"></polygon>
                <polygon id="Fill-33" fill="#FCFAF8" points="168.509444 30.4414516 177.883548 30.4414516 177.883548 0.441451613 168.509444 0.441451613"></polygon>
                <polygon id="Fill-34" fill="#F1F0EC" points="168.509444 37.0178136 177.883548 37.0178136 177.883548 7.01781362 168.509444 7.01781362"></polygon>
                <polygon id="Fill-35" fill="#FCFAF8" points="168.509444 44.4255376 177.883548 44.4255376 177.883548 13.2683871 168.509444 13.2683871"></polygon>
                <path d="M178.548297,30.4414516 L196.794211,30.4414516 L196.794211,0.441451613 L178.548297,0.441451613 L178.548297,30.4414516 Z M177.883548,30.4414516 L178.328763,30.4414516 L178.328763,0.441451613 L177.883548,0.441451613 L177.883548,30.4414516 Z" id="Fill-36" fill="#F1F0EC"></path>
                <polygon id="Fill-37" fill="#E0E1DC" points="178.328763 30.4414516 178.548297 30.4414516 178.548297 0.441451613 178.328763 0.441451613"></polygon>
                <polygon id="Fill-38" fill="#E9E9E4" points="177.883548 37.0178136 196.794211 37.0178136 196.794211 7.01781362 177.883548 7.01781362"></polygon>
                <polygon id="Fill-39" fill="#F1F0EC" points="177.883548 48.2691398 196.794211 48.2691398 196.794211 13.2683871 177.883548 13.2683871"></polygon>
                <polygon id="Fill-40" fill="#FCFAF8" points="196.794211 30.4414516 206.168315 30.4414516 206.168315 0.441451613 196.794211 0.441451613"></polygon>
                <polygon id="Fill-41" fill="#F1F0EC" points="196.794211 37.0178136 206.168315 37.0178136 206.168315 7.01781362 196.794211 7.01781362"></polygon>
                <polygon id="Fill-42" fill="#FCFAF8" points="196.794211 44.4255376 206.168315 44.4255376 206.168315 13.2683871 196.794211 13.2683871"></polygon>
                <polygon id="Fill-43" fill="#F1F0EC" points="206.168315 30.4414516 225.078978 30.4414516 225.078978 0.441451613 206.168315 0.441451613"></polygon>
                <polygon id="Fill-44" fill="#E9E9E4" points="206.168315 37.0178136 225.078978 37.0178136 225.078978 7.01781362 206.168315 7.01781362"></polygon>
                <polygon id="Fill-45" fill="#F1F0EC" points="206.168315 48.2691398 225.078978 48.2691398 225.078978 13.2683871 206.168315 13.2683871"></polygon>
                <polygon id="Fill-46" fill="#FCFAF8" points="225.078978 30.4414516 234.453082 30.4414516 234.453082 0.441451613 225.078978 0.441451613"></polygon>
                <polygon id="Fill-47" fill="#F1F0EC" points="225.078978 37.0178136 234.453082 37.0178136 234.453082 7.01781362 225.078978 7.01781362"></polygon>
                <polygon id="Fill-48" fill="#FCFAF8" points="225.078978 44.4255376 234.453082 44.4255376 234.453082 13.2683871 225.078978 13.2683871"></polygon>
                <polygon id="Fill-49" fill="#F1F0EC" points="234.453082 30.4414516 253.362867 30.4414516 253.362867 0.441451613 234.453082 0.441451613"></polygon>
                <polygon id="Fill-50" fill="#E9E9E4" points="234.453082 37.0178136 253.362867 37.0178136 253.362867 7.01781362 234.453082 7.01781362"></polygon>
                <polygon id="Fill-51" fill="#F1F0EC" points="234.453082 48.2691398 253.362867 48.2691398 253.362867 13.2683871 234.453082 13.2683871"></polygon>
                <polygon id="Fill-52" fill="#FCFAF8" points="253.362867 30.4414516 262.737849 30.4414516 262.737849 0.441451613 253.362867 0.441451613"></polygon>
                <polygon id="Fill-53" fill="#F1F0EC" points="253.362867 37.0178136 262.737849 37.0178136 262.737849 7.01781362 253.362867 7.01781362"></polygon>
                <polygon id="Fill-54" fill="#FCFAF8" points="253.362867 44.4255376 262.737849 44.4255376 262.737849 13.2683871 253.362867 13.2683871"></polygon>
                <polygon id="Fill-55" fill="#F1F0EC" points="262.737849 30.4414516 281.647634 30.4414516 281.647634 0.441451613 262.737849 0.441451613"></polygon>
                <polygon id="Fill-56" fill="#E9E9E4" points="262.737849 37.0178136 281.647634 37.0178136 281.647634 7.01781362 262.737849 7.01781362"></polygon>
                <polygon id="Fill-57" fill="#F1F0EC" points="262.737849 48.2691398 281.647634 48.2691398 281.647634 13.2683871 262.737849 13.2683871"></polygon>
                <polygon id="Fill-58" fill="#FCFAF8" points="281.647634 30.4414516 291.021738 30.4414516 291.021738 0.441451613 281.647634 0.441451613"></polygon>
                <polygon id="Fill-59" fill="#F1F0EC" points="281.647634 37.0178136 291.021738 37.0178136 291.021738 7.01781362 281.647634 7.01781362"></polygon>
                <polygon id="Fill-60" fill="#FCFAF8" points="281.647634 44.4255376 291.021738 44.4255376 291.021738 13.2683871 281.647634 13.2683871"></polygon>
                <polygon id="Fill-61" fill="#F1F0EC" points="291.021738 30.4414516 309.932401 30.4414516 309.932401 0.441451613 291.021738 0.441451613"></polygon>
                <polygon id="Fill-62" fill="#E9E9E4" points="291.021738 37.0178136 309.932401 37.0178136 309.932401 7.01781362 291.021738 7.01781362"></polygon>
                <polygon id="Fill-63" fill="#F1F0EC" points="291.021738 48.2691398 309.932401 48.2691398 309.932401 13.2683871 291.021738 13.2683871"></polygon>
                <polygon id="Fill-64" fill="#FCFAF8" points="309.932401 30.4414516 319.306505 30.4414516 319.306505 0.441451613 309.932401 0.441451613"></polygon>
                <polygon id="Fill-65" fill="#F1F0EC" points="309.932401 37.0178136 319.306505 37.0178136 319.306505 7.01781362 309.932401 7.01781362"></polygon>
                <polygon id="Fill-66" fill="#FCFAF8" points="309.932401 44.4255376 319.306505 44.4255376 319.306505 13.2683871 309.932401 13.2683871"></polygon>
                <polyline id="Fill-67" fill="#F1F0EC" points="338.217168 48.2700179 330.921613 48.2700179 330.921613 7.01781362 319.306505 7.01781362 319.306505 0.441451613 338.217168 0.441451613 338.217168 48.2700179"></polyline>
                <polyline id="Fill-68" fill="#DDDED8" points="330.921613 48.2700179 327.821792 48.2700179 327.821792 7.01781362 319.306505 7.01781362 330.921613 7.01781362 330.921613 48.2700179"></polyline>
                <polyline id="Fill-69" fill="#E9E9E4" points="327.821792 48.2700179 322.257921 48.2700179 322.257921 13.2683871 319.306505 13.2683871 319.306505 7.01781362 327.821792 7.01781362 327.821792 48.2700179"></polyline>
                <polygon id="Fill-70" fill="#F1F0EC" points="319.306505 48.2691398 322.257921 48.2691398 322.257921 13.2683871 319.306505 13.2683871"></polygon>
                <polygon id="Fill-71" fill="#DDDED8" points="133.73086 254.086254 157.166559 254.086254 157.166559 166.800394 133.73086 166.800394"></polygon>
                <polyline id="Fill-72" fill="#EAEAE5" points="137.631541 254.086254 133.73086 254.086254 133.73086 246.231326 141.721022 246.231326 137.631541 254.086254"></polyline>
                <polygon id="Fill-73" fill="#DDDED8" points="302.363746 254.086254 325.800323 254.086254 325.800323 166.800394 302.363746 166.800394"></polygon>
                <polygon id="Fill-74" fill="#EAEAE5" points="133.73086 251.069857 305.76828 251.069857 305.76828 166.800394 133.73086 166.800394"></polygon>
                <polygon id="Fill-75" fill="#DDDED8" points="136.756918 193.645896 302.7431 193.645896 302.7431 170.535108 136.756918 170.535108"></polygon>
                <path d="M178.744122,177.717384 L260.755018,177.717384 C264.559982,177.717384 268.1981,174.866075 270.815824,169.832599 L168.683315,169.832599 C171.300161,174.866075 174.939158,177.717384 178.744122,177.717384" id="Fill-76" fill="#EAEAE5"></path>
                <polyline id="Fill-77" fill="#EAEAE5" points="301.867599 254.086254 305.76828 254.086254 305.76828 246.231326 297.778996 246.231326 301.867599 254.086254"></polyline>
                <polygon id="Fill-78" fill="#DDDED8" points="136.756918 220.49052 302.7431 220.49052 302.7431 197.380609 136.756918 197.380609"></polygon>
                <path d="M178.744122,204.562007 L260.755018,204.562007 C264.559982,204.562007 268.1981,201.710699 270.815824,196.6781 L168.683315,196.6781 C171.300161,201.710699 174.939158,204.562007 178.744122,204.562007" id="Fill-79" fill="#EAEAE5"></path>
                <polygon id="Fill-80" fill="#DDDED8" points="136.756918 247.335143 302.7431 247.335143 302.7431 224.225233 136.756918 224.225233"></polygon>
                <g id="Group-84" transform="translate(4.014337, 223.494624)">
                    <mask id="mask-2" fill="white">
                        <use xlink:href="#path-1"></use>
                    </mask>
                    <g id="Clip-82"></g>
                    <path d="M174.729785,7.9128853 L256.740681,7.9128853 C260.545645,7.9128853 264.183763,5.06157706 266.801487,0.0281003584 L164.668978,0.0281003584 C167.285824,5.06157706 170.924821,7.9128853 174.729785,7.9128853" id="Fill-81" fill="#EAEAE5" mask="url(#mask-2)"></path>
                    <path d="M340.619373,60.3077599 C340.619373,65.7996237 264.391882,70.2508961 170.358423,70.2508961 C76.3258423,70.2508961 0.0974731183,65.7996237 0.0974731183,60.3077599 C0.0974731183,54.8158961 76.3258423,50.3637455 170.358423,50.3637455 C264.391882,50.3637455 340.619373,54.8158961 340.619373,60.3077599" id="Fill-83" fill="#F1F0EC" mask="url(#mask-2)"></path>
                </g>
                <path d="M279.644606,278.793495 L278.704122,278.793495 C278.336183,278.793495 278.02181,278.470341 277.958584,278.028638 L272.176057,237.785412 L276.566738,237.785412 L280.39629,277.762563 C280.448978,278.311398 280.096846,278.793495 279.644606,278.793495" id="Fill-85" fill="#3769A4"></path>
                <path d="M279.644606,278.793495 L278.704122,278.793495 C278.336183,278.793495 278.02181,278.470341 277.958584,278.028638 L272.176057,237.785412 L276.566738,237.78629 L280.39629,277.762563 C280.399803,277.798566 280.401559,277.83457 280.401559,277.870573 C280.401559,278.372867 280.066989,278.793495 279.644606,278.793495" id="Fill-86" fill="#2C4283"></path>
                <path d="M291.691756,278.793495 L290.750394,278.793495 C290.383333,278.793495 290.068961,278.470341 290.005735,278.028638 L284.223208,237.785412 L288.613889,237.785412 L292.443441,277.762563 C292.496129,278.311398 292.144875,278.793495 291.691756,278.793495" id="Fill-87" fill="#3769A4"></path>
                <path d="M291.691756,278.793495 L290.750394,278.793495 C290.383333,278.793495 290.068961,278.470341 290.005735,278.028638 L284.223208,237.785412 L288.613889,237.785412 L292.443441,277.762563 C292.446953,277.798566 292.44871,277.83457 292.44871,277.870573 C292.44871,278.372867 292.11414,278.793495 291.691756,278.793495" id="Fill-88" fill="#2C4283"></path>
                <path d="M224.565269,278.793495 L225.506631,278.793495 C225.873692,278.793495 226.188065,278.470341 226.252168,278.028638 L232.034695,237.785412 L227.644014,237.785412 L223.814462,277.762563 C223.761774,278.311398 224.113029,278.793495 224.565269,278.793495" id="Fill-89" fill="#3769A4"></path>
                <path d="M225.506631,278.793495 L224.565269,278.793495 C224.142885,278.793495 223.808315,278.372867 223.809192,277.870573 C223.809192,277.83457 223.81095,277.798566 223.814462,277.762563 L226.10991,253.799982 C227.012634,256.545036 227.870573,259.0969 228.64509,261.372151 L226.252168,278.028638 C226.188065,278.470341 225.873692,278.793495 225.506631,278.793495" id="Fill-90" fill="#2C4283"></path>
                <path d="M212.518118,278.793495 L213.45948,278.793495 C213.826541,278.793495 214.140914,278.470341 214.20414,278.028638 L219.986667,237.785412 L215.595986,237.785412 L211.766434,277.762563 C211.714624,278.311398 212.065878,278.793495 212.518118,278.793495" id="Fill-91" fill="#3769A4"></path>
                <polyline id="Fill-92" fill="#90938F" points="218.615018 247.335143 218.615018 247.335143 219.986667 237.785412 219.986667 237.78629 218.615018 247.335143"></polyline>
                <path d="M213.45948,278.793495 L212.518118,278.793495 C212.095735,278.793495 211.761165,278.372867 211.762041,277.870573 C211.762041,277.83457 211.762921,277.798566 211.766434,277.762563 L215.595986,237.785412 L219.986667,237.78629 L214.20414,278.028638 C214.140914,278.470341 213.826541,278.793495 213.45948,278.793495" id="Fill-93" fill="#2C4283"></path>
                <path d="M196.905735,190.082419 L226.481362,190.082419 C231.729104,171.859337 250.60991,157.483369 269.945591,157.483369 L279.552401,157.483369 C299.791685,157.483369 312.853961,173.231864 308.72672,192.658871 C307.968889,196.224104 306.679785,199.664642 304.963029,202.909355 L300.298369,231.180072 C299.696846,234.827849 296.785824,237.785412 293.796649,237.785412 L204.77647,237.78629 C201.786416,237.78629 198.875394,234.827849 198.273871,231.180072 L192.583548,196.688638 C191.981147,193.039982 193.916559,190.082419 196.905735,190.082419" id="Fill-94" fill="#3769A4"></path>
                <polyline id="Fill-95" fill="#7B9DC5" points="272.176057 237.785412 272.176057 237.785412 276.566738 237.78629 276.566738 237.785412 272.176057 237.78629"></polyline>
                <line x1="284.223208" y1="237.785412" x2="288.613889" y2="237.785412" id="Fill-96" fill="#7B9DC5"></line>
                <polyline id="Fill-97" fill="#7B9DC5" points="215.595986 237.785412 215.595986 237.785412 219.986667 237.78629 219.986667 237.785412 215.595986 237.78629"></polyline>
                <path d="M206.096308,237.78629 C208.73862,226.567222 210.963817,214.898548 211.157007,206.810914 C211.812975,206.647581 212.521631,206.500054 213.275072,206.366577 C214.61862,215.060125 217.726344,226.706846 221.056237,237.78629 L206.096308,237.78629 M235.769409,237.78629 C233.980645,225.769875 232.167294,213.210771 231.112652,204.863208 C232.386828,204.791201 233.668907,204.715681 234.950108,204.633136 C237.850591,204.691093 241.220878,204.778907 244.751864,204.778907 C245.149659,204.778907 245.549211,204.778029 245.95052,204.775394 L246.206935,206.33233 L248.302168,237.78629 L235.769409,237.78629 M252.285394,237.78629 L252.175627,235.309068 C253.416434,236.819462 255.099821,237.785412 256.808674,237.785412 L263.233996,237.785412 L263.233996,237.78629 L252.285394,237.78629 M267.217222,237.78629 L267.217222,237.785412 L288.884355,237.785412 L294.529014,190.082419 L276.33491,190.082419 C277.342133,183.700125 276.297151,178.592885 276.297151,178.592885 C276.213728,171.394803 276.618548,164.373226 277.311398,157.483369 L279.552401,157.483369 C297.261774,157.483369 309.475771,169.540179 309.488074,185.569677 C309.489821,187.858978 309.242186,190.229946 308.72672,192.658871 C307.968889,196.224104 306.679785,199.664642 304.963029,202.909355 L300.298369,231.180072 C299.696846,234.827849 296.785824,237.785412 293.796649,237.785412 L284.223208,237.785412 L276.566738,237.78629 L267.217222,237.78629 M193.645215,203.122742 L192.583548,196.688638 C192.508907,196.239032 192.473781,195.800842 192.473781,195.377581 C192.473781,192.356792 194.284498,190.082419 196.905735,190.082419 L197.38871,190.082419 C195.296989,192.190824 194.003495,194.683853 193.887581,197.635269 C193.819086,199.394176 193.737419,201.228602 193.645215,203.122742 M231.474444,179.200556 C233.104265,176.668889 235.001918,174.287384 237.115591,172.094677 L240.693118,172.094677 C240.906505,174.195179 241.15414,176.361541 241.437778,178.592885 C241.30957,178.594642 237.213943,178.652599 231.474444,179.200556 M240.476219,169.858065 L239.418943,169.858065 C239.742097,169.564767 240.067007,169.276738 240.398065,168.991344 C240.42353,169.278495 240.449875,169.56828 240.476219,169.858065" id="Fill-98" fill="#86A4FD"></path>
                <path d="M189.50129,268.380556 L196.826703,271.742061 C197.093656,271.865 197.20957,272.141613 197.10595,272.409444 L194.800842,278.368477 C194.561989,278.985806 193.736541,279.296667 193.127993,279.004247 C190.598082,277.789785 189.447724,277.080251 186.22672,275.602348 C184.244767,274.692599 178.818763,271.652491 176.374032,269.893584 C173.983746,268.174194 175.738262,265.768978 176.932527,266.294104 C182.283011,268.655412 185.690179,268.867043 188.194624,268.26552 C188.645986,268.157509 189.111398,268.201416 189.50129,268.380556" id="Fill-99" fill="#12142D"></path>
                <path d="M241.44129,178.592885 C241.44129,178.592885 194.611165,179.174211 193.887581,197.635269 C192.847867,224.169032 188.929624,268.223369 188.929624,268.223369 L196.826703,271.742061 C196.826703,271.742061 210.663495,227.533172 211.157007,206.810914 C224.295681,203.537222 258.196129,206.837258 262.179355,196.037939 C265.438118,187.203889 263.675699,178.592885 263.675699,178.592885 L241.44129,178.592885" id="Fill-100" fill="#3769A4"></path>
                <path d="M196.826703,271.742061 L188.929624,268.223369 C188.929624,268.223369 192.847867,224.169032 193.887581,197.635269 C194.607652,179.261147 241.002222,178.599032 241.437778,178.592885 C241.451828,178.702652 241.465878,178.812419 241.479928,178.922186 L244.379534,178.894964 L244.449785,179.949606 C231.98552,182.2231 211.908692,187.873907 212.63052,200.624444 C212.727993,202.331541 212.949283,204.263441 213.275072,206.366577 C212.521631,206.500054 211.812975,206.647581 211.157007,206.810914 C210.963817,214.898548 208.73862,226.567222 206.096308,237.78629 C205.329695,241.040663 204.529713,244.254642 203.732366,247.335143 C203.403943,248.605806 203.07552,249.85276 202.751487,251.069857 C202.477509,252.098154 202.206165,253.105376 201.938333,254.086254 C201.919014,254.15914 201.898817,254.232903 201.87862,254.305789 C201.321004,256.350968 200.78095,258.284624 200.276022,260.065484 C200.254946,260.139247 200.234749,260.212133 200.213674,260.285018 C198.256308,267.173996 196.826703,271.742061 196.826703,271.742061 M231.112652,204.863208 C231.101237,204.769247 231.088943,204.677043 231.077527,204.583961 C232.233154,204.583961 233.536308,204.605036 234.950108,204.633136 C233.668907,204.715681 232.386828,204.791201 231.112652,204.863208 M249.679964,179.110108 L249.668548,178.84491 L251.893746,178.823835 C251.268513,178.898477 250.523853,178.992437 249.679964,179.110108" id="Fill-101" fill="#4169E2"></path>
                <path d="M251.408136,130.025806 C251.000681,131.730269 250.589713,133.267885 250.118154,134.861703 C249.656254,136.440591 249.17328,138.011577 248.666595,139.578172 C247.638297,142.706093 246.50638,145.812939 245.198835,148.888172 C243.901828,151.966918 242.452025,155.020197 240.685215,158.031326 C239.793029,159.535573 238.841129,161.042455 237.710968,162.513333 C236.581685,163.983333 235.303118,165.448943 233.631147,166.822348 L233.501183,166.92948 C233.409857,167.004122 233.312384,167.075251 233.215789,167.139355 C232.099677,167.874355 231.059964,168.100036 230.269642,168.196631 C229.464391,168.286201 228.811935,168.249729 228.270125,168.182581 C227.159283,168.045591 226.344373,167.795323 225.580394,167.530125 C224.076147,166.995341 222.842366,166.379767 221.650735,165.743118 C219.285914,164.470699 217.188047,163.046362 215.128817,161.600072 C213.087151,160.132706 211.121882,158.612652 209.211935,157.033763 C207.315161,155.427652 205.455269,153.842616 203.644552,152.096004 C202.578495,151.067706 202.546882,149.371147 203.575179,148.30509 C204.436631,147.411147 205.767885,147.245179 206.804086,147.818602 L206.847115,147.844068 C208.919516,148.991792 211.011237,150.210645 213.107348,151.342563 C215.195556,152.49819 217.278495,153.640645 219.362312,154.709337 C221.431201,155.791201 223.531703,156.796667 225.533853,157.622115 C226.526147,158.028692 227.521075,158.37819 228.331595,158.559964 C228.725,158.647778 229.090305,158.693441 229.186022,158.673244 C229.245735,158.673244 229.202706,158.63724 228.9981,158.652168 C228.80491,158.672366 228.364964,158.727688 227.752025,159.119337 L227.336667,159.436344 C228.083961,158.731201 228.877796,157.745932 229.611039,156.635968 C230.343405,155.522491 231.06172,154.311541 231.72647,153.038244 C233.051577,150.477599 234.236183,147.716738 235.331219,144.89353 C236.412204,142.062419 237.424695,139.165448 238.361667,136.234229 C239.315323,133.331989 240.182921,130.284857 240.975,127.44233 L241.004857,127.335197 C241.801326,124.475986 244.764158,122.804892 247.623369,123.600484 C250.414964,124.378513 252.072007,127.231577 251.408136,130.025806" id="Fill-102" fill="#12142D"></path>
                <path d="M232.425466,272.192545 L241.211219,272.192545 C241.53086,272.192545 241.77147,272.413835 241.790789,272.725573 L242.216685,279.6769 C242.26147,280.398728 241.584427,281.081039 240.848548,281.067867 C237.789122,281.016057 236.327903,280.836039 232.464104,280.836039 C230.086989,280.836039 225.293244,281.082796 222.010771,281.082796 C218.800305,281.082796 218.82138,277.837204 220.213226,277.543029 C226.450627,276.224946 228.869892,274.406326 231.078405,272.672885 C231.476201,272.360269 231.957419,272.192545 232.425466,272.192545" id="Fill-103" fill="#12142D"></path>
                <path d="M254.06362,178.592885 C254.06362,178.592885 211.585538,182.180072 212.63052,200.624444 C213.775609,220.823333 232.425466,272.192545 232.425466,272.192545 L241.015394,272.192545 C241.015394,272.192545 233.66276,225.14991 231.077527,204.583961 C243.050036,204.583961 270.817581,206.837258 274.800806,196.037939 C278.05957,187.203889 276.297151,178.592885 276.297151,178.592885 L254.06362,178.592885" id="Fill-104" fill="#4E74E8"></path>
                <path d="M207.459176,148.711667 C207.459176,148.711667 206.237688,146.729713 205.070645,145.780448 C203.332814,147.408513 202.356326,152.159229 202.356326,152.159229 L204.758907,152.376129 C204.758907,152.376129 207.51362,151.479552 207.459176,148.711667" id="Fill-105" fill="#4169E2"></path>
                <path d="M198.643566,144.443047 L195.912563,143.256685 C195.178441,142.938799 194.323136,143.2119 193.909534,143.895968 L192.616039,146.039498 C192.242832,146.657706 192.330645,147.448029 192.830305,147.969642 L196.579946,151.881738 L202.834032,151.628835 C203.553226,151.599857 204.200412,151.185376 204.527957,150.545215 L205.250663,149.13405 C205.702903,148.250645 205.455269,147.144194 204.628065,146.597115 C202.59957,145.255323 198.643566,144.443047 198.643566,144.443047" id="Fill-106" fill="#F0B1AD"></path>
                <path d="M241.044373,128.221237 C239.790394,136.101631 238.171111,153.189283 241.479928,178.922186 L276.297151,178.592885 C276.089032,160.76233 278.88414,144.018907 281.611631,127.664498 C282.064749,124.946667 280.202222,122.426416 277.475609,122.033889 C269.11224,120.829086 255.60914,120.874749 247.417007,122.009301 C244.157366,122.461541 241.561595,124.971254 241.044373,128.221237" id="Fill-107" fill="#12142D"></path>
                <path d="M281.929516,125.441057 C282.950789,127.976237 283.773602,130.413065 284.615735,132.923656 C285.449086,135.420197 286.181452,137.95362 286.872545,140.512509 C287.537294,143.079301 288.173943,145.668925 288.659552,148.329677 C289.147796,150.99043 289.578082,153.694211 289.727366,156.562204 C289.773907,157.273495 289.787079,158.010251 289.794982,158.747007 L289.78181,159.873656 C289.759857,160.666613 289.645699,161.872294 288.908943,163.161398 C288.561201,163.785753 288.015,164.425914 287.448602,164.866738 C287.150914,165.111738 286.86552,165.293513 286.577491,165.450699 C286.2719,165.625448 286.002312,165.740484 285.737993,165.838835 C284.664032,166.230484 283.833315,166.283172 283.158907,166.286685 C281.836434,166.262097 280.930197,166.032903 280.083674,165.806344 C278.437168,165.32776 277.115573,164.742921 275.829104,164.128226 C274.556685,163.502115 273.361541,162.839122 272.19362,162.159444 C267.549158,159.405609 263.370986,156.33828 259.315753,152.940771 C258.181201,151.990627 258.032796,150.300215 258.982939,149.165663 C259.783799,148.210251 261.110663,147.953835 262.18638,148.466667 L262.248728,148.497401 C266.78957,150.661129 271.403297,152.876667 275.902867,154.74095 C277.025125,155.203728 278.146505,155.637527 279.235394,155.999319 C280.310233,156.369892 281.393853,156.69129 282.235986,156.819498 C282.634659,156.883602 282.999086,156.876577 282.957814,156.837939 C282.922688,156.827401 282.736523,156.793154 282.259695,156.955609 C282.146416,156.998638 282.024355,157.053082 281.853996,157.13914 C281.70647,157.220806 281.558065,157.320036 281.378047,157.453513 C281.063674,157.700269 280.729982,158.088405 280.529767,158.430878 C280.10914,159.158853 280.089821,159.712079 280.076649,159.868387 L280.025717,159.07456 C279.977419,158.532742 279.930878,157.990054 279.850968,157.428047 C279.250323,152.924086 277.980538,148.129462 276.572885,143.414749 C275.16172,138.703548 273.547706,133.887849 271.902957,129.313638 L271.887151,129.267975 C270.882563,126.475502 272.333244,123.396756 275.125717,122.39129 C277.851452,121.412168 280.852921,122.779427 281.929516,125.441057" id="Fill-108" fill="#12142D"></path>
                <path d="M268.010179,104.377204 L263.79776,107.87043 L258.06353,112.633441 C258.231254,113.408835 258.362097,114.193011 258.427957,114.949086 C258.701935,117.717849 258.095143,120.265323 254.730125,121.555305 C253.458584,122.041792 252.352133,122.97086 251.951703,124.272258 C251.498584,125.744014 252.034247,127.379104 256.655,127.377349 C263.43948,127.375591 266.98276,124.359194 268.317527,122.873387 C268.693369,122.455394 268.69776,121.838943 268.374606,121.379677 C265.686631,117.56681 266.914265,109.136703 268.010179,104.377204" id="Fill-109" fill="#F0B1AD"></path>
                <path d="M256.488154,125.884516 C256.488154,125.884516 256.939516,126.37276 257.075627,127.078781 C257.428638,126.481649 258.348047,125.884516 258.348047,125.884516 C258.348047,125.884516 260.362491,126.780215 260.78224,128.734946 C259.49138,128.65328 257.130072,127.377348 257.130072,127.377348 C257.130072,127.377348 255.908584,128.083369 254.687097,128.136935 C254.740663,126.61776 256.488154,125.884516 256.488154,125.884516" id="Fill-110" fill="#3769A4"></path>
                <path d="M258.348047,125.884516 C260.3019,128.084247 260.672473,131.004928 260.672473,131.004928 C260.672473,131.004928 271.914373,128.195771 271.386613,120.868602 C270.44086,120.270591 268.270108,119.911434 268.270108,119.911434 C268.270108,119.911434 265.852599,124.301237 258.348047,125.884516" id="Fill-111" fill="#4169E2"></path>
                <path d="M256.488154,125.884516 C254.535179,128.084247 254.013566,131.004928 254.013566,131.004928 C254.013566,131.004928 248.247724,125.756308 253.864283,120.928315 C254.852186,120.521738 256.835896,120.304839 256.835896,120.304839 C256.835896,120.304839 253.104695,123.332652 256.488154,125.884516" id="Fill-112" fill="#4169E2"></path>
                <path d="M258.06353,112.633441 C258.06353,112.632563 258.06353,112.632563 258.06353,112.632563 L263.79776,107.869552 L263.798638,107.87043 L263.79776,107.87043 L258.06353,112.633441" id="Fill-113" fill="#BEBFBB"></path>
                <path d="M258.427957,114.949086 L258.427957,114.949086 C258.362097,114.193011 258.231254,113.407957 258.06353,112.633441 L263.79776,107.87043 C263.853961,108.440341 263.834642,109.233297 263.723118,110.055233 C263.424552,112.240914 260.566219,114.518799 258.427957,114.949086" id="Fill-114" fill="#CC908A"></path>
                <path d="M251.907796,89.249552 C246.619659,92.9991935 249.578978,101.796362 254.089964,98.4304659 C258.60095,95.0645699 256.218566,86.193638 251.907796,89.249552" id="Fill-115" fill="#132529"></path>
                <path d="M269.746254,97.0825269 C268.282401,103.816075 267.767814,107.81862 263.791613,110.891219 C257.809749,115.512849 249.881057,111.406685 249.300609,104.443943 C248.77724,98.1758065 251.259731,88.2177419 258.342778,86.3104301 C265.321326,84.4329749 271.210986,90.3498566 269.746254,97.0825269" id="Fill-116" fill="#F0B1AD"></path>
                <path d="M266.629749,92.0920789 C262.896792,91.0602688 253.272419,93.5102688 249.855591,89.8668817 C246.191129,85.9582975 251.538978,84.0580108 253.112599,85.4156093 C251.117473,83.1350896 251.863011,80.6929928 254.687097,80.9098925 C256.746326,81.067957 257.403172,83.3519892 257.403172,83.3519892 C257.403172,83.3519892 257.058943,79.3591039 260.601344,79.6339606 C263.818835,79.8833513 263.828495,84.2204659 263.828495,84.2204659 C263.828495,84.2204659 271.507796,82.0497133 274.066685,89.3777599 C278.89819,89.268871 278.789301,99.4385663 269.072724,103.058244 C265.128136,101.103513 264.94724,94.1671147 266.629749,92.0920789" id="Fill-117" fill="#132529"></path>
                <path d="M273.034875,90.8442473 C272.570341,90.8442473 272.158495,90.5123118 272.074194,90.0398746 C271.977599,89.5103584 272.329731,89.0036738 272.858369,88.9053226 C272.946183,88.8789785 273.206989,88.6647133 273.423889,88.1931541 C273.653082,87.696129 273.800609,86.9558602 273.530143,86.3639964 C273.306219,85.8722401 273.523118,85.2935484 274.013996,85.0687455 C274.503118,84.8421864 275.084444,85.0617204 275.308369,85.5525986 C275.894086,86.83819 275.584104,88.288871 275.096738,89.2188172 C274.630448,90.1092473 273.941989,90.6967204 273.208746,90.8284409 L273.034875,90.8442473" id="Fill-118" fill="#132529"></path>
                <path d="M270.842168,103.325197 C269.854265,104.622204 268.410609,105.393208 267.145215,105.616254 C265.241416,105.950824 264.662724,104.199821 265.504857,102.499749 C266.26181,100.969158 268.165609,98.9503226 269.925394,99.3867563 C271.659713,99.817043 271.97233,101.842903 270.842168,103.325197" id="Fill-119" fill="#F0B1AD"></path>
                <path d="M258.215448,97.6989785 C258.130269,98.2513262 257.767599,98.6640502 257.404928,98.6210215 C257.042258,98.5771147 256.817455,98.0950179 256.902634,97.5426703 C256.987814,96.9903226 257.350484,96.5775986 257.713154,96.6197491 C258.075824,96.6636559 258.300627,97.1466308 258.215448,97.6989785" id="Fill-120" fill="#132529"></path>
                <path d="M251.947312,96.9525627 C251.862133,97.5057885 251.499462,97.9185125 251.136792,97.8754839 C250.774122,97.8315771 250.549319,97.3503584 250.634498,96.7971326 C250.719677,96.2447849 251.082348,95.8320609 251.445018,95.8750896 C251.807688,95.9189964 252.032491,96.4002151 251.947312,96.9525627" id="Fill-121" fill="#132529"></path>
                <path d="M253.857258,97.1747312 C253.857258,97.1747312 252.54181,99.8548029 251.239534,101.113172 C252.012294,101.93862 253.470878,101.654982 253.470878,101.654982 L253.857258,97.1747312" id="Fill-122" fill="#E67C77"></path>
                <path d="M256.036792,104.49224 C258.236523,104.49224 259.466792,103.120591 259.522993,103.057366 L259.508065,102.825538 L259.276237,102.840466 C259.262186,102.856272 257.863315,104.420233 255.425609,104.127814 C255.335161,104.116398 255.254373,104.18138 255.243835,104.27095 C255.233297,104.361398 255.297401,104.443065 255.386971,104.452724 C255.612652,104.480824 255.828674,104.49224 256.036792,104.49224" id="Fill-123" fill="#132529"></path>
                <path d="M260.735699,94.5139785 L260.88147,94.4393369 C261.016703,94.3190323 261.028996,94.1117921 260.908692,93.9765591 C259.717061,92.6365233 258.21457,92.8806452 258.152222,92.8911828 C257.980986,92.9043548 257.853656,93.0913978 257.885269,93.2705376 C257.916004,93.4487993 258.085484,93.5682258 258.263746,93.5383692 C258.326093,93.5278315 259.482599,93.3601075 260.417814,94.4121147 C260.500358,94.504319 260.623297,94.5394444 260.735699,94.5139785" id="Fill-124" fill="#132529"></path>
                <path d="M249.708943,94.1539427 C249.809928,94.1829211 249.92233,94.1636022 250.009265,94.091595 C251.156111,93.1379391 252.335448,93.4523118 252.346864,93.4558244 C252.521613,93.5058781 252.702509,93.4031362 252.750806,93.2283871 C252.799982,93.0553943 252.698996,92.8744982 252.526004,92.8253226 L252.524247,92.8244444 C252.4619,92.8077599 250.998925,92.415233 249.590394,93.5866667 C249.450771,93.7025806 249.43233,93.9098208 249.547366,94.0485663 L249.708943,94.1539427" id="Fill-125" fill="#132529"></path>
                <path d="M261.139642,143.917921 L257.296918,141.528513 C256.143925,140.811953 254.627384,141.17638 253.924875,142.339032 L253.472634,143.088082 C252.925556,143.995197 253.025663,145.149946 253.721147,145.948172 L256.373118,148.99267 C256.373118,148.99267 258.68086,154.373889 261.356541,152.953065 L263.39733,149.41681 L261.139642,143.917921" id="Fill-126" fill="#F0B1AD"></path>
                <path d="M265.09828,150.79724 C265.09828,150.79724 264.131452,148.420125 263.089104,147.217079 C261.159839,148.870609 259.595878,154.141183 259.595878,154.141183 L261.957186,154.650502 C261.957186,154.650502 264.806738,153.938333 265.09828,150.79724" id="Fill-127" fill="#4169E2"></path>
                <path d="M294.529014,190.082419 L248.938817,190.082419 C245.948763,190.082419 244.014229,193.039982 244.615753,196.688638 L250.306953,231.180072 C250.908477,234.827849 253.819498,237.785412 256.808674,237.785412 L288.884355,237.785412 L294.529014,190.082419" id="Fill-128" fill="#3769A4"></path>
                <path d="M288.884355,237.785412 L267.217222,237.785412 L265.099158,190.082419 L294.529014,190.082419 L288.884355,237.785412 M263.233996,237.785412 L256.808674,237.785412 C255.099821,237.785412 253.416434,236.819462 252.175627,235.309068 L250.16733,190.082419 L260.0569,190.082419 L263.233996,237.785412 M246.206935,206.33233 L244.615753,196.688638 C244.541989,196.239032 244.505986,195.800842 244.505986,195.377581 C244.505986,194.200878 244.780842,193.138333 245.270842,192.278638 L246.206935,206.33233" id="Fill-129" fill="#86A4FD"></path>
                <path d="M84.1732437,281.751057 L85.4895699,281.751057 C85.9365412,281.751057 86.308871,281.373459 86.341362,280.884337 L93.5868638,172.094677 L88.1450538,172.094677 L83.3196953,280.771057 C83.2959857,281.304964 83.685,281.751057 84.1732437,281.751057" id="Fill-130" fill="#3769A4"></path>
                <path d="M85.4895699,281.751057 L84.1732437,281.751057 C83.698172,281.751057 83.3170609,281.328674 83.3188112,280.814964 C83.3188112,280.800914 83.3188112,280.785986 83.3196953,280.771057 L85.0250358,242.362258 L88.907276,242.362258 L88.1266129,254.086254 L88.1116846,254.305789 L87.6295878,261.541631 L87.6155376,261.761165 L86.341362,280.884337 C86.308871,281.373459 85.9365412,281.751057 85.4895699,281.751057" id="Fill-131" fill="#4169E2"></path>
                <path d="M69.2414158,281.751057 L70.5577419,281.751057 C71.0055914,281.751057 71.377043,281.373459 71.4104122,280.884337 L78.6550358,172.094677 L73.2132258,172.094677 L68.3878674,280.771057 C68.3641577,281.304964 68.753172,281.751057 69.2414158,281.751057" id="Fill-132" fill="#3769A4"></path>
                <path d="M70.5577419,281.751057 L69.2414158,281.751057 C68.7663441,281.751057 68.3861111,281.328674 68.3869877,280.814964 C68.3869877,280.800914 68.3869877,280.785986 68.3878674,280.771057 L70.0932079,242.362258 L73.975448,242.362258 L73.1947849,254.086254 L73.1798566,254.305789 L72.6977599,261.541631 L72.6837097,261.761165 L71.4104122,280.884337 C71.377043,281.373459 71.0055914,281.751057 70.5577419,281.751057" id="Fill-133" fill="#4169E2"></path>
                <path d="M253.340036,281.751057 L252.024588,281.751057 C251.576738,281.751057 251.205287,281.373459 251.172796,280.884337 L243.926416,172.094677 L249.369104,172.094677 L254.193584,280.771057 C254.217294,281.304964 253.82828,281.751057 253.340036,281.751057" id="Fill-134" fill="#3769A4"></path>
                <path d="M253.340036,281.751057 L252.024588,281.751057 C251.576738,281.751057 251.205287,281.373459 251.172796,280.884337 L243.926416,172.094677 L249.369104,172.094677 L254.193584,280.771057 C254.194462,280.785986 254.195342,280.800914 254.195342,280.814964 C254.196219,281.328674 253.815108,281.751057 253.340036,281.751057" id="Fill-135" fill="#4169E2"></path>
                <path d="M268.271864,281.751057 L266.956416,281.751057 C266.508566,281.751057 266.137115,281.373459 266.103746,280.884337 L258.858244,172.094677 L264.300932,172.094677 L269.125412,280.771057 C269.149122,281.304964 268.760108,281.751057 268.271864,281.751057" id="Fill-136" fill="#3769A4"></path>
                <path d="M268.271864,281.751057 L266.956416,281.751057 C266.508566,281.751057 266.137115,281.373459 266.103746,280.884337 L263.233996,237.78629 L263.233996,237.785412 L258.858244,172.094677 L264.300932,172.094677 L269.125412,280.771057 C269.126296,280.785986 269.126296,280.800914 269.126296,280.814964 C269.128047,281.328674 268.746935,281.751057 268.271864,281.751057" id="Fill-137" fill="#4169E2"></path>
                <polygon id="Fill-138" fill="#4169E2" points="62.6553943 172.094677 274.551416 172.094677 274.551416 169.858065 62.6553943 169.858065"></polygon>
                <path d="M59.1252867,135.205054 L57.1240143,149.929642 C56.4926344,154.833154 55.8331541,159.748961 55.3607168,164.576075 C55.2939785,165.183746 55.2500717,165.776487 55.2008961,166.372742 L55.1280108,167.267563 C55.1341577,167.200824 55.1288889,166.964606 55.097276,166.828495 C55.0832258,166.685358 55.0384409,166.531685 54.9954122,166.409624 C54.9655556,166.303369 54.9049642,166.181308 54.8636918,166.102276 L54.7416308,165.904695 C54.5862007,165.70448 54.568638,165.732581 54.6107885,165.774731 C54.6450358,165.823907 54.768853,165.920502 54.9093548,166.025 C55.2044086,166.238387 55.619767,166.478118 56.0728853,166.704677 C57.9354122,167.616183 60.2396416,168.393333 62.5201613,169.098477 C67.1286201,170.495591 71.9618817,171.705663 76.7371864,172.882366 L76.1980108,177.0781 C71.0872581,176.897204 66.0704659,176.421254 60.9693728,175.501846 C58.4096057,175.01448 55.8761828,174.48233 53.1434229,173.435591 C52.454086,173.164247 51.7454301,172.855143 50.9744265,172.417832 C50.5862903,172.193029 50.1902509,171.941004 49.7494265,171.587115 C49.3147491,171.228835 48.8423118,170.817867 48.347043,170.091649 C48.1029211,169.725466 47.8658244,169.28552 47.6840502,168.748978 C47.5944803,168.479391 47.5259857,168.169409 47.4759319,167.876111 C47.4346595,167.58457 47.4197312,167.191165 47.4241219,166.969875 L47.4460753,165.994265 C47.4610036,165.345323 47.4715412,164.691111 47.5031541,164.054462 C47.7112724,158.924391 48.1722939,153.918136 48.7193728,148.911004 C49.2550358,143.904749 49.8934409,138.945036 50.6784946,133.958978 L59.1252867,135.205054" id="Fill-139" fill="#7A3939"></path>
                <path d="M87.7946774,177.310806 L84.574552,180.254319 C83.8237455,180.940143 82.7295878,181.10172 81.8128136,180.660018 L78.2528495,178.945896 C78.2528495,178.945896 72.9752509,178.72724 72.2226882,175.503602 L73.5873118,172.99828 L81.763638,172.090287 C82.6031362,171.996326 83.4505376,172.185125 84.1723656,172.625072 L87.5417742,174.683423 C88.4805018,175.255968 88.6069534,176.568781 87.7946774,177.310806" id="Fill-140" fill="#7A3939"></path>
                <path d="M68.5134409,104.948871 C69.3476703,109.999032 70.0572043,119.23 66.4436738,122.475591 C66.4436738,122.475591 75.2627957,127.092832 81.0453226,135.151487 C87.2300358,130.251487 82.0507885,122.940125 82.0507885,122.940125 C76.4913082,121.435878 76.7591398,117.286685 77.8506631,113.413226 L68.5134409,104.948871" id="Fill-141" fill="#7A3939"></path>
                <path d="M85.0162545,126.046093 C85.0162545,126.046093 84.5508423,121.763423 82.2132437,119.646237 C80.2497312,117.868011 69.945681,118.855914 66.6992115,119.217706 C66.0880287,119.286201 65.5602688,119.664677 65.2950717,120.217903 L62.9407885,125.136344 L85.0162545,126.046093" id="Fill-142" fill="#3769A4"></path>
                <path d="M84.3673118,123.252742 C83.5919176,123.138584 82.8156452,123.033208 82.0507885,122.940125 C78.6541577,122.52828 75.4050538,122.412366 71.8881183,122.412366 C70.1546774,122.412366 68.3562545,122.440466 66.4436738,122.475591 C65.684086,122.489642 64.9262545,122.515986 64.1772043,122.552867 L65.2950717,120.217903 C65.5602688,119.664677 66.0880287,119.286201 66.6992115,119.217706 C68.5160753,119.014857 72.5432079,118.616183 76.0829749,118.616183 C78.8666667,118.616183 81.3491577,118.862939 82.2132437,119.646237 C83.2713978,120.604283 83.9458065,122.005789 84.3673118,123.252742" id="Fill-143" fill="#3A5DC5"></path>
                <path d="M56.4654122,123.791039 C50.106828,125.859928 48.7413262,134.384875 49.3129928,141.02095 L62.1469534,148.914516 C62.1469534,148.914516 65.2634588,139.226039 65.2371147,134.052061 C65.2090143,128.546147 60.7832079,122.386022 56.4654122,123.791039" id="Fill-144" fill="#4169E2"></path>
                <path d="M58.9505376,146.98086 C58.64319,146.98086 58.3349642,146.857921 58.1075269,146.638387 L57.966147,146.453978 L57.8528674,146.243226 L57.7817384,146.023692 L57.7562724,145.795376 C57.7562724,145.479247 57.8879928,145.172778 58.1075269,144.953244 C58.5544982,144.504516 59.3544803,144.504516 59.7935484,144.953244 C60.0130824,145.172778 60.1448029,145.479247 60.1448029,145.795376 L60.1184588,146.023692 L60.0482079,146.243226 L59.9419534,146.453978 L59.7935484,146.638387 C59.5740143,146.857921 59.2666667,146.98086 58.9505376,146.98086" id="Fill-145" fill="#FFFFFE"></path>
                <path d="M56.4829749,146.172975 L56.4917563,146.172975 C56.0351254,145.997348 55.7453405,145.567061 55.7277778,145.101649 C55.3853047,145.408996 54.884767,145.505591 54.4369176,145.294839 C53.9978495,145.092867 53.7344086,144.645018 53.74319,144.188387 C53.3831541,144.478172 52.8738351,144.539642 52.4426703,144.302545 C52.0132616,144.075108 51.7840681,143.617599 51.8191935,143.160968 C51.4424731,143.424409 50.9331541,143.459534 50.5116487,143.204875 C49.9496416,142.871183 49.7731362,142.134427 50.1077061,141.571541 C50.4501792,141.009534 51.1878136,140.825125 51.7489427,141.167599 C52.1449821,141.413477 52.3469534,141.852545 52.3206093,142.282832 C52.6718638,142.028172 53.1548387,141.985143 53.5675627,142.204677 C53.9715054,142.424211 54.2086022,142.844839 54.1989427,143.283907 C54.5335125,143.012563 55.0164875,142.941434 55.4379928,143.134624 C55.8594982,143.327814 56.1141577,143.741416 56.1317204,144.170824 C56.4566308,143.890699 56.922043,143.784444 57.3611111,143.95129 C57.966147,144.197168 58.2743728,144.890896 58.0284946,145.497688 C57.844086,145.971004 57.3962366,146.252007 56.922043,146.252007 C56.7727599,146.252007 56.6322581,146.225663 56.4829749,146.172975" id="Fill-146" fill="#FFFFFE"></path>
                <path d="M49.3173835,142.212581 C49.2383513,142.212581 49.159319,142.204677 49.0794086,142.186237 L48.8598746,142.115986 L48.65,142.010609 L48.4743728,141.861326 L48.3250896,141.685699 L48.2109319,141.475824 L48.140681,141.25629 C48.1318996,141.17638 48.1222401,141.097348 48.1222401,141.018315 L48.140681,140.79 L48.2109319,140.562563 L48.3250896,140.359713 L48.4743728,140.175305 L48.65,140.026022 L48.8598746,139.920645 L49.0794086,139.850394 C49.4666667,139.780143 49.8785125,139.903961 50.1516129,140.175305 L50.3008961,140.359713 L50.4150538,140.562563 L50.4765233,140.79 L50.5019892,141.018315 C50.5019892,141.097348 50.494086,141.17638 50.4765233,141.25629 L50.4150538,141.475824 L50.3008961,141.685699 L50.1516129,141.861326 C49.9320789,142.08086 49.623853,142.212581 49.3173835,142.212581" id="Fill-147" fill="#FFFFFE"></path>
                <path d="M96.8930466,136.180663 C96.3556272,143.484122 94.7310753,155.784176 90.7276523,176.489749 L56.3582796,175.467599 C57.2592473,162.780287 55.8981362,153.320125 52.7886559,131.115573 C52.2213799,127.062097 55.135914,123.35724 59.2069534,122.937491 C61.4137097,122.709176 63.9199104,122.522133 66.4436738,122.475591 C72.2358602,122.369337 76.9804301,122.32543 82.0507885,122.940125 C83.7253943,123.143853 85.4553226,123.407294 87.1070968,123.690054 C93.1021326,124.713082 97.3391398,130.115376 96.8930466,136.180663" id="Fill-148" fill="#4169E2"></path>
                <path d="M86.2956989,95.6502867 C86.3773656,96.3282079 86.8023835,96.8357706 87.2458423,96.7822043 C87.6893011,96.7295161 87.9825986,96.1367742 87.9009319,95.4579749 C87.8201434,94.7800538 87.3951254,94.2742473 86.9516667,94.3269355 C86.5082079,94.3805018 86.2149104,94.9732437 86.2956989,95.6502867" id="Fill-149" fill="#132529"></path>
                <path d="M86.760233,94.3875269 L88.3329749,93.7236559 C88.3329749,93.7236559 87.6497849,95.0953047 86.760233,94.3875269" id="Fill-150" fill="#132529"></path>
                <path d="M86.5301613,96.7022939 C86.5301613,96.7022939 88.0300179,99.4833513 89.4657706,100.739964 C88.6710573,101.682204 87.1027061,101.483746 87.1027061,101.483746 L86.5301613,96.7022939" id="Fill-151" fill="#571719"></path>
                <path d="M86.3782437,89.7053047 C86.4546416,89.5920251 86.470448,89.4418638 86.4081004,89.3092652 C86.3132616,89.1090502 86.0744086,89.023871 85.8741935,89.1187097 C83.8702867,90.0706093 83.5998208,91.9024014 83.5901613,91.9796774 C83.5603047,92.1992115 83.7139785,92.4011828 83.9335125,92.4310394 C84.1512903,92.4608961 84.3541398,92.3081004 84.3839964,92.0885663 C84.3936559,92.028853 84.6175806,90.603638 86.2175448,89.8440502 L86.3782437,89.7053047" id="Fill-152" fill="#132529"></path>
                <path d="M62.9065412,95.4966129 C64.4160573,103.762509 64.877957,107.293495 69.5961828,111.063333 C76.6932796,116.734337 86.515233,113.072509 87.5066487,104.522097 C88.397957,96.8261111 85.780233,84.6015771 77.2315771,82.2648566 C68.8102509,79.9623835 61.3970251,87.2307168 62.9065412,95.4966129" id="Fill-153" fill="#7A3939"></path>
                <path d="M81.1103047,97.8105018 C82.5039068,102.352222 85.8241398,113.334194 78.4899462,115.778925 C72.7513262,117.691505 54.7872939,119.221219 52.718405,108.694122 C50.5792652,97.8105018 60.2844265,90.0644624 60.2844265,90.0644624 C60.2844265,90.0644624 52.5954659,83.7576882 57.52181,76.8889068 C63.8716129,68.0337814 79.0730287,73.040914 83.5857706,79.2967563 C87.9729391,85.3787276 81.1103047,97.8105018 81.1103047,97.8105018" id="Fill-154" fill="#132529"></path>
                <path d="M67.2058961,117.289319 C64.2641398,117.289319 60.6154839,116.688674 57.6105018,115.395179 C53.530681,113.638029 51.1491756,110.92371 50.7241577,107.543763 C49.2831362,96.0656452 59.9639068,89.7579928 60.0719176,89.6965233 L60.4969355,90.4324014 C60.3941935,90.4921147 50.197276,96.5266667 51.5680466,107.437509 C52.0545341,111.308333 55.3053943,113.47733 57.946828,114.614516 C63.1612007,116.859032 69.8973835,116.847616 71.5324731,115.648082 L72.034767,116.334785 C71.183853,116.958262 69.3898208,117.289319 67.2058961,117.289319" id="Fill-155" fill="#132529"></path>
                <path d="M56.9773656,88.4170789 C56.8816487,89.8853226 55.6627957,91.9015233 60.7533513,92.660233 C65.8439068,93.4189427 72.9164158,93.3469355 74.3679749,92.1219355 C75.8195341,90.8978136 77.2491398,87.9701075 74.2143011,88.2317921 C71.1785842,88.4943548 57.1424552,85.9064875 56.9773656,88.4170789" id="Fill-156" fill="#3A5DC5"></path>
                <path d="M78.3327599,99.1066308 C79.2029928,100.760161 80.7564158,101.857832 82.2299283,102.289875 C84.4472222,102.938817 85.5844086,100.963011 84.9916667,98.8554839 C84.458638,96.9587097 82.6628495,94.3357168 80.4262366,94.6096953 C78.2221147,94.8819176 77.3378315,97.2151254 78.3327599,99.1066308" id="Fill-157" fill="#7A3939"></path>
                <polyline id="Fill-158" fill="#7A3939" points="131.906971 272.667616 140.056075 272.513065 136.110609 252.171039 127.961505 252.32647 131.906971 272.667616"></polyline>
                <path d="M138.017921,263.810735 C140.173746,271.929104 148.095412,280.523423 148.095412,280.523423 L136.787652,277.651039 L131.845502,270.628584 L132.710466,268.76957 L138.017921,263.810735" id="Fill-159" fill="#7A3939"></path>
                <path d="M129.987366,267.584086 C129.953118,268.485932 130.021613,269.513351 130.151577,270.424857 C130.628405,273.783728 132.110699,282.684516 132.110699,282.684516 L132.87819,282.689785 C132.87819,282.689785 132.151093,276.697384 132.25647,274.488871 C132.361846,272.280358 133.787061,276.18543 135.508208,278.394821 C137.229355,280.603333 140.327419,282.614265 145.341577,282.771452 C151.211918,282.954982 153.551272,282.709104 151.669427,281.243495 C149.788459,279.777007 145.789427,278.820717 145.789427,278.820717 C145.789427,278.820717 141.171308,277.161918 137.869516,272.198692 C135.729498,268.980323 132.142312,266.652384 130.585376,265.89543 C130.113817,265.978853 130.014588,266.867527 129.987366,267.584086" id="Fill-160" fill="#12142D"></path>
                <polyline id="Fill-161" fill="#7A3939" points="160.767796 245.034427 171.170197 245.355824 159.535771 228.058297 152.332419 234.21491 160.767796 245.034427"></polyline>
                <path d="M163.237993,237.689695 C170.795233,241.210143 182.900341,240.517294 182.900341,240.517294 L173.060824,248.411738 L164.623692,247.786505 L163.732384,245.911685 L163.237993,237.689695" id="Fill-162" fill="#7A3939"></path>
                <path d="M161.638029,246.659857 C162.279068,247.30353 163.076416,247.952473 163.825466,248.474086 C166.585448,250.396326 174.036434,255.321792 174.036434,255.321792 L174.51414,254.721147 C174.51414,254.721147 169.66595,251.192796 168.109014,249.598978 C166.552079,248.005161 170.299086,249.55595 172.984427,249.713136 C175.669767,249.870323 179.059373,248.809534 182.270717,244.972957 C186.030018,240.482168 187.293656,238.473871 185.056165,238.950699 C182.818674,239.426649 179.645968,241.917921 179.645968,241.917921 C179.645968,241.917921 175.576685,244.415341 169.893387,243.617115 C166.208728,243.099014 162.284337,244.327527 160.767796,245.034427 C160.537724,245.462957 161.12871,246.147903 161.638029,246.659857" id="Fill-163" fill="#12142D"></path>
                <path d="M78.7419713,175.889982 C78.7419713,175.889982 134.384194,167.659211 140.144767,181.9219 C150.167814,206.738907 164.321613,235.173835 164.321613,235.173835 L157.487079,240.827276 C157.487079,240.827276 133.22681,218.368943 124.596487,193.436022 C114.287168,196.772061 81.4896595,207.504642 69.4767563,207.504642 C56.6463082,207.504642 51.4064695,196.565699 56.0403943,178.400573 C56.4531183,176.782168 57.9292652,175.65991 59.6003584,175.667814 C67.6783333,175.708208 78.7419713,175.889982 78.7419713,175.889982" id="Fill-164" fill="#12142D"></path>
                <path d="M84.0757706,183.136362 C84.0757706,183.136362 129.744122,181.761201 130.129624,197.939982 C130.766272,224.695914 138.306828,263.035341 138.306828,263.035341 L129.976828,263.810735 C129.976828,263.810735 116.357814,233.313943 112.754821,207.177097 C96.4873477,208.232616 81.4896595,207.504642 69.4767563,207.504642 C56.0140502,207.504642 54.9014516,192.719462 68.0058781,175.468477 C76.0153584,175.468477 84.0757706,183.136362 84.0757706,183.136362" id="Fill-165" fill="#12142D"></path>
                <path d="M55.903405,173.434713 L54.9330645,176.485358 C54.8057348,176.719821 55.0814695,176.971846 55.4783871,176.98414 L90.8523477,178.035269 C91.1623297,178.044928 91.4231362,177.900914 91.4486022,177.706846 L91.8499104,174.639516 C91.8780108,174.427007 91.6145699,174.238208 91.2756093,174.228548 L56.470681,173.194104 C56.2151434,173.186201 55.9859498,173.283674 55.903405,173.434713" id="Fill-166" fill="#FFFFFE"></path>
                <path d="M60.46181,177.465358 L59.5301075,177.438136 C59.3439427,177.432867 59.2060753,177.33276 59.2218817,177.215968 L59.7777419,173.231864 C59.7944265,173.115072 59.9595161,173.023746 60.1448029,173.029892 L61.0773835,173.057115 C61.2626703,173.063262 61.4014158,173.162491 61.3856093,173.279283 L60.828871,177.263387 C60.8130645,177.380179 60.6479749,177.471505 60.46181,177.465358" id="Fill-167" fill="#132529"></path>
                <path d="M88.2223297,178.290806 L87.2906272,178.263584 C87.1044624,178.257437 86.9657168,178.158208 86.9824014,178.041416 L87.5382616,174.057312 C87.5549462,173.94052 87.7200358,173.850072 87.9053226,173.856219 L88.8379032,173.883441 C89.02319,173.88871 89.1619355,173.988817 89.1452509,174.105609 L88.5893907,178.089713 C88.5735842,178.206505 88.4076165,178.296953 88.2223297,178.290806" id="Fill-168" fill="#132529"></path>
                <path d="M74.342509,177.878961 L73.4099283,177.849982 C73.2246416,177.844713 73.0858961,177.744606 73.1025806,177.628692 L73.6584409,173.644588 C73.6742473,173.528674 73.8402151,173.437348 74.0255018,173.442616 L74.9580824,173.470717 C75.1433692,173.475986 75.2821147,173.575215 75.2654301,173.692007 L74.7095699,177.676111 C74.6928853,177.792903 74.5277957,177.884229 74.342509,177.878961" id="Fill-169" fill="#132529"></path>
                <path d="M116.701165,139.234821 L138.918011,139.234821 C139.626667,139.234821 140.137742,139.916254 139.939283,140.597688 L131.637384,169.090573 C131.505663,169.54457 131.088548,169.858065 130.616111,169.858065 L108.400143,169.858065 C107.690609,169.858065 107.179534,169.175753 107.377993,168.495197 L115.679892,140.001434 C115.812491,139.547437 116.228728,139.234821 116.701165,139.234821" id="Fill-170" fill="#4169E2"></path>
                <polyline id="Fill-171" fill="#D4D5CF" points="117.111254 140.280681 138.702867 140.793513 130.177043 167.667993 108.58543 167.156039 117.111254 140.280681"></polyline>
                <polyline id="Fill-172" fill="#FFFFFE" points="116.432455 140.016362 138.030215 140.105932 130.031272 167.141989 108.433513 167.053297 116.432455 140.016362"></polyline>
                <path d="M96.9589068,140.575735 C97.0028136,141.432796 97.0836022,142.497975 97.1617563,143.470072 C97.2486918,144.465 97.3584588,145.461685 97.4893011,146.451344 C97.7351792,148.435054 98.0653584,150.398566 98.4719355,152.316416 C98.894319,154.228118 99.3913441,156.102939 100.040287,157.853943 C100.363441,158.731201 100.719086,159.57948 101.110735,160.379462 C101.300412,160.787796 101.516434,161.165394 101.728065,161.545627 L102.049462,162.084803 L102.014337,162.078656 C102.074928,162.216523 102.694892,162.613441 103.413208,162.897079 C104.149086,163.195645 105.0281,163.445914 105.943118,163.653154 C107.78457,164.077294 109.788477,164.353029 111.815215,164.561147 C115.871326,164.95543 120.108333,165.152133 124.260161,165.23819 L124.679032,169.446219 C120.343674,170.282204 116.04871,170.809964 111.587778,170.925878 C109.35819,170.975054 107.103136,170.935538 104.741828,170.644875 C103.558978,170.488566 102.351541,170.276935 101.065072,169.901971 C99.7803584,169.496272 98.3937814,169.031738 96.8649462,167.733853 C96.4908602,167.416846 96.108871,167.003244 95.7620072,166.542222 L95.1973656,165.752778 C94.8434767,165.230287 94.4931004,164.704283 94.1866308,164.169498 C93.5482258,163.105197 93.0064158,162.016308 92.5304659,160.919516 C91.5627599,158.72681 90.8365412,156.506882 90.2631183,154.277294 C89.6817921,152.051219 89.2629211,149.813728 88.9564516,147.572724 C88.8098029,146.451344 88.6894982,145.32733 88.5937814,144.200681 C88.494552,143.050323 88.4348387,141.988656 88.4225448,140.715358 L96.9589068,140.575735" id="Fill-173" fill="#7A3939"></path>
                <path d="M94.0698387,127.62586 C99.5994624,132.83233 98.2673297,146.40129 98.2673297,146.40129 L87.6717384,148.252401 C87.6717384,148.252401 81.1296237,138.524409 83.4294624,134.446344 C85.8241398,130.198799 91.0780287,124.809677 94.0698387,127.62586" id="Fill-174" fill="#4169E2"></path>
                <path d="M98.2646953,147.595556 C97.9564695,147.595556 97.6412186,147.463835 97.4216846,147.244301 L97.2724014,147.059892 L97.1670251,146.857921 C97.140681,146.78767 97.1143369,146.709516 97.0967742,146.629606 L97.0783333,146.40129 C97.0783333,146.086039 97.2021505,145.777814 97.4216846,145.55828 L97.6060932,145.408996 L97.8080645,145.30362 L98.0355018,145.233369 C98.4139785,145.154337 98.8267025,145.286057 99.1077061,145.55828 C99.3272401,145.777814 99.4580824,146.086039 99.4580824,146.40129 L99.4326165,146.629606 C99.4150538,146.709516 99.397491,146.78767 99.3623656,146.857921 L99.2569892,147.059892 L99.1077061,147.244301 C98.888172,147.463835 98.5799462,147.595556 98.2646953,147.595556" id="Fill-175" fill="#FFFFFE"></path>
                <path d="M88.6403226,148.227814 C88.5876344,147.569211 89.0697312,146.989642 89.7283333,146.936953 C90.1858423,146.893047 90.616129,147.121362 90.8444444,147.498961 C90.9849462,147.086237 91.3449821,146.761326 91.8016129,146.691075 C92.2582437,146.629606 92.6973118,146.831577 92.9519713,147.191613 C93.066129,146.770108 93.4086022,146.427634 93.8564516,146.340699 C94.3130824,146.243226 94.7609319,146.427634 95.032276,146.770108 C95.1209677,146.340699 95.4458781,145.979785 95.8937276,145.856846 L95.8937276,145.866505 C96.5338889,145.69 97.1845878,146.07638 97.3514337,146.709516 C97.5174014,147.340896 97.140681,147.999498 96.4987634,148.166344 C96.0342294,148.289283 95.5512545,148.113656 95.2614695,147.75362 C95.1648746,148.20147 94.8127419,148.571165 94.3306452,148.675663 C93.8564516,148.763477 93.3822581,148.561505 93.1188172,148.183907 C92.9958781,148.631756 92.6270609,148.983011 92.1432079,149.053262 C91.6611111,149.124391 91.1956989,148.886416 90.9586022,148.500914 C90.809319,148.930323 90.4220609,149.264014 89.9311828,149.307921 L89.8337097,149.307921 C89.2198925,149.307921 88.700914,148.842509 88.6403226,148.227814" id="Fill-176" fill="#FFFFFE"></path>
                <path d="M87.6743728,149.449301 L87.437276,149.422079 L87.2177419,149.351828 L87.0069892,149.246452 L86.831362,149.097168 L86.6820789,148.91276 L86.5679211,148.710789 L86.5055735,148.482473 L86.4801075,148.254158 C86.4801075,148.175125 86.4888889,148.096971 86.5055735,148.017061 L86.5679211,147.797527 L86.6820789,147.587652 L86.831362,147.411147 L87.0069892,147.261864 L87.2177419,147.156487 L87.437276,147.086237 C87.8227778,147.007204 88.2363799,147.130143 88.5086022,147.411147 L88.6578853,147.587652 L88.772043,147.797527 L88.8422939,148.017061 C88.8501971,148.096971 88.8598566,148.175125 88.8598566,148.254158 L88.8422939,148.482473 L88.772043,148.710789 L88.6578853,148.91276 L88.5086022,149.097168 C88.2890681,149.316703 87.9817204,149.449301 87.6743728,149.449301" id="Fill-177" fill="#FFFFFE"></path>
                <path d="M134.154122,160.845753 L130.487903,160.598118 C129.572885,160.536649 128.664014,160.780771 127.90267,161.291846 L121.165609,165.816882 L121.114677,168.669068 C123.273136,171.179659 128.052832,168.931631 128.052832,168.931631 L132.487419,168.789373 C133.211004,168.766541 133.84853,168.304642 134.097043,167.624086 L135.701398,163.222867 C136.106219,162.112903 135.332581,160.924785 134.154122,160.845753" id="Fill-178" fill="#7A3939"></path>
                <path d="M58.0969892,285.706183 L59.0919176,285.706183 C59.4800538,285.706183 59.8128674,285.365466 59.8796057,284.899176 L65.9914337,242.362258 L61.3504839,242.362258 L57.3031541,284.616416 C57.2478315,285.196864 57.618405,285.706183 58.0969892,285.706183" id="Fill-179" fill="#3769A4"></path>
                <path d="M59.0919176,285.706183 L58.0969892,285.706183 C57.6508961,285.706183 57.2970072,285.261846 57.2970072,284.731452 C57.2970072,284.693692 57.2987634,284.655054 57.3031541,284.616416 L61.3504839,242.362258 L65.9914337,242.362258 L63.2349642,261.541631 L63.2042294,261.761165 L59.8796057,284.899176 C59.8128674,285.365466 59.4800538,285.706183 59.0919176,285.706183" id="Fill-180" fill="#2C4283"></path>
                <path d="M45.3631362,285.706183 L46.3580645,285.706183 C46.7462007,285.706183 47.0781362,285.365466 47.1457527,284.899176 L53.2575806,242.362258 L48.6166308,242.362258 L44.5693011,284.616416 C44.5139785,285.196864 44.884552,285.706183 45.3631362,285.706183" id="Fill-181" fill="#3769A4"></path>
                <path d="M46.3580645,285.706183 L45.3631362,285.706183 C44.917043,285.706183 44.5631541,285.261846 44.5640306,284.731452 C44.5640306,284.693692 44.5657885,284.655054 44.5693011,284.616416 L48.6166308,242.362258 L53.2575806,242.362258 L47.1457527,284.899176 C47.0781362,285.365466 46.7462007,285.706183 46.3580645,285.706183" id="Fill-182" fill="#2C4283"></path>
                <path d="M116.314785,285.706183 L115.319857,285.706183 C114.932599,285.706183 114.599785,285.365466 114.533047,284.899176 L108.420341,242.362258 L113.06129,242.362258 L117.109498,284.616416 C117.164821,285.196864 116.793369,285.706183 116.314785,285.706183" id="Fill-183" fill="#3769A4"></path>
                <path d="M116.314785,285.706183 L115.319857,285.706183 C114.932599,285.706183 114.599785,285.365466 114.533047,284.899176 L108.420341,242.362258 L113.06129,242.362258 L117.109498,284.616416 C117.113011,284.655054 117.114767,284.693692 117.114767,284.731452 C117.114767,285.261846 116.761756,285.706183 116.314785,285.706183" id="Fill-184" fill="#2C4283"></path>
                <path d="M129.048638,285.706183 L128.05371,285.706183 C127.665573,285.706183 127.333638,285.365466 127.266022,284.899176 L121.154194,242.362258 L125.795143,242.362258 L129.843351,284.616416 C129.898674,285.196864 129.527222,285.706183 129.048638,285.706183" id="Fill-185" fill="#3769A4"></path>
                <path d="M129.048638,285.706183 L128.05371,285.706183 C127.665573,285.706183 127.333638,285.365466 127.266022,284.899176 L121.154194,242.362258 L125.795143,242.362258 L129.843351,284.616416 C129.846864,284.655054 129.84862,284.693692 129.84862,284.731452 C129.84862,285.261846 129.495609,285.706183 129.048638,285.706183" id="Fill-186" fill="#2C4283"></path>
                <path d="M145.551452,191.939677 L114.289803,191.939677 C108.743495,172.679516 88.7860932,157.483369 68.3483513,157.483369 L58.1944624,157.483369 C36.8013082,157.483369 22.996129,174.129319 27.3578315,194.662778 C28.1586918,198.432616 29.520681,202.069857 31.3357885,205.497222 L36.2656452,235.379319 C36.9022939,239.236093 39.9792832,242.362258 43.1388172,242.362258 L137.232867,242.362258 C140.391523,242.362258 143.468513,239.236093 144.105161,235.379319 L150.119516,198.923495 C150.755287,195.06672 148.710986,191.939677 145.551452,191.939677" id="Fill-187" fill="#3769A4"></path>
                <path d="M137.232867,242.362258 L43.1388172,242.362258 C39.9792832,242.362258 36.9022939,239.236093 36.2656452,235.379319 L31.3357885,205.497222 C29.520681,202.069857 28.1586918,198.432616 27.3578315,194.662778 C26.812509,192.095986 26.5508244,189.589785 26.5534391,187.169642 C26.5657527,170.22776 39.4761111,157.483369 58.1944624,157.483369 L68.3483513,157.483369 C88.7860932,157.483369 108.743495,172.679516 114.289803,191.939677 L145.551452,191.939677 C148.321971,191.939677 150.23543,194.344892 150.23543,197.536918 C150.23543,197.984767 150.19767,198.448423 150.119516,198.923495 L144.105161,235.379319 C143.468513,239.236093 140.391523,242.362258 137.232867,242.362258" id="Fill-188" fill="#86A4FD"></path>
                <polygon id="Fill-189" fill="#3769A4" points="134.299014 52.7717742 141.470753 52.7717742 141.470753 51.893638 134.299014 51.893638"></polygon>
                <path d="M107.917168,62.241595 L107.039032,62.241595 L107.039032,57.9211649 C107.039032,54.5974194 109.743692,51.893638 113.068315,51.893638 L129.076738,51.893638 L129.076738,52.7717742 L113.068315,52.7717742 C110.227545,52.7717742 107.917168,55.0821505 107.917168,57.9211649 L107.917168,62.241595" id="Fill-190" fill="#3769A4"></path>
                <path d="M193.129749,92.2729749 L113.068315,92.2729749 C111.43586,92.2729749 110.112509,90.9496237 110.112509,89.3180466 L110.112509,57.9211649 C110.112509,56.2895878 111.43586,54.9671147 113.068315,54.9671147 L193.129749,54.9671147 C194.762204,54.9671147 196.085556,56.2895878 196.085556,57.9211649 L196.085556,89.3180466 C196.085556,90.9496237 194.762204,92.2729749 193.129749,92.2729749" id="Fill-191" fill="#4169E2"></path>
                <path d="M189.344104,75.6050717 L116.853961,75.6050717 C115.757168,75.6050717 114.868495,74.7163978 114.868495,73.6196057 C114.868495,72.5236918 115.757168,71.6341398 116.853961,71.6341398 L189.344104,71.6341398 C190.440896,71.6341398 191.32957,72.5236918 191.32957,73.6196057 C191.32957,74.7163978 190.440896,75.6050717 189.344104,75.6050717" id="Fill-192" fill="#FFFFFE"></path>
                <path d="M173.83095,83.8498925 L116.853961,83.8498925 C115.757168,83.8498925 114.868495,82.9620968 114.868495,81.8653047 C114.868495,80.7693907 115.757168,79.8798387 116.853961,79.8798387 L173.83095,79.8798387 C174.926864,79.8798387 175.816416,80.7693907 175.816416,81.8653047 C175.816416,82.9620968 174.926864,83.8498925 173.83095,83.8498925" id="Fill-193" fill="#FFFFFE"></path>
                <path d="M141.299516,67.3593728 L116.853961,67.3593728 C115.757168,67.3593728 114.868495,66.4706989 114.868495,65.3739068 C114.868495,64.2779928 115.757168,63.389319 116.853961,63.389319 L141.299516,63.389319 C142.396308,63.389319 143.284982,64.2779928 143.284982,65.3739068 C143.284982,66.4706989 142.396308,67.3593728 141.299516,67.3593728" id="Fill-194" fill="#FFFFFE"></path>
                <path d="M173.704498,67.3593728 L149.258943,67.3593728 C148.162151,67.3593728 147.273477,66.4706989 147.273477,65.3739068 C147.273477,64.2779928 148.162151,63.389319 149.258943,63.389319 L173.704498,63.389319 C174.80129,63.389319 175.689964,64.2779928 175.689964,65.3739068 C175.689964,66.4706989 174.80129,67.3593728 173.704498,67.3593728" id="Fill-195" fill="#FFFFFE"></path>
                <path d="M114.868495,89.8905914 L114.868495,99.4025627 C114.868495,101.233477 116.971631,102.265287 118.419677,101.145663 L132.996738,89.862491 L114.868495,89.8905914" id="Fill-196" fill="#3A5DC5"></path>
                <path d="M238.312491,7.86037634 L158.250179,7.86037634 C156.617724,7.86037634 155.295251,9.1837276 155.295251,10.8161828 L155.295251,42.2121864 C155.295251,43.8446416 156.617724,45.1679928 158.250179,45.1679928 L221.497939,45.1679928 L232.961129,54.0389247 C234.408297,55.1603047 236.511434,54.1284946 236.511434,52.2975806 L236.511434,45.1679928 L238.312491,45.1679928 C239.944068,45.1679928 241.267419,43.8446416 241.267419,42.2121864 L241.267419,10.8161828 C241.267419,9.1837276 239.944068,7.86037634 238.312491,7.86037634" id="Fill-197" fill="#FFFFFE"></path>
                <path d="M158.250179,8.29944444 C156.862724,8.29944444 155.733441,9.4287276 155.733441,10.8161828 L155.733441,42.2121864 C155.733441,43.6005197 156.862724,44.7289247 158.250179,44.7289247 L221.647222,44.7289247 L233.228961,53.6920609 C233.773405,54.1135663 234.467133,54.1855735 235.086219,53.8817384 C235.704427,53.5779032 236.073244,52.9860394 236.073244,52.2975806 L236.073244,44.7289247 L238.312491,44.7289247 C239.699946,44.7289247 240.828351,43.6005197 240.828351,42.2121864 L240.828351,10.8161828 C240.828351,9.4287276 239.699946,8.29944444 238.312491,8.29944444 L158.250179,8.29944444 Z M234.305556,54.9425269 C233.733889,54.9425269 233.166613,54.7546057 232.692419,54.3866667 L221.3469,45.6070609 L158.250179,45.6070609 C156.378871,45.6070609 154.855305,44.0834946 154.855305,42.2121864 L154.855305,10.8161828 C154.855305,8.94487455 156.378871,7.42130824 158.250179,7.42130824 L238.312491,7.42130824 C240.182921,7.42130824 241.706487,8.94487455 241.706487,10.8161828 L241.706487,42.2121864 C241.706487,44.0834946 240.182921,45.6070609 238.312491,45.6070609 L236.95138,45.6070609 L236.95138,52.2975806 C236.95138,53.3135842 236.384104,54.2215771 235.472599,54.6694265 C235.099391,54.8520789 234.701595,54.9425269 234.305556,54.9425269 L234.305556,54.9425269 Z" id="Fill-198" fill="#4169E2"></path>
                <path d="M196.570287,28.4992115 L234.525968,28.4992115 C235.62276,28.4992115 236.511434,27.6105376 236.511434,26.5146237 C236.511434,25.4178315 235.62276,24.5291577 234.525968,24.5291577 L196.570287,24.5291577 C195.473495,24.5291577 194.584821,25.4178315 194.584821,26.5146237 C194.584821,27.6105376 195.473495,28.4992115 196.570287,28.4992115" id="Fill-199" fill="#4169E2"></path>
                <path d="M170.070771,28.4992115 L188.862885,28.4992115 C189.959677,28.4992115 190.848351,27.6105376 190.848351,26.5146237 C190.848351,25.4178315 189.959677,24.5291577 188.862885,24.5291577 L170.070771,24.5291577 C168.974857,24.5291577 168.085305,25.4178315 168.085305,26.5146237 C168.085305,27.6105376 168.974857,28.4992115 170.070771,28.4992115" id="Fill-200" fill="#4169E2"></path>
                <path d="M177.549857,36.7449104 L234.525968,36.7449104 C235.62276,36.7449104 236.511434,35.8562366 236.511434,34.7594444 C236.511434,33.6626523 235.62276,32.7739785 234.525968,32.7739785 L177.549857,32.7739785 C176.453065,32.7739785 175.564391,33.6626523 175.564391,34.7594444 C175.564391,35.8562366 176.453065,36.7449104 177.549857,36.7449104" id="Fill-201" fill="#4169E2"></path>
                <path d="M162.035824,20.2543907 L234.525968,20.2543907 C235.62276,20.2543907 236.511434,19.3657168 236.511434,18.2689247 C236.511434,17.1721326 235.62276,16.2834588 234.525968,16.2834588 L162.035824,16.2834588 C160.93991,16.2834588 160.050358,17.1721326 160.050358,18.2689247 C160.050358,19.3657168 160.93991,20.2543907 162.035824,20.2543907" id="Fill-202" fill="#4169E2"></path>
            </g>
        </g>
    </g>
</svg>