<?xml version="1.0" encoding="UTF-8"?>
<svg width="100px" height="100px" viewBox="0 0 100 100" version="1.1" xmlns="http://www.w3.org/2000/svg" xmlns:xlink="http://www.w3.org/1999/xlink">
    <title>tick</title>
    <g id="Page-1" stroke="none" stroke-width="1" fill="none" fill-rule="evenodd">
        <g id="15-copy-5" transform="translate(-157.000000, -263.000000)" fill-rule="nonzero">
            <g id="tick" transform="translate(157.000000, 263.000000)">
                <path d="M94.7716797,41.0886719 C96.0730469,36.7349609 96.2285156,32.3630859 96.2351562,32.1558594 C96.2623047,31.3138672 95.9255859,30.5009766 95.3109375,29.9246094 C95.1595703,29.7826172 91.9552734,26.7986328 87.9541016,24.6400391 C87.4910156,20.1173828 85.9601562,16.0146484 85.8869141,15.8205078 C85.5898437,15.0324219 84.9675781,14.4101563 84.1792969,14.1130859 C83.9851562,14.0398438 79.8826172,12.5089844 75.3599609,12.0458984 C73.2013672,8.04453125 70.2169922,4.84042969 70.0751953,4.6890625 C69.4990234,4.07460938 68.6880859,3.7375 67.8441406,3.76503906 C67.6367187,3.77167969 63.2648437,3.92714844 58.9111328,5.22871094 C55.4214844,2.35214844 51.4828125,0.39453125 51.2957031,0.30234375 C50.4787109,-0.100585937 49.5208984,-0.100585937 48.7039062,0.30234375 C48.5167969,0.39453125 44.578125,2.35214844 41.0884766,5.22871094 C36.7347656,3.92714844 32.3628906,3.771875 32.1554687,3.76503906 C31.3132812,3.73769531 30.5005859,4.07460938 29.9244141,4.6890625 C29.7824219,4.84042969 26.7982422,8.04472656 24.6396484,12.0458984 C20.1169922,12.5089844 16.0144531,14.0398438 15.8203125,14.1130859 C15.0320312,14.4101563 14.4099609,15.0324219 14.1126953,15.8205078 C14.0394531,16.0146484 12.5083984,20.1173828 12.0455078,24.6400391 C8.04433594,26.7986328 4.84003906,29.7826172 4.68867187,29.9246094 C4.07421875,30.5009766 3.73730469,31.3138672 3.76445312,32.1558594 C3.77109375,32.3632813 3.9265625,36.7349609 5.228125,41.0886719 C2.3515625,44.5783203 0.393945312,48.5171875 0.301757812,48.7041016 C-0.101171875,49.5210938 -0.101171875,50.4787109 0.301757812,51.2957031 C0.393945312,51.4826172 2.35136719,55.4220703 5.22832031,58.9115234 C3.92714844,63.2650391 3.77128906,67.6367188 3.76464844,67.8439453 C3.7375,68.6861328 4.07421875,69.4992188 4.68886719,70.0753906 C4.84023437,70.2173828 8.04453125,73.2009766 12.0455078,75.3595703 C12.5085937,79.8826172 14.0394531,83.9853516 14.1126953,84.1794922 C14.4099609,84.9677734 15.0322266,85.5900391 15.8205078,85.8871094 C16.0146484,85.9601563 20.1169922,87.490625 24.6394531,87.9535156 C26.7980469,91.9550781 29.7824219,95.159375 29.9242187,95.3105469 C30.5005859,95.925 31.3087891,96.259375 32.1554687,96.2345703 C32.3626953,96.2279297 36.7341797,96.0720703 41.0875,94.7708984 C44.5773437,97.6476563 48.5164062,99.6054688 48.7035156,99.6978516 C49.5205078,100.100586 50.4783203,100.100781 51.2953125,99.6978516 C51.4824219,99.6054688 55.4214844,97.6476563 58.9113281,94.7708984 C63.2648437,96.0720703 67.6361328,96.2279297 67.8433594,96.2345703 C68.6849609,96.2572266 69.4982422,95.925 70.0746094,95.3105469 C70.2166016,95.159375 73.2009766,91.9550781 75.3595703,87.9535156 C79.8820312,87.490625 83.984375,85.9601563 84.1785156,85.8871094 C84.9667969,85.5900391 85.5890625,84.9677734 85.8863281,84.1794922 C85.9595703,83.9853516 87.490625,79.8826172 87.9535156,75.3595703 C91.9544922,73.2009766 95.1587891,70.2173828 95.3101562,70.0753906 C95.9248047,69.4992188 96.2615234,68.6861328 96.234375,67.8439453 C96.2277344,67.6365234 96.071875,63.2650391 94.7707031,58.9115234 C97.6476562,55.4220703 99.6048828,51.4826172 99.6972656,51.2955078 C100.1,50.4787109 100.1,49.5210938 99.6972656,48.7041016 C99.6056641,48.5171875 97.6480469,44.5783203 94.7716797,41.0886719 Z" id="Shape" fill="#4169E2"></path>
                <path d="M44.140625,62.9322266 L33.4273437,52.2185547 L37.5703125,48.0755859 L42.0691406,52.5740234 C43.2130859,53.7179688 45.0681641,53.7177734 46.2121094,52.5738281 L62.4296875,36.3568359 L66.5726562,40.4998047 L44.140625,62.9322266 Z" id="Shape" fill="#FFFFFF"></path>
            </g>
        </g>
    </g>
</svg>