<?xml version="1.0" encoding="UTF-8"?>
<svg width="441px" height="445px" viewBox="0 0 441 445" version="1.1" xmlns="http://www.w3.org/2000/svg" xmlns:xlink="http://www.w3.org/1999/xlink">
    <title>Group 2</title>
    <defs>
        <polygon id="path-1" points="0 0.0469268293 47.9530732 0.0469268293 47.9530732 47.9941463 0 47.9941463"></polygon>
        <polygon id="path-3" points="0 0.0326131526 33.3263704 0.0326131526 33.3263704 33.3549154 0 33.3549154"></polygon>
    </defs>
    <g id="Page-1" stroke="none" stroke-width="1" fill="none" fill-rule="evenodd">
        <g id="01-copy" transform="translate(13.000000, -24.000000)">
            <g id="Group-2" transform="translate(-13.000000, 24.000000)">
                <g id="blob-(1)" transform="translate(220.500000, 222.500000) rotate(-50.000000) translate(-220.500000, -222.500000) translate(56.000000, 73.000000)" fill="#4169E2" fill-rule="nonzero" opacity="0.100000001">
                    <path d="M261.5917,69.1981213 C294.964333,104.021739 329.580668,145.06386 328.129683,187.971532 C326.471416,230.879203 288.74583,275.85971 243.972607,291.820534 C199.199385,307.574076 147.585808,294.307936 100.947035,271.506757 C54.3082609,248.705579 12.8515732,216.369363 2.6946847,175.741809 C-7.66948723,134.906971 13.2661401,85.7807964 45.3950731,51.3717456 C77.3167226,16.9626947 120.638961,-2.93651538 158.157264,1.41643683 C195.88285,5.76938904 228.011783,34.581787 261.5917,69.1981213 Z" id="Path"></path>
                </g>
                <g id="651" transform="translate(157.000000, 98.000000)">
                    <path d="M87.765411,45.3767123 C87.9811644,36.9263699 85.7688356,28.3253425 80.885274,20.6678082 C67.875,0.26369863 40.8339041,-5.69863014 20.4880137,7.34931507 C0.142123288,20.3972603 -5.80479452,47.515411 7.20719178,67.9195205 C16.4931507,82.4811644 32.9263699,89.6866438 48.9708904,87.8767123" id="Stroke-250" stroke="#DEECE8" stroke-width="5.26027397"></path>
                    <path d="M42.494863,82.5188356 C54.0736301,84.0376712 53.1815068,98.8441781 41.6044521,97.3236301 C30.0256849,95.8065068 30.9178082,81 42.494863,82.5188356 Z M2.92636986,101.770548 L2.03424658,116.587329 C1,133.765411 14.4503425,149.563356 32.0753425,151.875 L43.1763699,153.332192 C60.8013699,155.643836 75.9280822,143.594178 76.9623288,126.417808 L77.8544521,111.597603 C78.8869863,94.4212329 65.4383562,78.6232877 47.8133562,76.3099315 L36.3784247,69.7859589 C18.7534247,67.4726027 3.96061644,84.5924658 2.92636986,101.770548 L2.92636986,101.770548 Z" id="Fill-251" fill="#141E26"></path>
                    <polyline id="Fill-252" fill="#7B9598" points="57.2825342 117.777397 52.875 190.991438 62.6318493 192.077055 59.7893836 197.820205 52.1678082 202.741438 52.0650685 204.450342 61.4657534 205.078767 58.9794521 211.27911 51.3578767 216.200342 51.255137 217.910959 60.6558219 218.537671 58.1695205 224.739726 52.8287671 228.17637 50.2928082 233.898973 32.0273973 248.393836 16.4400685 229.458904 21.4760274 145.797945 25.3030822 139.428082 57.2825342 117.777397"></polyline>
                    <polyline id="Fill-253" fill="#C5D2CD" points="53.2482877 223.681507 52.9828767 227.933219 34.7106164 242.416096 19.135274 223.484589 26.1267123 107.368151 59.9726027 111.792808 56.4126712 171.09589 55.7876712 181.330479 55.5753425 185.015411 62.4760274 191.839041 54.8527397 196.763699 54.755137 198.47089 61.6695205 205.304795 54.0445205 210.229452 53.9469178 211.936644 60.8613014 218.770548 53.2482877 223.681507"></polyline>
                    <path d="M55.7876712,181.42637 C44.390411,183.518836 33.015411,185.494863 21.630137,187.376712 L22.2431507,177.037671 C33.6284247,175.155822 45.0273973,173.172945 56.4126712,171.09589 L55.7876712,181.42637" id="Fill-254" fill="#D3E7E1"></path>
                    <polyline id="Fill-255" fill="#7B9598" points="33.0770548 232.020548 26.7910959 220.803082 33.3784247 111.388699 40.2842466 112.294521 33.0770548 232.020548"></polyline>
                    <path d="M45.3441781,96.2568493 C33.7568493,94.7465753 34.8082192,77.2517123 46.3955479,78.7619863 C57.9708904,80.2859589 56.9212329,97.7808219 45.3441781,96.2568493 Z M81.0428082,119.606164 L81.9315068,104.789384 C82.9726027,87.6130137 69.5222603,71.8253425 51.8955479,69.4965753 L40.7910959,68.0376712 C23.7619863,65.8082192 9.05479452,76.9931507 7.15924658,93.2619863 C7.09246575,93.8184932 7.03938356,94.385274 7,94.9640411 L6.11130137,109.780822 C5.59589041,118.208904 8.57876712,126.313356 13.8458904,132.638699 C19.2893836,139.212329 27.1746575,143.892123 36.1472603,145.071918 L47.2534247,146.532534 C64.875,148.835616 80.0017123,136.782534 81.0428082,119.606164 L81.0428082,119.606164 Z" id="Fill-256" fill="#1D2B34"></path>
                    <path d="M45.5171233,98.3527397 C51.5941781,99.1506849 56.8099315,94.9965753 57.1660959,89.0736301 C57.5222603,83.1523973 52.885274,77.7037671 46.8082192,76.9075342" id="Stroke-257" stroke="#141E26" stroke-width="4.95719178"></path>
                    <path d="M17.2842466,137.340753 C22.4383562,141.313356 28.989726,144.130137 36.2191781,145.078767 L47.3202055,146.534247 C54.0530822,147.417808 60.4006849,146.553082 65.7226027,144.35274" id="Stroke-258" stroke="#141E26" stroke-width="2.01541096"></path>
                    <path d="M46.8082192,76.9075342 C40.7311644,76.109589 35.5171233,80.265411 35.1609589,86.1866438 C34.8030822,92.109589 39.4400685,97.5565068 45.5171233,98.3527397" id="Stroke-259" stroke="#141E26" stroke-width="4.95719178"></path>
                    <path d="M71.1232877,75.2071918 C82.6849315,73.5684932 85.7928082,88.0719178 74.2311644,89.7106164 C62.6695205,91.3493151 59.5616438,76.8458904 71.1232877,75.2071918 Z M38.1592466,104.354452 L41.2705479,118.869863 C44.875,135.696918 62.0650685,147.315068 79.6660959,144.820205 L90.7517123,143.248288 C108.351027,140.755137 123.501712,123.929795 119.648973,103.381849 L112.979452,93.75 C109.375,76.9246575 92.1832192,65.3065068 74.5839041,67.8013699 L61.8202055,64.5770548 C44.2191781,67.0719178 34.5530822,87.5291096 38.1592466,104.354452 L38.1592466,104.354452 Z" id="Fill-260" fill="#141E26"></path>
                    <polyline id="Fill-261" fill="#7B9598" points="95.9571918 104.07363 111.327055 175.792808 121.017123 174.224315 119.816781 180.518836 113.792808 187.30137 114.150685 188.97774 123.376712 187.063356 122.642123 193.703767 116.618151 200.486301 116.976027 202.162671 126.202055 200.248288 125.467466 206.888699 121.243151 211.631849 120.333904 217.82363 106.618151 236.681507 86.5291096 222.614726 68.9674658 140.662671 70.9486301 133.5 95.9571918 104.07363"></polyline>
                    <polyline id="Fill-262" fill="#C5D2CD" points="120.441781 207.188356 121.325342 211.354452 107.60274 230.203767 87.5239726 216.136986 78.8356164 175.577055 76.6797945 165.541096 63.1523973 102.390411 96.9452055 97.5856164 109.40411 155.67637 111.542808 165.705479 112.327055 169.311644 120.803082 174.037671 114.777397 180.82363 115.140411 182.494863 123.631849 187.226027 117.606164 194.013699 117.969178 195.684932 126.462329 200.416096 120.441781 207.188356"></polyline>
                    <path d="M111.542808,165.705479 C100.659247,169.101027 89.765411,172.383562 78.8356164,175.577055 L76.6797945,165.541096 C87.6113014,162.349315 98.5256849,159.058219 109.40411,155.67637 L111.542808,165.705479" id="Fill-263" fill="#D3E7E1"></path>
                    <polyline id="Fill-264" fill="#7B9598" points="103.243151 220.626712 94.1832192 211.503425 71.2157534 104.321918 78.1113014 103.34589 103.243151 220.626712"></polyline>
                    <path d="M81.1113014,85.4931507 C70.4434932,90.260274 62.1969178,74.7945205 72.8630137,70.0273973 C83.5291096,65.2773973 91.7773973,80.7414384 81.1113014,85.4931507 Z M119.339041,99.4691781 L116.224315,84.9554795 C112.626712,68.1284247 95.4383562,56.5222603 77.8339041,59.0017123 L66.7431507,60.5702055 C49.739726,62.9828767 38.5667808,77.7003425 41.0993151,93.8818493 C41.1849315,94.4366438 41.2842466,94.9982877 41.4023973,95.5650685 L44.515411,110.078767 C46.2773973,118.337329 51.3219178,125.344178 58.0907534,130.02911 C65.0958904,134.90411 73.9469178,137.299658 82.9075342,136.032534 L93.9982877,134.464041 C111.594178,131.962329 122.938356,116.296233 119.339041,99.4691781 L119.339041,99.4691781 Z" id="Fill-265" fill="#283C46"></path>
                    <path d="M79.4195205,88.510274 C85.4863014,87.6506849 89.3989726,82.2517123 88.1558219,76.4503425 C86.9126712,70.6489726 80.984589,66.6421233 74.9178082,67.5017123" id="Stroke-266" stroke="#141E26" stroke-width="4.95719178"></path>
                    <path d="M62.6626712,133.635274 C68.6934932,136.085616 75.7585616,137.042808 82.9777397,136.020548 L94.0633562,134.44863 C100.785959,133.494863 106.671233,130.962329 111.208904,127.417808" id="Stroke-267" stroke="#141E26" stroke-width="2.01541096"></path>
                    <path d="M65.4212329,80.6934932 C78.8527397,77.0547945 87.4486301,57.8099315 87.765411,45.3767123" id="Stroke-268" stroke="#DEECE8" stroke-width="5.26027397"></path>
                    <path d="M74.9178082,67.5017123 C68.8493151,68.3630137 64.9383562,73.7636986 66.1815068,79.5633562 C67.4246575,85.3664384 73.3510274,89.3715753 79.4195205,88.510274" id="Stroke-269" stroke="#141E26" stroke-width="4.95719178"></path>
                </g>
                <g id="Basic_Elements_(293)" transform="translate(249.000000, 98.000000)">
                    <g id="Group-3">
                        <mask id="mask-2" fill="white">
                            <use xlink:href="#path-1"></use>
                        </mask>
                        <g id="Clip-2"></g>
                        <path d="M23.9765854,48 C37.182439,48 47.9530732,37.2293659 47.9530732,24.0235122 C47.9530732,10.8176585 37.182439,0.0469268293 23.9765854,0.0469268293 C10.7707317,0.0469268293 0,10.8176585 0,24.0235122 C0,37.2293659 10.7707317,48 23.9765854,48" id="Fill-1" fill="#E73D35" mask="url(#mask-2)"></path>
                    </g>
                    <path d="M22.3621463,37.1942439 L25.7542439,37.1942439 L25.7542439,33.8022439 L22.3621463,33.8022439 L22.3621463,37.1942439 Z M21.4840976,37.6332683 L21.4840976,33.3632195 C21.4840976,33.1206829 21.6807805,32.9241951 21.923122,32.9241951 L26.1932683,32.9241951 C26.4357073,32.9241951 26.6322927,33.1206829 26.6322927,33.3632195 L26.6322927,37.6332683 C26.6322927,37.8757073 26.4357073,38.0722927 26.1932683,38.0722927 L21.923122,38.0722927 C21.6807805,38.0722927 21.4840976,37.8757073 21.4840976,37.6332683 L21.4840976,37.6332683 Z" id="Fill-4" fill="#FFFFFE"></path>
                    <path d="M21.7998049,31.0861463 L25.8089756,31.0861463 C25.810439,30.511122 25.8366829,30.0130732 25.8876098,29.5916098 C25.9555122,29.0293659 26.0683902,28.5835122 26.2258537,28.2534634 C26.3817561,27.9268293 26.6518049,27.5570732 27.0361951,27.1434146 C27.3983415,26.753561 27.8726829,26.3148293 28.4589268,25.8262439 C29.5393171,24.9290732 30.4333659,24.1238049 31.1416585,23.411122 C31.8302439,22.7182439 32.3352195,22.1199024 32.6573659,21.6167805 C32.6598049,21.6125854 32.6623415,21.6083902 32.664878,21.6042927 L32.6652683,21.6044878 L32.6660488,21.6032195 L32.6667317,21.6038049 C32.9783415,21.1086829 33.2133659,20.5981463 33.3703415,20.0731707 C33.5251707,19.5555122 33.6033171,19.0223415 33.6033171,18.4741463 C33.6033171,17.465561 33.3896585,16.5230244 32.9629268,15.6451707 C32.5319024,14.758439 31.882439,13.9320976 31.0156098,13.1646829 C30.1469268,12.3983415 29.126439,11.8219512 27.9542439,11.4364878 C26.772,11.0476098 25.4329756,10.8527805 23.9373659,10.8527805 C22.5126829,10.8527805 21.2329756,11.044 20.0958049,11.426439 C18.974439,11.8036098 17.9853659,12.3690732 17.1263415,13.1227317 C17.1225366,13.1263415 17.1187317,13.1299512 17.1148293,13.1333659 L17.1145366,13.1330732 L17.1138537,13.1337561 L17.1129756,13.1327805 C16.2534634,13.8927805 15.5931707,14.7324878 15.1329756,15.6519024 C14.7332683,16.4505366 14.4829268,17.313561 14.382439,18.2409756 L18.5063415,18.754439 C18.6794146,18.0810732 18.9075122,17.4785366 19.1901463,16.9474146 C19.532878,16.3033171 19.954439,15.7684878 20.4537561,15.3440976 C20.9572683,14.919122 21.5214634,14.5997073 22.1461463,14.3867317 C22.764,14.1760976 23.4372683,14.0702439 24.1660488,14.0702439 C24.9212683,14.0702439 25.6022439,14.1708293 26.2097561,14.3718049 C26.822439,14.5745366 27.3582439,14.8786341 27.8179512,15.284 C27.8242927,15.2889756 27.8303415,15.2942439 27.8364878,15.2997073 L27.5430244,15.6262439 L27.8362927,15.3004878 C28.769561,16.1389268 29.2361951,17.1421463 29.2361951,18.3174634 C29.2361951,18.7426341 29.1690732,19.1522927 29.0337561,19.5444878 C28.9060488,19.9149268 28.7152195,20.270439 28.4605854,20.6091707 C28.4529756,20.6216585 28.4446829,20.6339512 28.4357073,20.6458537 L28.4338537,20.6444878 L28.4337561,20.6445854 L28.4350244,20.6456585 C28.2672195,20.8682927 27.9374634,21.1980488 27.4475122,21.6350244 C26.9837073,22.048878 26.3512195,22.5804878 25.5525854,23.2293659 C24.7878049,23.8539512 24.1489756,24.4449756 23.6376585,25.0047805 C23.144878,25.5443902 22.7758049,26.0505366 22.5320976,26.5249756 C22.5298537,26.5297561 22.5276098,26.534439 22.5251707,26.5390244 L22.5235122,26.5382439 C22.2806829,27.0119024 22.0979512,27.5537561 21.9754146,28.1637073 C21.8516098,28.7794146 21.7897561,29.4710244 21.7897561,30.2383415 C21.7897561,30.3887805 21.7908293,30.5313171 21.792878,30.6708293 C21.7947317,30.7861463 21.7969756,30.9244878 21.7998049,31.0861463 Z M26.2496585,31.9641951 L21.3702439,31.9641951 C21.1279024,31.9641951 20.9312195,31.7675122 20.9312195,31.5251707 C20.9312195,31.5150244 20.9317073,31.5051707 20.9322927,31.4952195 C20.9262439,31.1645854 20.9214634,30.8937561 20.9183415,30.6810732 C20.9138537,30.3927805 20.9117073,30.2445854 20.9117073,30.2383415 C20.9117073,29.4249756 20.9803902,28.6761951 21.1178537,27.9921951 C21.2563902,27.3028293 21.4654634,26.6854634 21.744878,26.1403902 L21.7435122,26.1398049 L21.7441951,26.1385366 L21.7439024,26.1383415 C21.7463415,26.133561 21.748878,26.128878 21.7515122,26.1241951 C22.0303415,25.581561 22.4435122,25.0126829 22.9894634,24.4148293 C23.5265366,23.8267317 24.1974634,23.2059512 25.0002927,22.5503415 C25.7692683,21.925561 26.3910244,21.4021463 26.8644878,20.9799024 C27.3117073,20.5809756 27.6026341,20.2933659 27.7352195,20.1176585 L27.7346341,20.1172683 C27.7440976,20.1045854 27.7542439,20.0926829 27.7647805,20.0813659 C27.9578537,19.8233171 28.104,19.5489756 28.2037073,19.2598049 C28.3069268,18.9606829 28.3581463,18.6460488 28.3581463,18.3174634 C28.3581463,17.4032195 27.9892683,16.6172683 27.2516098,15.9536585 L27.2515122,15.9537561 L27.2499512,15.9524878 L27.2496585,15.9527805 C27.2453659,15.9490732 27.2412683,15.9451707 27.2372683,15.9412683 C26.8676098,15.6156098 26.4338537,15.3702439 25.9353171,15.2052683 C25.4176585,15.0339512 24.8281951,14.9482927 24.1660488,14.9482927 C23.5310244,14.9482927 22.9515122,15.0380488 22.4274146,15.2167805 C21.9075122,15.3939512 21.4382439,15.6597073 21.0197073,16.0129756 C20.6040976,16.3661463 20.2512195,16.815122 19.9618537,17.3589268 C19.6666341,17.9136585 19.4361951,18.5713171 19.271122,19.331122 L18.842439,19.238439 L19.2714146,19.3316098 C19.2218537,19.5598049 19.0032195,19.7076098 18.7756098,19.6723902 L13.857561,19.06 L13.9107317,18.6244878 L13.8564878,19.0600976 C13.6159024,19.0301463 13.4451707,18.8108293 13.475122,18.5702439 L13.4754146,18.5683902 C13.5505366,17.3789268 13.8426341,16.2764878 14.3510244,15.260878 C14.8623415,14.2393171 15.5903415,13.3112195 16.5342439,12.476878 L16.824,12.8044878 L16.5332683,12.4755122 C16.5383415,12.4710244 16.5435122,12.4667317 16.5487805,12.462439 C17.492878,11.6342439 18.5818537,11.0121951 19.8180488,10.5963902 C21.0503415,10.1819512 22.4226341,9.97473171 23.9373659,9.97473171 C25.5232195,9.97473171 26.9525854,10.1844878 28.2251707,10.6030244 C29.5107317,11.0257561 30.6341463,11.6616585 31.5952195,12.509561 C32.5508293,13.3555122 33.2699512,14.2732683 33.7518049,15.2643902 C34.2378537,16.2644878 34.4813659,17.3338537 34.4813659,18.4741463 C34.4813659,19.1052683 34.3905366,19.7220488 34.2108293,20.3234146 C34.0315122,20.9229268 33.7629268,21.5059512 33.4068293,22.0714146 L33.0364878,21.8381463 L33.4079024,22.0720976 C33.4040976,22.0781463 33.4002927,22.0839024 33.3961951,22.0896585 C33.0429268,22.6413659 32.4985366,23.288 31.762439,24.0285854 C31.0405854,24.7548293 30.1259512,25.5785366 29.0179512,26.498439 C28.4675122,26.9570732 28.0207805,27.3707317 27.677561,27.7401951 C27.3564878,28.0858537 27.1366829,28.3825366 27.0181463,28.6307317 C26.9014634,28.8754146 26.8149268,29.2297561 26.7588293,29.6945366 C26.6983415,30.1946341 26.674439,30.8020488 26.6870244,31.5174634 L26.6886829,31.5174634 C26.692878,31.7598049 26.4999024,31.9598049 26.2574634,31.9641951 L26.2496585,31.9641951 L26.2496585,31.9641951 L26.2496585,31.9641951 Z" id="Fill-5" fill="#FFFFFE"></path>
                </g>
                <g id="Basic_Elements_(293)-Copy" transform="translate(123.000000, 189.000000) rotate(-30.000000) translate(-123.000000, -189.000000) translate(106.000000, 172.000000)">
                    <g id="Group-3">
                        <mask id="mask-4" fill="white">
                            <use xlink:href="#path-3"></use>
                        </mask>
                        <g id="Clip-2"></g>
                        <path d="M16.6632191,33.3589836 C25.8410078,33.3589836 33.3263704,25.8736209 33.3263704,16.6958323 C33.3263704,7.51804361 25.8410078,0.0326131526 16.6632191,0.0326131526 C7.48543046,0.0326131526 0,7.51804361 0,16.6958323 C0,25.8736209 7.48543046,33.3589836 16.6632191,33.3589836" id="Fill-1" fill="#E73D35" mask="url(#mask-4)"></path>
                    </g>
                    <path d="M15.5412182,25.8492119 L17.8986541,25.8492119 L17.8986541,23.4918437 L15.5412182,23.4918437 L15.5412182,25.8492119 Z M14.9309929,26.1543246 L14.9309929,23.1867311 C14.9309929,23.0181733 15.0676833,22.8816184 15.2361055,22.8816184 L18.2037668,22.8816184 C18.3722568,22.8816184 18.5088795,23.0181733 18.5088795,23.1867311 L18.5088795,26.1543246 C18.5088795,26.3228145 18.3722568,26.4594372 18.2037668,26.4594372 L15.2361055,26.4594372 C15.0676833,26.4594372 14.9309929,26.3228145 14.9309929,26.1543246 L14.9309929,26.1543246 Z" id="Fill-4" fill="#FFFFFE"></path>
                    <path d="M15.1504028,21.6042134 L17.9366915,21.6042134 C17.9377086,21.2045837 17.9559475,20.8584503 17.9913406,20.5655422 C18.0385314,20.1747946 18.1169792,19.8649357 18.2264129,19.6355588 C18.3347618,19.408555 18.52244,19.1515823 18.7895831,18.8640984 C19.0412671,18.5931584 19.3709244,18.2882491 19.7783515,17.9486926 C20.5291999,17.325178 21.1505448,16.7655336 21.6427932,16.270234 C22.1213455,15.7886984 22.4722928,15.3728638 22.6961777,15.0232047 C22.6978728,15.0202892 22.6996357,15.0173736 22.7013985,15.0145259 L22.7016698,15.0146615 L22.7022122,15.0137801 L22.7026868,15.0141869 C22.919249,14.6700876 23.082586,14.3152755 23.1916807,13.9504286 C23.2992837,13.5906669 23.3535938,13.2201245 23.3535938,12.8391405 C23.3535938,12.138195 23.2051056,11.4831521 22.9085361,10.8730624 C22.6089833,10.2568026 22.15762,9.68251278 21.555192,9.14917586 C20.9514758,8.61658477 20.2422584,8.21600576 19.4276076,7.94811685 C18.6059731,7.67785484 17.6753795,7.54245262 16.6359624,7.54245262 C15.6458379,7.54245262 14.7564684,7.67534614 13.9661588,7.94113316 C13.1868333,8.20325883 12.4994484,8.59624393 11.9024447,9.12002065 C11.8998003,9.12252936 11.897156,9.12503806 11.8944439,9.12741116 L11.8942405,9.12720775 L11.8937659,9.12768237 L11.8931557,9.12700434 C11.2958129,9.65518825 10.8369235,10.2387671 10.5170976,10.8777408 C10.2393095,11.4327746 10.0653275,12.0325583 9.99549056,12.6770918 L12.8615154,13.033938 C12.9817976,12.565963 13.1403206,12.1472128 13.3367453,11.7780943 C13.5749366,11.3304601 13.8679126,10.9587651 14.2149274,10.6638229 C14.5648577,10.3684738 14.9569613,10.1464874 15.3911027,9.99847389 C15.820498,9.85208762 16.2884052,9.77852157 16.7948922,9.77852157 C17.3197537,9.77852157 17.7930174,9.84842627 18.2152255,9.98810006 C18.6410271,10.1289943 19.0134002,10.3403357 19.332887,10.6220564 C19.3372942,10.6255143 19.341498,10.6291756 19.3457696,10.6329726 L19.1418187,10.8599086 L19.345634,10.633515 C19.9942357,11.2162124 20.3185365,11.9134287 20.3185365,12.7302492 C20.3185365,13.0257338 20.2718882,13.3104379 20.1778457,13.5830052 C20.0890918,13.8404524 19.9564695,14.0875259 19.7795042,14.3229372 C19.7742155,14.331616 19.7684523,14.3401592 19.7622144,14.3484311 L19.7609262,14.3474819 L19.7608584,14.3475497 L19.7617398,14.3482955 C19.645119,14.5030215 19.4159455,14.732195 19.0754398,15.0358838 C18.7531052,15.3235033 18.3135396,15.6929609 17.7585057,16.1439174 C17.2269995,16.577991 16.7830267,16.9887404 16.4276721,17.3777929 C16.0852001,17.7528103 15.8287021,18.1045713 15.6593307,18.4342964 C15.6577712,18.4376187 15.6562117,18.4408732 15.6545167,18.44406 L15.653364,18.4435175 C15.4846028,18.7727002 15.3576082,19.149277 15.2724478,19.5731802 C15.1864061,20.0010837 15.1434191,20.4817379 15.1434191,21.015007 C15.1434191,21.1195589 15.1441649,21.2186188 15.1455888,21.3155769 C15.146877,21.3957198 15.1484365,21.4918642 15.1504028,21.6042134 Z M18.2429568,22.2144387 L14.851867,22.2144387 C14.6834448,22.2144387 14.5467543,22.0777483 14.5467543,21.9093261 C14.5467543,21.9022746 14.5470933,21.8954265 14.5475002,21.8885106 C14.5432964,21.6587269 14.539974,21.4705063 14.5378044,21.3226962 C14.5346854,21.1223389 14.5331938,21.0193464 14.5331938,21.015007 C14.5331938,20.449735 14.5809269,19.9293484 14.6764611,19.4539829 C14.7727411,18.9748882 14.9180425,18.545832 15.1122298,18.1670177 L15.1112805,18.1666109 L15.1117552,18.1657294 L15.1115518,18.1655938 C15.1132468,18.1622715 15.1150097,18.1590169 15.1168404,18.1557624 C15.3106208,17.7786432 15.5977657,17.383285 15.9771903,16.9677893 C16.3504447,16.559074 16.8167247,16.1276447 17.374674,15.6720098 C17.9090958,15.2378006 18.3412031,14.8740385 18.6702502,14.5805879 C18.9810582,14.3033422 19.1832462,14.1034595 19.2753902,13.9813467 L19.2749834,13.9810755 C19.2815603,13.9722611 19.2886118,13.9639892 19.2959345,13.956124 C19.4301163,13.7767856 19.5316849,13.5861241 19.6009794,13.3851566 C19.6727147,13.1772731 19.7083112,12.9586091 19.7083112,12.7302492 C19.7083112,12.094869 19.4519488,11.5486496 18.9392917,11.0874549 L18.9392239,11.0875227 L18.9381391,11.0866412 L18.9379357,11.0868446 C18.9349523,11.0842681 18.9321046,11.081556 18.9293247,11.0788439 C18.6724198,10.8525181 18.3709685,10.681994 18.0244962,10.5673395 C17.6647344,10.4482777 17.2550699,10.3887469 16.7948922,10.3887469 C16.3535637,10.3887469 15.950815,10.4511255 15.5865783,10.5753402 C15.2252571,10.6984701 14.8991255,10.883165 14.6082515,11.128679 C14.3194115,11.3741251 14.0741687,11.6861537 13.8730656,12.0640866 C13.6678943,12.4496133 13.507744,12.9066721 13.3930217,13.4347204 L13.0950961,13.3703077 L13.3932251,13.4350594 C13.3587813,13.5936502 13.2068352,13.6963715 13.0486512,13.6718946 L9.63071144,13.2462964 L9.66766397,12.9436246 L9.6299656,13.2463642 C9.46276387,13.2255487 9.34410895,13.073128 9.36492441,12.9059263 L9.36512782,12.904638 C9.41733599,12.0779861 9.62033761,11.3118144 9.97365806,10.6059871 C10.3290126,9.89602384 10.8349572,9.25101569 11.4909494,8.67116604 L11.6923237,8.89884788 L11.4902714,8.6702168 C11.4937971,8.66709787 11.4973907,8.66411455 11.501052,8.66113122 C12.1571798,8.08555315 12.9139948,7.65324242 13.7731242,7.36426683 C14.6295416,7.07624049 15.5832559,6.93222732 16.6359624,6.93222732 C17.7380971,6.93222732 18.7314761,7.07800336 19.615896,7.36887743 C20.5093336,7.66266701 21.290083,8.10460574 21.9580085,8.69387998 C22.6221371,9.28179816 23.1219116,9.91961922 23.4567897,10.608428 C23.7945833,11.3034746 23.9638191,12.0466612 23.9638191,12.8391405 C23.9638191,13.2777569 23.9006947,13.7064063 23.7758019,14.1243428 C23.6511803,14.5409911 23.4645192,14.9461807 23.2170389,15.3391658 L22.9596595,15.1770493 L23.2177848,15.3396404 C23.2151405,15.3438442 23.2124961,15.3478446 23.2096484,15.3518449 C22.9641344,15.7352698 22.5857947,16.1846669 22.0742225,16.699358 C21.5725495,17.2040821 20.9368982,17.7765413 20.1668616,18.415854 C19.7843182,18.734595 19.4738491,19.0220789 19.2353188,19.2788482 C19.0121797,19.5190736 18.85942,19.7252619 18.7770396,19.8977523 C18.6959474,20.0678017 18.6358063,20.3140615 18.5968197,20.6370741 C18.554782,20.9846313 18.5381703,21.4067716 18.5469168,21.9039697 L18.5480695,21.9039697 C18.550985,22.0723919 18.416871,22.2113876 18.2483811,22.2144387 L18.2429568,22.2144387 L18.2429568,22.2144387 L18.2429568,22.2144387 Z" id="Fill-5" fill="#FFFFFE"></path>
                </g>
            </g>
        </g>
    </g>
</svg>