<?xml version="1.0" encoding="UTF-8"?>
<svg width="252px" height="216px" viewBox="0 0 252 216" version="1.1" xmlns="http://www.w3.org/2000/svg" xmlns:xlink="http://www.w3.org/1999/xlink">
    <title>Group 4</title>
    <g id="Page-1" stroke="none" stroke-width="1" fill="none" fill-rule="evenodd">
        <g id="10-copy-2" transform="translate(-81.000000, -223.000000)">
            <g id="Group-4" transform="translate(81.000000, 223.000000)">
                <g id="Group-3" transform="translate(0.000000, 44.926836)">
                    <g id="4565" transform="translate(0.000000, -0.000000)">
                        <path d="M36.5234723,43.0370048 C70.9248023,30.2849191 105.888758,41.5589994 129.60185,66.1142113 C141.462122,78.3955378 159.839582,74.1521732 178.550726,69.9088086 C197.250278,65.668007 216.282686,61.4271227 229.47521,73.6810832 C247.487522,90.411473 239.23733,133.426086 214.538918,152.056378 C180.969314,177.38015 78.8777423,164.530589 56.7939059,160.221497 C31.3513703,155.255954 12.7509299,140.19232 5.19360834,121.909268 C-13.0157677,77.8560745 21.3208955,48.6723914 36.5234723,43.0370048" id="Fill-3" fill="#E7F3FE"></path>
                        <path d="M126.04559,68.6470019 C119.928326,68.6470019 114.969434,63.6953488 114.969434,57.5870534 C114.969434,51.478758 119.928326,46.5269396 126.04559,46.5269396 C132.163682,46.5269396 137.122574,51.478758 137.122574,57.5870534 C137.122574,63.6953488 132.163682,68.6470019 126.04559,68.6470019 M154.108166,60.7530623 C154.224914,59.7134896 154.287014,58.6576297 154.287014,57.5870534 C154.287014,57.0221258 154.26797,56.4616627 154.23485,55.9050027 L148.996094,54.2123694 C148.673174,52.006812 148.039754,49.9021197 147.140546,47.9442606 L150.614834,43.6756797 C149.811674,42.2638154 148.89011,40.9275173 147.86339,39.6812537 L142.622978,41.388438 C141.095318,39.8304019 139.350722,38.4869936 137.435558,37.4071575 L137.733638,31.9100885 C136.27139,31.2453705 134.742902,30.7014427 133.159766,30.2912852 L129.923942,34.7497737 C128.662898,34.5377915 127.367906,34.425765 126.04559,34.425765 C125.145554,34.425765 124.25711,34.4788432 123.382742,34.5787163 L120.387038,29.9552058 C118.781546,30.2811987 117.226562,30.7431942 115.73285,31.3285429 L115.739474,36.8337142 C113.767178,37.8124371 111.953858,39.0627518 110.348366,40.5366234 L105.208142,38.5560283 C104.115182,39.7478908 103.124066,41.033095 102.247214,42.3994873 L105.491318,46.8463184 C104.487782,48.7582921 103.742582,50.8271856 103.30457,53.007196 L97.9838423,54.4209619 C97.8670943,55.4604519 97.8049943,56.5164771 97.8049943,57.5870534 C97.8049943,58.1518984 97.8240383,58.7123615 97.8563303,59.2691041 L103.095914,60.9616547 C103.418834,63.1672949 104.052254,65.2719045 104.951462,67.2298462 L101.477174,71.4984271 C102.280334,72.9102915 103.201898,74.2465069 104.228618,75.4928532 L109.46903,73.7855862 C110.99669,75.3436223 112.741286,76.6871133 114.65645,77.7668667 L114.35837,83.2640184 C115.820618,83.9286537 117.349106,84.4725815 118.932242,84.882739 L122.168066,80.4242505 C123.42911,80.6363154 124.724102,80.7481765 126.04559,80.7481765 C126.947282,80.7481765 127.834898,80.6951809 128.709266,80.5954732 L131.70497,85.2188184 C133.310462,84.8929082 134.865446,84.4309126 136.359158,83.8455639 L136.352534,78.3403099 C138.32483,77.3616698 140.138978,76.1113551 141.743642,74.6375661 L146.883866,76.6180785 C147.976826,75.426216 148.967942,74.1409292 149.844794,72.7746195 L146.60069,68.3277057 C147.604226,66.415732 148.349426,64.3469213 148.787438,62.1668281 L154.108166,60.7530623" id="Fill-4" fill="#9EC8FF"></path>
                        <path d="M141.153278,70.2010696 C141.059714,70.2010696 140.96615,70.1697352 140.889146,70.1054957 C140.712782,69.9594892 140.68877,69.6988933 140.835326,69.5232887 C143.619062,66.1809312 145.152518,61.9418658 145.152518,57.5870534 C145.152518,55.5017074 144.810554,53.4540618 144.13739,51.500998 C144.06287,51.28513 144.177134,51.049833 144.393242,50.975507 C144.610178,50.9011809 144.84533,51.015853 144.91985,51.231721 C145.62365,53.271595 145.980518,55.409854 145.980518,57.5870534 C145.980518,62.1345844 144.379166,66.5614078 141.472058,70.0520041 C141.390086,70.1503063 141.27251,70.2010696 141.153278,70.2010696" id="Fill-5" fill="#FFFFFF"></path>
                        <path d="M139.549442,44.0965851 C139.447598,44.0965851 139.345754,44.0593808 139.266266,43.9842279 C137.394986,42.2255362 135.22811,40.8924625 132.825254,40.021963 C132.610802,39.9440819 132.49985,39.706966 132.577682,39.4923382 C132.655514,39.2777103 132.89315,39.1668413 133.10843,39.2447225 C135.61727,40.1539145 137.880194,41.5459365 139.833446,43.3822613 C139.999874,43.5387677 140.008154,43.8003557 139.851662,43.9666179 C139.76969,44.0530147 139.659566,44.0965851 139.549442,44.0965851" id="Fill-6" fill="#FFFFFF"></path>
                        <path d="M121.749926,39.4870469 C121.564454,39.4870469 121.395542,39.3621229 121.348346,39.1746956 C121.29287,38.9533709 121.427006,38.7286566 121.64891,38.6726847 C123.208034,38.2797239 124.821806,38.0804739 126.444686,38.0804739 C126.673214,38.0804739 126.858686,38.2655862 126.858686,38.4938557 C126.858686,38.7221251 126.673214,38.9072375 126.444686,38.9072375 C124.889702,38.9072375 123.344654,39.0980546 121.850942,39.4743974 C121.816994,39.4829131 121.783046,39.4870469 121.749926,39.4870469" id="Fill-7" fill="#FFFFFF"></path>
                        <path d="M45.6453827,136.251137 C41.4081755,136.251137 37.9732175,132.820895 37.9732175,128.590345 C37.9732175,124.358968 41.4081755,120.929553 45.6453827,120.929553 C49.8825899,120.929553 53.3175479,124.358968 53.3175479,128.590345 C53.3175479,132.820895 49.8825899,136.251137 45.6453827,136.251137 M65.0824343,130.782922 C65.1635783,130.062811 65.2058063,129.331952 65.2058063,128.590345 C65.2058063,128.199286 65.1933863,127.810707 65.1702023,127.425435 L61.5414923,126.253084 C61.3180979,124.725225 60.8793407,123.26764 60.2565191,121.910921 L62.6628527,118.954414 C62.1062711,117.976353 61.4681315,117.051204 60.7567139,116.188063 L57.1272587,117.370335 C56.0694059,116.291408 54.8605259,115.360473 53.5343183,114.613078 L53.7407387,110.805005 C52.7279291,110.344497 51.6689171,109.96832 50.5724795,109.683913 L48.3313319,112.771875 C47.4577919,112.625538 46.5607367,112.547823 45.6453827,112.547823 C45.0214019,112.547823 44.4060323,112.5842 43.8005987,112.653648 L41.7257135,109.450766 C40.6140407,109.677299 39.5365643,109.997257 38.5021439,110.402371 L38.5068635,114.215405 C37.1404151,114.893351 35.8842563,115.759799 34.7726663,116.780026 L31.2120179,115.408425 C30.4553915,116.234362 29.7684827,117.123959 29.1614759,118.070604 L31.4085023,121.150299 C30.7130651,122.474774 30.1969727,123.907555 29.8936763,125.418053 L26.2081655,126.396941 C26.1275183,127.117052 26.0846279,127.848738 26.0846279,128.590345 C26.0846279,128.981404 26.0975447,129.369983 26.1203147,129.755255 L29.7492731,130.927606 C29.9725847,132.455465 30.4113419,133.91305 31.0342463,135.268942 L28.6279127,138.225449 C29.1844943,139.20351 29.8226339,140.129486 30.5340515,140.992627 L34.1635067,139.809528 C35.2213595,140.889281 36.4302395,141.819391 37.7563643,142.567612 L37.5500267,146.374858 C38.5628363,146.835366 39.6218483,147.21237 40.7182859,147.49595 L42.9594335,144.407988 C43.8329735,144.555152 44.7300287,144.632867 45.6453827,144.632867 C46.2693635,144.632867 46.8846503,144.595663 47.4901667,144.527042 L49.5650519,147.729097 C50.6767247,147.503391 51.7542011,147.183433 52.7886215,146.778319 L52.7839019,142.964458 C54.1503503,142.286512 55.4065091,141.42089 56.5180991,140.399837 L60.0786647,141.771438 C60.8353739,140.946328 61.5221999,140.055904 62.1292895,139.110086 L59.8821803,136.029565 C60.5777831,134.705089 61.0937927,133.272308 61.3970891,131.762637 L65.0824343,130.782922" id="Fill-8" fill="#9EC8FF"></path>
                        <path d="M56.1093155,137.454078 C56.0159999,137.454078 55.9221875,137.422661 55.8447695,137.359001 C55.6689851,137.212663 55.6449731,136.952233 55.7911979,136.776132 C57.7004003,134.484343 58.7519603,131.576615 58.7519603,128.590345 C58.7519603,127.160044 58.5176363,125.755372 58.0556123,124.416015 C57.9811751,124.20023 58.0961015,123.964602 58.3122923,123.89102 C58.5283175,123.816611 58.7640491,123.930705 58.8384863,124.14649 C59.3304839,125.573484 59.5799603,127.068273 59.5799603,128.590345 C59.5799603,131.769251 58.4605043,134.864655 56.4278471,137.305261 C56.3459579,137.403646 56.2280507,137.454078 56.1093155,137.454078" id="Fill-9" fill="#FFFFFF"></path>
                        <path d="M54.9985535,119.373583 C54.8967923,119.373583 54.7948655,119.336379 54.7148807,119.261144 C53.4318119,118.054895 51.9456347,117.140495 50.2978319,116.543571 C50.0828831,116.465029 49.9719311,116.228574 50.0498459,116.013616 C50.1277607,115.798657 50.3654795,115.687871 50.5801799,115.766414 C52.3347947,116.401368 53.9167715,117.375296 55.2824747,118.658433 C55.4489855,118.815518 55.4568515,119.076775 55.3001111,119.242955 C55.2186359,119.329765 55.1087603,119.373583 54.9985535,119.373583" id="Fill-10" fill="#FFFFFF"></path>
                        <path d="M42.6693851,116.180622 C42.4843271,116.180622 42.3157463,116.055781 42.2683019,115.868105 C42.2124119,115.646533 42.3467135,115.421653 42.5683691,115.36626 C43.6584311,115.091774 44.7865811,114.952051 45.9214379,114.952051 C46.1500487,114.952051 46.3354379,115.137246 46.3354379,115.365433 C46.3354379,115.59362 46.1500487,115.778815 45.9214379,115.778815 C44.8548911,115.778815 43.7948855,115.909444 42.7710635,116.167394 C42.7371155,116.176488 42.7029191,116.180622 42.6693851,116.180622" id="Fill-11" fill="#FFFFFF"></path>
                        <path d="M159.27323,86.927987 C156.570638,86.927987 154.378922,84.7402049 154.378922,82.0413176 C154.378922,79.3424302 156.570638,77.1545655 159.27323,77.1545655 C161.97665,77.1545655 164.167538,79.3424302 164.167538,82.0413176 C164.167538,84.7402049 161.97665,86.927987 159.27323,86.927987 Z M171.020066,81.8161898 C171.020066,81.6024714 171.01427,81.3902412 171.002678,81.1793337 L173.72183,78.9994886 C173.508206,77.911633 173.174522,76.8670997 172.734026,75.8805226 L169.223306,75.6155449 C168.425114,74.3577066 167.390942,73.263981 166.183718,72.3957137 L166.172126,68.9023892 C165.194258,68.3902091 164.151806,67.9847642 163.059674,67.7032511 L160.66013,70.2817617 C160.24613,70.2371991 159.826334,70.2136364 159.400742,70.2136364 C158.343386,70.2136364 157.31915,70.355509 156.345422,70.6197427 L153.593978,68.4437834 C152.555666,68.8942869 151.580282,69.4611161 150.683558,70.1290584 L151.20437,73.5922061 C150.178478,74.6116058 149.343026,75.8213264 148.75349,77.1635772 L145.330538,77.9556995 C145.041566,79.0109806 144.867686,80.1139661 144.82463,81.2503527 L147.839378,82.9908556 C147.993386,84.5153252 148.44299,85.9522405 149.129402,87.2446374 L147.619958,90.4013038 C148.267454,91.2852796 149.011826,92.0941025 149.83817,92.8112373 L153.070682,91.5468676 C154.341662,92.3728045 155.784038,92.9576571 157.333226,93.2355324 L158.856746,96.36814 C159.038078,96.3748368 159.220238,96.3793013 159.404054,96.3793013 C160.31651,96.3793013 161.209922,96.2947234 162.076838,96.1344966 L163.104386,92.8166939 C164.600582,92.314435 165.960986,91.5159466 167.115218,90.4915038 L170.51333,91.2538626 C171.210506,90.4369374 171.818258,89.5422964 172.323338,88.5845733 L170.353526,85.6963571 C170.784914,84.4829987 171.020066,83.1771255 171.020066,81.8161898 L171.020066,81.8161898 Z" id="Fill-12" fill="#9EC8FF"></path>
                        <path d="M230.164934,162.129667 C212.945018,161.288848 154.364846,162.713362 136.54877,163.268121 C118.732694,163.823706 98.0525663,162.535608 87.3100943,160.642319 C76.5676223,158.74903 14.4734183,160.803538 17.2912679,165.894749 C20.1090347,170.98596 44.9572319,168.171656 73.1355623,170.217896 C101.314058,172.264136 164.687522,169.962426 178.982114,170.217896 C193.277534,170.474193 206.385602,169.706956 224.807774,168.683423 C243.229946,167.660716 240.147302,162.616631 230.164934,162.129667" id="Fill-16" fill="#CCE2FF"></path>
                        <g id="Group-2" transform="translate(21.000000, 0.000000)">
                            <path d="M0.903866112,5.35244805 L0.0769776084,5.08479455 C0.0285562096,4.24725801 0,3.40412462 0,2.5543994 C0,1.69658984 0.0273146353,0.844999002 0.0782191828,0 L0.903866112,0 L0.903866112,5.35244805" id="Fill-58" fill="#9DC5FB"></path>
                            <path d="M200.861895,109.84589 C204.728158,113.383095 203.047066,116.919057 200.188962,123.488507 C197.330858,130.056714 196.826778,154.308459 196.826778,154.308459 L199.180803,153.971405 C199.180803,153.971405 198.844337,129.045551 202.038908,122.309439 C205.232237,115.572083 206.578103,112.204027 209.436207,114.393015 C212.294311,116.583246 200.861895,109.84589 200.861895,109.84589" id="Fill-121" fill="#74B570"></path>
                            <path d="M198.737561,105.266428 C199.206876,103.170721 201.995452,100.902134 205.725142,98.9793075 C205.170158,102.070009 203.392224,107.124581 205.232237,108.161862 C207.714144,109.559829 205.474344,102.502831 206.431597,98.623597 C209.934079,96.9109629 214.14674,95.5105083 218.025419,94.8140122 C218.020452,94.8289371 218.015486,94.8413746 218.01052,94.8562995 C215.824107,100.414587 212.966003,102.603575 214.143016,103.445589 C215.028258,104.079898 217.912435,97.6596962 221.720344,94.3687522 C224.579689,94.2157718 226.997035,94.6038196 228.42857,95.7381133 C230.639814,97.4917909 232.123495,99.0477134 229.899835,104.387102 C228.629705,105.297522 226.983377,105.949243 225.071353,106.14078 C220.028078,106.645739 217.674053,106.814889 221.20509,108.498917 C222.933362,109.323518 225.831196,108.451654 228.181497,107.92182 C227.41917,109.328493 226.481781,110.920484 225.343258,112.735105 C224.621903,113.884324 223.826054,114.884293 222.980542,115.747451 C221.355321,116.05963 219.937443,116.063362 219.187532,115.741232 C216.833507,114.730069 210.780832,111.529918 209.267353,112.876892 C207.787397,114.196503 220.477528,115.031055 219.597252,118.382942 C213.446492,121.932585 206.408008,120.243582 205.16395,116.983731 C203.492791,112.605756 197.323408,111.575937 198.737561,105.266428" id="Fill-122" fill="#9CD499"></path>
                            <path d="M211.453766,129.2147 C204.728158,124.161372 197.834937,128.877646 194.305141,134.266784 C190.774104,139.655923 193.295741,151.782417 193.295741,151.782417 C193.295741,151.782417 194.640366,151.782417 194.640366,151.277457 C194.640366,150.772498 190.941716,136.961975 199.684883,130.729579 C205.154018,126.831689 209.099741,128.708497 209.60382,130.561674 C210.107899,132.413607 207.418649,135.782907 207.418649,135.782907 L211.453766,129.2147" id="Fill-123" fill="#74B570"></path>
                            <path d="M195.986233,118.828202 C202.710599,118.828202 204.897012,129.270669 203.047066,135.333916 C201.19712,141.395919 198.675483,152.6804 198.675483,152.6804 L196.994391,150.996371 C196.994391,150.996371 203.383533,135.164767 201.870053,128.0916 C200.356574,121.01719 196.657924,119.838122 195.986233,119.838122 C195.313299,119.838122 195.986233,118.828202 195.986233,118.828202" id="Fill-124" fill="#9CD499"></path>
                            <path d="M201.626705,135.379934 C202.099745,134.753088 202.683285,134.234447 203.395948,133.88993 C203.30283,134.392402 203.187364,134.874975 203.047066,135.333916 C202.204037,138.096269 201.221952,141.941922 200.402513,145.311222 C200.328018,144.879643 200.213793,144.214241 200.036248,143.189397 C199.994035,142.946867 199.961754,142.683193 199.938164,142.404595 C200.59744,140.160882 201.219468,137.716927 201.626705,135.379934" id="Fill-125" fill="#74B570"></path>
                            <path d="M203.465476,135.430928 C216.242518,130.041789 209.510702,122.64525 220.775506,127.529428 C221.568872,127.873945 222.536058,128.742078 223.503245,129.937315 C222.500052,130.222132 221.285793,130.42735 219.93496,130.224619 C216.571535,129.71966 217.748548,132.413607 223.297143,133.087716 C224.342549,133.214578 225.191786,133.389945 225.897,133.63745 C228.540312,138.723115 229.730981,145.414453 224.137689,147.740252 C223.035171,148.199193 221.673164,148.460379 220.15596,148.558635 C218.430172,147.184299 220.578095,139.231806 217.917402,140.330031 C215.362242,141.383482 218.716975,147.146987 218.257593,148.598435 C215.735956,148.552416 212.943655,148.140738 210.275512,147.477823 C209.220173,146.885801 208.414392,146.091049 208.166077,145.045061 C207.325531,141.5091 212.872885,139.318868 213.041739,136.287867 C213.195694,133.500639 211.00804,142.41952 205.21113,143.731669 C199.969203,141.279007 197.492262,137.950751 203.465476,135.430928" id="Fill-126" fill="#9CD499"></path>
                            <path d="M194.361012,125.901369 C195.705637,123.038272 192.174599,122.365407 192.343454,124.554395 C192.492442,126.494634 192.508583,131.210908 190.522064,132.49445 C187.09656,132.122571 182.43569,130.739529 178.913344,128.632628 C178.868647,128.347811 178.910861,128.054288 179.061091,127.754546 C180.57457,124.7223 190.325895,122.196258 187.298937,121.186339 C184.889041,120.381637 180.665205,125.131492 177.26205,127.524453 C175.218419,125.971018 173.848962,124.119085 173.848962,122.051984 C173.848962,119.253562 177.243427,116.086993 181.632392,114.572114 C183.607737,114.772356 185.441542,115.854413 188.308337,117.481229 C192.542105,119.88414 191.562503,115.998687 187.559668,113.692787 C191.014969,113.871886 194.460338,115.350697 197.00184,118.884171 C197.00184,118.884171 196.760975,120.394075 198.356398,122.731068 C202.710599,129.104007 197.685948,132.825286 191.680453,132.582756 C192.020644,130.903703 193.431073,127.880164 194.361012,125.901369" id="Fill-127" fill="#9CD499"></path>
                            <path d="M211.049012,128.928639 C214.336701,131.473337 217.989413,134.449614 222.472738,136.470697 C226.956063,138.491779 226.059646,145.078642 226.059646,145.078642 C226.059646,145.078642 226.731338,139.389762 222.995441,137.443304 C219.259543,135.496846 216.793777,133.177265 213.954296,132.72703 C211.113574,132.278039 209.545466,131.829048 209.545466,131.829048 C209.545466,131.829048 210.441883,130.033083 209.917938,129.358974 C209.395235,128.684866 211.049012,128.928639 211.049012,128.928639" id="Fill-128" fill="#74B570"></path>
                            <path d="M227.255282,99.0414947 C215.224427,102.260302 206.406766,109.971508 204.762922,111.842098 C203.119077,113.713931 203.119077,114.237547 203.119077,114.237547 L204.389208,116.632996 L204.986405,116.334498 C204.986405,116.334498 204.015494,114.312171 206.555755,111.692849 C210.937271,107.17433 216.269832,103.608519 219.932477,102.036428 C223.593879,100.464337 227.255282,99.0414947 227.255282,99.0414947" id="Fill-129" fill="#74B570"></path>
                            <path d="M194.045652,165.752139 L198.64196,165.752139 C201.911025,165.752139 204.560545,163.097991 204.560545,159.823216 L204.560545,149.243938 L188.127067,149.243938 L188.127067,159.823216 C188.127067,163.097991 190.777828,165.752139 194.045652,165.752139" id="Fill-130" fill="#75A1DE"></path>
                            <polygon id="Fill-131" fill="#FFFFFF" points="188.127067 152.294839 204.560545 152.294839 204.560545 151.135671 188.127067 151.135671"></polygon>
                            <polygon id="Fill-132" fill="#FFFFFF" points="188.127067 153.930361 204.560545 153.930361 204.560545 153.24879 188.127067 153.24879"></polygon>
                        </g>
                        <path d="M27.3041063,156.496926 L29.9190131,156.496926 C30.4712063,156.496926 30.9188231,156.050474 30.9188231,155.499022 L30.9188231,153.34861 C30.9188231,152.797159 30.4712063,152.350706 29.9190131,152.350706 L27.3041063,152.350706 C26.7519131,152.350706 26.3042963,152.797159 26.3042963,153.34861 L26.3042963,155.499022 C26.3042963,156.050474 26.7519131,156.496926 27.3041063,156.496926" id="Fill-133" fill="#9EC8FF"></path>
                        <path d="M18.9139823,156.496926 L21.5288891,156.496926 C22.0810823,156.496926 22.5286991,156.050474 22.5286991,155.499022 L22.5286991,153.34861 C22.5286991,152.797159 22.0810823,152.350706 21.5288891,152.350706 L18.9139823,152.350706 C18.3617891,152.350706 17.9141723,152.797159 17.9141723,153.34861 L17.9141723,155.499022 C17.9141723,156.050474 18.3617891,156.496926 18.9139823,156.496926" id="Fill-134" fill="#9EC8FF"></path>
                        <path d="M10.5238583,156.496926 L13.1387651,156.496926 C13.6909583,156.496926 14.1385751,156.050474 14.1385751,155.499022 L14.1385751,153.34861 C14.1385751,152.797159 13.6909583,152.350706 13.1387651,152.350706 L10.5238583,152.350706 C9.97166514,152.350706 9.52404834,152.797159 9.52404834,153.34861 L9.52404834,155.499022 C9.52404834,156.050474 9.97166514,156.496926 10.5238583,156.496926" id="Fill-135" fill="#9EC8FF"></path>
                        <path d="M249.294218,79.2184156 L249.294218,76.6073306 C249.294218,76.0560446 248.847098,75.6090135 248.294822,75.6090135 L246.141194,75.6090135 C245.588918,75.6090135 245.141798,76.0560446 245.141798,76.6073306 L245.141798,79.2184156 C245.141798,79.7697017 245.588918,80.2167328 246.141194,80.2167328 L248.294822,80.2167328 C248.847098,80.2167328 249.294218,79.7697017 249.294218,79.2184156" id="Fill-136" fill="#9EC8FF"></path>
                        <path d="M249.294218,87.596012 L249.294218,84.984927 C249.294218,84.4336409 248.847098,83.9866098 248.294822,83.9866098 L246.141194,83.9866098 C245.588918,83.9866098 245.141798,84.4336409 245.141798,84.984927 L245.141798,87.596012 C245.141798,88.147298 245.588918,88.5943292 246.141194,88.5943292 L248.294822,88.5943292 C248.847098,88.5943292 249.294218,88.147298 249.294218,87.596012" id="Fill-137" fill="#9EC8FF"></path>
                        <path d="M249.294218,95.9736084 L249.294218,93.3625233 C249.294218,92.8111546 248.847098,92.3642062 248.294822,92.3642062 L246.141194,92.3642062 C245.588918,92.3642062 245.141798,92.8111546 245.141798,93.3625233 L245.141798,95.9736084 C245.141798,96.5249771 245.588918,96.9718428 246.141194,96.9718428 L248.294822,96.9718428 C248.847098,96.9718428 249.294218,96.5249771 249.294218,95.9736084" id="Fill-138" fill="#9EC8FF"></path>
                    </g>
                </g>
                <g id="Layer-2" transform="translate(30.000000, 0.000000)" fill-rule="nonzero">
                    <path d="M114.820081,112.176683 C114.820081,112.176683 115.439413,116.772207 117.696977,118.450572 C119.954541,120.128938 120.114369,121.028062 119.694821,121.32777 C118.991308,121.756433 118.19808,122.01631 117.377322,122.08703 C115.759068,122.386739 115.599241,124.204968 117.716956,124.204968 L123.490726,124.204968 L124.829281,112.216645 L119.914584,106.921802 L114.820081,112.176683 Z" id="Path_834" fill="#FFB27D"></path>
                    <path d="M107.707756,94.3540433 C111.789414,91.6850099 115.206341,88.1173635 117.696977,83.9242023 C119.623539,79.2934001 121.154042,74.5075708 122.272041,69.6181368 L121.592773,60.4071086 L121.592773,60.0074979 L121.293097,56.0113902 C121.293097,56.0113902 105.310343,80.8072383 102.733123,87.0811273 C101.434525,90.1381497 98.3978014,92.635717 100.375667,96.6518052 C102.992843,102.02657 112.162948,113.435457 114.360577,114.294621 C116.358421,112.176683 117.716956,110.298513 119.155403,108.72005 L119.155403,108.72005 L107.707756,94.3540433 Z" id="Path_835" fill="#D54141"></path>
                    <path d="M212.234968,68.5391877 C211.500506,71.122954 210.523893,73.6316413 209.318116,76.0318896 C208.259258,77.3905662 203.584303,81.7862847 203.584303,81.7862847 L198.60967,77.790177 C198.60967,77.790177 206.001694,69.6381173 206.601047,67.5801219 C207.200401,65.5221264 212.234968,68.5391877 212.234968,68.5391877 Z" id="Path_836" fill="#FFB27D"></path>
                    <rect id="Rectangle_884" fill="#FFB27D" x="140.732122" y="39.9869985" width="9.42982498" height="18.0224456"></rect>
                    <path d="M150.161947,43.2837873 L150.161947,47.060109 C147.410361,49.1663111 143.628083,49.3025515 140.732122,47.3997782 L140.732122,42.604449 L150.161947,43.2837873 Z" id="Path_837" fill="#E59966"></path>
                    <path d="M161.569637,110.078727 C161.769422,98.4700342 165.565326,59.0284515 165.565326,59.0284515 C168.102588,65.2623794 167.383364,81.4865766 175.734353,92.9953667 C181.468166,100.987582 183.72573,97.7507348 186.982217,95.6927393 C189.779199,93.974413 200.507622,82.7453505 203.684195,79.4086006 L199.069174,74.413466 L184.345062,86.8013998 C178.711141,73.8140499 169.62095,55.9914097 169.62095,55.9914097 L152.319618,52.2350685 L136.496692,52.6746403 L121.273118,55.9914097 L123.910273,112.995886 L161.589616,111.777073 C161.569637,111.237598 161.569637,110.698124 161.569637,110.078727 Z" id="Path_838" fill="#D54141"></path>
                    <path d="M167.103666,89.7984805 C169.800756,93.4349385 175.095043,100.448107 176.433599,101.786804 C180.189546,105.443242 184.844523,104.024624 188.021096,101.007563 C190.39853,98.7497617 206.601047,82.7853116 206.601047,82.7853116 L203.584303,79.5284838 C200.40773,82.8652337 189.599393,94.0942963 186.882324,95.8126226 C183.585881,97.8106764 181.368274,101.047524 175.634461,93.1152499 C167.283472,81.5265377 168.002696,65.3023405 165.465434,59.1483347 C165.465434,59.1483347 161.769422,98.5899174 161.469745,110.19861 L161.469745,111.856995 L165.345563,111.737112 L167.103666,89.7984805 Z" id="Path_839" fill="#B83131"></path>
                    <polygon id="Path_840" fill="#75A1DE" points="143.309341 60.7068167 140.991841 56.450962 145.506969 52.4348738 149.22296 56.3710399 147.04531 60.2472643 149.22296 89.5986751 143.968629 95.9524863 139.333631 89.5986751"></polygon>
                    <path d="M162.768344,24.4821007 C162.188969,22.4840469 160.330974,22.4840469 158.772655,22.9036382 C156.934639,15.0512866 151.180847,9.31687211 144.328241,9.31687211 C138.95404,9.31687211 133.380055,8.97720296 130.722922,14.3319872 C129.284474,17.2291653 129.304445,24.5420423 129.304445,28.1984808 C129.304445,38.6483024 135.297985,45.6614713 143.628996,45.6614713 C151.532971,45.4662017 158.106423,39.5205954 159.092311,31.6750945 C160.6268,31.3517989 161.933119,30.3525018 162.64681,28.956003 C163.360501,27.5595041 163.405166,25.9152941 162.768344,24.4821007 Z" id="Path_841" fill="#FFB27D"></path>
                    <path d="M158.772655,23.5829765 C157.593927,24.7218672 158.173302,27.9786949 157.833669,29.4172937 C157.58181,30.3779423 156.662689,31.0077769 155.675997,30.8958535 C155.675997,30.8958535 156.614984,18.627803 151.040998,16.3899827 C145.467013,14.1521624 142.310419,17.8086009 134.378977,16.3899827 C129.743978,15.5308195 129.624107,19.447005 129.624107,19.447005 C129.624107,19.447005 127.126802,13.4528435 129.364388,8.83733919 C130.209398,6.57559638 132.672082,5.36603741 134.97833,6.0800249 C135.637619,-0.333727905 143.549082,3.66237976 145.726732,3.88216568 C155.715954,4.56150399 156.694897,6.31979136 158.952461,8.9971835 C162.069098,12.6935831 161.729465,17.8086009 161.309918,22.8436966 C160.406079,22.8059554 159.514798,23.0656473 158.772655,23.5829765 L158.772655,23.5829765 Z" id="Path_842" fill="#1D294B"></path>
                    <path d="M140.732122,48.618591 C138.827331,49.7614616 137.114768,51.1977383 135.657597,52.8744457 C136.851326,55.1682351 138.417629,57.2478557 140.292596,59.0284515 L145.447034,52.4348738 L140.732122,48.618591 Z" id="Path_843" fill="#FFFBFB"></path>
                    <path d="M150.181925,48.3988051 C152.086715,49.5416757 153.799279,50.9779524 155.25645,52.6546598 C154.06272,54.9484492 152.496417,57.0280698 150.621451,58.8086656 L145.447034,52.4348738 L150.181925,48.3988051 Z" id="Path_844" fill="#FFFBFB"></path>
                    <polygon id="Rectangle_885" fill="#DCE9FF" transform="translate(197.424304, 61.444925) rotate(-72.600000) translate(-197.424304, -61.444925) " points="182.928907 49.8377743 211.920396 49.8369066 211.919701 73.0520749 182.928212 73.0529426"></polygon>
                    <polygon id="Rectangle_886" fill="#6F85BF" transform="translate(200.310777, 51.428522) rotate(-72.600000) translate(-200.310777, -51.428522) " points="199.781566 42.4881006 200.840524 42.4880689 200.839989 60.3689429 199.78103 60.3689746"></polygon>
                    <polygon id="Rectangle_887" fill="#6F85BF" transform="translate(198.608614, 56.897195) rotate(-72.600000) translate(-198.608614, -56.897195) " points="198.079402 47.956774 199.138361 47.9567423 199.137826 65.8376163 198.078867 65.837648"></polygon>
                    <polygon id="Rectangle_888" fill="#6F85BF" transform="translate(197.481830, 60.541645) rotate(-72.600000) translate(-197.481830, -60.541645) " points="196.952618 51.6012242 198.011577 51.6011925 198.011042 69.4820665 196.952083 69.4820982"></polygon>
                    <polygon id="Rectangle_889" fill="#6F85BF" transform="translate(196.145453, 65.365740) rotate(-72.474000) translate(-196.145453, -65.365740) " points="195.61824 56.459281 196.673203 56.4592493 196.672666 74.2721983 195.617704 74.27223"></polygon>
                    <polygon id="Rectangle_890" fill="#6F85BF" transform="translate(195.116382, 68.042339) rotate(-72.600000) translate(-195.116382, -68.042339) " points="194.587171 59.1019183 195.646129 59.1018866 195.645594 76.9827605 194.586635 76.9827922"></polygon>
                    <polygon id="Rectangle_891" fill="#6F85BF" transform="translate(193.967622, 71.712764) rotate(-72.600000) translate(-193.967622, -71.712764) " points="193.43841 62.7723431 194.497369 62.7723114 194.496833 80.6531854 193.437875 80.6532171"></polygon>
                    <path d="M209.338094,62.3452209 C205.961737,61.2862523 204.503311,69.2984482 206.601047,70.3374362 C208.698784,71.3764242 211.156132,71.7760349 211.895335,69.4582925 C212.634537,67.1405501 214.952036,64.1234888 209.338094,62.3452209 Z" id="Path_845" fill="#FFB27D"></path>
                    <path d="M121.273118,106.402308 C118.935641,102.665947 114.140814,97.870618 112.222884,94.4139849 C115.996681,91.705676 119.48433,88.6193516 122.631652,85.2029567 C122.631652,85.2029567 122.272041,64.7229049 123.470747,60.6468751 C119.894606,65.1624768 119.135425,75.5323762 116.418357,82.6254673 C114.522991,87.1972929 111.531442,91.2321908 107.707756,94.3740238 L119.095468,108.72005 L119.095468,108.72005 C119.773332,107.903709 120.500578,107.129677 121.273118,106.402308 Z" id="Path_846" fill="#B83131"></path>
                    <path d="M140.612251,207.324007 C141.63401,206.793571 142.621546,206.199652 143.56906,205.545739 C143.960816,205.849857 144.419875,206.055427 144.907616,206.145155 C146.90546,206.584727 149.742399,206.145155 154.417355,203.647588 C159.092311,201.150021 158.413043,197.653426 158.413043,197.653426 L157.933561,197.473602 C160.672935,197.543574 163.40372,197.810672 166.104744,198.272823 C166.104744,198.272823 167.4433,204.067179 165.445455,206.045253 C163.447611,208.023326 154.936794,211.260173 151.460545,212.039414 C147.55286,213.225509 143.381166,213.225509 139.47348,212.039414 C138.074989,211.679764 136.616562,209.322061 140.612251,207.324007 Z" id="Path_847" fill="#582A1A"></path>
                    <path d="M154.417355,203.687549 C149.742399,206.185116 146.985374,206.624688 144.907616,206.185116 C144.419875,206.095388 143.960816,205.889818 143.56906,205.5857 C147.065288,203.208016 150.961084,199.851286 153.318541,198.332765 C154.78684,197.710864 156.384813,197.457082 157.973518,197.593485 L158.453,197.77331 C158.453,197.77331 159.072332,201.150021 154.417355,203.687549 Z" id="Path_848" fill="#8C4531"></path>
                    <path d="M106.608941,207.324007 C107.639046,206.789607 108.633397,206.188929 109.585729,205.525759 C109.960686,205.848412 110.4166,206.062576 110.904307,206.145155 C112.902151,206.584727 115.73909,206.145155 120.414045,203.647588 C125.089001,201.150021 124.409734,197.653426 124.409734,197.653426 L123.910273,197.553524 C126.64298,197.624239 129.367069,197.891335 132.061477,198.352745 C132.061477,198.352745 133.400033,204.147101 131.422167,206.125175 C129.444301,208.103248 120.893528,211.340095 117.437257,212.119336 C113.527818,213.293555 109.359631,213.293555 105.450192,212.119336 C104.071679,211.679764 102.633231,209.322061 106.608941,207.324007 Z" id="Path_849" fill="#582A1A"></path>
                    <path d="M120.414045,203.687549 C115.73909,206.185116 112.982065,206.624688 110.904307,206.185116 C110.4166,206.102537 109.960686,205.888373 109.585729,205.56572 C113.061978,203.208016 116.957775,199.851286 119.315231,198.332765 C120.762299,197.708359 122.338277,197.4411 123.910273,197.553524 L124.369777,197.733349 C124.369777,197.733349 125.089001,201.150021 120.414045,203.687549 Z" id="Path_850" fill="#8C4531"></path>
                    <path d="M165.465434,114.054854 L123.910273,114.054854 L117.696977,198.51259 L131.142469,198.51259 C131.721844,193.69728 139.293674,131.098253 143.888716,127.501756 L143.888716,130.818526 L150.721343,198.51259 L164.206792,198.51259 L165.405498,122.746388 L165.465434,114.054854 Z" id="Path_851" fill="#75A1DE"></path>
                    <path d="M133.479947,198.51259 L131.142469,198.51259 C131.721844,193.69728 139.293674,131.098253 143.888716,127.501756 L143.888716,130.818526 L143.888716,130.818526 L133.479947,198.51259 Z" id="Path_852" fill="#678DC1"></path>
                    <polygon id="Path_853" fill="#678DC1" points="165.465434 114.054854 167.283472 198.51259 163.427633 198.51259 161.170069 113.954951"></polygon>
                    <rect id="Rectangle_892" fill="#B83131" x="123.870316" y="110.078727" width="41.7349669" height="4.19591305"></rect>
                    <rect id="Rectangle_893" fill="#B83131" x="152.419511" y="70.3174556" width="9.98922138" height="1.77826791"></rect>
                    <path d="M48.8712418,207.363968 C47.8386154,206.834078 46.8439677,206.233221 45.8944538,205.56572 C45.514509,205.889027 45.0500863,206.096999 44.5558982,206.165136 C42.5580539,206.624688 39.7410935,206.165136 35.0661379,203.687549 C30.3911823,201.209962 31.0704493,197.693388 31.0704493,197.693388 L31.5499319,197.513563 C28.8171445,197.597077 26.0934888,197.870806 23.3987273,198.332765 C23.3987273,198.332765 22.0401932,204.10714 24.0380375,206.105194 C26.0358817,208.103248 34.5666768,211.320115 38.0229474,212.099356 C41.8981774,213.274837 46.0348908,213.274837 49.9101208,212.099356 C51.408504,211.679764 52.8469519,209.362022 48.8712418,207.363968 Z" id="Path_854" fill="#323232"></path>
                    <path d="M35.0661379,203.687549 C39.7410935,206.165136 42.4981186,206.624688 44.5558982,206.165136 C45.0500863,206.096999 45.514509,205.889027 45.8944538,205.56572 C42.4182048,203.188036 38.50243,199.851286 36.1449738,198.332765 C34.682175,197.691097 33.0808506,197.429909 31.4899966,197.573504 L31.010514,197.693388 C31.010514,197.693388 30.3911823,201.189982 35.0661379,203.687549 Z" id="Path_855" fill="#FFD2D2"></path>
                    <path d="M82.8745514,207.363968 C81.8419219,206.834084 80.8472737,206.233227 79.8977634,205.56572 C79.5155055,205.885344 79.0521893,206.09282 78.5592078,206.165136 C76.5613635,206.624688 73.7244246,206.165136 69.0694474,203.667568 C64.4144703,201.170001 65.0737589,197.673407 65.0737589,197.673407 L65.5532415,197.493582 C62.8211493,197.574099 60.0977448,197.841128 57.4020369,198.292804 C57.4020369,198.292804 56.0435028,204.08716 58.041347,206.085214 C60.0391913,208.083267 68.5699864,211.300134 72.026257,212.079375 C75.901487,213.254856 80.0382004,213.254856 83.9134304,212.079375 C85.3918352,211.679764 86.8502615,209.362022 82.8745514,207.363968 Z" id="Path_856" fill="#323232"></path>
                    <path d="M69.0694474,203.687549 C73.7244246,206.185116 76.4814497,206.644669 78.5592078,206.185116 C79.0521893,206.112801 79.5155055,205.905324 79.8977634,205.5857 C76.4015359,203.208016 72.5057396,199.871266 70.1482833,198.352745 C68.6854845,197.711077 67.0841602,197.44989 65.4933062,197.593485 L65.0138236,197.77331 C65.0138236,197.77331 64.3944918,201.189982 69.0694474,203.687549 Z" id="Path_857" fill="#FFD2D2"></path>
                    <path d="M71.7665372,198.53257 L67.0116678,112.176683 L24.018059,112.176683 L24.018059,122.786349 L23.3188135,198.53257 L38.7022144,198.53257 L45.5548203,130.858487 L45.5548203,127.521737 C50.2497544,131.118234 57.8016057,193.677299 58.400959,198.53257 L71.7665372,198.53257 Z" id="Path_858" fill="#75A1DE"></path>
                    <path d="M55.9835674,198.53257 L58.3410237,198.53257 C57.7416704,193.677299 50.189819,131.118234 45.494885,127.521737 L45.494885,130.858487 L45.494885,130.858487 L55.9835674,198.53257 Z" id="Path_859" fill="#577DB2"></path>
                    <polygon id="Path_860" fill="#577DB2" points="24.0779943 111.797053 22.2000207 198.53257 26.0358817 198.53257 28.3733595 111.67717"></polygon>
                    <path d="M39.3015677,43.6034759 L39.3015677,54.8924801 L48.7513712,54.8924801 L48.7513712,43.943145 C45.850905,45.8554412 42.0572831,45.719081 39.3015677,43.6034759 Z" id="Path_861" fill="#F09959"></path>
                    <path d="M39.3015677,39.8471347 L39.3015677,44.4426585 C42.0572831,46.5582637 45.850905,46.6946238 48.7513712,44.7823277 L48.7513712,39.1478158 L39.3015677,39.8471347 Z" id="Path_862" fill="#D5823E"></path>
                    <path d="M58.6207219,9.87632718 C55.8237399,4.22183484 49.9900346,4.58148453 44.2762,4.58148453 C37.0639821,4.58148453 30.9905355,10.575646 29.072605,18.9075305 C27.4743296,18.4679587 25.5364207,18.4479781 24.9170889,20.5659152 C23.4586626,25.5810303 26.5752997,27.4392204 28.7329715,28.1185587 C29.7838999,36.3869911 36.7044361,42.6551439 45.0353808,42.8841765 C53.7859387,42.8841765 60.1191051,35.4713968 60.1191051,24.4821007 C60.1191051,20.6258568 60.1191051,12.913369 58.6207219,9.87632718 Z" id="Path_863" fill="#F09959"></path>
                    <path d="M29.1325404,19.6068494 C30.3712038,20.8056817 29.7518721,24.2423342 30.1314625,25.7608552 C30.3521181,26.7965886 31.3424516,27.4802534 32.3890265,27.3193372 C32.3890265,27.3193372 31.3901044,14.3919288 37.2637666,12.0342253 C43.1374287,9.6765218 46.4738287,13.5127852 54.8447962,12.0342253 C59.7195362,11.1151206 59.8394069,15.251092 59.8394069,15.251092 C59.8394069,15.251092 67.830784,7.65848743 52.7670381,2.14385885 C46.6536347,-0.0739809064 36.2049091,-1.85224882 30.3312469,3.64239922 C24.4575848,9.13704727 26.0159033,13.6326684 26.4354506,18.8475889 C27.3932274,18.7996365 28.3404049,19.0662773 29.1325404,19.6068494 L29.1325404,19.6068494 Z" id="Path_864" fill="#1D294B"></path>
                    <path d="M77.3804796,72.7750619 L84.4128915,80.7672772 C84.4128915,80.7672772 92.604053,69.5182341 93.7228458,63.983625 C94.3170291,61.8803757 94.6590632,59.7139321 94.7417464,57.5299111 C94.4820266,54.3929666 96.3400218,53.6536867 97.0192889,56.0313707 C97.6186421,58.0294246 97.1391595,60.5669529 97.7385128,60.2672449 C99.4566589,59.4080817 99.1569822,56.0513513 100.515516,53.9533948 C104.151593,48.3188829 106.229351,52.5347765 104.790903,59.7077898 C104.131614,63.0045786 102.793059,63.8437612 99.2968313,69.478273 C97.6985559,72.0557625 88.588386,91.5767484 86.7703477,92.0363008 C81.3561897,93.414958 69.9884558,82.9451559 69.9884558,82.9451559 L77.3804796,72.7750619 Z" id="Path_865" fill="#F09959"></path>
                    <path d="M80.2973323,73.4544002 C77.260609,69.4582925 68.190396,52.8744457 68.190396,52.8744457 L50.4495388,49.2579682 L36.4646289,49.2579682 L19.8425645,52.8744457 L20.7615728,78.8491455 L24.018059,110.078727 L67.0116678,109.179603 L67.0116678,81.6264403 C68.6228374,83.293421 70.4269676,84.7623651 72.3858689,86.0021782 C75.2617294,81.9749717 77.9032587,77.7854405 80.2973323,73.4544002 Z" id="Path_866" fill="#F2E5DE"></path>
                    <path d="M10.4526964,85.2029567 C11.7324836,86.2463383 12.9530655,87.3603195 14.1087514,88.5397066 C17.3652376,84.9232292 21.8204303,79.348659 21.8204303,79.348659 L19.822586,52.8744457 C19.822586,52.8744457 8.19513235,70.5372416 3.6400474,78.4495348 C5.7849383,80.8243382 8.0592817,83.0789092 10.4526964,85.2029567 L10.4526964,85.2029567 Z" id="Path_867" fill="#F2E5DE"></path>
                    <path d="M21.8204303,56.710709 C23.2171195,64.9080629 24.1244151,73.181332 24.5374985,81.4865766 C24.5374985,89.1790838 28.3134242,111.157676 28.3134242,111.157676 L24.018059,110.078727 L20.2820902,81.5465182 L14.4883418,88.8993563 L10.4926533,85.2029567 C19.3830603,75.1327654 21.2410555,61.7058436 21.8204303,56.710709 Z" id="Path_868" fill="#DBC5B9"></path>
                    <path d="M4.93864618,79.8082114 C3.47717831,82.0765598 2.14321486,84.4245817 0.942957626,86.8413609 C-0.314319209,89.504327 -0.314319209,92.5902014 0.942957626,95.2531675 C2.08172886,97.2512213 4.93864618,98.1703261 8.25506768,97.7507348 C12.6703035,97.1712992 19.0234483,94.5738292 22.97918,93.8944909 C26.9349117,93.2151526 31.3101906,93.8944909 35.7853618,90.557741 C40.260533,87.2209911 40.8598863,83.1050002 35.4057714,83.9841439 C29.9516565,84.8632876 28.4732518,87.3408743 27.1147176,85.5825869 C26.3755153,84.6435016 28.9127775,82.3057786 27.674114,80.8272188 C26.4354506,79.348659 25.5364207,82.4456424 24.2578003,83.9042217 C21.6006674,87.0611468 13.2896353,87.8004267 13.2896353,87.8004267 L4.93864618,79.8082114 Z" id="Path_869" fill="#F09959"></path>
                    <rect id="Rectangle_894" fill="#363433" x="24.018059" y="108.70007" width="42.9936088" height="4.29581574"></rect>
                    <polygon id="Path_870" fill="#F37168" points="46.2940227 57.5299111 48.6115221 53.294037 44.096394 49.2579682 40.3804036 53.1941343 43.0175581 57.8495997 40.3804036 87.5406797 46.0143245 94.3540433 51.0688705 87.700524"></polygon>
                    <path d="M48.7513712,45.4017243 C50.6522373,46.542024 52.3642057,47.9710608 53.8258956,49.6375985 C52.6384664,51.947175 51.0716824,54.0409422 49.1908969,55.8315654 L43.9965018,49.1980266 L48.7513712,45.4017243 Z" id="Path_871" fill="#FFFBFB"></path>
                    <path d="M39.3015677,45.1819384 C37.4007015,46.322238 35.6887332,47.7512749 34.2270433,49.4178126 C35.4163606,51.7202928 36.9830534,53.8071844 38.862042,55.5917989 L43.9965018,49.1980266 L39.3015677,45.1819384 Z" id="Path_872" fill="#FFFBFB"></path>
                    <rect id="Rectangle_895" fill="#DBC5B9" x="54.0856154" y="68.5391877" width="9.98922138" height="1.77826791"></rect>
                    <path d="M67.0116678,58.009444 L67.0116678,81.6264403 L72.3658905,86.6415555 L74.9031527,82.465623 C72.487672,79.4046799 70.7387704,75.8724809 69.7686929,72.0957236 C67.9706331,64.0435666 68.3302451,61.645902 67.0116678,58.009444 Z" id="Path_873" fill="#DBC5B9"></path>
                    <path d="M13.2896353,87.8004267 C11.4636314,87.9346554 9.64837158,88.1882845 7.85549882,88.5596871 C8.67063899,87.3704052 9.57920135,86.2479457 10.572567,85.2029567 L13.2896353,87.8004267 Z" id="Path_874" fill="#E59553"></path>
                    <path d="M91.7849369,3.46257438 C80.5970089,3.46257438 71.5068175,10.835393 71.5068175,19.9465185 C71.5081167,22.7716265 72.3648302,25.5301156 73.9641659,27.8588117 L67.9706331,35.4913773 L77.5403072,31.6351334 C81.6137806,34.805262 86.6438621,36.4962231 91.8049153,36.4304626 C103.012822,36.4304626 112.103013,29.0376634 112.103013,19.926538 C112.103013,10.8154125 102.992843,3.46257438 91.7849369,3.46257438 Z" id="Path_875" fill="#CECECE"></path>
                </g>
            </g>
        </g>
    </g>
</svg>