<?xml version="1.0" encoding="UTF-8"?>
<svg width="246px" height="176px" viewBox="0 0 246 176" version="1.1" xmlns="http://www.w3.org/2000/svg" xmlns:xlink="http://www.w3.org/1999/xlink">
    <title>Group 10 Copy 3</title>
    <g id="Page-1" stroke="none" stroke-width="1" fill="none" fill-rule="evenodd">
        <g id="11-copy-20" transform="translate(-81.000000, -254.000000)">
            <g id="4360" transform="translate(81.000000, 254.000000)">
                <polyline id="Fill-42" fill="#2E5B9A" points="169.070222 80.2524444 48.8289778 80.2524444 68.5936 0.00284444444 188.833778 0.00284444444 169.070222 80.2524444"></polyline>
                <polyline id="Fill-43" fill="#FFFFFF" points="158.673778 71.9502222 63.3136 71.9502222 78.9888 8.30524444 174.350222 8.30524444 158.673778 71.9502222"></polyline>
                <path d="M63.6538667,71.6835556 L158.465778,71.6835556 L174.008889,8.57191111 L79.1975111,8.57191111 L63.6538667,71.6835556 Z M158.883556,72.2168889 L62.9733333,72.2168889 L78.7797333,8.03857778 L174.689778,8.03857778 L158.883556,72.2168889 L158.883556,72.2168889 Z" id="Fill-44" fill="#0E2549"></path>
                <polyline id="Fill-45" fill="#0E2549" points="172.698667 57.8204444 172.698667 109.553778 58.8496 109.553778 58.8496 113.495111 172.698667 113.495111 172.698667 167.452444 179.454222 167.452444 179.454222 57.8204444 172.698667 57.8204444"></polyline>
                <path d="M149.514667,30.3534222 L139.731556,30.1272889 L140.396444,26.2469333 C140.417778,26.1192889 140.332444,25.9980444 140.204444,25.9761778 C140.078222,25.9543111 139.955556,26.04 139.934222,26.1676444 L139.256889,30.1164444 L139.255111,30.1162667 L136.471111,47.1804444 L93.6977778,45.7889778 L96.8819556,31.0472889 C96.9079111,31.0572444 96.9354667,31.064 96.9649778,31.064 L110.738844,31.064 L109.806044,37.5875556 C109.787733,37.7155556 109.8768,37.8344889 110.004978,37.8528 C110.016178,37.8544 110.027378,37.8552889 110.0384,37.8552889 C110.153244,37.8552889 110.253511,37.7708444 110.2704,37.6538667 L111.279644,30.5950222 L96.9795556,30.5950222 L98.2602667,24.6657778 L104.665067,24.6657778 L106.2544,26.9345778 C106.300089,26.9996444 106.372622,27.0343111 106.446578,27.0343111 C106.492978,27.0343111 106.539911,27.0206222 106.580978,26.992 C106.686933,26.9176889 106.712711,26.7715556 106.6384,26.6654222 L104.909156,24.1968 L98.3616,24.1968 L99.6430222,18.264 L112.579022,18.264 L111.798933,24.1968 L108.816889,24.1968 C108.687289,24.1968 108.582222,24.3018667 108.582222,24.4312889 C108.582222,24.5608889 108.687289,24.6657778 108.816889,24.6657778 L112.210311,24.6657778 L113.052089,18.264 L141.592889,18.264 L140.552889,23.1390222 L137.400889,24.5717333 C137.283556,24.6252444 137.232,24.7642667 137.285333,24.8821333 C137.324444,24.9685333 137.409778,25.0195556 137.498667,25.0195556 C137.530667,25.0195556 137.564444,25.0128 137.594667,24.9985778 L140.961778,23.4680889 L142.072889,18.264 L151.909333,18.264 L149.514667,30.3534222 Z M141.886222,17.7950222 C141.884444,17.7950222 141.884444,17.7950222 141.882667,17.7950222 L99.2645333,17.7950222 L93.1207111,46.2392889 L136.661333,47.6568889 L136.867556,47.664 L139.651556,30.5946667 L149.896889,30.8314667 L152.48,17.7950222 L141.886222,17.7950222 L141.886222,17.7950222 Z" id="Fill-46" fill="#0E2549"></path>
                <polyline id="Fill-63" fill="#FFFFFF" points="217.365333 161.496889 217.365333 167.363556 217.365333 161.496889"></polyline>
                <polyline id="Fill-65" fill="#FFFFFF" points="219.098667 147.242667 219.098667 153.109333 219.098667 147.242667"></polyline>
                <polyline id="Fill-67" fill="#FFFFFF" points="220.965333 147.242667 220.965333 153.109333 220.965333 147.242667"></polyline>
                <polyline id="Fill-69" fill="#FFFFFF" points="237.276444 154.103111 237.276444 159.969778 237.276444 154.103111"></polyline>
                <polyline id="Fill-71" fill="#FFFFFF" points="234.920889 154.103111 234.920889 159.969778 234.920889 154.103111"></polyline>
                <polyline id="Fill-73" fill="#FFFFFF" points="232.298667 154.103111 232.298667 159.969778 232.298667 154.103111"></polyline>
                <polyline id="Fill-75" fill="#FFFFFF" points="245.143111 147.242667 245.143111 153.109333 245.143111 147.242667"></polyline>
                <path d="M58.8039111,131.296 C58.8039111,131.296 52.0464,165.792 52.5205333,167.452444 C52.9944889,169.111111 62.6451556,132.026667 62.6451556,132.026667 L58.8039111,131.296" id="Fill-80" fill="#0E2549"></path>
                <path d="M69.1228444,134.382222 C69.1228444,134.382222 69.2316444,166.414222 70.0611556,167.480889 C70.8908444,168.547556 72.9056,134.695111 72.9056,134.695111 L69.1228444,134.382222" id="Fill-81" fill="#0E2549"></path>
                <path d="M90.8019556,134.382222 C90.8019556,134.382222 85.3500444,166.700444 86.4167111,167.505778 C87.4833778,168.311111 94.2428444,134.243556 94.2428444,134.243556 L90.8019556,134.382222" id="Fill-82" fill="#0E2549"></path>
                <path d="M99.6849778,133.866667 C99.6849778,133.866667 110.713067,166.769778 112.727822,167.008 C114.742756,167.244444 103.501156,133.523556 103.501156,133.523556 L99.6849778,133.866667" id="Fill-83" fill="#0E2549"></path>
                <path d="M63.0808889,64.9048889 C63.0808889,64.9048889 47.3649778,62.9102222 46.6538667,69.6248889 C45.9427556,76.3413333 44.2364444,126.296889 54.8673778,131.630222 C65.4983111,136.963556 103.720533,133.941333 108.342756,132.874667 C112.964978,131.808 111.898311,115.630222 111.898311,115.630222 L72.2538667,110.296889 L67.3344,66.3857778 L63.0808889,64.9048889" id="Fill-84" fill="#A1C5E2"></path>
                <path d="M76.0464,118.72 L59.8476444,118.72 C60.0963556,108.092444 55.0858667,80.48 55.0346667,80.2008889 C55.0062222,80.0444444 54.8567111,79.9413333 54.6995556,79.968 C54.5429333,79.9964444 54.4392889,80.1475556 54.4677333,80.304 C54.5187556,80.5831111 59.5239111,108.165333 59.2711111,118.72 L56.0760889,118.72 C55.9168,118.72 55.7879111,118.848 55.7879111,119.008 C55.7879111,119.166222 55.9168,119.296 56.0760889,119.296 L76.0464,119.296 C76.2055111,119.296 76.3345778,119.166222 76.3345778,119.008 C76.3345778,118.848 76.2055111,118.72 76.0464,118.72" id="Fill-85" fill="#0E2549"></path>
                <polyline id="Fill-86" fill="#FFFFFF" points="152.076444 147.747556 157.185778 159.736889 148.305778 159.736889 143.928889 152.085333 152.076444 147.747556"></polyline>
                <path d="M148.497778,159.406222 L156.682667,159.406222 L151.912889,148.211556 L144.385778,152.216889 L148.497778,159.406222 Z M157.687111,160.069333 L148.113778,160.069333 L143.470222,151.953778 L152.24,147.285333 L157.687111,160.069333 L157.687111,160.069333 Z" id="Fill-87" fill="#0E2549"></path>
                <path d="M157.672889,159.351111 C157.672889,159.351111 170.504889,163.424 170.947556,166.780444 L147.937778,166.780444 L147.937778,159.351111 L157.672889,159.351111" id="Fill-88" fill="#9EC8FF"></path>
                <polyline id="Fill-89" fill="#FFFFFF" points="109.296356 153.328 108.257422 159.952 99.8538667 159.952 100.742756 152.741333 109.296356 153.328"></polyline>
                <path d="M100.228978,159.619556 L107.973689,159.619556 L108.912533,153.635556 L101.033422,153.093333 L100.228978,159.619556 Z M108.541333,160.284444 L99.4784,160.284444 L100.451733,152.387556 L109.680356,153.022222 L108.541333,160.284444 L108.541333,160.284444 Z" id="Fill-90" fill="#0E2549"></path>
                <path d="M108.744711,159.564444 C108.744711,159.564444 121.577422,163.637333 122.019911,166.993778 L99.0096,166.993778 L99.0096,159.564444 L108.744711,159.564444" id="Fill-91" fill="#9EC8FF"></path>
                <polyline id="Fill-92" fill="#0E2549" points="122.857422 165.719111 122.857422 167.649778 98.4088889 167.649778 98.4088889 165.441778 122.857422 165.719111"></polyline>
                <polyline id="Fill-93" fill="#0E2549" points="147.217778 165.377778 147.217778 167.434667 171.665778 167.434667 171.665778 165.228444 147.217778 165.377778"></polyline>
                <path d="M109.607467,162.293333 C109.476267,162.293333 109.3552,162.208 109.315556,162.074667 C109.267378,161.914667 109.359111,161.744 109.520178,161.696 L113.956267,160.368 C114.117511,160.32 114.287289,160.412444 114.335644,160.572444 C114.383822,160.734222 114.292267,160.904889 114.131022,160.952889 L109.694756,162.280889 C109.665778,162.288 109.636267,162.293333 109.607467,162.293333" id="Fill-94" fill="#0E2549"></path>
                <path d="M111.8256,163.619556 C111.6944,163.619556 111.573333,163.534222 111.533689,163.402667 C111.485511,163.242667 111.577067,163.072 111.738311,163.024 L116.1744,161.696 C116.335467,161.648 116.5056,161.740444 116.553778,161.900444 C116.601956,162.062222 116.5104,162.231111 116.349156,162.280889 L111.913067,163.607111 C111.883911,163.616 111.854578,163.619556 111.8256,163.619556" id="Fill-95" fill="#0E2549"></path>
                <path d="M114.899378,164.947556 C114.768178,164.947556 114.647289,164.862222 114.607467,164.730667 C114.559289,164.568889 114.651022,164.4 114.812089,164.352 L119.248356,163.024 C119.409422,162.974222 119.579378,163.066667 119.627733,163.228444 C119.675911,163.390222 119.584356,163.559111 119.423111,163.607111 L114.986844,164.935111 C114.957867,164.944 114.928356,164.947556 114.899378,164.947556" id="Fill-96" fill="#0E2549"></path>
                <path d="M157.904,161.626667 C157.772444,161.626667 157.651556,161.541333 157.612444,161.409778 C157.564444,161.248 157.655111,161.079111 157.816889,161.031111 L162.252444,159.703111 C162.414222,159.653333 162.584889,159.745778 162.632889,159.907556 C162.680889,160.067556 162.588444,160.238222 162.428444,160.286222 L157.991111,161.614222 C157.962667,161.623111 157.932444,161.626667 157.904,161.626667" id="Fill-97" fill="#0E2549"></path>
                <path d="M160.122667,162.954667 C159.991111,162.954667 159.870222,162.869333 159.831111,162.737778 C159.781333,162.576 159.873778,162.405333 160.035556,162.357333 L164.471111,161.031111 C164.632889,160.981333 164.801778,161.073778 164.849778,161.235556 C164.897778,161.395556 164.807111,161.566222 164.645333,161.614222 L160.209778,162.942222 C160.179556,162.951111 160.151111,162.954667 160.122667,162.954667" id="Fill-98" fill="#0E2549"></path>
                <path d="M163.196444,164.282667 C163.064889,164.282667 162.944,164.197333 162.904889,164.064 C162.856889,163.904 162.947556,163.733333 163.109333,163.685333 L167.544889,162.357333 C167.706667,162.309333 167.875556,162.401778 167.923556,162.561778 C167.973333,162.723556 167.880889,162.892444 167.719111,162.942222 L163.283556,164.268444 C163.255111,164.277333 163.224889,164.282667 163.196444,164.282667" id="Fill-99" fill="#0E2549"></path>
                <path d="M89.1932444,29.7146667 C89.1932444,29.7146667 88.1982222,40.1644444 89.0343111,41.32 C89.8704,42.4757333 91.2760889,47.4222222 91.2760889,47.4222222 L86.6055111,68.3911111 L69.3294222,66.7217778 L68.2092444,49.0364444 C68.2092444,49.0364444 76.0949333,42.6128 76.5704889,41.2935111 C77.2288,39.4680889 77.2307556,29.7146667 77.2307556,29.7146667 L89.1932444,29.7146667" id="Fill-100" fill="#FFFFFF"></path>
                <path d="M86.8446222,68.7217778 L69.0412444,67.0008889 L67.8949333,48.8995556 L68.0167111,48.8 C71.16,46.2394667 75.9557333,42.0997333 76.2837333,41.1900444 C76.9164444,39.4350222 76.9256889,29.8115556 76.9256889,29.7146667 C76.9256889,29.5461333 77.0622222,29.4096 77.2307556,29.4096 C77.3991111,29.4096 77.5356444,29.5461333 77.5356444,29.7148444 C77.5356444,30.1150222 77.5260444,39.5427556 76.8574222,41.3969778 C76.3863111,42.7043556 69.7576889,48.1653333 68.5235556,49.1733333 L69.6174222,66.4426667 L86.3665778,68.0622222 L90.9614222,47.4311111 C90.7829333,46.8142222 89.5281778,42.5232 88.7872,41.4990222 C87.9272889,40.3102222 88.7216,31.4497778 88.8896,29.6856889 C88.9056,29.5180444 89.0542222,29.3955556 89.2222222,29.4110222 C89.3898667,29.4268444 89.5128889,29.5758222 89.4968889,29.7436444 C89.1164444,33.7393778 88.7214222,40.3672889 89.2814222,41.1413333 C90.1392,42.3267556 91.5114667,47.1342222 91.5694222,47.3386667 L91.5904,47.4133333 L86.8446222,68.7217778" id="Fill-101" fill="#0E2549"></path>
                <path d="M82.9395556,8.62506667 C85.1045333,8.41297778 90.3571556,7.83004444 91.1400889,11.6197333 C92.0332444,15.9422222 92.4519111,21.6506667 92.6220444,24.6670222 C92.6890667,25.8574222 91.8757333,26.9157333 90.7105778,27.1564444 L77.6592,29.8529778 C76.4634667,30.1000889 75.2728889,29.4097778 74.8908444,28.2472889 C73.6051556,24.3349333 70.9575111,16.0355556 71.1683556,14.6581333 C71.8856889,9.97155556 79.5118222,8.96088889 82.9395556,8.62506667" id="Fill-102" fill="#303C60"></path>
                <path d="M79.2529778,32.4679111 C78.3971556,31.8810667 77.5160889,29.0430222 76.7530667,25.7550222 C76.7310222,25.6599111 76.6618667,25.5841778 76.5722667,25.5532444 C75.6099556,25.2199111 74.1445333,24.3838222 73.8416,22.7370667 C73.5792,21.3105778 74.6672,21.3962667 75.568,21.6867556 C75.7288889,21.7384889 75.8816,21.5953778 75.8490667,21.4245333 C75.0894222,17.4264889 74.5868444,13.8878222 74.5868444,13.8878222 L90.0956444,10.6835556 C90.0956444,10.6835556 90.7994667,14.2432 91.4739556,18.2586667 C91.5041778,18.4387556 92.8167111,28.0780444 92.6220444,29.0151111 C92.5159111,29.5256889 92.2074667,29.9950222 91.7509333,30.4195556 C91.7509333,30.4195556 90.9237333,31.4389333 85.2871111,32.6035556 L79.2529778,32.4679111" id="Fill-103" fill="#FFFFFF"></path>
                <path d="M85.2867556,32.9098667 C85.1445333,32.9098667 85.0170667,32.8103111 84.9872,32.6656 C84.9528889,32.5000889 85.0593778,32.3377778 85.2252444,32.3036444 C90.6042667,31.1921778 91.5052444,30.2359111 91.5130667,30.2264889 L91.5422222,30.1950222 C91.9712,29.7964444 92.2334222,29.3784889 92.3221333,28.9527111 C92.4984889,28.104 91.2328889,18.6856889 91.1717333,18.3089778 C90.6179556,15.0117333 90.0380444,11.9902222 89.8544,11.0460444 L74.9313778,14.1294222 C75.0666667,15.0483556 75.5230222,18.0673778 76.1500444,21.3672889 C76.1863111,21.5575111 76.1223111,21.7464889 75.9792,21.8728889 C75.8398222,21.9960889 75.6508444,22.0353778 75.4741333,21.9783111 C74.8744889,21.7847111 74.4245333,21.7667556 74.2407111,21.9283556 C74.0723556,22.0760889 74.0945778,22.4193778 74.1427556,22.6816 C74.4451556,24.3258667 76.0126222,25.0352 76.6725333,25.2636444 C76.8636444,25.3299556 77.0053333,25.4876444 77.0515556,25.6855111 C78.2282667,30.7571556 79.0444444,31.9534222 79.4261333,32.2152889 C79.5658667,32.3109333 79.6014222,32.5015111 79.5057778,32.6408889 C79.4099556,32.7806222 79.2192,32.816 79.0798222,32.7205333 C78.2608,32.1587556 77.4030222,29.9073778 76.4579556,25.8376889 C75.6887111,25.5687111 73.8990222,24.7418667 73.5402667,22.7925333 C73.4284444,22.1841778 73.5281778,21.7384889 73.8364444,21.4680889 C74.1818667,21.1646222 74.7493333,21.1258667 75.5237333,21.3527111 C74.7848889,17.4456889 74.2885333,13.9658667 74.2835556,13.9308444 L74.2430222,13.6460444 L90.3361778,10.3208889 L90.3960889,10.6241778 C90.4032,10.6597333 91.1084444,14.2339556 91.776,18.2078222 C91.7911111,18.2984889 93.1340444,28.0565333 92.9219556,29.0776889 C92.8078222,29.6263111 92.4874667,30.1500444 91.9699556,30.6339556 C91.7975111,30.8206222 90.6728889,31.8037333 85.3489778,32.9036444 C85.3281778,32.9077333 85.3073778,32.9098667 85.2867556,32.9098667" id="Fill-104" fill="#0E2549"></path>
                <path d="M83.2462222,21.5125333 C82.9939556,21.5125333 82.7724444,21.3288889 82.7324444,21.0718222 L82.6823111,20.7482667 C82.6384,20.4641778 82.8328889,20.1982222 83.1168,20.1541333 C83.4012444,20.1098667 83.6668444,20.3047111 83.7109333,20.5888 L83.7610667,20.9123556 C83.8051556,21.1962667 83.6106667,21.4622222 83.3265778,21.5064889 C83.2997333,21.5105778 83.2727111,21.5125333 83.2462222,21.5125333" id="Fill-105" fill="#0E2549"></path>
                <path d="M89.8279111,20.4202667 C89.5843556,20.4202667 89.3667556,20.2481778 89.3178667,20 L89.2435556,19.6215111 C89.1880889,19.3393778 89.3719111,19.0657778 89.6538667,19.0104889 C89.9347556,18.9546667 90.2094222,19.1386667 90.2648889,19.4208 L90.3392,19.7994667 C90.3946667,20.0814222 90.2110222,20.3550222 89.9288889,20.4104889 C89.8951111,20.4170667 89.8613333,20.4202667 89.8279111,20.4202667" id="Fill-106" fill="#0E2549"></path>
                <path d="M79.7635556,19.9376 C79.7292444,19.9376 79.6944,19.9333333 79.6595556,19.9242667 C79.4368,19.8672 79.3027556,19.6401778 79.36,19.4176 C79.9207111,17.2357333 82.6384,16.6478222 82.7537778,16.6238222 C82.9790222,16.5767111 83.1992889,16.7217778 83.2460444,16.9468444 C83.2926222,17.1717333 83.1484444,17.392 82.9237333,17.4391111 C82.9004444,17.4439111 80.5973333,17.9482667 80.1665778,19.6248889 C80.1182222,19.8126222 79.9489778,19.9374222 79.7635556,19.9376" id="Fill-107" fill="#0E2549"></path>
                <path d="M87.6051556,24.1223111 C87.4705778,24.1223111 87.3422222,24.0444444 87.2842667,23.9132444 C87.2058667,23.7361778 87.2860444,23.5290667 87.4631111,23.4504889 C87.9626667,23.2291556 88.3873778,22.8787556 88.3845333,22.7472 C88.3607111,22.5283556 87.8540444,21.3765333 87.4467556,20.4510222 C86.6686222,18.6819556 86.1959111,17.5774222 86.1941273,17.1569778 C86.1932444,16.9303111 86.2912,16.7306667 86.4775111,16.5795556 C87.2926222,15.9173333 89.7367111,16.3980444 90.2184889,16.5013333 C90.408,16.5418667 90.5287111,16.7283556 90.488,16.9178667 C90.4476444,17.1073778 90.2611556,17.2279111 90.0714667,17.1873778 C88.0183111,16.7480889 86.9681778,16.9818667 86.8961778,17.1489778 C86.8988444,17.4629333 87.6151111,19.0910222 88.0890667,20.1683556 C88.7928889,21.768 89.08,22.448 89.0860444,22.7322667 C89.1011556,23.4398222 88.0645333,23.9521778 87.7464889,24.0926222 C87.7004444,24.1127111 87.6524444,24.1223111 87.6051556,24.1223111" id="Fill-108" fill="#0E2549"></path>
                <path d="M87.1098667,13.0711111 C89.0853333,12.5411556 92.6977778,10.9893333 91.4791111,7.13048889 C90.2606222,3.27164444 89.7914667,4.86097778 89.7914667,4.86097778 C89.7914667,4.86097778 89.1569778,5.912 88.8522667,6.01351111 C88.5477333,6.11502222 89.2382222,6.19964444 87.4958222,3.15324444 C87.4958222,3.15324444 84.4149333,3.22097778 83.5354667,5.35342222 C82.6558222,7.48586667 81.5191111,6.64284444 80.8391111,5.81048889 C80.2615111,5.10328889 79.2343111,6.3984 79.1662222,7.25973333 C78.9008,8.26702222 74.256,8.75768889 73.0558222,9.72 C71.1564444,11.2432 70.5171556,11.8524444 71.1683556,14.6581333 C71.2935111,15.1973333 73.2590222,20.2912 73.2590222,20.2912 L73.8017778,14.3912889 C73.8017778,14.3912889 83.8807111,13.9374222 87.1098667,13.0711111" id="Fill-109" fill="#303C60"></path>
                <path d="M89.6659556,25.4794667 C89.8849778,25.6506667 89.9322667,26.5313778 89.1505778,26.6229333 C87.1457778,26.8577778 85.0803556,25.7584 85.5768889,25.7831111 C85.7715556,25.7928889 87.0919111,25.8696889 87.9504,25.8209778 C89.1178667,25.7546667 89.4174222,25.2851556 89.6659556,25.4794667" id="Fill-110" fill="#0E2549"></path>
                <polyline id="Fill-111" fill="#A1C5E2" points="104.9104 38.1621333 104.092267 35.7456 131.708444 26.3964444 132.526222 28.8129778 104.9104 38.1621333"></polyline>
                <path d="M106.792533,40.6798222 C106.792533,40.6798222 109.8032,36.9393778 110.059378,36.2346667 C110.315733,35.5301333 111.224356,31.5008 112.461689,30.5975111 C113.5536,29.8001778 117.094756,28.9265778 117.842667,30.0529778 C118.433244,30.9425778 116.419378,33.4707556 115.888889,34.3450667 C115.835378,34.4328889 115.920889,34.5384889 116.018311,34.5054222 C116.7184,34.2666667 118.848711,34.0177778 118.899733,34.8574222 C118.963556,35.9144889 115.024,37.1635556 114.863822,37.2917333 C114.703644,37.4199111 110.475733,43.9859556 110.475733,43.9859556 L106.792533,40.6798222" id="Fill-112" fill="#FFFFFF"></path>
                <path d="M107.2368,40.6433778 L110.409422,43.4910222 C114.465067,37.1955556 114.612444,37.0778667 114.661511,37.0387556 C114.729956,36.9838222 114.819022,36.9486222 115.2288,36.7907556 C118.173511,35.6567111 118.590044,35.1050667 118.576178,34.8771556 C118.574756,34.8535111 118.572444,34.8140444 118.496889,34.7633778 C118.062222,34.472 116.677867,34.6227556 116.122844,34.8119111 C115.947378,34.8718222 115.759822,34.8170667 115.644267,34.6734222 C115.528889,34.5296 115.516089,34.3347556 115.611911,34.1768889 C115.718222,34.0019556 115.877156,33.7694222 116.061156,33.5002667 C116.620267,32.6832 117.929422,30.7694222 117.5728,30.2323556 C117.4336,30.0229333 117.122844,29.9285333 116.886756,29.8862222 C115.600711,29.656 113.404444,30.3104 112.652622,30.8592 C111.744533,31.5223111 110.964978,34.2689778 110.590222,35.5889778 C110.489778,35.9429333 110.417422,36.1982222 110.363733,36.3454222 C110.127111,36.9964444 107.944889,39.7569778 107.2368,40.6433778 Z M110.5424,44.4810667 L106.347556,40.7159111 L106.540089,40.4768 C107.691022,39.0467556 109.581511,36.6005333 109.755022,36.1240889 C109.800533,35.9989333 109.873956,35.7399111 109.966933,35.4120889 C110.391644,33.9157333 111.182222,31.1304889 112.270578,30.336 C113.228089,29.6368 115.598578,28.9973333 117.000889,29.2483556 C117.525333,29.3422222 117.8992,29.5527111 118.112533,29.8737778 C118.665067,30.7059556 117.7104,32.2369778 116.596089,33.8663111 C116.5488,33.9349333 116.503644,34.0012444 116.460622,34.0643556 C117.1984,33.928 118.3104,33.8581333 118.857778,34.2252444 C119.081422,34.3752889 119.207822,34.5873778 119.222933,34.8378667 C119.277511,35.7374222 117.758756,36.5109333 115.461689,37.3955556 C115.305956,37.4554667 115.146133,37.5169778 115.070756,37.5495111 C114.728889,38.0062222 112.329422,41.7057778 110.748089,44.1612444 L110.5424,44.4810667 L110.5424,44.4810667 Z" id="Fill-113" fill="#0E2549"></path>
                <path d="M128.117333,46.9902222 C128.117333,46.9902222 131.258667,43.3594667 131.905778,42.9815111 C132.552889,42.6033778 135.964444,41.0750222 136.631111,39.6961778 C137.221333,38.4791111 137.296,34.9792 136.053333,34.4446222 C135.073778,34.0225778 133.488,36.2296889 132.723556,36.9080889 C132.645333,36.9761778 132.526222,36.9111111 132.542222,36.8094222 C132.652444,36.0778667 132.515556,33.9372444 131.68,34.0373333 C130.629333,34.1633778 130.104889,38.2629333 130.007111,38.4433778 C129.909333,38.6238222 124.205333,43.9578667 124.205333,43.9578667 L128.117333,46.9902222" id="Fill-114" fill="#FFFFFF"></path>
                <path d="M124.616,43.9388444 L128.08,46.6257778 C128.784,45.8183111 131.169778,43.1018667 131.770667,42.7511111 C131.891556,42.6814222 132.092444,42.5783111 132.346667,42.4476444 C133.493333,41.8600889 135.879111,40.6376889 136.391111,39.5800889 C136.805333,38.7244444 136.940444,36.5936 136.503111,35.4184889 C136.403556,35.1521778 136.227556,34.8096 135.948444,34.6896 C135.381333,34.4453333 134.268444,35.656 133.605333,36.3793778 C133.331556,36.6764444 133.096889,36.9329778 132.899556,37.1075556 C132.780444,37.2138667 132.611556,37.2332444 132.471111,37.1569778 C132.330667,37.0805333 132.254222,36.9285333 132.277333,36.7697778 C132.369778,36.1648 132.268444,34.7708444 131.886222,34.3770667 C131.813333,34.3013333 131.756444,34.2968889 131.712,34.3022222 C131.415111,34.3376 130.944,35.0051556 130.378667,37.9838222 C130.295111,38.4202667 130.277333,38.5032889 130.241778,38.5699556 C130.165333,38.7123556 128.272,40.5182222 124.616,43.9388444 Z M128.152889,47.3564444 L123.794489,43.9767111 L124.023111,43.7630222 C126.179556,41.7473778 129.425778,38.6913778 129.768889,38.3139556 C129.786667,38.2384 129.820444,38.0588444 129.854222,37.8844444 C130.309333,35.4908444 130.787556,33.8757333 131.648,33.7726222 C131.879111,33.7447111 132.094222,33.8254222 132.268444,34.0055111 C132.743111,34.4945778 132.856889,35.6858667 132.837333,36.4213333 C132.951111,36.3020444 133.077333,36.1656889 133.212444,36.0186667 C134.117333,35.0330667 135.242667,33.8060444 136.16,34.1998222 C136.522667,34.3557333 136.805333,34.7031111 137.002667,35.2323556 C137.505778,36.5806222 137.342222,38.8405333 136.871111,39.8122667 C136.280889,41.0309333 133.880889,42.2613333 132.590222,42.9223111 C132.343111,43.0490667 132.147556,43.1493333 132.040889,43.2115556 C131.592889,43.4727111 129.569778,45.7189333 128.318222,47.1644444 L128.152889,47.3564444 L128.152889,47.3564444 Z" id="Fill-115" fill="#0E2549"></path>
                <path d="M95.3649778,48.7857778 C95.3649778,48.7857778 106.3872,37.9406222 107.809422,36.8739556 C109.231644,35.8072889 114.564978,42.0295111 114.564978,42.0295111 C114.564978,42.0295111 108.520533,53.52 105.498311,57.8204444 C102.476089,62.1191111 89.1237333,64.9582222 85.7649778,60.8746667 C82.4060444,56.7893333 79.3649778,51.0968889 79.3649778,51.0968889 L95.3649778,48.7857778" id="Fill-116" fill="#D54A41"></path>
                <path d="M99.8721778,97.9946667 C99.8721778,97.9946667 128.076444,96.8231111 128.787556,103.283556 C129.498667,109.745778 112.209422,155.452444 112.209422,155.452444 L98.6538667,153.646222 C98.6538667,153.646222 108.406578,120.131556 107.984178,117.728 C106.313244,108.216889 67.3344,96.6666667 67.3344,96.6666667 L99.8721778,97.9946667" id="Fill-117" fill="#6791C9"></path>
                <path d="M64.3722667,97.8986667 C64.3722667,97.8986667 60.4113778,118.755556 79.3509333,120.042667 C98.4760889,121.340444 114.741333,116.161778 118.904356,119.438222 C120.123378,120.398222 141.587556,155.452444 141.587556,155.452444 L156.579556,150.711111 C156.579556,150.711111 133.955556,108.035556 129.571556,105.248 C125.185778,102.460444 119.364978,98.2791111 102.061156,97.8986667 C84.7575111,97.5182222 64.3722667,97.8986667 64.3722667,97.8986667" id="Fill-118" fill="#75A1DE"></path>
                <path d="M62.7130667,67.0613333 C61.2908444,77.5804444 63.5427556,99.6302222 63.5427556,99.6302222 L102.061156,98.1777778 C102.061156,98.1777778 94.9160889,39.0376889 89.6167111,38.3568 C87.3806222,38.0695111 84.9944889,41.0958222 79.0686222,38.3568 C73.1427556,35.6177778 64.1352889,56.544 62.7130667,67.0613333" id="Fill-119" fill="#F37168"></path>
                <path d="M83.4643556,49.712 C83.4643556,49.712 93.1781333,54.4497778 98.5968,53.5128889 C104.015467,52.576 124.883556,40.1272889 124.883556,40.1272889 L132.135111,45.7532444 C132.135111,45.7532444 118.303111,62.5866667 113.233244,64.5333333 C108.163378,66.48 94.3582222,71.3617778 83.3095111,65.9626667 C72.2608,60.5635556 83.4643556,49.712 83.4643556,49.712" id="Fill-120" fill="#F37168"></path>
                <path d="M132.551111,30.7744 L132.551111,39.0855111 L134.373333,39.0855111 L134.373333,30.7744 L133.596444,29.0688 C133.544889,28.9537778 133.381333,28.9537778 133.328,29.0688 L132.551111,30.7744" id="Fill-121" fill="#0E2549"></path>
                <path d="M134.576,37.2974222 C134.576,37.2974222 134.094222,34.8944 133.824,34.3461333 C133.553778,33.7978667 132.158222,33.3911111 132.659556,32.7457778 C133.160889,32.1002667 135.333333,32.8202667 135.829333,34.2657778 C136.325333,35.7111111 136.273778,36.7255111 136.273778,36.7255111 L134.576,37.2974222" id="Fill-122" fill="#FFFFFF"></path>
                <path d="M134.576,37.5642667 C134.451556,37.5642667 134.339556,37.4766222 134.314667,37.3498667 C134.183111,36.6910222 133.793778,34.888 133.584,34.4641778 C133.512889,34.3198222 133.269333,34.1443556 133.054222,33.9895111 C132.705778,33.7386667 132.344889,33.4792889 132.291556,33.1109333 C132.264889,32.9283556 132.318222,32.7505778 132.448,32.5820444 C132.675556,32.2899556 133.105778,32.1800889 133.660444,32.2723556 C134.592,32.4273778 135.722667,33.1320889 136.081778,34.1792 C136.588444,35.6561778 136.542222,36.6954667 136.540444,36.7388444 C136.531556,36.8858667 136.412444,37.0014222 136.259556,36.9916444 C136.112,36.9841778 136,36.8588444 136.007111,36.7118222 C136.007111,36.7025778 136.048,35.7244444 135.576889,34.352 C135.288889,33.5116444 134.328889,32.9244444 133.573333,32.7985778 C133.235556,32.7422222 132.965333,32.7847111 132.869333,32.9091556 C132.812444,32.984 132.817778,33.0220444 132.819556,33.0344889 C132.839111,33.1784889 133.143111,33.3969778 133.365333,33.5566222 C133.644444,33.7569778 133.932444,33.9644444 134.062222,34.2280889 C134.341333,34.7914667 134.787556,36.9955556 134.837333,37.2449778 C134.865778,37.3893333 134.773333,37.5299556 134.629333,37.5589333 C134.611556,37.5624889 134.593778,37.5642667 134.576,37.5642667" id="Fill-123" fill="#0E2549"></path>
                <path d="M96.8435556,53.8986667 C90.9480889,53.8986667 84.1242667,49.808 83.7895111,49.6053333 C83.6636444,49.5288889 83.6236444,49.3653333 83.6999111,49.2391111 C83.7761778,49.1128889 83.9402667,49.0737778 84.0661333,49.1502222 C84.16,49.2071111 93.5182222,54.8142222 99.568,52.9973333 C107.595556,50.5848889 122.656889,41.1354667 122.808178,41.0401778 C122.932622,40.9616 123.097244,40.9990939 123.175822,41.1239111 C123.254222,41.2485333 123.216827,41.4131556 123.092089,41.4917333 C122.940444,41.5872 107.817778,51.0755556 99.7214222,53.5075556 C98.8131556,53.7813333 97.8408889,53.8986667 96.8435556,53.8986667" id="Fill-124" fill="#0E2549"></path>
                <path d="M96.6147556,68.912 C92.8535111,68.912 89.5240889,68.1173333 86.9726222,67.2231111 C82.0915556,65.5164444 78.9217778,63.088 78.8903111,63.0648889 C78.7738667,62.9742222 78.7523556,62.8071111 78.8424889,62.6897778 C78.9326222,62.5742222 79.0999111,62.5528889 79.2165333,62.6417778 C79.2474667,62.6666667 82.3614222,65.0488889 87.1658667,66.7271111 C91.5875556,68.2702222 98.3900444,69.5182222 105.689422,66.6915556 C105.827022,66.6382222 105.981333,66.7075556 106.034311,66.8444444 C106.087467,66.9813333 106.0192,67.136 105.881956,67.1893333 C102.6432,68.4426667 99.5016889,68.912 96.6147556,68.912" id="Fill-125" fill="#0E2549"></path>
                <path d="M220.640886,166.650034 C203.42097,165.807958 144.840798,167.234602 127.024722,167.79019 C109.208646,168.346606 88.528518,167.056582 77.786046,165.160462 C67.043574,163.264342 4.94937,165.321922 7.7672196,170.420746 C10.5849864,175.51957 35.4331836,172.701058 63.611514,174.750358 C91.79001,176.799658 155.163474,174.494506 169.458066,174.750358 C183.753486,175.007038 196.861554,174.238654 215.283726,173.21359 C233.705898,172.189354 230.623254,167.137726 220.640886,166.650034" id="Fill-16" fill="#CCE2FF"></path>
                <path d="M17.780058,161.00887 L20.3949648,161.00887 C20.947158,161.00887 21.3947748,160.56175 21.3947748,160.009474 L21.3947748,157.855846 C21.3947748,157.30357 20.947158,156.85645 20.3949648,156.85645 L17.780058,156.85645 C17.2278648,156.85645 16.780248,157.30357 16.780248,157.855846 L16.780248,160.009474 C16.780248,160.56175 17.2278648,161.00887 17.780058,161.00887" id="Fill-133" fill="#9EC8FF"></path>
                <path d="M9.389934,161.00887 L12.0048408,161.00887 C12.557034,161.00887 13.0046508,160.56175 13.0046508,160.009474 L13.0046508,157.855846 C13.0046508,157.30357 12.557034,156.85645 12.0048408,156.85645 L9.389934,156.85645 C8.8377408,156.85645 8.390124,157.30357 8.390124,157.855846 L8.390124,160.009474 C8.390124,160.56175 8.8377408,161.00887 9.389934,161.00887" id="Fill-134" fill="#9EC8FF"></path>
                <path d="M0.99981,161.00887 L3.6147168,161.00887 C4.16691,161.00887 4.6145268,160.56175 4.6145268,160.009474 L4.6145268,157.855846 C4.6145268,157.30357 4.16691,156.85645 3.6147168,156.85645 L0.99981,156.85645 C0.4476168,156.85645 -5.77315973e-15,157.30357 -5.77315973e-15,157.855846 L-5.77315973e-15,160.009474 C-5.77315973e-15,160.56175 0.4476168,161.00887 0.99981,161.00887" id="Fill-135" fill="#9EC8FF"></path>
                <path d="M239.77017,83.6147996 L239.77017,80.99981 C239.77017,80.4476996 239.32305,80 238.770774,80 L236.617146,80 C236.06487,80 235.61775,80.4476996 235.61775,80.99981 L235.61775,83.6147996 C235.61775,84.16691 236.06487,84.6146096 236.617146,84.6146096 L238.770774,84.6146096 C239.32305,84.6146096 239.77017,84.16691 239.77017,83.6147996" id="Fill-136" fill="#9EC8FF"></path>
                <path d="M239.77017,92.0049236 L239.77017,89.389934 C239.77017,88.8378236 239.32305,88.390124 238.770774,88.390124 L236.617146,88.390124 C236.06487,88.390124 235.61775,88.8378236 235.61775,89.389934 L235.61775,92.0049236 C235.61775,92.557034 236.06487,93.0047336 236.617146,93.0047336 L238.770774,93.0047336 C239.32305,93.0047336 239.77017,92.557034 239.77017,92.0049236" id="Fill-137" fill="#9EC8FF"></path>
                <path d="M239.77017,100.395048 L239.77017,97.780058 C239.77017,97.2278648 239.32305,96.780248 238.770774,96.780248 L236.617146,96.780248 C236.06487,96.780248 235.61775,97.2278648 235.61775,97.780058 L235.61775,100.395048 C235.61775,100.947241 236.06487,101.394775 236.617146,101.394775 L238.770774,101.394775 C239.32305,101.394775 239.77017,100.947241 239.77017,100.395048" id="Fill-138" fill="#9EC8FF"></path>
            </g>
        </g>
    </g>
</svg>