<?xml version="1.0" encoding="UTF-8"?>
<svg width="268px" height="207px" viewBox="0 0 268 207" version="1.1" xmlns="http://www.w3.org/2000/svg" xmlns:xlink="http://www.w3.org/1999/xlink">
    <title>1028</title>
    <defs>
        <path d="M62.36496,58.52442 C62.36496,78.40056 48.41109,86.45631 31.19697,76.51755 C13.98354,66.58017 0.02898,42.41085 0.02898,22.53471 C0.02898,2.65857 13.98354,-5.39787 31.19697,4.54089 C48.41109,14.47896 62.36496,38.64828 62.36496,58.52442" id="path-1"></path>
    </defs>
    <g id="Page-1" stroke="none" stroke-width="1" fill="none" fill-rule="evenodd">
        <g id="11-copy-6" transform="translate(-73.000000, -166.000000)">
            <g id="1028" transform="translate(73.000000, 166.000000)">
                <path d="M94.547,206.21183 C93.74108,206.21183 92.97173,206.04899 92.39627,205.71779 L62.61794,188.52437 C61.34834,187.79159 61.50704,186.51164 62.9726,185.6657 C63.77438,185.20271 64.8011,184.96535 65.774,184.96535 C66.57992,184.96535 67.34996,185.12819 67.92473,185.46008 L97.70306,202.65281 C98.97266,203.38628 98.81396,204.66554 97.3484,205.51217 C96.54662,205.97516 95.5199,206.21183 94.547,206.21183" id="Fill-1" fill="#AFCDFB"></path>
                <path d="M235.28768,95.06042 C231.95291,95.06042 228.61883,94.32557 226.07411,92.85656 C220.98605,89.91923 220.98605,85.15616 226.07342,82.21883 C228.61745,80.74982 231.95222,80.01566 235.2863,80.01566 C238.62107,80.01566 241.95515,80.74982 244.49918,82.21883 C249.58724,85.15685 249.58793,89.91923 244.49987,92.85725 C241.95653,94.32557 238.62176,95.06042 235.28768,95.06042" id="Fill-2" fill="#EDF5FF"></path>
                <path d="M236.05151,83.57468 C235.90592,83.93762 233.39984,86.98949 230.89376,87.75263 C229.80356,88.08383 229.07078,88.1273 228.59123,88.07003 C228.10892,88.01276 227.81153,87.51596 227.97368,87.05918 C228.40493,85.84478 229.64141,83.31593 232.78229,81.7586 C237.032,79.65134 236.05151,83.57468 236.05151,83.57468" id="Fill-3" fill="#263764"></path>
                <path d="M236.88641,84.74699 C236.88641,84.74699 235.94249,86.96258 235.652,88.81523 C235.47467,89.94476 236.09498,91.41308 236.60558,92.38667 C236.92229,92.99042 237.72545,93.12635 238.23053,92.6675 C239.04956,91.92437 240.09284,90.63338 240.26534,88.77935 C240.55583,85.65503 240.26534,85.11062 240.26534,85.11062 L236.88641,84.74699" id="Fill-4" fill="#263764"></path>
                <path d="M242.9246,46.99019 C242.9246,46.99019 243.25166,50.93009 242.9246,55.28951 C242.59823,59.64755 241.4273,80.03291 241.20995,84.93743 C241.20995,84.93743 241.31828,86.42162 238.44443,86.09456 C235.56989,85.76819 235.80173,84.11978 235.80173,84.11978 C235.80173,84.11978 231.76454,84.06527 231.63827,81.68615 C231.51062,79.30634 227.50379,53.27402 227.50379,43.91486 L242.9246,46.99019" id="Fill-5" fill="#6791C9"></path>
                <path d="M235.80173,84.11978 C235.80173,84.11978 235.30148,84.11219 234.64805,83.99972 L233.858,52.31216 L235.80173,84.11978" id="Fill-6" fill="#3B6397"></path>
                <path d="M238.65626,18.07367 C245.17676,20.77709 245.04566,24.63143 245.04566,24.63143 C245.04566,24.63143 243.76847,38.76332 244.20455,48.20045 C244.38671,52.14587 223.24373,52.44671 226.39634,41.92145 C230.11475,29.51111 228.72095,19.46402 230.46113,17.94947 C232.20131,16.43354 236.96921,17.3747 238.65626,18.07367" id="Fill-7" fill="#F37168"></path>
                <path d="M240.75386,21.49124 C240.413,22.81535 238.67834,23.51363 236.87882,23.04995 C235.08068,22.58627 233.89871,21.13796 234.23957,19.81385 C234.58043,18.48974 236.31578,17.79215 238.11461,18.25583 C239.91344,18.71882 241.09472,20.16782 240.75386,21.49124" id="Fill-8" fill="#F3BCA9"></path>
                <path d="M236.99957,18.52148 C236.56694,18.52148 236.15294,18.596 235.78379,18.74435 C235.17521,18.98861 234.76811,19.40468 234.63632,19.91597 C234.35204,21.01859 235.40429,22.24679 236.98163,22.6532 C237.76892,22.85606 238.55897,22.82363 239.21033,22.56074 C239.81822,22.31648 240.22532,21.90041 240.35711,21.38912 C240.4889,20.87852 240.33296,20.31755 239.91896,19.80971 C239.47529,19.26599 238.7984,18.85475 238.0118,18.65258 C237.67163,18.56495 237.33077,18.52148 236.99957,18.52148 Z M237.99248,23.60333 C237.59297,23.60333 237.18311,23.55158 236.7767,23.4467 C234.76259,22.92713 233.44676,21.25181 233.84282,19.71104 C234.04085,18.94169 234.62183,18.32828 235.47743,17.98397 C236.29025,17.6576 237.26315,17.61344 238.21673,17.85908 C239.17031,18.10403 240.00038,18.61394 240.55445,19.29221 C241.13681,20.00705 241.34864,20.8247 241.15061,21.59405 C240.95258,22.3634 240.3716,22.9775 239.516,23.32112 C239.04956,23.5088 238.52999,23.60333 237.99248,23.60333 L237.99248,23.60333 Z" id="Fill-9" fill="#FFFFFE"></path>
                <path d="M236.04185,17.78042 C236.04185,17.78042 236.09774,18.04124 235.98527,20.10779 C235.94939,20.75708 238.22432,21.36428 238.81151,20.77571 C239.40008,20.18852 239.16479,19.57649 239.30555,17.36573 C239.447,15.15497 236.04185,17.78042 236.04185,17.78042" id="Fill-10" fill="#F3BCA9"></path>
                <path d="M239.30555,17.36573 C239.30555,17.36573 238.74596,19.41572 235.98458,20.20163 L236.02598,18.33863 L239.30555,17.36573" id="Fill-11" fill="#E09689"></path>
                <path d="M241.0547,12.15761 C241.74884,14.84171 240.13562,17.57963 237.45221,18.27377 C234.76811,18.96722 232.0295,17.354 231.33605,14.67059 C230.64191,11.98649 232.25513,9.24857 234.93923,8.55443 C237.62333,7.86098 240.36056,9.47351 241.0547,12.15761" id="Fill-12" fill="#F3BCA9"></path>
                <path d="M237.34802,13.59833 C237.34802,13.59833 234.58457,14.78237 232.6712,14.79548 C230.75714,14.80928 231.17942,13.2071 231.17942,13.2071 L236.8595,12.386 L237.34802,13.59833" id="Fill-13" fill="#E09689"></path>
                <path d="M232.10126,13.91021 C232.10126,13.91021 234.50798,12.88832 236.62007,13.31474 C237.11618,13.4141 237.57641,13.68044 237.89588,14.07236 C238.00007,14.20139 238.13255,14.31869 238.28297,14.3525 C238.65695,14.43737 239.26967,12.88349 239.99762,12.8483 C240.72626,12.81242 241.21202,13.32785 240.61517,14.2835 C240.01763,15.23915 240.21911,16.30865 240.49442,16.46114 C240.76904,16.61501 243.68153,14.38424 241.11197,9.2948 C238.5431,4.20467 232.01639,6.94604 231.0014,7.97759 C231.0014,7.97759 229.9319,8.90909 229.06181,8.0804 C229.06181,8.0804 228.08753,15.38267 232.10126,13.91021" id="Fill-14" fill="#303C60"></path>
                <path d="M227.27195,16.91723 L223.76537,15.40544 C223.36379,15.23225 223.0526,14.8976 222.90977,14.48429 L219.44804,4.44962 L217.84379,4.72838 L220.64174,17.21531 C220.77284,17.79836 221.14475,18.29861 221.6657,18.59048 L227.50379,21.86936 L227.27195,16.91723" id="Fill-15" fill="#F3BCA9"></path>
                <path d="M263.75225,18.54908 L264.55679,18.17993 C265.24127,17.86529 265.86641,17.43404 266.40323,16.90412 L266.96282,16.35074 C267.27884,16.03955 267.37337,15.5669 267.20087,15.15773 C267.06632,14.83826 266.68958,14.70026 266.37977,14.8562 L264.69962,15.7049 C264.69962,15.7049 264.96251,14.96108 264.83555,14.76719 C264.70928,14.57399 263.40932,16.00919 262.80833,17.02694 C262.20665,18.04469 263.75225,18.54908 263.75225,18.54908" id="Fill-16" fill="#F3BCA9"></path>
                <path d="M249.75905,22.56212 L252.7571,22.22747 C253.46711,22.14812 254.15297,21.92594 254.77328,21.57473 L262.80833,17.02694 L263.75225,18.54908 L255.5378,24.89087 C255.28319,25.08683 255.0065,25.25036 254.71118,25.37594 L249.81287,27.47009 L249.75905,22.56212" id="Fill-17" fill="#F3BCA9"></path>
                <path d="M217.84379,4.72838 L217.53743,4.37579 C217.18484,3.96938 216.95576,3.47051 216.87848,2.93852 L216.66458,1.47503 C216.59765,1.01963 216.77567,0.55664 217.14551,0.28271 L217.18622,0.25373 C217.57469,-0.01468 218.11634,0.1799 218.29712,0.61667 L219.01886,2.35961 C219.01886,2.35961 218.79116,1.4564 219.08234,1.35704 C219.29624,1.28321 219.70127,2.40377 219.46115,3.02753 C219.22241,3.64991 219.44804,4.44962 219.44804,4.44962 L217.84379,4.72838" id="Fill-18" fill="#F3BCA9"></path>
                <path d="M234.20438,16.87031 L232.90856,16.51496 C232.90856,16.51496 233.5268,17.48786 234.43001,17.73557 C235.33322,17.98328 235.47329,17.21945 235.47329,17.21945 L234.20438,16.87031" id="Fill-19" fill="#FFFFFE"></path>
                <path d="M232.25996,17.22842 C232.25996,17.22842 226.40324,16.0706 224.61476,15.52757 C222.82559,14.98454 222.07901,19.89734 222.21494,21.14279 C222.35087,22.38686 228.4415,23.77721 229.16531,25.91207 C229.88981,28.04693 232.25996,17.22842 232.25996,17.22842" id="Fill-20" fill="#F37168"></path>
                <path d="M241.21616,19.38467 C241.21616,19.38467 245.49692,21.22145 252.66119,22.11638 C252.95168,22.15226 253.20215,22.34546 253.29806,22.62284 C253.57406,23.41565 254.04533,25.14755 253.67756,26.92913 C253.52507,27.66398 252.86129,28.17941 252.11126,28.17389 C249.86807,28.15871 245.04221,28.3733 244.25837,30.46952 C243.23234,33.2171 241.21616,19.38467 241.21616,19.38467" id="Fill-21" fill="#F37168"></path>
                <path d="M238.69766,23.24591 L237.52328,24.52103 C237.37079,24.68594 237.29834,24.91019 237.32456,25.13375 L238.13117,32.11103 C238.15394,32.30699 238.09943,32.50364 237.98006,32.66027 L235.45466,35.96399 C235.34288,36.11027 235.11242,36.07025 235.05653,35.8943 L233.68136,31.56731 C233.62961,31.40378 233.63375,31.22714 233.69516,31.06568 L236.1143,24.72872 C236.16743,24.59003 236.17916,24.43892 236.1488,24.29333 L235.79414,22.61318 L238.69766,23.24591" id="Fill-22" fill="#FFFFFE"></path>
                <path d="M251.51993,26.87462 C250.23929,27.02366 247.09358,27.29483 244.67513,27.49631 C243.28961,27.61154 242.36915,28.94807 242.71898,30.29357 C244.00859,35.24432 242.30222,43.20209 242.60927,45.89585 C242.97773,49.11884 241.02503,50.36498 241.01468,50.37188 C242.94392,49.95443 244.25009,49.19336 244.20455,48.20045 C243.93683,42.40376 244.31564,34.84136 244.64684,29.86508 C246.05513,28.32845 250.14062,28.15871 252.13541,28.17389 C252.89579,28.1801 253.5368,27.63569 253.68584,26.8898 C253.87076,25.96106 253.82798,25.05233 253.70792,24.28022 C253.70792,24.33059 253.70654,26.6207 251.51993,26.87462" id="Fill-23" fill="#D54A41"></path>
                <path d="M32.94932,160.68494 C29.61455,160.68494 26.28047,159.95009 23.73644,158.48177 C18.64838,155.54444 18.64838,150.78068 23.73644,147.84404 C26.28047,146.37503 29.61524,145.64018 32.94932,145.64018 C36.28409,145.64018 39.61817,146.37503 42.1622,147.84404 C47.25026,150.78068 47.25026,155.54375 42.1622,158.48177 C39.61817,159.95009 36.2834,160.68494 32.94932,160.68494" id="Fill-24" fill="#EDF5FF"></path>
                <path d="M32.1848,149.1992 C32.33039,149.56283 34.83647,152.61401 37.34324,153.37646 C38.43275,153.70835 39.16484,153.75182 39.64577,153.69455 C40.12739,153.63728 40.42547,153.14048 40.26263,152.68301 C39.83138,151.4693 38.5949,148.93976 35.45471,147.38312 C31.20362,145.27655 32.1848,149.1992 32.1848,149.1992" id="Fill-25" fill="#263764"></path>
                <path d="M31.34921,150.37151 C31.34921,150.37151 32.29382,152.58779 32.58431,154.43975 C32.76164,155.56997 32.14202,157.03829 31.63142,158.01119 C31.31402,158.61494 30.51086,158.75018 30.00578,158.29202 C29.18675,157.54889 28.14416,156.2579 27.97166,154.40318 C27.68048,151.27955 27.97166,150.73445 27.97166,150.73445 L31.34921,150.37151" id="Fill-26" fill="#263764"></path>
                <path d="M25.31171,112.61402 C25.31171,112.61402 24.98465,116.55461 25.31171,120.91334 C25.63877,125.27276 26.80901,145.65812 27.02705,150.56126 C27.02705,150.56126 26.91734,152.04614 29.79257,151.71977 C32.66642,151.39271 32.43527,149.74361 32.43527,149.74361 C32.43527,149.74361 36.47108,149.68979 36.59873,147.31067 C36.725,144.93155 40.73252,118.89854 40.73252,109.53938 L25.31171,112.61402" id="Fill-27" fill="#6791C9"></path>
                <path d="M32.43527,149.74361 C32.43527,149.74361 32.93483,149.7374 33.58757,149.62493 L34.37831,117.93668 L32.43527,149.74361" id="Fill-28" fill="#75A1DE"></path>
                <path d="M29.58074,83.69888 C23.06024,86.4023 23.19065,90.25664 23.19065,90.25664 C23.19065,90.25664 24.46784,104.38784 24.03176,113.82497 C23.8496,117.77039 44.99327,118.07123 41.83928,107.54597 C38.12225,95.13563 39.51536,85.08854 37.77518,83.5733 C36.03431,82.05806 31.2671,82.99922 29.58074,83.69888" id="Fill-29" fill="#F37168"></path>
                <path d="M27.48245,87.11645 C27.824,88.44056 29.55866,89.13815 31.3568,88.67516 C33.15632,88.21148 34.33691,86.76248 33.99605,85.43837 C33.65519,84.11426 31.92053,83.41736 30.1217,83.87966 C28.32356,84.34334 27.14159,85.79234 27.48245,87.11645" id="Fill-30" fill="#F3BCA9"></path>
                <path d="M27.8792,87.01364 C28.16417,88.11695 29.67734,88.68275 31.25468,88.27772 C32.83202,87.872 33.88358,86.6438 33.5993,85.54118 C33.31571,84.43787 31.79978,83.87345 30.22382,84.2771 C28.64648,84.68282 27.59492,85.91171 27.8792,87.01364 Z M30.25901,89.22578 C28.71686,89.22578 27.4031,88.44815 27.0857,87.21857 C26.68895,85.67849 28.00547,84.00248 30.01958,83.48291 C32.03576,82.9661 33.99605,83.79617 34.3928,85.33625 C34.79024,86.87702 33.47303,88.55234 31.45961,89.07191 C31.0532,89.1761 30.64886,89.22578 30.25901,89.22578 L30.25901,89.22578 Z" id="Fill-31" fill="#FFFFFE"></path>
                <path d="M32.19515,83.40425 C32.19515,83.40425 32.13857,83.66576 32.25173,85.73231 C32.28692,86.3816 30.01268,86.9888 29.42411,86.40092 C28.83692,85.81235 29.07221,85.20101 28.93007,82.99025 C28.78931,80.77949 32.19515,83.40425 32.19515,83.40425" id="Fill-32" fill="#F3BCA9"></path>
                <path d="M28.93007,82.99025 C28.93007,82.99025 29.49104,85.04024 32.25173,85.82684 L32.20964,83.96315 L28.93007,82.99025" id="Fill-33" fill="#E09689"></path>
                <path d="M27.18092,77.78213 C26.48747,80.46623 28.10069,83.20415 30.78479,83.89829 C33.4682,84.59243 36.20612,82.97921 36.90026,80.29511 C37.5944,77.61101 35.98118,74.87309 33.29777,74.17964 C30.61367,73.4855 27.87506,75.09872 27.18092,77.78213" id="Fill-34" fill="#F3BCA9"></path>
                <path d="M30.8876,79.22285 C30.8876,79.22285 33.65174,80.40689 35.56511,80.42069 C37.47848,80.4338 37.05689,78.83162 37.05689,78.83162 L31.37681,78.01121 L30.8876,79.22285" id="Fill-35" fill="#E09689"></path>
                <path d="M36.13574,79.53542 C36.13574,79.53542 33.72833,78.51284 31.61624,78.93857 C31.11944,79.03931 30.65921,79.30496 30.33974,79.69757 C30.23555,79.82591 30.10376,79.94252 29.95403,79.97702 C29.57936,80.06189 28.96595,78.50801 28.23869,78.47213 C27.51074,78.43763 27.02498,78.95237 27.62183,79.90802 C28.21799,80.86298 28.01651,81.93317 27.74258,82.08635 C27.46727,82.23953 24.55478,80.00876 27.12365,74.91932 C29.69321,69.82919 36.21992,72.57056 37.2356,73.60211 C37.2356,73.60211 38.30441,74.53361 39.17381,73.70423 C39.17381,73.70423 40.14878,81.0065 36.13574,79.53542" id="Fill-36" fill="#303C60"></path>
                <path d="M40.96505,82.54106 L44.47163,81.02996 C44.87321,80.85677 45.18302,80.52212 45.32585,80.10881 L48.78896,70.07483 L50.39321,70.35359 L47.59388,82.84052 C47.46347,83.42288 47.09156,83.92313 46.57061,84.21569 L40.73252,87.49457 L40.96505,82.54106" id="Fill-37" fill="#F3BCA9"></path>
                <path d="M4.48475,84.17291 L3.68021,83.80445 C2.99504,83.48981 2.36921,83.05787 1.83308,82.52795 L1.2728,81.97595 C0.95678,81.66338 0.86363,81.19142 1.03613,80.78225 C1.17068,80.46278 1.54742,80.32409 1.85654,80.48072 L3.53738,81.32942 C3.53738,81.32942 3.27449,80.5856 3.40007,80.3924 C3.52703,80.19851 4.82699,81.6344 5.42867,82.65146 C6.02966,83.66921 4.48475,84.17291 4.48475,84.17291" id="Fill-38" fill="#F3BCA9"></path>
                <path d="M18.47795,88.18733 L15.47852,87.8513 C14.76989,87.77264 14.08403,87.55046 13.46234,87.19925 L5.42867,82.65146 L4.48475,84.17291 L12.6992,90.51608 C12.95243,90.71204 13.2305,90.87419 13.52444,91.00046 L18.42413,93.09461 L18.47795,88.18733" id="Fill-39" fill="#F3BCA9"></path>
                <path d="M50.39321,70.35359 L50.69888,70.00031 C51.05147,69.5939 51.27986,69.09503 51.35783,68.56235 L51.57242,67.09955 C51.63935,66.64415 51.46133,66.18116 51.0908,65.90792 L51.05009,65.87894 C50.66162,65.61053 50.11928,65.80442 49.93919,66.2405 L49.21814,67.98413 C49.21814,67.98413 49.44515,67.08161 49.15397,66.98087 C48.94007,66.90842 48.53573,68.02898 48.77447,68.65136 C49.0139,69.27443 48.78896,70.07483 48.78896,70.07483 L50.39321,70.35359" id="Fill-40" fill="#F3BCA9"></path>
                <path d="M34.03262,82.49552 L35.32844,82.13879 C35.32844,82.13879 34.70951,83.11169 33.8063,83.36009 C32.90309,83.60849 32.76233,82.84328 32.76233,82.84328 L34.03262,82.49552" id="Fill-41" fill="#FFFFFE"></path>
                <path d="M35.97566,82.85294 C35.97566,82.85294 41.83307,81.69512 43.62155,81.15209 C45.41003,80.60837 46.1573,85.52117 46.02137,86.76662 C45.88613,88.01207 39.7955,89.40104 39.071,91.53659 C38.3465,93.67214 35.97566,82.85294 35.97566,82.85294" id="Fill-42" fill="#F37168"></path>
                <path d="M27.02015,85.0085 C27.02015,85.0085 22.73939,86.84597 15.57581,87.7409 C15.28394,87.77747 15.03485,87.96998 14.93825,88.24736 C14.66225,89.04086 14.19029,90.77276 14.55875,92.55365 C14.71055,93.28781 15.37571,93.80324 16.12574,93.79841 C18.36824,93.78254 23.19479,93.99782 23.97794,96.09473 C25.00397,98.84162 27.02015,85.0085 27.02015,85.0085" id="Fill-43" fill="#F37168"></path>
                <path d="M29.53865,88.87112 L30.71234,90.14486 C30.86483,90.31115 30.93797,90.53471 30.91244,90.75758 L30.10514,97.73555 C30.08237,97.93151 30.13688,98.12816 30.25625,98.28479 L32.78234,101.58851 C32.89412,101.73479 33.12458,101.69477 33.18047,101.51951 L34.55495,97.19183 C34.60739,97.02761 34.60187,96.85097 34.54046,96.69089 L32.12132,90.35255 C32.06888,90.21386 32.05715,90.06275 32.0882,89.91785 L32.44148,88.2377 L29.53865,88.87112" id="Fill-44" fill="#FFFFFE"></path>
                <path d="M16.71638,92.49983 C17.99771,92.64818 21.14204,92.91935 23.56049,93.12083 C24.9467,93.23606 25.86716,94.5719 25.51664,95.91878 C24.22772,100.86815 25.93478,108.8273 25.62635,111.52037 C25.25789,114.74336 27.21128,115.99019 27.22163,115.99571 C25.29239,115.57964 23.98553,114.81788 24.03176,113.82497 C24.30017,108.02828 23.92136,100.46588 23.58878,95.49029 C22.18049,93.95228 18.09569,93.78323 16.1009,93.79841 C15.33983,93.80462 14.69951,93.26021 14.55116,92.51363 C14.36555,91.58558 14.40833,90.67685 14.52839,89.90543 C14.5277,89.95442 14.52908,92.24522 16.71638,92.49983" id="Fill-45" fill="#D54A41"></path>
                <path d="M95.61512,166.03313 L64.68863,148.17731 C64.07591,147.82403 63.52253,147.81092 63.08921,148.04897 L63.09128,148.02896 L60.09185,149.76293 C60.09185,149.76293 61.4201,150.24662 62.1998,150.53297 L62.1998,173.05457 C62.1998,174.88721 63.31415,177.01586 64.68863,177.80867 L94.24892,194.87582 L94.24892,197.51852 L97.27871,195.77213 L97.26284,195.7673 C97.77482,195.45473 98.10326,194.76887 98.10326,193.78355 L98.10326,170.78792 C98.10326,168.95459 96.98891,166.82594 95.61512,166.03313" id="Fill-46" fill="#233862"></path>
                <path d="M92.5598,197.42537 L61.63331,179.56955 C60.25952,178.77674 59.14517,176.64809 59.14517,174.81545 L59.14517,151.81913 C59.14517,149.98718 60.25952,149.14469 61.63331,149.93888 L92.5598,167.79401 C93.93428,168.58751 95.04863,170.71616 95.04863,172.54811 L95.04863,195.54374 C95.04863,197.37707 93.93428,198.21818 92.5598,197.42537" id="Fill-47" fill="#4169E2"></path>
                <path d="M93.31949,167.24753 L62.393,149.39171 C61.52222,148.88939 60.75839,149.04602 60.31403,149.69117 C60.69767,149.59112 61.14755,149.65736 61.63331,149.93819 L92.5598,167.79401 C93.93428,168.58751 95.04863,170.71616 95.04863,172.54811 L95.04863,195.54374 C95.04863,196.21649 94.89614,196.75193 94.63808,197.12522 C95.33912,196.94306 95.80694,196.1813 95.80694,194.99726 L95.80694,172.00163 C95.80694,170.16899 94.69328,168.04034 93.31949,167.24753" id="Fill-48" fill="#FFFFFE"></path>
                <path d="M72.03368,171.64559 C72.03368,172.97591 71.09942,173.51549 69.94712,172.85033 C68.79482,172.18448 67.85987,170.56643 67.85987,169.23611 C67.85987,167.9051 68.79482,167.36621 69.94712,168.03068 C71.09942,168.69653 72.03368,170.31458 72.03368,171.64559" id="Fill-49" fill="#FFFFFE"></path>
                <path d="M78.35477,175.295 C78.35477,176.62532 77.4212,177.16559 76.26821,176.49974 C75.11591,175.83458 74.18234,174.21584 74.18234,172.88621 C74.18234,171.5552 75.11591,171.01562 76.26821,171.68078 C77.4212,172.34594 78.35477,173.96468 78.35477,175.295" id="Fill-50" fill="#FFFFFE"></path>
                <g id="Group-56" transform="translate(80.000000, 175.000000)" fill="#FFFFFE">
                    <path d="M4.67655,3.9451 C4.67655,5.27611 3.74229,5.815 2.58999,5.14984 C1.43769,4.48399 0.50343,2.86594 0.50343,1.53562 C0.50343,0.20461 1.43769,-0.33428 2.58999,0.33088 C3.74229,0.99604 4.67655,2.61409 4.67655,3.9451" id="Fill-51"></path>
                </g>
                <path d="M138.64904,179.03687 C134.81609,179.03687 130.77269,178.10261 127.61525,176.27894 C121.84271,172.94624 121.2155,167.9051 126.21524,165.01814 L172.39694,138.35516 C174.66221,137.04761 177.69338,136.4066 180.86807,136.4066 C184.70102,136.4066 188.74442,137.34086 191.90186,139.16315 C197.6744,142.49654 198.30161,147.53837 193.30187,150.42533 L147.12017,177.08762 C144.85559,178.39586 141.82442,179.03687 138.64904,179.03687" id="Fill-145" fill="#EDF5FF"></path>
                <path d="M173.54303,127.88648 L173.55614,121.99733 L180.52238,86.89772 L173.6417,82.64732 L159.85757,90.25664 L159.758869,135.4958 C159.752,138.54008 160.89257,140.59904 162.64586,141.26903 L162.64586,141.27179 L168.77444,145.12475 L169.54448,142.21088 L170.59742,136.90478 C172.3721,134.28899 173.53682,130.94663 173.54303,127.88648" id="Fill-146" fill="#2E5B9A"></path>
                <path d="M173.51198,144.98951 L173.51198,144.98951 C169.70525,147.09125 166.62854,144.74318 166.63955,139.7462 L166.73756,94.50704 L180.52238,86.89772 L180.42371,132.13757 C180.41336,137.13386 177.31871,142.88846 173.51198,144.98951" id="Fill-147" fill="#2E5B9A"></path>
                <path d="M210.72023,62.53796 C210.72023,74.01887 202.65965,78.67361 192.71606,72.93212 C182.77109,67.19132 174.71051,53.22917 174.71051,41.74688 C174.71051,30.26528 182.77109,25.61123 192.71606,31.35203 C202.65965,37.09352 210.72023,51.05567 210.72023,62.53796" id="Fill-148" fill="#2E5B9A"></path>
                <polyline id="Fill-149" fill="#2E5B9A" points="205.62389 74.08856 153.22667 104.13461 125.05949 61.82312 179.64746 30.29771 205.62389 74.08856"></polyline>
                <path d="M185.01635,77.87114 C185.01635,66.06179 176.72531,51.70151 166.49813,45.79649 C161.8496,43.11239 157.60541,42.64457 154.35344,44.03216 L154.34861,44.02457 L154.28168,44.05769 L154.19819,44.09771 C154.05536,44.16257 153.91529,44.23157 153.7766,44.30333 C134.44004,53.80739 113.03762,58.35035 91.50203,57.512 L85.40036,57.27395 L135.07415,142.39787 L137.76446,137.19803 C147.57626,118.23407 161.91653,101.99492 179.50049,89.9075 C182.90495,87.99551 185.01635,83.8286 185.01635,77.87114" id="Fill-150" fill="#9EC8FF"></path>
                <path d="M140.86739,123.16136 C140.86739,100.50728 124.9622,72.95903 105.34274,61.63199 C95.55785,55.98365 86.69825,55.43579 80.27366,59.11556 L80.27435,59.11418 L80.23916,59.13419 L80.19155,59.16248 L74.36243,62.5766 L76.39862,62.15156 C72.25586,66.46889 69.8174,73.27229 69.8174,82.14086 C69.8174,104.79563 85.72259,132.34319 105.34274,143.67092 C113.04245,148.1159 120.16877,149.40137 125.98754,147.95513 L125.06432,149.31305 L130.43045,146.177 L130.51463,146.12732 L130.70714,146.01485 L130.70093,146.01485 C136.98821,142.24538 140.86739,134.34695 140.86739,123.16136" id="Fill-151" fill="#75A1DE"></path>
                <path d="M136.71014,125.5874 C136.71014,102.93263 120.80495,75.38507 101.1848,64.05734 C91.53239,58.48421 82.78043,57.87908 76.37792,61.39601 L75.48575,61.91903 C75.18146,62.11223 74.88407,62.31647 74.59082,62.52968 L76.39862,62.15156 C72.25586,66.46889 69.8174,73.27229 69.8174,82.14086 C69.8174,104.79563 85.72259,132.34319 105.34274,143.67092 C113.04245,148.1159 120.16877,149.40137 125.98754,147.95513 L125.14574,149.19368 C132.25205,145.79543 136.71014,137.5796 136.71014,125.5874" id="Fill-152" fill="#FFFFFE"></path>
                <path d="M135.53231,126.28016 C135.53231,148.93424 119.62712,158.11607 100.00697,146.78903 C80.38751,135.4613 64.48232,107.91305 64.48232,85.25897 C64.48232,62.60489 80.38751,53.42306 100.00697,64.7501 C119.62712,76.07783 135.53231,103.62608 135.53231,126.28016" id="Fill-153" fill="#5589BB"></path>
                <path d="M131.17496,123.76442 C131.17496,143.64056 117.22109,151.69631 100.00697,141.75755 C82.79354,131.82017 68.83898,107.65085 68.83898,87.77471 C68.83898,67.89857 82.79354,59.84213 100.00697,69.78089 C117.22109,79.71896 131.17496,103.88828 131.17496,123.76442" id="Fill-154" fill="#263764"></path>
                <path d="M101.46218,141.13448 C84.24806,131.19641 70.29419,107.02709 70.29419,87.15164 C70.29419,76.71401 74.1437,69.5387 80.29091,66.51374 C73.30121,69.07847 68.83898,76.53599 68.83898,87.77471 C68.83898,107.65085 82.79354,131.82017 100.00697,141.75755 C108.1814,146.47715 115.61891,147.1361 121.17824,144.40094 C115.80659,146.37227 108.94178,145.45319 101.46218,141.13448" id="Fill-155" fill="#FFFFFE"></path>
                <g id="Group-159" transform="translate(68.810000, 65.240000)">
                    <mask id="mask-2" fill="white">
                        <use xlink:href="#path-1"></use>
                    </mask>
                    <g id="Clip-157"></g>
                    <polyline id="Fill-156" fill="#9EC8FF" mask="url(#mask-2)" points="26.53188 33.0786 71.75586 -1.88853 88.17717 26.60157 35.09754 48.3828 26.53188 33.0786"></polyline>
                    <path d="M37.42146,44.12274 C37.42146,48.09231 34.63455,49.7007 31.19697,47.71626 C27.75939,45.73182 24.97317,40.90527 24.97317,36.9357 C24.97317,32.96682 27.75939,31.35843 31.19697,33.34287 C34.63455,35.32731 37.42146,40.15386 37.42146,44.12274" id="Fill-158" fill="#6791C9" mask="url(#mask-2)"></path>
                </g>
                <path d="M163.31516,128.27426 L163.0709,128.13419 C162.16631,127.61531 161.43008,126.21875 161.42663,125.0147 L161.401773,116.29034 C161.39765,115.08629 162.12905,114.53084 163.03295,115.04972 L163.2779,115.18979 C164.1818,115.70867 164.91803,117.10523 164.92148,118.30928 L164.946332,127.03364 C164.94977,128.23838 164.21975,128.79314 163.31516,128.27426" id="Fill-160" fill="#FFFFFE"></path>
                <path d="M223.12229,196.67603 C219.4232,196.67603 215.7248,195.86114 212.90201,194.23205 C207.25919,190.97318 207.2585,185.69054 212.90201,182.43167 C215.72342,180.80327 219.42251,179.98838 223.12022,179.98838 C226.81931,179.98838 230.51771,180.80327 233.3405,182.43305 C238.98332,185.69054 238.98401,190.97318 233.3405,194.23205 C230.51909,195.86114 226.82,196.67603 223.12229,196.67603" id="Fill-161" fill="#EDF5FF"></path>
                <path d="M231.97637,183.91034 C232.98308,184.34021 233.6165,185.46215 233.53301,186.66827 C233.49299,187.23752 233.42468,187.76813 233.306,188.01722 C232.98584,188.68997 231.93566,189.6125 230.26034,188.95079 C228.58433,188.28839 224.86178,184.79078 224.7224,182.50205 C224.46365,178.25027 229.32539,182.77736 231.97637,183.91034" id="Fill-162" fill="#263764"></path>
                <path d="M222.13007,190.94213 C222.13007,190.94213 222.53234,193.3937 222.33638,193.84358 C222.14111,194.29277 220.9757,195.25187 219.25277,195.04418 C217.52915,194.83718 212.5715,193.12736 211.4675,189.86021 C209.7563,184.79561 221.03711,190.2404 221.03711,190.2404 L222.13007,190.94213" id="Fill-163" fill="#263764"></path>
                <path d="M217.28627,151.7522 L216.90194,190.02236 C216.94265,191.35337 217.81481,192.47738 218.98712,192.67541 C219.13202,192.69956 219.28658,192.71957 219.45356,192.73406 C220.64036,192.83825 221.33174,192.32834 221.72711,191.79359 C222.04589,191.36027 222.21494,190.81034 222.2384,190.24868 L222.72692,173.91155 L225.16607,159.30494 L228.54086,185.15717 C228.59468,185.85614 228.92933,186.50267 229.46753,186.8594 C229.83944,187.10573 230.34452,187.29617 231.00623,187.27616 C231.97154,187.24718 232.64291,186.73037 233.05208,186.26876 C233.37569,185.90375 233.54681,185.40074 233.540763,184.88462 L232.20269,169.32995 L231.70451,149.489 L217.28627,151.7522" id="Fill-164" fill="#9EC8FF"></path>
                <path d="M222.24185,117.49646 L222.847005,120.98372 C222.847005,120.98372 222.86975,122.17328 221.54081,122.5031 C220.21256,122.83292 219.80132,121.97456 219.80132,121.97456 L219.20102,118.04777 L222.24185,117.49646" id="Fill-165" fill="#F3BCA9"></path>
                <path d="M214.92026,115.58654 C215.86349,118.57355 218.78219,120.30752 221.43938,119.45882 C224.09588,118.61012 225.48554,115.50098 224.543,112.51259 C223.59908,109.52558 220.68107,107.7923 218.02388,108.64031 C215.36669,109.48901 213.97703,112.59815 214.92026,115.58654" id="Fill-166" fill="#F3BCA9"></path>
                <path d="M222.08384,121.0472 C222.1763,121.00994 227.72045,117.43988 229.76975,121.17554 C233.11142,127.26686 230.66744,134.25173 231.85976,149.41586 C232.05917,151.95368 228.44495,153.49997 226.73582,154.47632 C225.21506,155.34503 223.51352,155.87633 221.7623,155.890912 C220.0304,155.90462 216.70805,154.36454 216.8288,152.09996 C217.38356,141.68234 216.46241,132.9014 215.61164,124.38128 C215.61164,124.38128 216.67424,123.23657 222.08384,121.0472" id="Fill-167" fill="#F37168"></path>
                <path d="M225.16607,159.30494 L228.54086,185.15717 C228.59468,185.85614 228.92933,186.50267 229.46753,186.8594 C229.55516,186.91736 229.65245,186.97187 229.75526,187.02224 C229.0556,186.49646 227.00975,164.79734 226.63163,162.38372 C226.25282,159.96872 225.16607,159.30494 225.16607,159.30494" id="Fill-168" fill="#3B6397"></path>
                <polyline id="Fill-169" fill="#F3BCA9" points="204.10658 124.20326 199.46495 114.98969 200.92085 114.06992 205.73153 121.08791 204.10658 124.20326"></polyline>
                <polyline id="Fill-170" fill="#F3BCA9" points="234.72326 114.41975 232.46558 104.14703 230.66744 104.16704 231.34295 112.68647 234.72326 114.41975"></polyline>
                <path d="M215.61164,124.38128 C215.61164,124.38128 210.42008,126.4292 205.95923,120.80156 C205.56593,120.30614 204.75863,120.36134 204.5261,120.89609 C204.12521,121.81793 203.6222,123.21104 204.23216,124.51928 C206.92799,130.30562 216.12638,130.10483 218.34266,133.34783 C220.55894,136.59152 215.61164,124.38128 215.61164,124.38128" id="Fill-171" fill="#F37168"></path>
                <path d="M225.60077,119.76725 C225.60077,119.76725 229.88774,120.09707 230.50391,116.38625 C230.822,114.47564 230.91791,113.33438 230.93516,112.6775 C230.94758,112.23176 231.33398,111.89504 231.77558,111.94955 C232.8023,112.0772 234.39206,112.38356 234.60734,113.07149 C234.92888,114.09821 235.5347,119.13728 231.30086,126.86804 C228.52706,131.93333 225.60077,119.76725 225.60077,119.76725" id="Fill-172" fill="#F37168"></path>
                <path d="M232.47524,104.17256 L232.43384,103.00094 C232.41935,102.58763 232.2986,102.18536 232.08332,101.83139 L230.89652,99.88076 L230.58602,99.49022 C230.30036,99.13073 229.78907,99.0431 229.39991,99.28805 L229.12667,99.45986 C228.77822,99.67859 228.57812,100.07051 228.60434,100.48106 L229.21844,102.1481 L228.44219,101.99768 C228.29108,101.96801 228.14549,102.06806 228.11789,102.21986 C228.09512,102.3482 228.1655,102.47516 228.28625,102.52415 L229.55447,103.03544 L230.70677,104.66591 L232.47524,104.17256" id="Fill-173" fill="#F3BCA9"></path>
                <path d="M199.43045,115.04834 L198.88742,114.0092 C198.6956,113.64281 198.60107,113.23295 198.61349,112.81964 L198.6818,110.53712 L198.75839,110.04446 C198.82877,109.59044 199.23035,109.262 199.68989,109.2827 L200.01212,109.2965 C200.42336,109.31513 200.79113,109.55663 200.97053,109.92647 L201.26033,111.67907 L201.86132,111.16433 C201.97793,111.06428 202.15388,111.07877 202.25255,111.19745 C202.33604,111.29819 202.33811,111.44309 202.25669,111.54521 L201.40661,112.61678 L201.18719,114.84962 L199.43045,115.04834" id="Fill-174" fill="#F3BCA9"></path>
                <path d="M218.99678,132.18725 C219.44873,134.24552 216.73013,149.76638 219.75233,155.44232 C218.24123,154.83029 216.74738,153.63107 216.8288,152.09996 C217.22486,144.65003 216.86606,138.03914 216.31889,131.76014 C213.73415,130.45052 209.69489,129.66944 206.83829,127.57736 C209.90189,128.7062 218.59382,130.35116 218.99678,132.18725" id="Fill-175" fill="#D54A41"></path>
                <path d="M224.07794,120.06257 L223.3079,119.27114 C223.3079,119.27114 222.04175,120.56489 221.024,120.78983 C221.024,120.78983 219.79994,121.1369 219.20102,121.16657 L218.7056,122.53346 C218.7056,122.53346 222.73796,122.24435 224.07794,120.06257" id="Fill-176" fill="#FFFFFE"></path>
                <path d="M218.53655,115.679 C218.32472,115.67486 218.12738,115.57895 218.00594,115.40369 C217.79549,115.0994 217.92935,113.69801 217.28006,113.46686 C216.26576,113.1053 213.86111,114.37421 213.60443,110.71652 C213.47057,108.81557 214.39586,108.31049 214.39172,107.26859 C214.39172,107.26859 214.31168,107.79092 219.2024,107.46593 C224.09381,107.14025 225.68495,111.48449 225.80087,113.55311 C225.91679,115.62173 224.9156,119.02412 221.57186,119.49125 C221.01779,119.56853 218.68904,117.69587 218.74976,117.45092 C218.80979,117.20528 219.68816,117.21908 219.56189,116.50424 C219.45632,115.90808 219.09269,115.68935 218.53655,115.679" id="Fill-177" fill="#303C60"></path>
            </g>
        </g>
    </g>
</svg>