<?xml version="1.0" encoding="UTF-8"?>
<svg width="350px" height="219px" viewBox="0 0 350 219" version="1.1" xmlns="http://www.w3.org/2000/svg" xmlns:xlink="http://www.w3.org/1999/xlink">
    <title>7521</title>
    <g id="Page-1" stroke="none" stroke-width="1" fill="none" fill-rule="evenodd">
        <g id="Mobile-Copy-5" transform="translate(-32.000000, -181.000000)">
            <g id="7521" transform="translate(32.000000, 181.000000)">
                <path d="M301.554912,217.868011 C301.554912,217.868011 326.650359,223.818291 339.003794,196.854034 C355.031949,161.873602 332.536342,128.643171 293.731629,126.2502 C237.763778,122.797724 268.78155,33.4427516 180.465256,57.6873802 C155.632588,64.5039936 101.61881,29.3122204 69.822484,88.9410942 C64.4159345,99.0804712 48.2535942,98.5828674 26.7196486,115.881589 C-11.2659744,146.394768 2.40834665,218.192292 34.4143371,218.517971 C66.4189297,218.845048 301.554912,217.868011 301.554912,217.868011" id="Fill-171" fill="#D9E9FE"></path>
                <path d="M40.0095847,218.387979 C40.0095847,218.387979 41.1753195,210.74361 56.0615016,208.6875 C70.9476837,206.63139 84.7883387,190.141973 109.33726,192.534944 C133.886182,194.927915 154.257188,209.944089 182.19988,205.34405 C210.14397,200.742612 227.641174,206.607628 233.910144,211.232827 C240.177716,215.858027 266.117412,210.146765 268.033746,218.622804 L40.0095847,218.387979" id="Fill-172" fill="#3A4ACE"></path>
                <path d="M101.199481,36.2371605 C101.199481,36.2371605 84.3997604,35.4155551 93.311901,86.6208067 C93.311901,86.6208067 99.3083067,104.001997 91.7394169,115.203674 L203.159345,115.203674 L203.159345,36.2371605 L101.199481,36.2371605" id="Fill-173" fill="#AFCDFB"></path>
                <path d="M112.644369,169.364217 C112.644369,169.364217 104.860224,160.282947 112.163538,154.514377 C112.163538,154.514377 117.498802,151.284145 121.848642,151.546925 C121.848642,151.546925 115.684505,161.883387 117.679113,162.912141 C119.673722,163.939497 123.717452,150.898363 123.717452,150.898363 C123.717452,150.898363 135.858427,149.721446 139.765176,151.598642 C139.765176,151.598642 129.385383,160.091454 131.571486,160.597444 C133.757588,161.103435 144.967652,152.767173 144.967652,152.767173 C144.967652,152.767173 156.26857,154.689097 155.664736,161.582867 C155.0623,168.476637 151.169529,170.605431 149.457268,170.420927 C147.746406,170.237819 137.735623,166.416334 137.517572,167.819688 C137.299521,169.221645 143.32528,173.803514 147.545128,174.01877 C147.545128,174.01877 139.579273,182.803714 134.284545,180.268171 C128.989816,177.732628 128.536941,173.71266 125.236821,172.205871 C121.936701,170.699081 119.11881,170.701877 120.481629,172.239417 C121.844449,173.776957 127.817093,175.271166 129.705471,178.610423 C131.592452,181.948283 133.286542,184.20008 127.808706,183.375399 C122.329473,182.552117 113.425719,178.543331 113.034345,173.953075 C112.644369,169.364217 112.644369,169.364217 112.644369,169.364217" id="Fill-174" fill="#3566C9"></path>
                <path d="M150.112819,161.76877 C150.112819,161.76877 119.422125,160.586262 112.644369,169.364217 C112.644369,169.364217 111.144569,173.852436 106.531949,177.940895 L105.813498,179.900559 C105.813498,179.900559 111.131989,174.292732 113.034345,173.953075 C113.034345,173.953075 110.058506,163.079872 150.112819,161.76877" id="Fill-175" fill="#3566C9"></path>
                <path d="M106.531949,177.940895 C106.531949,177.940895 99.9442891,182.813498 99.4872204,191.517372 L100.682308,191.625 C100.682308,191.625 102.78734,182.623403 106.589257,179.103834 C110.392572,175.584265 106.531949,177.940895 106.531949,177.940895" id="Fill-176" fill="#3566C9"></path>
                <path d="M85.4285144,157.943091 C85.4285144,157.943091 97.8099042,151.008786 92.0315495,141.597644 C92.0315495,141.597644 87.4091454,135.819289 82.456869,134.333466 C82.456869,134.333466 85.0986422,148.367013 82.456869,148.696885 C79.8150958,149.028155 80.6397764,132.847644 80.6397764,132.847644 C80.6397764,132.847644 67.5972444,126.574481 62.4800319,127.069289 C62.4800319,127.069289 70.5688898,140.772963 67.9271166,140.443091 C65.2867412,140.111821 56.2054712,126.244609 56.2054712,126.244609 C56.2054712,126.244609 42.8330671,123.767772 40.6861022,131.693091 C38.5405351,139.617013 42.0069888,143.579673 43.9890176,144.074481 C45.9696486,144.570687 58.6823083,144.404353 58.3524361,146.05651 C58.0211661,147.707268 49.4361022,150.349042 44.648762,148.863219 C44.648762,148.863219 49.9323083,161.905751 56.8666134,161.244609 C63.7995208,160.584864 65.9464856,156.292332 70.2390176,155.96246 C74.5315495,155.63119 77.668131,156.787141 75.5225639,157.943091 C73.375599,159.099042 66.1114217,158.321885 62.6449681,161.269768 C59.1771166,164.216254 56.3704073,166.033347 62.8099042,167.354233 C69.2480032,168.67512 80.8047125,167.849042 83.1166134,162.896765 C85.4285144,157.943091 85.4285144,157.943091 85.4285144,157.943091" id="Fill-177" fill="#6D89D0"></path>
                <path d="M46.7957268,134.16853 C46.7957268,134.16853 81.4658546,145.395367 85.4285144,157.943091 C85.4285144,157.943091 85.2635783,163.55651 88.7300319,169.996006 L88.7300319,172.471446 C88.7300319,172.471446 85.0986422,164.051318 83.1166134,162.896765 C83.1166134,162.896765 90.8769968,151.9998 46.7957268,134.16853" id="Fill-178" fill="#6D89D0"></path>
                <path d="M88.7300319,169.996006 C88.7300319,169.996006 94.0764776,178.114217 91.029353,187.997804 L89.6525559,187.628794 C89.6525559,187.628794 90.9888179,176.743011 88.1904952,171.267971 C85.3935703,165.792931 88.7300319,169.996006 88.7300319,169.996006" id="Fill-179" fill="#6D89D0"></path>
                <path d="M105.127196,148.379593 C105.127196,148.379593 88.8055112,139.239617 96.4219249,126.834465 C96.4219249,126.834465 102.516174,119.218051 109.045128,117.258387 C109.045128,117.258387 105.563299,135.757788 109.045128,136.192492 C112.526957,136.628594 111.438099,115.30012 111.438099,115.30012 C111.438099,115.30012 128.631989,107.029553 135.378994,107.683706 C135.378994,107.683706 124.714058,125.747005 128.195887,125.310903 C131.679113,124.876198 143.648163,106.594848 143.648163,106.594848 C143.648163,106.594848 161.276757,103.329673 164.105831,113.776558 C166.934904,124.223442 162.364217,129.445487 159.753195,130.099641 C157.140775,130.752396 140.384385,130.534345 140.819089,132.710663 C141.253794,134.886981 152.571486,138.36881 158.882388,136.410543 C158.882388,136.410543 151.91873,153.603035 142.777356,152.732228 C133.63738,151.861422 130.808307,146.203275 125.15016,145.76857 C119.492013,145.332468 115.35603,146.85603 118.185104,148.379593 C121.014177,149.903155 130.590256,148.878594 135.160942,152.764377 C139.731629,156.65016 143.430112,159.044529 134.942891,160.784744 C126.455671,162.526358 111.221446,161.4375 108.174321,154.908546 C105.127196,148.379593 105.127196,148.379593 105.127196,148.379593" id="Fill-180" fill="#3A4ACE"></path>
                <path d="M156.053315,117.041733 C156.053315,117.041733 110.350639,131.839856 105.127196,148.379593 C105.127196,148.379593 105.345248,155.779353 100.774561,164.266573 L100.774561,167.531749 C100.774561,167.531749 105.563299,156.432109 108.174321,154.908546 C108.174321,154.908546 97.9454872,140.545128 156.053315,117.041733" id="Fill-181" fill="#6D89D0"></path>
                <path d="M100.774561,164.266573 C100.774561,164.266573 93.7270367,174.969249 97.7442093,187.997804 L99.5585064,187.511382 C99.5585064,187.511382 97.7973243,173.161941 101.486022,165.94389 C105.173323,158.727236 100.774561,164.266573 100.774561,164.266573" id="Fill-182" fill="#6D89D0"></path>
                <path d="M104.577875,216.250799 C122.235823,216.250799 136.550319,201.936302 136.550319,184.278355 L72.6054313,184.278355 C72.6054313,201.936302 86.9199281,216.250799 104.577875,216.250799" id="Fill-183" fill="#FB7369"></path>
                <path d="M112.444489,216.00619 C111.144569,216.168331 109.818091,216.250799 108.473442,216.250799 C90.8154952,216.250799 76.5009984,201.936302 76.5009984,184.278355 L84.4444888,184.278355 C84.4444888,200.591653 96.6609425,214.050719 112.444489,216.00619" id="Fill-184" fill="#F2564B"></path>
                <path d="M136.992013,217.877796 L72.163738,217.877796 C72.163738,215.698682 73.9291134,213.933307 76.1082268,213.933307 L133.047524,213.933307 C135.226637,213.933307 136.992013,215.698682 136.992013,217.877796" id="Fill-185" fill="#FB7369"></path>
                <polygon id="Fill-186" fill="#F2564B" points="71.5529153 185.258187 137.277157 185.258187 137.277157 184.278355 71.5529153 184.278355"></polygon>
                <path d="M220.273562,62.709405 C220.273562,62.709405 214.672724,52.1411941 223.064896,48.1167532 C223.064896,48.1167532 228.978834,46.1366813 233.165136,47.3474241 C233.165136,47.3474241 224.883387,56.0789736 226.602636,57.5196486 C228.321885,58.9604633 235.130391,47.1249002 235.130391,47.1249002 C235.130391,47.1249002 247.233626,48.6410543 250.631589,51.3302117 C250.631589,51.3302117 238.641573,57.3386382 240.664137,58.311901 C242.685304,59.2848842 255.452476,53.6120607 255.452476,53.6120607 C255.452476,53.6120607 266.054513,57.9686102 263.953674,64.5613019 C261.852835,71.1545527 257.586861,72.3761981 255.958466,71.8212859 C254.328674,71.2677716 245.401158,65.3426518 244.879792,66.6621406 C244.359824,67.9830272 249.232428,73.7753594 253.302716,74.9117412 C253.302716,74.9117412 243.602236,81.7342252 238.992412,78.0986422 C234.383986,74.4616613 234.824281,70.4416933 231.936502,68.2458067 C229.047324,66.0513179 226.296526,65.4363019 227.288938,67.2352236 C228.28135,69.0341454 233.780152,71.803115 234.888578,75.4750399 C235.998403,79.1469649 237.155751,81.7146565 231.992412,79.7088658 C226.829073,77.7016773 219.021166,71.8366613 219.647364,67.2729633 C220.273562,62.709405 220.273562,62.709405 220.273562,62.709405" id="Fill-187" fill="#3566C9"></path>
                <path d="M258.496805,63.5241613 C258.496805,63.5241613 228.8125,55.6339257 220.273562,62.709405 C220.273562,62.709405 217.826078,66.759984 212.429313,69.7358227 L211.297125,71.490016 C211.297125,71.490016 217.717053,67.1863019 219.647364,67.2729633 C219.647364,67.2729633 219.130192,56.0110423 258.496805,63.5241613" id="Fill-188" fill="#3566C9"></path>
                <path d="M212.429313,69.7358227 C212.429313,69.7358227 204.931709,73.0429313 202.57508,81.4351038 L203.71845,81.8027157 C203.71845,81.8027157 207.746805,73.4832268 212.229433,70.8833866 C216.712061,68.2835463 212.429313,69.7358227 212.429313,69.7358227" id="Fill-189" fill="#3566C9"></path>
                <path d="M183.394968,43.6475439 C183.394968,43.6475439 166.807708,34.9969249 174.052316,22.3707867 C174.052316,22.3707867 179.915935,14.575599 186.383387,12.4234625 C186.383387,12.4234625 183.453674,31.0176318 186.948083,31.3490415 C190.441094,31.6804513 188.71905,10.3943291 188.71905,10.3943291 C188.71905,10.3943291 205.657149,1.61623403 212.420927,2.06799121 C212.420927,2.06799121 202.29972,20.4408946 205.766174,19.9020567 C209.234026,19.3633586 220.655152,0.734105431 220.655152,0.734105431 C220.655152,0.734105431 238.177516,-3.05355431 241.316893,7.30373403 C244.45627,17.6613019 240.042133,23.0180911 237.452077,23.7484225 C234.860623,24.4788938 218.104233,24.7601238 218.604633,26.9226038 C219.103634,29.0849441 230.519169,32.2285144 236.769968,30.0829473 C236.769968,30.0829473 230.320687,47.4754593 221.158347,46.877496 C211.996006,46.279393 208.999201,40.7076278 203.329872,40.4412141 C197.661941,40.174381 193.573482,41.8202476 196.447284,43.2588259 C199.319688,44.6972644 208.860823,43.3885383 213.544728,47.1360823 C218.228634,50.8836262 221.998403,53.1665935 213.567093,55.1592452 C205.134385,57.1524561 189.875,56.5182907 186.634984,50.0829872 C183.394968,43.6475439 183.394968,43.6475439 183.394968,43.6475439" id="Fill-190" fill="#3A4ACE"></path>
                <path d="M233.365016,10.8065296 C233.365016,10.8065296 188.123602,26.959365 183.394968,43.6475439 C183.394968,43.6475439 183.832468,51.0372404 179.517572,59.6572484 L179.614018,62.9200479 C179.614018,62.9200479 184.070088,51.6834265 186.634984,50.0829872 C186.634984,50.0829872 175.982628,36.0301518 233.365016,10.8065296" id="Fill-191" fill="#6D89D0"></path>
                <path d="M179.517572,59.6572484 C179.517572,59.6572484 172.790136,70.5646965 177.194489,83.4674521 L178.993411,82.9279153 C178.993411,82.9279153 176.805911,68.6357827 180.276558,61.3123403 C183.748602,53.9884784 179.517572,59.6572484 179.517572,59.6572484" id="Fill-192" fill="#6D89D0"></path>
                <polygon id="Fill-193" fill="#9ABCEF" points="108.265176 218.250998 224.591254 218.250998 224.591254 66.5447284 108.265176 66.5447284"></polygon>
                <polygon id="Fill-194" fill="#F8FBFF" points="112.06849 218.250998 226.439097 218.250998 226.439097 66.5447284 112.06849 66.5447284"></polygon>
                <path d="M307.084465,217.879193 L284.036741,217.879193 C282.802516,216.830871 284.892173,214.451877 287.075479,214.292532 C288.023163,214.221246 289.222444,214.419728 290.59365,214.709065 C290.909545,210.496206 292.721046,191.559305 299.546326,192.321086 C307.221446,193.172324 299.546326,200.660144 297.376997,205.092452 C295.769569,208.375799 294.074081,213.084864 293.29972,215.307308 C293.923123,215.441494 294.56889,215.574281 295.227236,215.695887 C296.244808,212.571885 300.029952,202.066294 304.842452,202.678514 C310.495008,203.394169 308.222244,207.607029 304.217652,210.107628 C301.278155,211.947085 297.669129,214.559505 295.955471,215.823083 C297.407748,216.059305 298.924321,216.220048 300.461861,216.183706 C304.410543,216.090056 306.336661,217.252995 307.084465,217.879193" id="Fill-195" fill="#3A4ACE"></path>
                <path d="M226.440495,66.5433307 C226.439097,66.5447284 226.439097,66.5447284 226.439097,66.5447284 L112.067093,66.5447284 C112.70028,57.8960663 111.747005,51.6154952 110.219249,47.0994609 C107.286741,38.4154353 102.232428,36.2367412 102.232428,36.2367412 L210.095048,36.2367412 C219.300719,36.2367412 226.439097,41.7827875 228.381989,49.1442492 C228.454673,49.4212859 228.521765,49.6969249 228.580471,49.9725639 C230.425519,58.3950679 226.515974,66.3895767 226.440495,66.5433307" id="Fill-196" fill="#F8FBFF"></path>
                <path d="M226.440495,66.5433307 C226.439097,66.5447284 226.439097,66.5447284 226.439097,66.5447284 L112.067093,66.5447284 C112.70028,57.8960663 111.747005,51.6154952 110.219249,47.0994609 C121.908746,49.2397165 150.85643,53.8003395 181.842053,53.0321286 C201.88738,52.5346645 217.728235,51.1936502 228.580471,49.9725639 C230.425519,58.3950679 226.515974,66.3895767 226.440495,66.5433307" id="Fill-197" fill="#F8FBFF"></path>
                <path d="M197.311102,101.526558 L134.491414,101.526558 C134.464856,101.526558 134.442492,101.504193 134.442492,101.477636 L134.442492,98.7310304 C134.442492,98.7030751 134.464856,98.6821086 134.491414,98.6821086 L197.311102,98.6821086 C197.33766,98.6821086 197.360024,98.7030751 197.360024,98.7310304 L197.360024,101.477636 C197.360024,101.504193 197.33766,101.526558 197.311102,101.526558" id="Fill-198" fill="#BBD5FC"></path>
                <path d="M173.596645,106.313898 L134.491414,106.313898 C134.464856,106.313898 134.442492,106.291534 134.442492,106.264976 L134.442492,103.516973 C134.442492,103.490415 134.464856,103.468051 134.491414,103.468051 L173.596645,103.468051 C173.624601,103.468051 173.645567,103.490415 173.645567,103.516973 L173.645567,106.264976 C173.645567,106.291534 173.624601,106.313898 173.596645,106.313898" id="Fill-199" fill="#BBD5FC"></path>
                <path d="M128.601238,105.852636 L128.601238,100.040735 L127.833866,100.040735 C127.368411,100.040735 127.136382,99.8478435 127.136382,99.4606629 C127.136382,99.1811102 127.318091,98.9840256 127.682907,98.8680112 C127.86881,98.8051118 128.165136,98.7589856 128.571885,98.7282348 C128.978634,98.697484 129.305711,98.6821086 129.553115,98.6821086 C129.79353,98.6821086 129.944489,98.7296326 130.007388,98.827476 C130.06889,98.9239217 130.099641,99.1699281 130.099641,99.5640974 L130.099641,105.852636 L130.890775,105.852636 C131.402356,105.852636 131.656749,106.073482 131.656749,106.515176 C131.656749,106.979233 131.402356,107.21266 130.890775,107.21266 L127.705272,107.21266 C127.481629,107.21266 127.292931,107.152556 127.141973,107.032348 C126.991014,106.912141 126.915535,106.743011 126.915535,106.526358 C126.915535,106.077676 127.175519,105.852636 127.694089,105.852636 L128.601238,105.852636" id="Fill-200" fill="#BBD5FC"></path>
                <path d="M197.311102,131.48762 L134.491414,131.48762 C134.464856,131.48762 134.442492,131.466653 134.442492,131.438698 L134.442492,128.692093 C134.442492,128.665535 134.464856,128.643171 134.491414,128.643171 L197.311102,128.643171 C197.33766,128.643171 197.360024,128.665535 197.360024,128.692093 L197.360024,131.438698 C197.360024,131.466653 197.33766,131.48762 197.311102,131.48762" id="Fill-201" fill="#D2E4FD"></path>
                <path d="M173.596645,136.27496 L134.491414,136.27496 C134.464856,136.27496 134.442492,136.252596 134.442492,136.226038 L134.442492,133.478035 C134.442492,133.451478 134.464856,133.429113 134.491414,133.429113 L173.596645,133.429113 C173.624601,133.429113 173.645567,133.451478 173.645567,133.478035 L173.645567,136.226038 C173.645567,136.252596 173.624601,136.27496 173.596645,136.27496" id="Fill-202" fill="#D2E4FD"></path>
                <path d="M131.776957,135.694888 C131.776957,136.082069 131.507188,136.27496 130.966254,136.27496 L127.596246,136.27496 C127.111222,136.27496 126.868011,136.079273 126.868011,135.689297 C126.868011,135.566294 126.932308,135.422324 127.0623,135.257388 C127.253794,135.039337 127.534744,134.709465 127.905152,134.271965 C128.465655,133.566094 128.935304,132.956669 129.3127,132.44369 C129.442692,132.271765 129.627196,132.011781 129.866214,131.66234 C130.066094,131.312899 130.165335,131.019369 130.165335,130.778954 C130.165335,130.511981 130.078674,130.291134 129.908147,130.116414 C129.736222,129.943091 129.518171,129.855032 129.251198,129.855032 C128.989816,129.855032 128.764776,129.9375 128.571885,130.101038 C128.441893,130.211462 128.339856,130.416933 128.264377,130.717452 C128.169329,131.108826 128.10643,131.333866 128.079872,131.395367 C127.976438,131.614816 127.808706,131.72524 127.576677,131.72524 C127.371206,131.72524 127.210463,131.64976 127.093051,131.498802 C126.984026,131.36881 126.929513,131.196885 126.929513,130.984425 C126.929513,130.745407 126.967252,130.502196 127.042732,130.25619 C127.20627,129.727835 127.497005,129.323882 127.914936,129.044329 C128.311901,128.775958 128.795527,128.643171 129.363019,128.643171 C129.986422,128.643171 130.50639,128.831869 130.924321,129.209265 C131.35623,129.60623 131.571486,130.113618 131.571486,130.73143 C131.571486,131.191294 131.417732,131.663738 131.110224,132.151558 C130.938299,132.41853 130.586062,132.892372 130.052117,133.570288 C129.778155,133.921126 129.346246,134.428514 128.757788,135.09385 L130.976038,135.09385 C131.509984,135.09385 131.776957,135.29373 131.776957,135.694888" id="Fill-203" fill="#D2E4FD"></path>
                <path d="M197.311102,156.48103 L134.491414,156.48103 C134.464856,156.48103 134.442492,156.460064 134.442492,156.432109 L134.442492,153.685503 C134.442492,153.658946 134.464856,153.636581 134.491414,153.636581 L197.311102,153.636581 C197.33766,153.636581 197.360024,153.658946 197.360024,153.685503 L197.360024,156.432109 C197.360024,156.460064 197.33766,156.48103 197.311102,156.48103" id="Fill-204" fill="#D2E4FD"></path>
                <path d="M173.596645,161.268371 L134.491414,161.268371 C134.464856,161.268371 134.442492,161.246006 134.442492,161.219449 L134.442492,158.471446 C134.442492,158.444888 134.464856,158.422524 134.491414,158.422524 L173.596645,158.422524 C173.624601,158.422524 173.645567,158.444888 173.645567,158.471446 L173.645567,161.219449 C173.645567,161.246006 173.624601,161.268371 173.596645,161.268371" id="Fill-205" fill="#D2E4FD"></path>
                <path d="M131.776957,158.885184 C131.776957,159.613419 131.521166,160.197684 131.010982,160.637979 C130.527356,161.058706 129.915136,161.268371 129.172923,161.268371 C128.59984,161.268371 128.109225,161.13139 127.703874,160.858826 C127.059505,160.425519 126.738019,159.902756 126.738019,159.294728 C126.738019,159.120008 126.79393,158.96905 126.905751,158.843251 C127.017572,158.717452 127.161542,158.653155 127.336262,158.653155 C127.517971,158.653155 127.689896,158.776158 127.850639,159.020767 C128.109225,159.427516 128.260184,159.651158 128.302117,159.693091 C128.532748,159.9377 128.830471,160.060703 129.19389,160.060703 C129.684505,160.060703 130.033946,159.878994 130.245008,159.514177 C130.342851,159.332468 130.391773,159.101837 130.391773,158.822284 C130.391773,158.135982 129.989217,157.754393 129.184105,157.677516 C128.728435,157.635583 128.501997,157.442692 128.501997,157.10024 C128.501997,156.848642 128.633387,156.669728 128.897564,156.564896 C129.390974,156.383187 129.641174,156.288139 129.648163,156.28115 C129.91234,156.10643 130.045128,155.801717 130.045128,155.367013 C130.045128,155.108427 129.968251,154.904353 129.814497,154.753395 C129.660743,154.602436 129.455272,154.528355 129.198083,154.528355 C128.876597,154.528355 128.625,154.605232 128.444688,154.758986 C128.290935,154.891773 128.160942,155.119609 128.057508,155.441094 C127.973642,155.685703 127.812899,155.808706 127.57528,155.808706 C127.407548,155.808706 127.270567,155.734625 127.162939,155.587859 C127.053914,155.441094 126.999401,155.280351 126.999401,155.105631 C126.999401,154.88758 127.059505,154.670927 127.178315,154.454273 C127.374002,154.090855 127.675919,153.807109 128.08127,153.604433 C128.453075,153.414337 128.858427,153.320687 129.30012,153.320687 C129.894169,153.320687 130.388978,153.500998 130.784545,153.861621 C131.180112,154.222244 131.378594,154.696086 131.378594,155.283147 C131.378594,155.990415 131.085064,156.550919 130.496605,156.963259 C131.350639,157.305711 131.776957,157.947284 131.776957,158.885184" id="Fill-206" fill="#D2E4FD"></path>
                <path d="M190.281749,76.6212061 L150.259585,76.6212061 C150.228834,76.6212061 150.202276,76.5960463 150.202276,76.5652955 L150.202276,73.3728035 C150.202276,73.3420527 150.228834,73.3154952 150.259585,73.3154952 L190.281749,73.3154952 C190.3125,73.3154952 190.339058,73.3420527 190.339058,73.3728035 L190.339058,76.5652955 C190.339058,76.5960463 190.3125,76.6212061 190.281749,76.6212061" id="Fill-207" fill="#BBD5FC"></path>
                <path d="M200.40016,81.7174521 L140.139776,81.7174521 C140.109026,81.7174521 140.083866,81.6922923 140.083866,81.6601438 L140.083866,78.4690495 C140.083866,78.436901 140.109026,78.4117412 140.139776,78.4117412 L200.40016,78.4117412 C200.432308,78.4117412 200.457468,78.436901 200.457468,78.4690495 L200.457468,81.6601438 C200.457468,81.6922923 200.432308,81.7174521 200.40016,81.7174521" id="Fill-208" fill="#BBD5FC"></path>
                <path d="M165.839058,116.867013 C153.379393,116.867013 141.555711,115.304313 132.742812,113.069289 C123.83766,110.811901 119.040535,107.121805 119.040535,103.848243 C119.040535,100.882188 122.95008,98.153754 130.345647,95.9592652 C123.257588,98.0628994 119.468251,101.151957 119.468251,103.848243 C119.468251,106.840855 124.379992,109.802716 132.946885,111.97484 C141.730431,114.201478 153.411542,115.428714 165.839058,115.428714 C178.266573,115.428714 189.947684,114.201478 198.729832,111.97484 C207.296725,109.802716 212.209864,106.840855 212.209864,103.848243 C212.209864,100.679513 207.036741,96.740615 198.708866,93.5690895 C189.239018,89.9642572 177.564896,88.6265974 165.839058,88.6265974 C143.822883,88.6265974 134.759784,91.1956869 126.897364,94.4161342 C134.794728,91.1817093 143.746006,87.5167732 165.839058,87.5167732 C177.61242,87.5167732 189.335463,89.5113818 198.85004,93.134385 C207.354034,96.3716054 212.636182,100.476837 212.636182,103.848243 C212.636182,107.121805 207.732827,110.167532 198.827676,112.42492 C190.013379,114.659944 178.297324,116.867013 165.839058,116.867013" id="Fill-209" fill="#FB7369"></path>
                <path d="M241.498602,146.074681 C241.498602,146.074681 241.08766,150.063898 240.63758,150.81869 C240.1875,151.573482 238.271166,153.983227 237.454872,154.457069 C236.638578,154.929513 237.953874,151.279952 237.78754,150.569888 C237.619808,149.859824 237.115216,151.865615 236.754593,151.913139 C236.395367,151.960663 236.48762,150.154752 236.47504,149.497804 C236.46246,148.840855 238.226438,147.218051 238.847045,145.81889 C239.46905,144.419728 241.498602,146.074681 241.498602,146.074681" id="Fill-210" fill="#FC9490"></path>
                <path d="M192.494409,109.288339 L191.578874,107.557907 C191.578874,107.557907 192.033147,104.475839 188.171126,102.525958 C188.171126,102.525958 186.759385,101.951478 185.96266,103.103235 C185.228834,104.164137 187.361821,103.971246 187.247204,105.785543 C187.132588,107.59984 187.99361,108.663538 189.192891,109.254792 L190.182508,110.402356 L192.494409,109.288339" id="Fill-211" fill="#FC9490"></path>
                <path d="M228.991414,105.153754 C228.991414,105.153754 225.674521,121.430711 207.423922,126.749201 C201.728035,128.409744 188.784744,109.653155 188.784744,109.653155 C188.784744,109.653155 189.240415,107.924121 192.090455,108.321086 C192.090455,108.321086 204.692692,116.664337 206.279153,117.570088 C207.686701,118.373802 216.944089,107.232228 221.165335,105.434704 C225.385184,103.638578 228.991414,105.153754 228.991414,105.153754" id="Fill-212" fill="#F2564B"></path>
                <polyline id="Fill-213" fill="#FB7369" points="197.375399 104.555511 196.858227 107.924121 179.910343 105.321486 180.427516 101.951478 197.375399 104.555511"></polyline>
                <polyline id="Fill-214" fill="#FC9490" points="176.228634 103.031949 179.910343 105.321486 180.427516 101.951478 176.228634 103.031949"></polyline>
                <path d="M199.174321,105.975639 L199.010783,107.040735 C198.910144,107.696286 198.297923,108.144968 197.642372,108.044329 L196.858227,107.924121 L197.375399,104.555511 L198.228035,104.685503 C198.845847,104.780551 199.269369,105.357827 199.174321,105.975639" id="Fill-215" fill="#FC9490"></path>
                <path d="M250.779752,207.478435 C250.779752,207.478435 253.044129,209.544329 252.602436,211.011981 C252.159345,212.479633 250.117212,213.459465 249.840455,215.252796 C249.565096,217.047524 248.460863,218.025958 247.465655,218.025958 C246.471845,218.025958 242.727236,218.025958 242.727236,218.025958 C242.727236,218.025958 241.996206,216.763778 243.762979,216.383586 C245.529752,216.001997 246.196486,213.894169 246.086062,211.9373 C245.975639,209.979034 246.250998,207.369409 246.250998,207.369409 L250.006789,206.498602 L250.779752,207.478435" id="Fill-216" fill="#293EB7"></path>
                <path d="M223.003395,212.822085 C223.003395,212.822085 223.410144,217.524161 222.416334,218.013379 L209.695288,217.988219 C209.695288,217.988219 209.695288,216.519169 211.738818,216.19349 C213.782348,215.866414 217.370407,214.671326 217.978435,212.005791 C218.586462,209.341653 223.003395,212.822085 223.003395,212.822085" id="Fill-217" fill="#293EB7"></path>
                <path d="M212.264377,146.398962 C212.264377,146.398962 212.935304,154.641573 213.723642,164.548922 C214.795727,178.007987 216.084465,194.540735 216.211661,197.673123 C216.432508,203.110423 217.317292,211.810104 217.317292,211.810104 C217.317292,211.810104 219.413938,213.877396 223.611422,213.006589 C223.611422,213.006589 227.351837,200.58746 228.421126,187.448482 C228.437899,187.233227 228.453275,187.015176 228.470048,186.798522 C229.465256,173.423323 231.009784,145.256989 231.009784,145.256989 L212.264377,146.398962" id="Fill-218" fill="#3A4ACE"></path>
                <path d="M212.264377,146.398962 C212.264377,146.398962 212.935304,154.641573 213.723642,164.548922 L228.421126,187.448482 C228.437899,187.233227 228.453275,187.015176 228.470048,186.798522 C229.465256,173.423323 231.009784,145.256989 231.009784,145.256989 L212.264377,146.398962" id="Fill-219" fill="#293EB7"></path>
                <path d="M215.328275,147.377396 C215.328275,147.377396 227.421725,177.229433 235.372204,191.257388 C243.324081,205.285343 245.809305,209.200479 245.809305,209.200479 C245.809305,209.200479 250.366014,207.405751 250.779752,206.182708 C250.779752,206.182708 247.738219,179.101038 242.414137,172.498003 C239.404752,168.767372 235.869808,157.572684 235.703474,153.657548 C235.538538,149.742412 234.627196,141.994609 234.627196,141.994609 L215.328275,147.377396" id="Fill-220" fill="#3A4ACE"></path>
                <path d="M231.239018,101.375599 C231.239018,101.375599 223.05651,105.322883 218.339058,103.858027 C218.339058,103.858027 219.500599,102.393171 221.532947,101.304313 C221.369409,100.356629 221.242212,99.5347444 221.169529,98.8386581 C220.969649,97.2298323 220.969649,96.3198882 220.969649,96.3198882 L224.127196,93.8360623 L227.121206,91.4598642 C226.884984,98.1411741 231.239018,101.375599 231.239018,101.375599" id="Fill-221" fill="#FC9490"></path>
                <path d="M235.551347,143.523762 C235.569289,144.024161 234.498602,144.595847 234.027556,144.809704 C230.526158,146.347244 227.259585,147.417931 223.558307,147.775759 C219.186102,148.223043 214.015775,147.240415 212.237819,147.275359 C212.05611,147.275359 211.892572,147.204073 211.747204,147.079673 C211.620008,146.988818 211.529153,141.719249 211.620008,135.092452 C211.620008,134.824081 211.620008,134.555711 211.638179,134.28734 L211.638179,134.199281 C211.674521,131.607827 211.765375,128.893371 211.892572,126.177516 C212.146965,120.210463 212.618011,114.458666 213.416134,111.278754 C214.377796,107.527157 216.555511,105.043331 218.533347,103.238818 L220.165935,101.810304 C221.798522,102.131789 223.521965,102.042332 225.245407,101.202276 C227.132388,100.290935 229.164736,99.3083067 229.491813,99.5585064 C231.958866,101.363019 233.627796,105.417931 234.516773,110.599441 C235.025559,113.582268 235.278554,116.922923 235.260383,120.424321 C235.260383,121.711661 235.224042,123.032548 235.151358,124.338059 C234.716653,131.412141 235.151358,137.556709 235.405751,141.11262 C235.478435,142.148363 235.532947,142.952077 235.551347,143.523762" id="Fill-222" fill="#FB7369"></path>
                <path d="M235.405751,143.198083 C206.752995,143.142173 230.120807,112.107628 230.120807,112.107628 L234.76278,110.599441 C235.130391,113.786342 235.314896,117.35623 235.300919,121.096645 C235.300919,122.470647 235.274361,123.883786 235.222644,125.277356 C234.908147,132.835064 235.222644,139.400359 235.405751,143.198083" id="Fill-223" fill="#F2564B"></path>
                <path d="M227.175719,94.014976 C227.175719,94.014976 225.107029,97.7847444 221.169529,98.8386581 C220.969649,97.2298323 220.969649,96.3198882 220.969649,96.3198882 L224.127196,93.8360623 L227.175719,94.014976" id="Fill-224" fill="#F48484"></path>
                <path d="M219.529952,96.2108626 C219.529952,96.2108626 227.336462,97.4870208 228.06889,92.6884984 C228.802716,87.889976 230.302516,84.8232827 225.35024,83.8043131 C220.397963,82.7867412 219.146965,84.4738419 218.506789,86.0169728 C217.866613,87.5601038 217.51857,95.7551917 219.529952,96.2108626" id="Fill-225" fill="#FC9490"></path>
                <path d="M230.90635,83.2298323 C230.977636,83.148762 231.141174,83.0830671 231.504593,83.0634984 C231.504593,83.0634984 231.213858,82.8817891 230.82528,82.8720048 C230.748403,82.3660144 230.480032,81.4714457 229.609225,81.2533946 C229.609225,81.2533946 230.077476,81.5035942 230.13758,82.0403355 C229.129792,81.0059904 226.970248,80.2511981 220.987819,80.7236422 C213.103035,81.345647 215.701478,86.394369 216.721845,86.9954073 C217.74361,87.5978435 220.3127,85.9484824 222.213658,86.0980431 C224.116014,86.2490016 224.476637,88.9970048 225.122404,89.374401 C225.768171,89.7517971 225.513778,89.0850639 226.385982,88.6908946 C227.259585,88.2953275 227.342053,89.7420128 227.090455,90.6827077 C226.838858,91.6234026 228.038139,92.8632188 228.038139,92.8632188 C228.038139,92.8632188 228.038139,92.8632188 229.25,91.5577077 C230.461861,90.2535942 231.603834,84.7240415 231.053115,83.5457268 C231.004193,83.4422923 230.956669,83.3360623 230.90635,83.2298323" id="Fill-226" fill="#2C3A64"></path>
                <path d="M229.48762,99.519369 C229.48762,99.519369 234.427316,101.857827 236.795128,105.452875 C240.46845,111.029952 244.726038,131.35623 244.804313,133.23762 C244.882588,135.120407 241.697085,148.408946 241.697085,148.408946 C241.697085,148.408946 238.465455,148.195088 237.63099,146.563898 C237.63099,146.563898 238.276757,132.911941 237.86861,132.034145 C237.459065,131.15635 224.395567,113.719249 225.864617,109.998403 C227.333666,106.277556 229.48762,99.519369 229.48762,99.519369" id="Fill-227" fill="#FB7369"></path>
                <path d="M191.562101,107.476837 C191.562101,107.476837 191.830471,106.415935 191.09385,105.937899 C190.358626,105.461262 189.680711,104.164137 189.370407,104.340256 C188.728834,104.703674 189.722644,105.835863 189.540935,107.247604 C189.476637,107.742412 190.626997,109.036741 191.562101,107.476837" id="Fill-228" fill="#FC9490"></path>
                <path d="M71.5529153,207.94389 C71.5529153,207.94389 59.9514776,178.238618 51.8164936,182.96865 C43.6801118,187.698682 71.5529153,207.94389 71.5529153,207.94389" id="Fill-229" fill="#3A4ACE"></path>
                <path d="M65.8178914,207.94389 C65.8178914,207.94389 50.4914137,194.70008 43.4914137,197.158746 C36.490016,199.61881 65.8178914,207.94389 65.8178914,207.94389" id="Fill-230" fill="#3A4ACE"></path>
                <path d="M228.095447,212.222444 C228.095447,212.222444 231.627596,199.943091 235.770567,201.391174 C239.913538,202.840655 228.095447,212.222444 228.095447,212.222444" id="Fill-231" fill="#3A4ACE"></path>
                <path d="M231.31869,211.552915 C231.31869,211.552915 240.334265,205.634784 242.314896,207.464457 C244.296925,209.294129 231.31869,211.552915 231.31869,211.552915" id="Fill-232" fill="#3A4ACE"></path>
                <path d="M200.50639,185.258187 L130.177915,185.258187 C129.706869,185.258187 129.322484,184.873802 129.322484,184.402756 C129.322484,183.931709 129.706869,183.547324 130.177915,183.547324 L200.50639,183.547324 C200.977436,183.547324 201.363219,183.931709 201.363219,184.402756 C201.363219,184.873802 200.977436,185.258187 200.50639,185.258187" id="Fill-233" fill="#D2E4FD"></path>
                <path d="M200.50639,188.684105 L130.177915,188.684105 C129.706869,188.684105 129.322484,188.29972 129.322484,187.828674 C129.322484,187.357628 129.706869,186.973243 130.177915,186.973243 L200.50639,186.973243 C200.977436,186.973243 201.363219,187.357628 201.363219,187.828674 C201.363219,188.29972 200.977436,188.684105 200.50639,188.684105" id="Fill-234" fill="#D2E4FD"></path>
                <path d="M200.50639,192.480431 L130.177915,192.480431 C129.706869,192.480431 129.322484,192.096046 129.322484,191.625 C129.322484,191.153954 129.706869,190.769569 130.177915,190.769569 L200.50639,190.769569 C200.977436,190.769569 201.363219,191.153954 201.363219,191.625 C201.363219,192.096046 200.977436,192.480431 200.50639,192.480431" id="Fill-235" fill="#D2E4FD"></path>
                <path d="M192.044329,196.276757 L129.351837,196.276757 C129.335064,196.276757 129.322484,196.264177 129.322484,196.247404 L129.322484,194.595248 C129.322484,194.578474 129.335064,194.565895 129.351837,194.565895 L192.044329,194.565895 C192.059704,194.565895 192.073682,194.578474 192.073682,194.595248 L192.073682,196.247404 C192.073682,196.264177 192.059704,196.276757 192.044329,196.276757" id="Fill-236" fill="#D2E4FD"></path>
                <path d="M349.474441,218.622804 L0.0587060703,218.622804 C0.0517172524,218.622804 0.0461261981,218.617212 0.0461261981,218.610224 L0.0461261981,217.891773 C0.0461261981,217.884784 0.0517172524,217.879193 0.0587060703,217.879193 L349.474441,217.879193 C349.48143,217.879193 349.487021,217.884784 349.487021,217.891773 L349.487021,218.610224 C349.487021,218.617212 349.48143,218.622804 349.474441,218.622804" id="Fill-237" fill="#1C468A"></path>
            </g>
        </g>
    </g>
</svg>