<?xml version="1.0" encoding="UTF-8"?>
<svg width="260px" height="203px" viewBox="0 0 260 203" version="1.1" xmlns="http://www.w3.org/2000/svg" xmlns:xlink="http://www.w3.org/1999/xlink">
    <title>11136</title>
    <g id="Page-1" stroke="none" stroke-width="1" fill="none" fill-rule="evenodd">
        <g id="11-copy-4" transform="translate(-77.000000, -311.000000)">
            <g id="11136" transform="translate(77.000000, 311.000000)">
                <path d="M19.3074341,202.36246 C19.3074341,202.36246 -15.8200925,157.027739 20.8128618,117.558946 C61.5268423,73.6931114 23.0593435,24.6152566 63.6259547,7.14344891 C94.9054092,-6.32846972 112.146186,2.13589459 131.822284,10.6002589 C148.130282,17.6158114 166.11031,24.6313638 195.143042,19.156699 C248.635969,9.06946833 247.500046,87.8868516 231.690892,116.014332 C218.582709,139.3362 269.101803,150.894961 243.243643,202.256681 L19.3074341,202.36246" id="Fill-2" fill="#EDF2FF"></path>
                <path d="M162.510217,67.9708276 L157.208044,67.9708276 C161.202404,60.5612483 167.997503,52.4329727 179.003329,50.5861674 C179.003329,50.5861674 179.19926,50.5563569 179.521405,50.5563569 C180.680166,50.5563569 183.470088,50.9420897 184.656496,54.4880906 C186.171059,59.0203606 177.91669,59.2926214 172.865742,61.2797041 C170.423209,62.2410911 166.428849,64.6438373 162.510217,67.9708276" id="Fill-3" fill="#D9E5FC"></path>
                <path d="M153.633195,67.9708276 L151.528433,67.9708276 C152.153491,60.7819417 154.777531,50.7022839 164.051225,45.6660009 C164.051225,45.6660009 164.819325,45.2634397 165.884327,45.2634397 C166.924087,45.2634397 168.246325,45.6473694 169.409894,47.1658992 C171.764679,50.2390199 165.511697,52.6228941 162.166436,55.4760425 C159.892187,57.4160055 156.021637,62.3429034 153.633195,67.9708276" id="Fill-4" fill="#D9E5FC"></path>
                <path d="M65.3648174,68.0455941 C67.9678225,60.6391401 80.5471105,63.9395654 80.5471105,63.9395654 C80.5471105,63.9395654 88.2329172,77.8021452 90.7283403,78.3024318 C93.2249653,78.8027184 86.4719371,65.1670828 86.4719371,65.1670828 C91.387055,65.0540915 103.384558,71.9525659 103.384558,71.9525659 C103.384558,71.9525659 101.461304,87.3238188 104.003606,87.1943597 C106.545908,87.0650208 105.012113,73.4969394 105.012113,73.4969394 C109.63153,75.2616459 113.634304,81.0965603 113.634304,81.0965603 C118.48331,90.4765141 106.188904,96.2198336 106.188904,96.2198336 C106.188904,96.2198336 105.637171,101.561193 108.492002,107.945076 C108.492002,107.945076 109.154323,109.133888 109.770966,111.116043 L108.483588,111.021082 C108.403051,110.668886 108.311697,110.326306 108.20712,109.996949 L108.205918,109.990939 L108.20111,109.976514 C108.127785,109.770966 108.020804,109.47767 107.888581,109.121868 L107.888581,109.120666 L107.887379,109.118262 C107.550809,108.318909 107.327231,107.731114 107.188997,107.307998 L107.187795,107.304392 C106.187702,104.799353 104.721221,101.524891 103.636986,100.780832 C103.636986,100.780832 103.794452,100.590911 103.955525,100.210467 C103.854554,100.392335 103.747573,100.582016 103.636986,100.780832 C101.085067,105.34147 90.0059177,105.317429 83.9584836,103.605733 C77.9110495,101.894637 80.7153953,100.35976 84.2289413,97.7923347 C87.7412853,95.2249098 94.6145169,96.4758669 96.7421174,95.5243366 C98.869718,94.5729265 95.9595932,93.2506889 91.843828,93.2642718 C87.7268608,93.2777346 85.378086,97.220527 78.7200185,97.3635691 C72.060749,97.506491 67.9377716,84.6977346 67.9377716,84.6977346 C72.3997226,86.4509015 80.7718909,84.5344984 81.2034212,82.983153 C81.6337494,81.4319279 69.4992141,80.6970042 67.6444753,80.0856496 C65.7899769,79.4741748 62.7618123,75.4521683 65.3648174,68.0455941" id="Fill-5" fill="#CDE0FB"></path>
                <path d="M46.0867129,184.461766 C41.5263153,176.507906 54.0436986,167.908553 54.0436986,167.908553 C54.0436986,167.908553 72.1629219,171.693759 74.5104947,169.869071 C76.8568655,168.045585 59.6505871,163.607675 59.6505871,163.607675 C63.3021267,159.175774 78.5565418,153.836338 78.5565418,153.836338 C78.5565418,153.836338 90.6766528,167.266667 92.5013407,164.920296 C94.3272307,162.575127 81.163754,153.575497 81.163754,153.575497 C86.2483588,150.839667 94.4606565,151.754415 94.4606565,151.754415 C106.453352,154.626075 102.147665,169.877485 102.147665,169.877485 C102.147665,169.877485 106.448544,174.441609 114.268978,176.790384 C114.268978,176.790384 115.825613,177.111327 118.049376,178.080166 L116.983172,179.145169 C116.609339,178.946833 116.23791,178.766528 115.86528,178.606657 L115.85927,178.604253 L115.842441,178.597041 C115.60564,178.505687 115.265465,178.375867 114.849561,178.220804 L114.847157,178.220804 L114.845955,178.219602 C113.881923,177.908276 113.190754,177.65705 112.712344,177.455109 L112.707536,177.453907 C109.730097,176.427369 105.716505,175.224133 104.231993,175.613592 C104.231993,175.613592 104.183911,175.329912 103.971151,174.89718 C104.054092,175.125566 104.140638,175.363569 104.231993,175.613592 C106.315118,181.350902 97.8395747,191.125844 91.7104022,195.164679 C85.5824318,199.204716 86.3661581,195.554138 86.7772538,190.489968 C87.1895515,185.424595 93.5398983,180.30393 94.3236246,177.696718 C95.1061489,175.089505 91.7164124,176.653352 88.5863153,180.302728 C85.4562182,183.952104 87.1498844,189.036708 82.1938974,195.032455 C77.2391123,201.027 62.7702265,194.895423 62.7702265,194.895423 C67.7250116,192.290615 72.4201572,183.426815 71.3779935,181.861766 C70.3358299,180.29792 60.4249376,190.462321 58.4691077,191.635506 C56.5133981,192.808692 50.6471105,192.415626 46.0867129,184.461766" id="Fill-6" fill="#AFCDFB"></path>
                <path d="M191.97448,110.489783 C185.257513,110.489783 174.910402,107.841701 173.466759,102.803976 C173.132594,102.933796 172.731114,103.230698 172.29117,103.640592 L172.29117,76.9567545 C174.171151,75.8088118 176.444198,74.7222931 178.652335,74.4249098 C178.652335,74.4249098 173.793712,88.0009246 176.375682,88.7488303 C176.43338,88.7656588 176.491077,88.7739528 176.548775,88.7738326 C179.034582,88.77227 180.698197,73.2309293 180.698197,73.2309293 C180.698197,73.2309293 191.179935,70.0945816 197.261026,70.0945816 C198.207027,70.0945816 199.048451,70.1707906 199.725196,70.346528 C199.725196,70.346528 189.486269,82.7298844 192.172816,82.8191956 C192.182432,82.8195562 192.192048,82.8196764 192.201664,82.8196764 C194.939898,82.819436 206.112806,70.5175774 206.112806,70.5175774 C206.112806,70.5175774 206.195747,70.515534 206.352011,70.515534 C208.185113,70.515534 219.909755,70.8133981 220.724734,78.4103745 C221.609431,86.6533241 217.523717,90.0553213 215.469441,90.2352658 C215.387702,90.242478 215.286731,90.2458437 215.171336,90.2458437 C214.201294,90.2458437 212.127785,90.0050763 209.852335,89.7643088 C207.575682,89.5235414 205.097087,89.2827739 203.314471,89.2827739 C201.817938,89.2827739 200.813037,89.4525012 200.83227,89.9346371 C200.894776,91.4948775 207.768007,94.9919556 212.769672,94.9918354 C213.214424,94.9918354 213.643551,94.9641886 214.052242,94.905289 C214.052242,94.905289 207.671845,105.490522 201.287841,105.490522 C200.82626,105.490522 200.364679,105.435229 199.906704,105.317429 C193.095978,103.560055 191.636708,98.9389552 187.407952,97.9293666 C186.011188,97.5958021 184.714193,97.4439852 183.674434,97.4439852 C181.567268,97.4439852 180.514286,98.0682016 181.825705,99.067693 C183.782617,100.560379 191.149884,100.936736 194.140546,104.42552 C197.131207,107.915025 199.642256,110.170042 193.011835,110.466944 C192.67767,110.482571 192.331484,110.489783 191.97448,110.489783 M173.276838,102.140453 C173.351364,102.569579 173.466759,102.803976 173.466759,102.803976 C173.400647,102.571983 173.336939,102.352011 173.276838,102.140453" id="Fill-7" fill="#CDE0FB"></path>
                <path d="M215.769949,183.8319 C212.799723,183.8319 210.68294,182.751271 209.81387,181.647804 C208.074526,179.442071 201.317892,163.958669 199.042441,163.958669 C198.94748,163.958669 198.859732,163.985113 198.7816,164.041609 C196.817476,165.444383 198.412575,178.215996 203.169025,183.598706 C203.169025,183.598706 202.779565,183.614332 202.100416,183.614332 C199.469163,183.614332 192.490153,183.393158 186.953583,181.236708 C188.05104,180.579196 189.221822,179.942117 189.693019,178.746093 C189.693019,178.746093 191.784558,171.765881 185.691447,171.560333 C185.658992,171.559131 185.626537,171.559131 185.595284,171.559131 C185.038742,171.559131 184.448544,171.720203 183.836708,172.014702 C183.268146,171.497827 182.418308,171.156449 181.181415,171.114378 C181.150162,171.114378 181.118909,171.113176 181.087656,171.113176 C180.449376,171.113176 179.752196,171.330744 179.015349,171.72381 C179.058622,171.134813 179.030975,170.555432 178.955247,169.881091 C180.728248,169.131022 181.830513,167.416921 181.830513,167.416921 C181.830513,167.416921 179.611558,166.053814 178.641516,165.786963 C178.945631,161.404346 180.157282,157.960518 178.848266,154.330374 C177.337309,150.137679 175.167638,147.189089 173.984836,147.189089 C173.531669,147.189089 173.222746,147.624226 173.15423,148.590661 C172.92945,151.736385 177.214702,159.405363 176.71706,165.475636 C176.165326,165.40712 175.833564,165.383079 175.827554,165.383079 C176.31558,165.737679 176.094406,166.147573 175.510217,166.294221 C175.478964,166.302635 175.453722,166.307443 175.440499,166.309847 C175.368377,166.324272 175.290245,166.331484 175.206103,166.331484 C174.464448,166.331484 173.306889,165.804993 172.29117,165.250855 L172.29117,122.403144 C174.577439,119.496625 177.886639,117.266852 182.665927,117.266852 C183.348682,117.266852 184.063893,117.312529 184.807952,117.40749 C184.807952,117.40749 195.07693,120.051965 199.930744,125.65104 C199.930744,125.65104 180.03828,130.448359 181.159778,134.095331 C181.324457,134.630236 181.909847,134.858622 182.790939,134.858622 C187.904392,134.858622 202.939436,127.151179 202.939436,127.151179 C202.939436,127.151179 218.805086,140.508183 221.167083,147.487194 C221.167083,147.487194 212.814147,146.560425 206.694591,146.560425 C202.73509,146.560425 199.708368,146.948682 200.488488,148.228849 C202.471845,151.486362 225.933148,155.200647 225.933148,155.200647 C225.933148,155.200647 237.030328,171.221359 227.935737,178.683588 C223.206935,182.564956 218.987795,183.8319 215.769949,183.8319" id="Fill-8" fill="#DFEBFA"></path>
                <path d="M165.215996,201.088303 L103.026352,201.088303 C99.1185391,201.088303 95.9511789,197.919741 95.9511789,194.011928 L95.9511789,75.0467221 C95.9511789,71.1387887 99.1185391,67.9708276 103.026352,67.9708276 L165.215996,67.9708276 C169.12381,67.9708276 172.29117,71.1387887 172.29117,75.0467221 L172.29117,194.011928 C172.29117,197.919741 169.12381,201.088303 165.215996,201.088303" id="Fill-29" fill="#F0F2FC"></path>
                <path d="M103.026352,68.8588904 C99.6149792,68.8588904 96.8394822,71.634748 96.8394822,75.0467221 L96.8394822,194.011928 C96.8394822,197.424503 99.6149792,200.2 103.026352,200.2 L165.215996,200.2 C168.627369,200.2 171.404068,197.424503 171.404068,194.011928 L171.404068,75.0467221 C171.404068,71.634748 168.627369,68.8588904 165.215996,68.8588904 L103.026352,68.8588904 Z M165.215996,201.976607 L103.026352,201.976607 C98.6353213,201.976607 95.0628756,198.404161 95.0628756,194.011928 L95.0628756,75.0467221 C95.0628756,70.6552104 98.6353213,67.0826445 103.026352,67.0826445 L165.215996,67.0826445 C169.607027,67.0826445 173.179473,70.6552104 173.179473,75.0467221 L173.179473,194.011928 C173.179473,198.404161 169.607027,201.976607 165.215996,201.976607 L165.215996,201.976607 Z" id="Fill-30" fill="#2B478B"></path>
                <g id="Group-3" transform="translate(63.000000, 86.000000)">
                    <path d="M40.2788746,27.1780424 C40.2788746,27.1780424 40.6782367,26.2790709 40.9369867,25.8532424 C41.1955888,25.4288924 42.300821,24.1824567 42.4888953,24.4648638 C42.6771174,24.7457924 43.4295624,26.6457567 43.0297567,27.1780424 C42.6300988,27.7088495 43.0556317,28.6344352 41.0673967,29.1948138 L40.2788746,27.1780424" id="Fill-66" fill="#FFB27D"></path>
                    <path d="M18.1844338,21.5047638 C18.1844338,21.5047638 28.3620324,30.0006352 32.3305181,29.2140352 C35.433596,28.5989495 40.1962224,26.9666067 40.1962224,26.9666067 L41.1485703,29.4018138 C41.1485703,29.4018138 36.8775688,35.1963352 32.4245553,35.2332995 C25.4640324,35.2939209 20.321561,32.2199709 20.321561,32.2199709 L18.1844338,21.5047638" id="Fill-67" fill="#95B3EF"></path>
                    <path d="M0.335119555,111.115064 C0.335119555,111.115064 0.630538127,115.881978 1.55272313,115.949992 C1.6752967,115.958864 6.22944456,115.958864 6.22944456,115.958864 L12.0428917,115.924857 C12.0428917,115.924857 12.0047446,114.52465 10.3055703,114.228935 C8.60610027,113.931742 5.76192027,112.738535 4.73253884,110.492585 C3.64948527,108.129828 0.335119555,111.115064 0.335119555,111.115064" id="Fill-68" fill="#1C4B8E"></path>
                    <path d="M4.26325641e-14,111.446264 C4.26325641e-14,111.446264 1.76726384,112.037692 3.1470667,112.037692 C4.6861117,112.037692 6.08498813,111.617778 6.08498813,111.617778 C6.08498813,111.617778 6.4176667,108.400407 8.2485817,101.310657 C9.20861813,97.5950067 10.5794017,92.8177424 12.5296374,86.8812781 C17.9221353,70.4720924 19.5620188,60.8732067 19.7116503,59.9653638 C19.7196346,59.9165709 19.7227396,59.8929138 19.7227396,59.8929138 L19.7052924,59.8855209 L3.12681027,52.6065138 C3.12681027,52.6065138 5.17596241,75.2197852 2.56170027,83.9004781 C2.19545813,85.1129067 1.88185313,86.5264209 1.61275313,88.0582209 C-0.0382197306,97.4870709 4.26325641e-14,111.446264 4.26325641e-14,111.446264" id="Fill-69" fill="#FFA561"></path>
                    <path d="M8.2485817,101.310657 C9.20861813,97.5950067 10.5794017,92.8177424 12.5296374,86.8812781 C17.9221353,70.4720924 19.5620188,60.8732067 19.7116503,59.9653638 C19.7100238,59.9372709 19.7083974,59.9121352 19.7052924,59.8855209 L3.12681027,52.6065138 C3.12681027,52.6065138 5.17596241,75.2197852 2.56170027,83.9004781 C2.19545813,85.1129067 8.2485817,101.310657 8.2485817,101.310657" id="Fill-70" fill="#F4904D"></path>
                    <path d="M13.2837088,111.115064 C13.2837088,111.115064 13.5791274,115.881978 14.5011646,115.949992 C14.623886,115.958864 19.177886,115.958864 19.177886,115.958864 L24.991481,115.924857 C24.991481,115.924857 24.9533338,114.52465 23.2540117,114.228935 C21.5548374,113.931742 18.7105096,112.738535 17.6811281,110.492585 C16.5982224,108.129828 13.2837088,111.115064 13.2837088,111.115064" id="Fill-71" fill="#1C4B8E"></path>
                    <path d="M22.6829874,53.1387995 C22.6829874,53.1387995 22.8982674,67.7929209 20.362961,85.7856567 C17.8275067,103.778392 18.6870003,111.415214 18.6870003,111.415214 C18.6870003,111.415214 16.9449474,111.980028 16.2418867,112.037692 C14.4508931,112.184071 12.6143596,111.617778 12.6143596,111.617778 C12.6143596,111.617778 8.98535384,93.6191281 10.0258246,84.6131495 C11.0664431,75.6071709 5.05649384,53.7095281 5.05649384,53.7095281 L22.6829874,53.1387995" id="Fill-72" fill="#FFA561"></path>
                    <path d="M10.9276053,18.8462924 L14.1637546,20.9680424 L17.1114346,20.1356067 C17.650226,19.3667495 17.7929081,17.8837424 17.8007446,16.6003424 C17.8087288,15.3272924 17.6851203,14.2479352 17.6851203,14.2479352 L13.3190467,12.3198781 L11.6899567,11.6027709 C11.6946881,11.6279067 11.8166703,12.9393995 11.8341174,13.1316138 C12.1384074,16.5338067 10.9276053,18.8462924 10.9276053,18.8462924" id="Fill-73" fill="#FFB27D"></path>
                    <path d="M22.7573596,57.2122638 C18.7292874,61.1023852 3.48521598,60.4473781 2.5457317,56.1624781 C1.60787384,51.8775781 3.57023384,19.6875995 10.450766,17.6649138 C11.8786224,17.2449995 19.5118953,19.7127352 19.5118953,19.7127352 C19.5118953,19.7127352 20.709686,22.8458281 21.495251,26.8350138 C21.6475438,27.6112638 22.0927417,35.8380352 22.425716,43.5339995 C22.580966,47.1328424 22.7125588,50.6178352 22.779686,53.1683709 C22.8408988,55.5577424 22.843856,57.1279852 22.7573596,57.2122638" id="Fill-74" fill="#AFCDFB"></path>
                    <path d="M12.160586,13.1922352 C13.0463981,14.6900281 16.1542074,16.0000424 17.8007446,16.6003424 C17.8087288,15.3272924 17.6851203,14.2479352 17.6851203,14.2479352 L13.3190467,12.3198781 C12.3539831,12.3080495 11.7659553,12.5224424 12.160586,13.1922352" id="Fill-75" fill="#FCA56B"></path>
                    <path d="M19.3319531,13.9817924 C19.3319531,13.9817924 12.297206,16.1759924 10.9979853,11.7742852 C9.69876456,7.37257808 7.91590313,4.69044951 12.3525046,3.10394237 C16.789106,1.51595666 18.161516,2.9368638 18.9525517,4.30158523 C19.7435874,5.66482808 21.1284174,13.2972138 19.3319531,13.9817924" id="Fill-76" fill="#FFB27D"></path>
                    <path d="M18.6762067,3.87723523 C18.6762067,3.87723523 18.2276081,8.99900666 17.1683596,8.77722094 C16.1089631,8.55395666 14.9428138,8.07933523 15.097916,9.6229638 C15.2530181,11.1665924 14.0677953,13.8147138 12.5402831,13.8073364 C9.26421241,13.7940138 5.7045517,5.38833523 6.60145313,3.79295666 C9.18924884,-0.805400487 22.4165488,-1.73394334 18.6762067,3.87723523" id="Fill-77" fill="#163560"></path>
                    <path d="M17.6413546,17.7758067 C17.5505703,17.7373638 12.4044024,15.4293138 11.8026238,15.6274424 C11.2006974,15.8270495 10.4504703,17.6649138 10.4504703,17.6649138 L19.512191,19.7142138 C19.512191,19.7142138 18.7989281,18.2637352 17.6413546,17.7758067" id="Fill-78" fill="#95B3EF"></path>
                    <path d="M49.6799274,42.7059995 L20.8321117,69.8673567 C20.266706,70.3996424 19.5537388,70.5681995 19.2476746,70.2443924 L18.2738874,69.2093924 C17.9678231,68.8841067 18.180146,68.1832638 18.7455517,67.6509781 L47.5933674,40.4896209 C48.1587731,39.9573352 48.8717403,39.7887781 49.1778046,40.1125852 L50.1515917,41.1475852 C50.457656,41.4728709 50.2453331,42.1737138 49.6799274,42.7059995" id="Fill-79" fill="#1F4D84"></path>
                    <path d="M33.4911967,57.9485924 L20.8321117,69.8673567 C20.266706,70.3996424 19.5537388,70.5681995 19.2476746,70.2443924 L18.2738874,69.2093924 C17.9678231,68.8841067 18.180146,68.1832638 18.7455517,67.6509781 L31.4044888,55.7322138 L33.4911967,57.9485924" id="Fill-80" fill="#739AF0"></path>
                    <path d="M49.5121096,11.5835495 C54.4913467,6.2902638 61.5864196,4.18034237 68.2488624,5.33510666 C72.1312953,6.00637808 75.8646881,7.78509951 78.9489881,10.6860567 C87.3265738,18.5668424 87.7272667,31.7468281 79.846481,40.1229352 C76.9440453,43.2072352 73.325981,45.2092209 69.4945588,46.1170638 C62.9129938,47.6754781 55.7021488,46.0032138 50.409011,41.0219067 C42.0320167,33.1411209 41.6294017,19.9626138 49.5121096,11.5835495 M43.0494217,32.4521067 C44.1571674,36.1012209 46.2077981,39.5196781 49.185641,42.3215709 C58.2806296,50.8780638 72.591131,50.4404067 81.1476238,41.3471924 C89.5902667,32.3707852 89.2768096,18.3199209 80.5266238,9.72942094 C80.4098167,9.61409237 80.291531,9.4987638 80.1717667,9.38639237 C71.0776653,0.831378085 56.7687903,1.26459951 48.2125931,10.3592924 C42.4566624,16.4776209 40.7688731,24.9542709 43.0494217,32.4521067" id="Fill-81" fill="#1F4D84"></path>
                </g>
                <path d="M204.107813,162.013777 C204.161905,161.867129 204.086177,161.74933 203.939528,161.74933 C203.79288,161.74933 203.630606,161.867129 203.577716,162.013777 C203.524827,162.160425 203.600555,162.279427 203.746001,162.279427 C203.892649,162.279427 204.054924,162.160425 204.107813,162.013777" id="Fill-198" fill="#EBF3FA"></path>
                <path d="M259.636986,202.74711 L0.387656033,202.74711 C0.216366158,202.74711 0.076208969,202.607675 0.076208969,202.435784 L0.076208969,202.287933 C0.076208969,202.116043 0.216366158,201.976607 0.387656033,201.976607 L259.636986,201.976607 C259.807675,201.976607 259.948313,202.116043 259.948313,202.287933 L259.948313,202.435784 C259.948313,202.607675 259.807675,202.74711 259.636986,202.74711" id="Fill-230" fill="#2E3552"></path>
                <path d="M85.779686,142.168371 C69.8843038,130.842514 71.2061467,115.727078 71.2061467,115.727078 C77.0158974,119.005071 82.7806996,126.250071 85.425716,132.534 C85.580966,136.132842 85.7125588,139.617835 85.779686,142.168371" id="Fill-89" fill="#95B3EF"></path>
                <path d="M100.46792,136.011114 C101.588677,135.752364 102.341566,134.903664 102.497999,134.755807 C102.497999,134.755807 102.976021,134.788335 102.419635,135.80855 C102.37306,135.894307 102.269707,136.113135 102.191787,136.268385 C102.15985,136.331964 102.204207,136.404414 102.274882,136.410328 C102.921757,136.459121 103.571885,136.203328 104.818173,136.463557 C104.990131,136.499042 105.040107,136.911564 105.033453,137.086035 C105.022216,137.383228 105.043655,137.717385 104.698557,138.172785 C104.497915,138.43745 103.937536,138.722814 102.690065,139.22405 C102.214705,139.414785 100.855897,139.271364 99.5821081,138.833707 L98.5645553,138.362042 L98.8800824,136.47095 L99.1357274,136.524178 C99.5417431,136.609935 100.044605,136.114614 100.46792,136.011114" id="Fill-90" fill="#FFB27D"></path>
                <path d="M75.1392524,107.714214 C75.1392524,107.714214 60.8568438,110.433307 79.3410567,131.115564 C82.2974603,134.423128 98.2692846,138.730207 98.2692846,138.730207 C98.2692846,138.730207 99.8892074,137.352178 99.0724446,136.235857 C99.0724446,136.235857 88.0754217,128.250092 85.6558874,126.981478 C84.5673631,126.409271 81.4313131,114.234714 79.6568796,111.302707 C77.882446,108.3707 75.1392524,107.714214 75.1392524,107.714214" id="Fill-91" fill="#AFCDFB"></path>
            </g>
        </g>
    </g>
</svg>