<?xml version="1.0" encoding="UTF-8"?>
<svg width="252px" height="143px" viewBox="0 0 252 143" version="1.1" xmlns="http://www.w3.org/2000/svg" xmlns:xlink="http://www.w3.org/1999/xlink">
    <title>4565</title>
    <g id="Page-1" stroke="none" stroke-width="1" fill="none" fill-rule="evenodd">
        <g id="11-copy-2" transform="translate(-81.000000, -210.000000)">
            <g id="Group-4" transform="translate(40.000000, 210.000000)">
                <g id="4565" transform="translate(41.000000, 0.000000)">
                    <path d="M36.59463,13.7807776 C70.99596,1.0096228 105.959916,12.300562 129.673008,36.8924932 C141.53328,49.1921848 159.91074,44.9424748 178.621884,40.6927648 C197.321436,36.4456216 216.353844,32.1983956 229.546368,44.4706804 C247.55868,61.2260884 239.308488,104.305024 214.610076,122.963176 C181.040472,148.324816 78.9489,135.45604 56.8650636,131.140504 C31.422528,126.167536 12.8220876,111.081376 5.264766,92.770984 C-12.94461,48.6519148 21.3920532,19.4245912 36.59463,13.7807776" id="Fill-3" fill="#E7F3FE"></path>
                    <path d="M126.116748,39.4290712 C119.999484,39.4290712 115.040592,34.4700136 115.040592,28.352584 C115.040592,22.2351544 119.999484,17.2759312 126.116748,17.2759312 C132.23484,17.2759312 137.193732,22.2351544 137.193732,28.352584 C137.193732,34.4700136 132.23484,39.4290712 126.116748,39.4290712 M154.179324,31.5233272 C154.296072,30.4822 154.358172,29.4247612 154.358172,28.352584 C154.358172,27.7868116 154.339128,27.2255104 154.306008,26.668018 L149.067252,24.9728536 C148.744332,22.763998 148.110912,20.6561584 147.211704,18.6953716 L150.685992,14.4204076 C149.882832,13.006432 148.961268,11.6681356 147.934548,10.4200084 L142.694136,12.1297456 C141.166476,10.5693796 139.42188,9.2239624 137.506716,8.1425116 L137.804796,2.6372224 C136.342548,1.9715104 134.81406,1.4267692 133.230924,1.0159984 L129.9951,5.481154 C128.734056,5.2688548 127.439064,5.1566608 126.116748,5.1566608 C125.216712,5.1566608 124.328268,5.2098184 123.4539,5.3098408 L120.458196,0.6794164 C118.852704,1.0058968 117.29772,1.4685832 115.804008,2.0548072 L115.810632,7.5682108 C113.838336,8.5483972 112.025016,9.8005816 110.419524,11.2766572 L105.2793,9.2931004 C104.18634,10.4867452 103.195224,11.7738712 102.318372,13.1423068 L105.562476,17.5957876 C104.55894,19.5106204 103.81374,21.5826076 103.375728,23.765878 L98.055,25.181758 C97.938252,26.2228024 97.876152,27.2804068 97.876152,28.352584 C97.876152,28.9182736 97.895196,29.4795748 97.927488,30.03715 L103.167072,31.7322316 C103.489992,33.94117 104.123412,36.0489268 105.02262,38.0097964 L101.548332,42.2847604 C102.351492,43.698736 103.273056,45.0369496 104.299776,46.2851596 L109.540188,44.5753396 C111.067848,46.1357056 112.812444,47.4812056 114.727608,48.5625736 L114.429528,54.0679456 C115.891776,54.7335748 117.420264,55.278316 119.0034,55.6890868 L122.239224,51.2239312 C123.500268,51.4363132 124.79526,51.5483416 126.116748,51.5483416 C127.01844,51.5483416 127.906056,51.4952668 128.780424,51.39541 L131.776128,56.0256688 C133.38162,55.6992712 134.936604,55.2365848 136.430316,54.6503608 L136.423692,49.1368744 C138.395988,48.1567708 140.210136,46.9045864 141.8148,45.4285936 L146.955024,47.4120676 C148.047984,46.2184228 149.0391,44.931214 149.915952,43.5628612 L146.671848,39.1092976 C147.675384,37.1944648 148.420584,35.1225604 148.858596,32.9392072 L154.179324,31.5233272" id="Fill-4" fill="#9EC8FF"></path>
                    <path d="M141.224436,40.9854628 C141.130872,40.9854628 141.037308,40.9540816 140.960304,40.889746 C140.78394,40.7435212 140.759928,40.4825356 140.906484,40.3066684 C143.69022,36.9593128 145.223676,32.7139084 145.223676,28.352584 C145.223676,26.2641196 144.881712,24.213412 144.208548,22.2574276 C144.134028,22.0412368 144.248292,21.805588 144.4644,21.7311508 C144.681336,21.6567136 144.916488,21.7715572 144.991008,21.987748 C145.694808,24.0306724 146.051676,26.1721288 146.051676,28.352584 C146.051676,32.9069152 144.450324,37.3403584 141.543216,40.8361744 C141.461244,40.9346236 141.343668,40.9854628 141.224436,40.9854628" id="Fill-5" fill="#FFFFFF"></path>
                    <path d="M139.6206,14.8419424 C139.518756,14.8419424 139.416912,14.8046824 139.337424,14.7294172 C137.466144,12.9680956 135.299268,11.6330284 132.896412,10.7612272 C132.68196,10.6832296 132.571008,10.4457592 132.64884,10.2308104 C132.726672,10.0158616 132.964308,9.9048268 133.179588,9.9828244 C135.688428,10.893376 137.951352,12.2874796 139.904604,14.1265504 C140.071032,14.2832908 140.079312,14.54527 139.92282,14.7117808 C139.840848,14.7983068 139.730724,14.8419424 139.6206,14.8419424" id="Fill-6" fill="#FFFFFF"></path>
                    <path d="M121.821084,10.2255112 C121.635612,10.2255112 121.4667,10.1004004 121.419504,9.9126928 C121.364028,9.6910372 121.498164,9.4659868 121.720068,9.4099312 C123.279192,9.0163828 124.892964,8.8168348 126.515844,8.8168348 C126.744372,8.8168348 126.929844,9.002224 126.929844,9.2308348 C126.929844,9.4594456 126.744372,9.6448348 126.515844,9.6448348 C124.96086,9.6448348 123.415812,9.8359372 121.9221,10.2128428 C121.888152,10.2213712 121.854204,10.2255112 121.821084,10.2255112" id="Fill-7" fill="#FFFFFF"></path>
                    <path d="M45.7165404,107.1343 C41.4793332,107.1343 38.0443752,103.698928 38.0443752,99.462052 C38.0443752,95.224348 41.4793332,91.789804 45.7165404,91.789804 C49.9537476,91.789804 53.3887056,95.224348 53.3887056,99.462052 C53.3887056,103.698928 49.9537476,107.1343 45.7165404,107.1343 M65.153592,101.657908 C65.234736,100.93672 65.276964,100.204768 65.276964,99.462052 C65.276964,99.070408 65.264544,98.681248 65.24136,98.2954 L61.61265,97.121296 C61.3892556,95.591152 60.9504984,94.131388 60.3276768,92.77264 L62.7340104,89.811712 C62.1774288,88.832188 61.5392892,87.905656 60.8278716,87.041224 L57.1984164,88.225264 C56.1405636,87.144724 54.9316836,86.212396 53.605476,85.463884 L53.8118964,81.650116 C52.7990868,81.18892 51.7400748,80.81218 50.6436372,80.527348 L48.4024896,83.619928 C47.5289496,83.473372 46.6318944,83.39554 45.7165404,83.39554 C45.0925596,83.39554 44.47719,83.431972 43.8717564,83.501524 L41.7968712,80.293852 C40.6851984,80.520724 39.607722,80.84116 38.5733016,81.24688 L38.5780212,85.065616 C37.2115728,85.744576 35.955414,86.61232 34.843824,87.634072 L31.2831756,86.26042 C30.5265492,87.087592 29.8396404,87.97852 29.2326336,88.92658 L31.47966,92.01088 C30.7842228,93.337336 30.2681304,94.77226 29.964834,96.285016 L26.2793232,97.265368 C26.198676,97.986556 26.1557856,98.719336 26.1557856,99.462052 C26.1557856,99.853696 26.1687024,100.242856 26.1914724,100.628704 L29.8204308,101.802808 C30.0437424,103.332952 30.4824996,104.792716 31.105404,106.150636 L28.6990704,109.111564 C29.255652,110.091088 29.8937916,111.018448 30.6052092,111.88288 L34.2346644,110.698012 C35.2925172,111.77938 36.5013972,112.71088 37.827522,113.46022 L37.6211844,117.27316 C38.633994,117.734356 39.693006,118.111924 40.7894436,118.395928 L43.0305912,115.303348 C43.9041312,115.450732 44.8011864,115.528564 45.7165404,115.528564 C46.3405212,115.528564 46.955808,115.491304 47.5613244,115.42258 L49.6362096,118.629424 C50.7478824,118.40338 51.8253588,118.082944 52.8597792,117.677224 L52.8550596,113.85766 C54.221508,113.1787 55.4776668,112.311784 56.5892568,111.289204 L60.1498224,112.662856 C60.9065316,111.836512 61.5933576,110.944756 62.2004472,109.997524 L59.953338,106.912396 C60.6489408,105.58594 61.1649504,104.151016 61.4682468,102.639088 L65.153592,101.657908" id="Fill-8" fill="#9EC8FF"></path>
                    <path d="M56.1804732,108.33904 C56.0871576,108.33904 55.9933452,108.307576 55.9159272,108.24382 C55.7401428,108.097264 55.7161308,107.836444 55.8623556,107.66008 C57.771558,105.364864 58.823118,102.452788 58.823118,99.462052 C58.823118,98.029612 58.588794,96.62284 58.12677,95.28148 C58.0523328,95.065372 58.1672592,94.829392 58.38345,94.7557 C58.5994752,94.68118 58.8352068,94.795444 58.909644,95.011552 C59.4016416,96.44068 59.651118,97.937704 59.651118,99.462052 C59.651118,102.645712 58.531662,105.745744 56.4990048,108.19 C56.4171156,108.288532 56.2992084,108.33904 56.1804732,108.33904" id="Fill-9" fill="#FFFFFF"></path>
                    <path d="M55.0697112,90.231508 C54.96795,90.231508 54.8660232,90.194248 54.7860384,90.1189 C53.5029696,88.910848 52.0167924,87.99508 50.3689896,87.397264 C50.1540408,87.318604 50.0430888,87.081796 50.1210036,86.866516 C50.1989184,86.651236 50.4366372,86.540284 50.6513376,86.618944 C52.4059524,87.254848 53.9879292,88.230232 55.3536324,89.515288 C55.5201432,89.672608 55.5280092,89.934256 55.3712688,90.100684 C55.2897936,90.187624 55.179918,90.231508 55.0697112,90.231508" id="Fill-10" fill="#FFFFFF"></path>
                    <path d="M42.7405428,87.033772 C42.5554848,87.033772 42.386904,86.908744 42.3394596,86.720788 C42.2835696,86.498884 42.4178712,86.273668 42.6395268,86.218192 C43.7295888,85.943296 44.8577388,85.803364 45.9925956,85.803364 C46.2212064,85.803364 46.4065956,85.988836 46.4065956,86.217364 C46.4065956,86.445892 46.2212064,86.631364 45.9925956,86.631364 C44.9260488,86.631364 43.8660432,86.762188 42.8422212,87.020524 C42.8082732,87.029632 42.7740768,87.033772 42.7405428,87.033772" id="Fill-11" fill="#FFFFFF"></path>
                    <path d="M159.344388,57.7373932 C156.641796,57.7373932 154.45008,55.5463396 154.45008,52.8434164 C154.45008,50.1404932 156.641796,47.9493568 159.344388,47.9493568 C162.047808,47.9493568 164.238696,50.1404932 164.238696,52.8434164 C164.238696,55.5463396 162.047808,57.7373932 159.344388,57.7373932 Z M171.091224,52.617952 C171.091224,52.403914 171.085428,52.1913664 171.073836,51.9801436 L173.792988,49.7970388 C173.579364,48.7075564 173.24568,47.6614612 172.805184,46.6734088 L169.294464,46.4080348 C168.496272,45.1483156 167.4621,44.0529544 166.254876,43.1833888 L166.243284,39.6848404 C165.265416,39.1718944 164.222964,38.7658432 163.130832,38.4839092 L160.731288,41.0662756 C160.317288,41.0216464 159.897492,40.9980484 159.4719,40.9980484 C158.414544,40.9980484 157.390308,41.1401332 156.41658,41.404762 L153.665136,39.2255488 C152.626824,39.676726 151.65144,40.2444028 150.754716,40.913344 L151.275528,44.3816704 C150.249636,45.4025944 149.414184,46.614124 148.824648,47.958382 L145.401696,48.7516888 C145.112724,49.808548 144.938844,50.9131828 144.895788,52.0512688 L147.910536,53.7943744 C148.064544,55.3211236 148.514148,56.7601876 149.20056,58.0545172 L147.691116,61.215904 C148.338612,62.1012016 149.082984,62.911234 149.909328,63.6294412 L153.14184,62.3631808 C154.41282,63.1903528 155.855196,63.77608 157.404384,64.0543708 L158.927904,67.1916628 C159.109236,67.1983696 159.291396,67.2028408 159.475212,67.2028408 C160.387668,67.2028408 161.28108,67.1181364 162.147996,66.95767 L163.175544,63.634906 C164.67174,63.131896 166.032144,62.3322136 167.186376,61.3062388 L170.584488,62.0697376 C171.281664,61.2515908 171.889416,60.355612 172.394496,59.3964568 L170.424684,56.5039216 C170.856072,55.2887488 171.091224,53.9809228 171.091224,52.617952 L171.091224,52.617952 Z" id="Fill-12" fill="#9EC8FF"></path>
                    <path d="M216.332316,24.4228132 L212.126076,24.4228132 C210.50154,24.4228132 209.180052,23.101408 209.180052,21.4771204 L209.180052,17.2708804 C209.180052,15.6466756 210.50154,14.3251876 212.126076,14.3251876 L216.332316,14.3251876 C217.956852,14.3251876 219.27834,15.6466756 219.27834,17.2708804 L219.27834,21.4771204 C219.27834,23.101408 217.956852,24.4228132 216.332316,24.4228132 M212.126076,15.4843876 C211.140756,15.4843876 210.339252,16.2858088 210.339252,17.2708804 L210.339252,21.4771204 C210.339252,22.462192 211.140756,23.2635304 212.126076,23.2635304 L216.332316,23.2635304 C217.317636,23.2635304 218.11914,22.462192 218.11914,21.4771204 L218.11914,17.2708804 C218.11914,16.2858088 217.317636,15.4843876 216.332316,15.4843876 L212.126076,15.4843876" id="Fill-13" fill="#B1D3FF"></path>
                    <path d="M196.540632,24.4228132 L192.333564,24.4228132 C190.709856,24.4228132 189.388368,23.101408 189.388368,21.4771204 L189.388368,17.2708804 C189.388368,15.6466756 190.709856,14.3251876 192.333564,14.3251876 L196.540632,14.3251876 C198.16434,14.3251876 199.485828,15.6466756 199.485828,17.2708804 L199.485828,21.4771204 C199.485828,23.101408 198.16434,24.4228132 196.540632,24.4228132 M192.333564,15.4843876 C191.349072,15.4843876 190.547568,16.2858088 190.547568,17.2708804 L190.547568,21.4771204 C190.547568,22.462192 191.349072,23.2635304 192.333564,23.2635304 L196.540632,23.2635304 C197.525124,23.2635304 198.326628,22.462192 198.326628,21.4771204 L198.326628,17.2708804 C198.326628,16.2858088 197.525124,15.4843876 196.540632,15.4843876 L192.333564,15.4843876" id="Fill-14" fill="#B1D3FF"></path>
                    <path d="M194.699988,21.9740032 C194.691708,21.9740032 194.684256,21.9737548 194.675976,21.9734236 C194.530248,21.9663028 194.394456,21.8953432 194.30586,21.7794232 L191.282832,17.8359904 C191.115576,17.6182264 191.156976,17.3064016 191.37474,17.1394768 C191.592504,16.9726348 191.903832,17.0136208 192.071088,17.2314676 L194.737248,20.7091504 L201.698244,13.2513544 C201.885372,13.0506472 202.200012,13.039966 202.400388,13.227094 C202.600764,13.4143048 202.611528,13.7286964 202.4244,13.929238 L195.06348,21.8161036 C194.969088,21.9170368 194.837436,21.9740032 194.699988,21.9740032" id="Fill-15" fill="#F37168"></path>
                    <path d="M230.236092,133.051528 C213.016176,132.209452 154.436004,133.636096 136.619928,134.191684 C118.803852,134.7481 98.123724,133.458076 87.381252,131.561956 C76.63878,129.665836 14.544576,131.723416 17.3624256,136.82224 C20.1801924,141.921064 45.0283896,139.102552 73.20672,141.151852 C101.385216,143.201152 164.75868,140.896 179.053272,141.151852 C193.348692,141.408532 206.45676,140.640148 224.878932,139.615084 C243.301104,138.590848 240.21846,133.53922 230.236092,133.051528" id="Fill-16" fill="#CCE2FF"></path>
                    <polygon id="Fill-17" fill="#99BBEB" points="18.2277684 85.434076 54.2246544 85.434076 54.2246544 26.4330316 18.2277684 26.4330316"></polygon>
                    <polygon id="Fill-18" fill="#FFFFFF" points="20.1129588 83.185228 53.0412768 83.185228 53.0412768 27.6352048 20.1129588 27.6352048"></polygon>
                    <path d="M29.9621016,49.9108888 C31.201452,47.2445632 33.2990244,46.3906468 36.7435872,46.3906468 C40.8450024,46.3907296 42.9746184,47.8764928 43.5783132,50.0396428 C36.233622,50.1402448 29.9621016,49.9108888 29.9621016,49.9108888" id="Fill-19" fill="#9BD6E8"></path>
                    <path d="M35.3113128,33.4230904 C33.5750796,33.9104512 33.6511728,34.8860008 33.0726492,35.7915844 C32.4941256,36.6970852 31.2364764,37.3006972 31.085532,37.904392 C30.9346704,38.5080868 31.4728704,39.765736 30.8340684,40.4700328 C30.1952664,41.1743296 29.9788272,41.526478 30.2303736,42.2307748 C30.48192,42.9349888 31.0352724,44.0417764 31.085532,44.192638 C31.1358744,44.3435824 31.8401712,45.4000276 32.6954124,45.550972 C33.5505708,45.7019164 35.1603684,45.9534628 35.96535,46.3056112 C36.770166,46.6576768 39.3581628,45.8547652 40.7947428,45.9050248 C42.23124,45.9553672 43.2094392,44.8969348 43.1087544,44.192638 C43.0082352,43.488424 44.1680976,42.0798304 44.165205,40.8724408 C44.162136,39.5759584 42.656004,38.6086888 42.253596,37.7534476 C41.8511052,36.8982892 42.3039384,35.3890936 40.7947428,34.4951848 C39.8409696,33.9302404 39.1848624,33.9805 38.430306,33.7289536 C37.6757496,33.4774072 36.4180176,33.1124248 35.3113128,33.4230904" id="Fill-20" fill="#3A384D"></path>
                    <path d="M37.4242032,48.5190208 C37.0314828,49.0987036 36.7435872,49.1227156 36.3174156,48.5190208 C35.978598,48.039112 35.3113128,46.9485532 35.3113128,46.3952008 L35.3113128,40.8724408 C35.3113128,40.3190884 35.7640632,39.866338 36.3174156,39.866338 L37.4242032,39.866338 C37.9775556,39.866338 38.430306,40.3190884 38.430306,40.8724408 L38.430306,46.3952008 C38.430306,46.9485532 37.7763516,47.9992024 37.4242032,48.5190208" id="Fill-21" fill="#F09959"></path>
                    <path d="M37.4242032,39.866338 L36.3174156,39.866338 C35.7640632,39.866338 35.3113128,40.3190884 35.3113128,40.8724408 L35.3113128,45.7999516 C36.5539752,46.19557 37.6881696,45.4091356 38.430306,44.5230928 L38.430306,40.8724408 C38.430306,40.3190884 37.9775556,39.866338 37.4242032,39.866338" id="Fill-22" fill="#E38540"></path>
                    <path d="M40.2161364,39.922228 C40.2161364,42.439762 38.71845,44.4806164 36.8708508,44.4806164 C35.0232516,44.4806164 33.5253996,42.439762 33.5253996,39.922228 C33.5253996,37.4047768 35.0232516,35.3639224 36.8708508,35.3639224 C38.71845,35.3639224 40.2161364,37.4047768 40.2161364,39.922228" id="Fill-23" fill="#F09959"></path>
                    <path d="M38.430306,36.2945944 C36.3174156,39.866338 33.1984224,39.5141896 33.1984224,39.5141896 C33.1984224,39.5141896 33.273936,34.7853988 35.7514776,34.5338524 C38.229102,34.2823888 39.6879552,35.2766512 40.191048,36.9175816 C40.694058,38.5584292 40.191048,39.6399628 40.191048,39.6399628 C40.191048,39.6399628 39.3860664,39.0110968 38.9836584,38.004994 C38.5812504,36.9988912 38.430306,36.2945944 38.430306,36.2945944" id="Fill-24" fill="#3A384D"></path>
                    <path d="M33.8678604,39.8520136 C34.1807616,40.5107704 34.0784208,41.213908 33.6392496,41.422564 C33.2000784,41.6311372 32.5903392,41.2661548 32.277438,40.607398 C31.9646196,39.9486412 32.0669604,39.2454208 32.5061316,39.0368476 C32.9453028,38.8282744 33.555042,39.1932568 33.8678604,39.8520136" id="Fill-25" fill="#F09959"></path>
                    <path d="M39.722814,39.8520136 C39.4099128,40.5107704 39.5122536,41.213908 39.9515076,41.422564 C40.3906788,41.6311372 41.0003352,41.2661548 41.3132364,40.607398 C41.6261376,39.9486412 41.523714,39.2454208 41.0845428,39.0368476 C40.6453716,38.8282744 40.0357152,39.1932568 39.722814,39.8520136" id="Fill-26" fill="#F09959"></path>
                    <path d="M38.1285,42.3944704 C38.1285,42.3944704 37.5653772,43.1244352 36.8708508,43.1244352 C36.1762416,43.1244352 35.6132016,42.3944704 35.6132016,42.3944704 L38.1285,42.3944704" id="Fill-27" fill="#FFFFFF"></path>
                    <path d="M40.8531168,57.1420612 L32.4048672,57.1420612 C31.8645972,57.1420612 31.422528,56.699992 31.422528,56.1596392 C31.422528,55.6193692 31.8645972,55.1773 32.4048672,55.1773 L40.8531168,55.1773 C41.3933868,55.1773 41.835456,55.6193692 41.835456,56.1596392 C41.835456,56.699992 41.3933868,57.1420612 40.8531168,57.1420612" id="Fill-28" fill="#99BBEB"></path>
                    <path d="M42.3999036,60.160204 L30.8579976,60.160204 C30.3177276,60.160204 29.8757412,59.7181348 29.8757412,59.1778648 C29.8757412,58.6375948 30.3177276,58.1955256 30.8579976,58.1955256 L42.3999036,58.1955256 C42.9401736,58.1955256 43.3822428,58.6375948 43.3822428,59.1778648 C43.3822428,59.7181348 42.9401736,60.160204 42.3999036,60.160204" id="Fill-29" fill="#99BBEB"></path>
                    <path d="M50.6667384,71.0149528 L22.5912456,71.0149528 C22.2777648,71.0149528 22.0212504,70.7584384 22.0212504,70.4448748 C22.0212504,70.131394 22.2777648,69.8748796 22.5912456,69.8748796 L50.6667384,69.8748796 C50.980302,69.8748796 51.2367336,70.131394 51.2367336,70.4448748 C51.2367336,70.7584384 50.980302,71.0149528 50.6667384,71.0149528" id="Fill-30" fill="#99BBEB"></path>
                    <path d="M50.6667384,73.664056 L22.5912456,73.664056 C22.2777648,73.664056 22.0212504,73.407376 22.0212504,73.094392 C22.0212504,72.78058 22.2777648,72.5241484 22.5912456,72.5241484 L50.6667384,72.5241484 C50.980302,72.5241484 51.2367336,72.78058 51.2367336,73.094392 C51.2367336,73.407376 50.980302,73.664056 50.6667384,73.664056" id="Fill-31" fill="#99BBEB"></path>
                    <path d="M50.6667384,76.313656 L22.5912456,76.313656 C22.2777648,76.313656 22.0212504,76.056976 22.0212504,75.743164 C22.0212504,75.43018 22.2777648,75.1735 22.5912456,75.1735 L50.6667384,75.1735 C50.980302,75.1735 51.2367336,75.43018 51.2367336,75.743164 C51.2367336,76.056976 50.980302,76.313656 50.6667384,76.313656" id="Fill-32" fill="#99BBEB"></path>
                    <path d="M26.5179528,30.7212436 C26.4151152,30.7212436 26.328258,30.8081836 26.328258,30.9109384 L26.328258,49.5484732 C26.328258,49.651228 26.4151152,49.738168 26.5179528,49.738168 L46.7400312,49.738168 C46.8428688,49.738168 46.929726,49.651228 46.929726,49.5484732 L46.929726,30.9109384 C46.929726,30.8081836 46.8428688,30.7212436 46.7400312,30.7212436 L26.5179528,30.7212436 Z M46.7400312,50.566168 L26.5179528,50.566168 C25.9568172,50.566168 25.500258,50.1096088 25.500258,49.5484732 L25.500258,30.9109384 C25.500258,30.3498028 25.9568172,29.8932436 26.5179528,29.8932436 L46.7400312,29.8932436 C47.3011668,29.8932436 47.757726,30.3498028 47.757726,30.9109384 L47.757726,49.5484732 C47.757726,50.1096088 47.3011668,50.566168 46.7400312,50.566168 L46.7400312,50.566168 Z" id="Fill-33" fill="#99BBEB"></path>
                    <polyline id="Fill-34" fill="#99BBEB" points="29.4360732 62.7230296 30.0214692 63.9092224 31.33062 64.0994968 30.3833052 65.0228824 30.606948 66.326734 29.4360732 65.711116 28.2651156 66.326734 28.4887584 65.0228824 27.5414436 64.0994968 28.8505944 63.9092224 29.4360732 62.7230296"></polyline>
                    <polyline id="Fill-35" fill="#99BBEB" points="34.2313524 62.7230296 34.8167484 63.9092224 36.1258992 64.0994968 35.1786672 65.0228824 35.4022272 66.326734 34.2313524 65.711116 33.0603948 66.326734 33.2840376 65.0228824 32.3367228 64.0994968 33.6458736 63.9092224 34.2313524 62.7230296"></polyline>
                    <polyline id="Fill-36" fill="#99BBEB" points="39.0266316 62.7230296 39.6121104 63.9092224 40.9212612 64.0994968 39.9739464 65.0228824 40.1975892 66.326734 39.0266316 65.711116 37.8557568 66.326734 38.0793168 65.0228824 37.1320848 64.0994968 38.4411528 63.9092224 39.0266316 62.7230296"></polyline>
                    <polyline id="Fill-37" fill="#99BBEB" points="43.8219108 62.7230296 44.4073896 63.9092224 45.7165404 64.0994968 44.7692256 65.0228824 44.9928684 66.326734 43.8219108 65.711116 42.651036 66.326734 42.874596 65.0228824 41.927364 64.0994968 43.236432 63.9092224 43.8219108 62.7230296"></polyline>
                    <polygon id="Fill-38" fill="#99BBEB" points="98.478936 85.434076 134.475408 85.434076 134.475408 26.4330316 98.478936 26.4330316"></polygon>
                    <polygon id="Fill-39" fill="#FFFFFF" points="100.363464 83.185228 133.292196 83.185228 133.292196 27.6352048 100.363464 27.6352048"></polygon>
                    <path d="M111.777444,39.6214156 C111.777444,42.2641432 113.368032,46.5280948 117.121356,46.3912264 C120.875508,46.2544408 121.705164,42.1899544 121.850892,41.042926 C121.995792,39.8958976 111.777444,39.6214156 111.777444,39.6214156" id="Fill-40" fill="#7A4E34"></path>
                    <path d="M110.213352,49.9108888 C111.45204,47.2445632 113.550192,46.3906468 116.994672,46.3906468 C121.095756,46.3907296 123.225372,47.8764928 123.828984,50.0396428 C116.484624,50.1402448 110.213352,49.9108888 110.213352,49.9108888" id="Fill-41" fill="#D54A41"></path>
                    <path d="M117.675288,48.5190208 C117.281988,49.0987036 116.994672,49.1227156 116.568252,48.5190208 C116.2296,48.039112 115.562232,46.9485532 115.562232,46.3952008 L115.562232,40.8724408 C115.562232,40.3190884 116.015148,39.866338 116.568252,39.866338 L117.675288,39.866338 C118.228392,39.866338 118.681308,40.3190884 118.681308,40.8724408 L118.681308,46.3952008 C118.681308,46.9485532 118.027188,47.9992024 117.675288,48.5190208" id="Fill-42" fill="#F09959"></path>
                    <path d="M117.675288,39.866338 L116.568252,39.866338 C116.015148,39.866338 115.562232,40.3190884 115.562232,40.8724408 L115.562232,45.7999516 C116.80506,46.19557 117.93942,45.4091356 118.681308,44.5230928 L118.681308,40.8724408 C118.681308,40.3190884 118.228392,39.866338 117.675288,39.866338" id="Fill-43" fill="#E38540"></path>
                    <path d="M120.467304,39.922228 C120.467304,42.439762 118.969452,44.4806164 117.121356,44.4806164 C115.274088,44.4806164 113.776236,42.439762 113.776236,39.922228 C113.776236,37.4047768 115.274088,35.3639224 117.121356,35.3639224 C118.969452,35.3639224 120.467304,37.4047768 120.467304,39.922228" id="Fill-44" fill="#F09959"></path>
                    <path d="M118.960344,36.4575448 C118.562904,37.8593488 117.691848,37.84312 116.477172,38.3034052 C115.262496,38.7637732 114.682068,39.2269564 114.284628,40.1237632 C113.777064,41.2672312 114.514812,44.6014216 114.514812,44.6014216 C114.514812,44.6014216 111.438792,42.29983 111.794004,38.6800624 C112.150044,35.0602948 114.284628,33.658408 116.292528,33.658408 C118.301256,33.658408 119.0655,34.8824404 119.0655,34.8824404 C119.0655,34.8824404 120.135276,34.8869116 121.147092,36.0855244 C122.507496,37.6966468 122.088528,41.6093608 121.147092,43.0112476 C120.205656,44.4131344 119.578032,44.852554 119.598732,44.7897088 C119.619432,44.7270292 120.47724,41.5076824 120.0177,39.5170048 C119.557332,37.52641 118.960344,36.4575448 118.960344,36.4575448" id="Fill-45" fill="#7A4E34"></path>
                    <path d="M118.379088,42.3944704 C118.379088,42.3944704 117.816048,43.1244352 117.121356,43.1244352 C116.427492,43.1244352 115.863624,42.3944704 115.863624,42.3944704 L118.379088,42.3944704" id="Fill-46" fill="#FFFFFF"></path>
                    <path d="M121.104036,57.1420612 L112.655952,57.1420612 C112.115268,57.1420612 111.673116,56.699992 111.673116,56.1596392 C111.673116,55.6193692 112.115268,55.1773 112.655952,55.1773 L121.104036,55.1773 C121.643892,55.1773 122.086044,55.6193692 122.086044,56.1596392 C122.086044,56.699992 121.643892,57.1420612 121.104036,57.1420612" id="Fill-47" fill="#99BBEB"></path>
                    <path d="M122.65074,60.160204 L111.109248,60.160204 C110.568564,60.160204 110.126412,59.7181348 110.126412,59.1778648 C110.126412,58.6375948 110.568564,58.1955256 111.109248,58.1955256 L122.65074,58.1955256 C123.191424,58.1955256 123.633576,58.6375948 123.633576,59.1778648 C123.633576,59.7181348 123.191424,60.160204 122.65074,60.160204" id="Fill-48" fill="#99BBEB"></path>
                    <path d="M130.917492,71.0149528 L102.842496,71.0149528 C102.528684,71.0149528 102.272004,70.7584384 102.272004,70.4448748 C102.272004,70.131394 102.528684,69.8748796 102.842496,69.8748796 L130.917492,69.8748796 C131.231304,69.8748796 131.487984,70.131394 131.487984,70.4448748 C131.487984,70.7584384 131.231304,71.0149528 130.917492,71.0149528" id="Fill-49" fill="#99BBEB"></path>
                    <path d="M130.917492,73.664056 L102.842496,73.664056 C102.528684,73.664056 102.272004,73.407376 102.272004,73.094392 C102.272004,72.78058 102.528684,72.5241484 102.842496,72.5241484 L130.917492,72.5241484 C131.231304,72.5241484 131.487984,72.78058 131.487984,73.094392 C131.487984,73.407376 131.231304,73.664056 130.917492,73.664056" id="Fill-50" fill="#99BBEB"></path>
                    <path d="M130.917492,76.313656 L102.842496,76.313656 C102.528684,76.313656 102.272004,76.056976 102.272004,75.743164 C102.272004,75.43018 102.528684,75.1735 102.842496,75.1735 L130.917492,75.1735 C131.231304,75.1735 131.487984,75.43018 131.487984,75.743164 C131.487984,76.056976 131.231304,76.313656 130.917492,76.313656" id="Fill-51" fill="#99BBEB"></path>
                    <path d="M106.768872,30.7212436 C106.6662,30.7212436 106.57926,30.8081836 106.57926,30.9109384 L106.57926,49.5484732 C106.57926,49.651228 106.6662,49.738168 106.768872,49.738168 L126.991116,49.738168 C127.093788,49.738168 127.180728,49.651228 127.180728,49.5484732 L127.180728,30.9109384 C127.180728,30.8081836 127.093788,30.7212436 126.991116,30.7212436 L106.768872,30.7212436 Z M126.991116,50.566168 L106.768872,50.566168 C106.207488,50.566168 105.75126,50.1096088 105.75126,49.5484732 L105.75126,30.9109384 C105.75126,30.3498028 106.207488,29.8932436 106.768872,29.8932436 L126.991116,29.8932436 C127.5525,29.8932436 128.008728,30.3498028 128.008728,30.9109384 L128.008728,49.5484732 C128.008728,50.1096088 127.5525,50.566168 126.991116,50.566168 L126.991116,50.566168 Z" id="Fill-52" fill="#99BBEB"></path>
                    <polyline id="Fill-53" fill="#99BBEB" points="109.686744 62.7230296 110.27214 63.9092224 111.581208 64.0994968 110.633976 65.0228824 110.857536 66.326734 109.686744 65.711116 108.515952 66.326734 108.739512 65.0228824 107.79228 64.0994968 109.101348 63.9092224 109.686744 62.7230296"></polyline>
                    <polyline id="Fill-54" fill="#99BBEB" points="114.48252 62.7230296 115.067916 63.9092224 116.376984 64.0994968 115.429752 65.0228824 115.653312 66.326734 114.48252 65.711116 113.3109 66.326734 113.535288 65.0228824 112.588056 64.0994968 113.897124 63.9092224 114.48252 62.7230296"></polyline>
                    <polyline id="Fill-55" fill="#99BBEB" points="119.277468 62.7230296 119.862864 63.9092224 121.171932 64.0994968 120.2247 65.0228824 120.44826 66.326734 119.277468 65.711116 118.106676 66.326734 118.330236 65.0228824 117.383004 64.0994968 118.692072 63.9092224 119.277468 62.7230296"></polyline>
                    <polyline id="Fill-56" fill="#99BBEB" points="124.073244 62.7230296 124.65864 63.9092224 125.967708 64.0994968 125.020476 65.0228824 125.244036 66.326734 124.073244 65.711116 122.901624 66.326734 123.125184 65.0228824 122.177952 64.0994968 123.48702 63.9092224 124.073244 62.7230296"></polyline>
                    <path d="M98.478936,84.843712 L54.2246544,84.843712 L54.2246544,26.6520376 L97.928316,26.6520376 C97.894368,27.2145808 97.876152,27.7815124 97.876152,28.352584 C97.876152,28.9182736 97.895196,29.4795748 97.927488,30.03715 L98.478936,30.2153356 L98.478936,84.843712" id="Fill-57" fill="#D7E8FA"></path>
                    <path d="M98.478936,30.2153356 L97.927488,30.03715 C97.895196,29.4795748 97.876152,28.9182736 97.876152,28.352584 C97.876152,27.7815124 97.894368,27.2145808 97.928316,26.6520376 L98.478936,26.6520376 L98.478936,30.2153356" id="Fill-58" fill="#9DC5FB"></path>
                    <polyline id="Fill-59" fill="#99BBEB" points="54.2246544 84.843712 45.7165404 84.843712 45.8310528 83.185228 53.0412768 83.185228 53.0412768 27.6352048 49.667094 27.6352048 49.73499 26.6520376 54.2246544 26.6520376 54.2246544 84.843712"></polyline>
                    <path d="M53.0412768,83.185228 L45.8310528,83.185228 L46.3055796,76.313656 L50.6667384,76.313656 C50.980302,76.313656 51.2367336,76.056976 51.2367336,75.743164 C51.2367336,75.43018 50.980302,75.1735 50.6667384,75.1735 L46.3843224,75.1735 L46.4885676,73.664056 L50.6667384,73.664056 C50.980302,73.664056 51.2367336,73.407376 51.2367336,73.094392 C51.2367336,72.78058 50.980302,72.5241484 50.6667384,72.5241484 L46.5672276,72.5241484 L46.6714728,71.0149528 L50.6667384,71.0149528 C50.980302,71.0149528 51.2367336,70.7584384 51.2367336,70.4448748 C51.2367336,70.131394 50.980302,69.8748796 50.6667384,69.8748796 L46.7502156,69.8748796 L49.667094,27.6352048 L53.0412768,27.6352048 L53.0412768,83.185228" id="Fill-60" fill="#EBF1FB"></path>
                    <path d="M50.6667384,71.0149528 L46.6714728,71.0149528 L46.7502156,69.8748796 L50.6667384,69.8748796 C50.980302,69.8748796 51.2367336,70.131394 51.2367336,70.4448748 C51.2367336,70.7584384 50.980302,71.0149528 50.6667384,71.0149528" id="Fill-61" fill="#99BBEB"></path>
                    <path d="M50.6667384,73.664056 L46.4885676,73.664056 L46.5672276,72.5241484 L50.6667384,72.5241484 C50.980302,72.5241484 51.2367336,72.78058 51.2367336,73.094392 C51.2367336,73.407376 50.980302,73.664056 50.6667384,73.664056" id="Fill-62" fill="#99BBEB"></path>
                    <path d="M50.6667384,76.313656 L46.3055796,76.313656 L46.3843224,75.1735 L50.6667384,75.1735 C50.980302,75.1735 51.2367336,75.43018 51.2367336,75.743164 C51.2367336,76.056976 50.980302,76.313656 50.6667384,76.313656" id="Fill-63" fill="#99BBEB"></path>
                    <polyline id="Fill-64" fill="#99BBEB" points="102.525372 84.843712 98.478936 84.843712 98.478936 26.6520376 104.573844 26.6520376 104.539068 27.6352048 100.363464 27.6352048 100.363464 83.185228 102.583332 83.185228 102.525372 84.843712"></polyline>
                    <path d="M102.583332,83.185228 L100.363464,83.185228 L100.363464,27.6352048 L104.539068,27.6352048 L103.05198,69.8748796 L102.842496,69.8748796 C102.528684,69.8748796 102.272004,70.131394 102.272004,70.4448748 C102.272004,70.7584384 102.528684,71.0149528 102.842496,71.0149528 L103.012236,71.0149528 L102.958416,72.5241484 L102.842496,72.5241484 C102.528684,72.5241484 102.272004,72.78058 102.272004,73.094392 C102.272004,73.407376 102.528684,73.664056 102.842496,73.664056 L102.918672,73.664056 L102.86568,75.1735 L102.842496,75.1735 C102.528684,75.1735 102.272004,75.43018 102.272004,75.743164 C102.272004,76.05118 102.519576,76.304548 102.825108,76.312828 L102.583332,83.185228" id="Fill-65" fill="#EBF1FB"></path>
                    <path d="M103.012236,71.0149528 L102.842496,71.0149528 C102.528684,71.0149528 102.272004,70.7584384 102.272004,70.4448748 C102.272004,70.131394 102.528684,69.8748796 102.842496,69.8748796 L103.05198,69.8748796 L103.012236,71.0149528" id="Fill-66" fill="#99BBEB"></path>
                    <path d="M102.918672,73.664056 L102.842496,73.664056 C102.528684,73.664056 102.272004,73.407376 102.272004,73.094392 C102.272004,72.78058 102.528684,72.5241484 102.842496,72.5241484 L102.958416,72.5241484 L102.918672,73.664056" id="Fill-67" fill="#99BBEB"></path>
                    <path d="M102.825108,76.312828 C102.519576,76.304548 102.272004,76.05118 102.272004,75.743164 C102.272004,75.43018 102.528684,75.1735 102.842496,75.1735 L102.86568,75.1735 L102.825108,76.312828" id="Fill-68" fill="#99BBEB"></path>
                    <polygon id="Fill-69" fill="#99BBEB" points="51.6838536 96.226228 100.850328 96.226228 100.850328 15.6403 51.6838536 15.6403"></polygon>
                    <polygon id="Fill-70" fill="#FFFFFF" points="54.2586852 93.155176 99.233244 93.155176 99.233244 17.2823896 54.2586852 17.2823896"></polygon>
                    <path d="M72.555084,33.2189884 C72.52362,33.1248448 71.736192,28.6053724 71.6418,26.8477768 C71.548236,25.0901812 74.466936,24.8391316 74.466936,24.8391316 C74.466936,24.8391316 76.851576,23.5523368 78.577956,24.2114248 C80.304336,24.8705128 81.479268,25.9794532 82.263384,27.3603916 C83.048328,28.7414128 81.57366,33.0451084 81.57366,33.0451084 L72.555084,33.2189884" id="Fill-71" fill="#2E2D3D"></path>
                    <path d="M67.143276,47.7399556 C67.132512,47.6657668 67.345308,45.8870572 67.35276,45.8150212 C67.7502,42.0697288 72.367128,41.0163472 76.973292,41.0163472 C82.385928,41.01643 86.058108,42.0069664 86.644332,45.898732 C86.66172,46.0127476 86.973876,47.7959284 86.958144,47.9159056 C76.926096,48.0532708 67.143276,47.7399556 67.143276,47.7399556" id="Fill-72" fill="#D5E1E8"></path>
                    <path d="M77.903136,43.9233724 C77.366592,44.715106 76.973292,44.7478948 76.391208,43.9233724 C75.928356,43.2678448 74.383308,41.7722284 74.383308,41.0163472 L75.017556,33.4793116 C75.017556,32.7235132 75.636072,32.1051628 76.391208,32.1051628 L77.903136,32.1051628 C78.6591,32.1051628 79.277616,32.7235132 79.277616,33.4793116 L79.572384,41.0163472 C79.572384,41.7722284 78.384204,43.2133624 77.903136,43.9233724" id="Fill-73" fill="#F09959"></path>
                    <path d="M77.903136,32.1051628 L76.391208,32.1051628 C75.636072,32.1051628 75.017556,32.7235132 75.017556,33.4793116 L74.466936,40.16566 C76.164336,40.7060128 78.45624,39.6077536 79.469712,38.3975488 L79.277616,33.4793116 C79.277616,32.7235132 78.6591,32.1051628 77.903136,32.1051628" id="Fill-74" fill="#E38540"></path>
                    <path d="M71.959752,41.5658908 L74.383308,46.0451224 C74.383308,46.0451224 75.679956,44.9780788 75.805812,45.1873144 C75.931668,45.39655 75.575628,48.037042 75.575628,48.037042 C75.575628,48.037042 78.462864,48.0762892 78.58872,47.9507644 C78.714576,47.8252396 78.002496,45.0826552 78.295608,45.0826552 C78.58872,45.0826552 79.469712,45.8777836 79.469712,45.8777836 L82.175616,41.5658908 L81.581112,41.4210736 L77.147172,43.806376 L72.406044,41.4734032 L71.959752,41.5658908" id="Fill-75" fill="#BDCCD4"></path>
                    <polyline id="Fill-76" fill="#D54A41" points="74.731068 43.6298464 76.53114 44.8374844 75.973068 48.042838 78.399936 47.9073772 77.79384 44.9919064 79.285896 43.6298464 78.58458 42.9694336 75.431556 42.9694336 74.731068 43.6298464"></polyline>
                    <path d="M74.508336,39.3705316 L72.282672,41.4887212 C72.282672,41.4887212 74.550564,45.5220748 74.675592,45.5220748 C74.801448,45.5220748 76.600692,43.2983152 76.600692,43.2983152 L77.75244,43.2781948 L79.572384,45.1873144 L81.686268,41.4468244 L79.530156,39.161296 C79.530156,39.161296 77.688684,42.7183012 77.354172,42.802012 C77.01966,42.8857228 77.017176,42.9275368 76.74642,42.7183012 C76.475664,42.5090656 74.508336,39.3705316 74.508336,39.3705316" id="Fill-77" fill="#D5E1E8"></path>
                    <path d="M81.716904,32.1815044 C81.716904,35.6200228 79.670916,38.4074848 77.147172,38.4074848 C74.623428,38.4074848 72.578268,35.6200228 72.578268,32.1815044 C72.578268,28.742986 74.623428,25.955524 77.147172,25.955524 C79.670916,25.955524 81.716904,28.742986 81.716904,32.1815044" id="Fill-78" fill="#F09959"></path>
                    <path d="M73.046088,32.0855392 C73.473336,32.9853268 73.333404,33.945724 72.733104,34.2306388 C72.133632,34.5155536 71.300664,34.0170976 70.873416,33.11731 C70.446168,32.2175224 70.5861,31.2570424 71.185572,30.9721276 C71.785872,30.6872956 72.61884,31.1857516 73.046088,32.0855392" id="Fill-79" fill="#F09959"></path>
                    <path d="M81.042912,32.0855392 C80.615664,32.9853268 80.755596,33.945724 81.355068,34.2306388 C81.95454,34.5155536 82.787508,34.0170976 83.214756,33.11731 C83.642004,32.2175224 83.5029,31.2570424 82.9026,30.9721276 C82.303128,30.6872956 81.47016,31.1857516 81.042912,32.0855392" id="Fill-80" fill="#F09959"></path>
                    <path d="M79.174116,34.73605 C79.174116,34.73605 78.266628,36.2060812 77.147172,36.2060812 C76.027716,36.2060812 75.120228,34.73605 75.120228,34.73605 L79.174116,34.73605" id="Fill-81" fill="#FFFFFF"></path>
                    <path d="M74.466936,27.9462844 C76.349808,26.6281084 77.196852,26.8477768 78.60942,29.0134108 C80.021988,31.178962 81.716904,31.2171328 81.716904,31.2171328 L81.936324,28.971514 C81.936324,28.971514 79.832376,24.901894 77.008068,25.4354572 C74.184588,25.9690204 72.578268,28.5112288 72.578268,28.5112288 C72.578268,28.5112288 72.44082,33.2762032 72.834948,33.4387396 C73.229076,33.6011932 73.273788,31.9008124 73.556136,31.5556192 C73.839312,31.2103432 73.273788,29.5782724 73.650528,28.8250408 C74.027268,28.0718092 74.466936,27.9462844 74.466936,27.9462844" id="Fill-82" fill="#2E2D3D"></path>
                    <path d="M80.523756,30.3943492 C81.181188,31.1142124 80.93196,33.97222 81.277236,33.9408388 C81.622512,33.9095404 81.748368,31.2103432 81.653976,30.9279124 C81.559584,30.6453988 80.523756,30.3943492 80.523756,30.3943492" id="Fill-83" fill="#2E2D3D"></path>
                    <path d="M87.310872,57.5841304 L66.322728,57.5841304 C65.58498,57.5841304 64.981368,56.9803528 64.981368,56.2424392 C64.981368,55.5044428 65.58498,54.9006652 66.322728,54.9006652 L87.310872,54.9006652 C88.049448,54.9006652 88.65306,55.5044428 88.65306,56.2424392 C88.65306,56.9803528 88.049448,57.5841304 87.310872,57.5841304" id="Fill-84" fill="#99BBEB"></path>
                    <path d="M84.69936,61.7065768 L68.935068,61.7065768 C68.196492,61.7065768 67.59288,61.1027992 67.59288,60.3648028 C67.59288,59.6268892 68.196492,59.0231116 68.935068,59.0231116 L84.69936,59.0231116 C85.437108,59.0231116 86.04072,59.6268892 86.04072,60.3648028 C86.04072,61.1027992 85.437108,61.7065768 84.69936,61.7065768" id="Fill-85" fill="#99BBEB"></path>
                    <path d="M95.990796,76.532248 L57.6435492,76.532248 C57.2153904,76.532248 56.8650636,76.182004 56.8650636,75.753928 C56.8650636,75.325852 57.2153904,74.975608 57.6435492,74.975608 L95.990796,74.975608 C96.418872,74.975608 96.769116,75.325852 96.769116,75.753928 C96.769116,76.182004 96.418872,76.532248 95.990796,76.532248" id="Fill-86" fill="#99BBEB"></path>
                    <path d="M95.990796,80.150608 L57.6435492,80.150608 C57.2153904,80.150608 56.8650636,79.800364 56.8650636,79.372288 C56.8650636,78.944212 57.2153904,78.593968 57.6435492,78.593968 L95.990796,78.593968 C96.418872,78.593968 96.769116,78.944212 96.769116,79.372288 C96.769116,79.800364 96.418872,80.150608 95.990796,80.150608" id="Fill-87" fill="#99BBEB"></path>
                    <path d="M95.990796,83.769796 L57.6435492,83.769796 C57.2153904,83.769796 56.8650636,83.418724 56.8650636,82.990648 C56.8650636,82.562572 57.2153904,82.212328 57.6435492,82.212328 L95.990796,82.212328 C96.418872,82.212328 96.769116,82.562572 96.769116,82.990648 C96.769116,83.418724 96.418872,83.769796 95.990796,83.769796" id="Fill-88" fill="#99BBEB"></path>
                    <path d="M63.0069192,21.346048 C62.780544,21.346048 62.5963968,21.5301952 62.5963968,21.7565704 L62.5963968,47.2125196 C62.5963968,47.4388948 62.780544,47.623042 63.0069192,47.623042 L90.627012,47.623042 C90.853884,47.623042 91.0377,47.4388948 91.0377,47.2125196 L91.0377,21.7565704 C91.0377,21.5301952 90.853884,21.346048 90.627012,21.346048 L63.0069192,21.346048 Z M90.627012,48.451042 L63.0069192,48.451042 C62.3239848,48.451042 61.7683968,47.895454 61.7683968,47.2125196 L61.7683968,21.7565704 C61.7683968,21.073636 62.3239848,20.518048 63.0069192,20.518048 L90.627012,20.518048 C91.310112,20.518048 91.8657,21.073636 91.8657,21.7565704 L91.8657,47.2125196 C91.8657,47.895454 91.310112,48.451042 90.627012,48.451042 L90.627012,48.451042 Z" id="Fill-89" fill="#99BBEB"></path>
                    <polyline id="Fill-90" fill="#99BBEB" points="63.665676 65.2069468 64.465524 66.8271772 66.253176 67.0870036 64.95984 68.3482132 65.265372 70.1290756 63.665676 69.2882416 62.066394 70.1290756 62.3718432 68.3482132 61.0780104 67.0870036 62.8660764 66.8271772 63.665676 65.2069468"></polyline>
                    <polyline id="Fill-91" fill="#99BBEB" points="70.215156 65.2069468 71.015004 66.8271772 72.803484 67.0870036 71.50932 68.3482132 71.814852 70.1290756 70.215156 69.2882416 68.616288 70.1290756 68.92182 68.3482132 67.627656 67.0870036 69.416136 66.8271772 70.215156 65.2069468"></polyline>
                    <polyline id="Fill-92" fill="#99BBEB" points="76.764636 65.2069468 77.564484 66.8271772 79.352964 67.0870036 78.0588 68.3482132 78.364332 70.1290756 76.764636 69.2882416 75.165768 70.1290756 75.4713 68.3482132 74.177136 67.0870036 75.965616 66.8271772 76.764636 65.2069468"></polyline>
                    <polyline id="Fill-93" fill="#99BBEB" points="83.314944 65.2069468 84.113964 66.8271772 85.902444 67.0870036 84.60828 68.3482132 84.913812 70.1290756 83.314944 69.2882416 81.715248 70.1290756 82.02078 68.3482132 80.726616 67.0870036 82.515096 66.8271772 83.314944 65.2069468"></polyline>
                    <polyline id="Fill-94" fill="#99BBEB" points="89.968752 65.2069468 90.767772 66.8271772 92.556252 67.0870036 91.262088 68.3482132 91.56762 70.1290756 89.968752 69.2882416 88.369056 70.1290756 88.674588 68.3482132 87.380424 67.0870036 89.168904 66.8271772 89.968752 65.2069468"></polyline>
                    <path d="M179.812548,93.636244 L116.72226,93.636244 C116.343036,93.636244 116.035848,93.329056 116.035848,92.949832 L116.035848,91.920628 C116.035848,91.541404 116.343036,91.234216 116.72226,91.234216 L179.812548,91.234216 C180.191772,91.234216 180.49896,91.541404 180.49896,91.920628 L180.49896,92.949832 C180.49896,93.329056 180.191772,93.636244 179.812548,93.636244" id="Fill-95" fill="#2E5B9A"></path>
                    <path d="M196.057908,59.0404996 C196.912404,62.054254 194.825016,65.1599164 192.524832,65.8122976 C190.224648,66.4647616 188.583552,64.4168692 187.729056,61.4031148 C186.873732,58.3893604 188.045352,55.4173372 190.345536,54.764956 C192.64572,54.112492 195.202584,56.0267452 196.057908,59.0404996" id="Fill-96" fill="#F09959"></path>
                    <path d="M183.162636,117.439588 C183.162636,117.439588 189.057168,126.594784 189.853704,126.992224 C190.649412,127.390492 192.639924,127.489852 191.893068,128.982736 C191.14704,130.47562 190.848132,136.346968 190.151784,136.645048 C189.455436,136.943956 183.484728,137.640304 184.379796,136.645048 C185.275692,135.649792 185.826312,136.14742 186.2784,134.356456 C186.730488,132.565492 187.365564,129.182284 186.519348,128.485108 C185.67396,127.78876 180.49896,121.519144 180.49896,121.519144 L183.162636,117.439588" id="Fill-97" fill="#F09959"></path>
                    <path d="M153.495396,121.370932 C153.495396,121.370932 146.330712,133.180696 145.003428,134.242192 C143.676972,135.303688 139.29768,136.895932 142.880436,137.160892 C146.463192,137.42668 148.187916,135.966916 150.443388,135.303688 C152.699688,134.64046 155.485908,134.242192 154.424412,132.51664 C153.362916,130.791916 153.803412,127.026172 156.092004,124.63822 C158.380596,122.24944 153.495396,121.370932 153.495396,121.370932" id="Fill-98" fill="#F09959"></path>
                    <path d="M190.060704,93.986488 C190.060704,93.986488 172.323288,93.522808 165.291084,99.293968 C161.17758,105.530464 151.226676,123.931108 150.452496,125.95888 C150.983244,126.489628 153.969012,127.447624 155.296296,127.315144 C159.210252,122.647708 164.384424,118.612864 166.442004,114.951448 C168.97734,110.440504 169.758972,108.184204 173.872476,107.786764 C177.98598,107.388496 187.274484,106.061212 190.060704,106.061212 C192.846924,106.061212 190.060704,93.986488 190.060704,93.986488" id="Fill-99" fill="#6791C9"></path>
                    <polyline id="Fill-100" fill="#2E5B9A" points="205.528572 137.193184 204.598728 137.193184 197.931672 109.375696 199.976832 109.375696 205.528572 137.193184"></polyline>
                    <polyline id="Fill-101" fill="#2E5B9A" points="177.676308 137.193184 178.606152 137.193184 186.256872 108.39286 184.211712 108.39286 177.676308 137.193184"></polyline>
                    <path d="M200.165616,92.771812 L189.853704,94.552012 C189.853704,94.552012 176.149476,94.677868 169.885656,95.84452 C164.186532,96.906016 163.346112,103.380976 169.885656,112.297708 C173.600064,117.363412 176.740668,121.403224 183.162636,125.95888 C184.79628,124.759936 185.42142,124.306192 185.87268,121.419784 C185.408172,120.782224 184.205088,116.793748 183.83166,116.012944 C180.278712,108.58744 175.537584,105.887332 175.471344,105.156208 C176.26788,103.862872 196.559676,111.89944 200.593692,107.172388 C204.446376,102.658132 200.165616,92.771812 200.165616,92.771812" id="Fill-102" fill="#75A1DE"></path>
                    <path d="M200.593692,69.4253584 C197.877852,69.0440644 195.112332,69.5604052 192.524832,71.4332584 C190.264392,73.737748 187.7067,77.53744 187.863192,83.806228 C188.061912,91.767448 186.631128,92.278324 188.124012,94.467556 C194.349744,97.038496 204.996996,108.084016 202.489812,96.242788 C200.674008,87.66802 206.471664,81.276688 201.79512,71.7652036 C201.41424,70.9911064 200.93814,70.2403588 200.593692,69.4253584" id="Fill-103" fill="#F37168"></path>
                    <path d="M187.861536,86.801932 C187.740648,90.952696 187.154424,92.174824 187.602372,93.47644 C190.140192,93.735604 194.782788,94.750732 195.942816,96.375268 C197.2701,98.232472 198.597384,98.49826 197.97804,97.127092 C197.358696,95.755924 195.72174,93.810124 198.243,87.131476 C200.76426,80.452 201.958236,75.941056 199.481688,71.296804 L187.861536,86.801932" id="Fill-104" fill="#D54A41"></path>
                    <path d="M200.593692,69.4253584 C198.92196,65.4661936 198.511272,61.0179292 198.511272,61.0179292 L194.13198,62.3115964 C194.13198,62.3115964 196.62012,67.884202 194.232168,69.8744656 C193.723776,70.2975736 193.135068,70.8110992 192.524832,71.4332584 C195.112332,69.5604052 197.877852,69.0440644 200.593692,69.4253584" id="Fill-105" fill="#F09959"></path>
                    <path d="M198.642924,62.0722216 C198.38376,61.841458 198.059184,61.5533968 197.718048,61.2521704 L194.146884,62.3073736 L194.139432,62.3267488 C194.225544,62.5240612 195.134688,64.6466392 195.254748,66.6884872 C196.318728,66.0428128 197.484552,64.9900108 198.816804,63.15094 C198.744768,62.7429016 198.687636,62.3789956 198.642924,62.0722216" id="Fill-106" fill="#E38540"></path>
                    <path d="M197.516016,70.6705876 C193.0059,72.247762 193.506012,76.998412 189.356076,84.004948 C187.207416,87.631588 185.212764,87.57694 185.212764,87.57694 C185.212764,87.57694 180.175212,87.617512 174.082788,86.872312 C170.267364,86.406148 170.02476,87.542164 172.6785,88.490224 C178.029864,90.403732 183.584088,92.463796 188.061912,91.966168 C192.540564,91.46854 200.199564,80.042968 200.593692,77.068792 C201.140172,72.9554536 199.78722,69.8762872 197.516016,70.6705876" id="Fill-107" fill="#F09959"></path>
                    <path d="M195.193476,110.534896 C194.912784,110.534896 194.626296,110.531584 194.331528,110.524132 C190.656036,110.43388 188.15382,109.925488 186.144264,109.516456 C183.796884,109.039528 182.503548,108.777052 180.999072,109.495756 C180.421128,109.77148 179.729748,109.52722 179.453196,108.949276 C179.177472,108.37216 179.421732,107.679952 179.999676,107.404228 C182.20464,106.350184 184.05108,106.725268 186.60546,107.244424 C188.52642,107.63524 190.917684,108.121276 194.38866,108.20656 C198.273636,108.303436 200.641716,107.727148 201.842316,106.395724 C202.912092,105.2092 203.225076,103.216204 202.827636,100.123624 C202.691844,99.064612 202.555224,98.184448 202.435164,97.407784 C202.096512,95.216068 201.872124,93.767896 202.149504,91.529812 C202.407012,89.451532 203.09508,86.683528 204.689808,81.314776 C204.871968,80.701228 205.516152,80.351812 206.130528,80.533972 C206.744076,80.716132 207.09432,81.361144 206.91216,81.974692 C203.941296,91.978588 204.091992,92.952316 204.72624,97.0534 C204.848784,97.84414 204.98706,98.740036 205.126992,99.828028 C205.617168,103.641796 205.121196,106.222672 203.564556,107.948224 C201.961548,109.72594 199.359972,110.534896 195.193476,110.534896" id="Fill-108" fill="#2E5B9A"></path>
                    <path d="M153.983088,131.32432 C149.228712,133.649344 146.669364,134.982424 145.145016,134.854912 C144.785664,134.825104 144.487584,134.788672 144.237528,134.748928 C142.541784,135.751636 139.835052,136.935676 142.880436,137.160892 C146.463192,137.42668 148.187916,135.966916 150.443388,135.303688 C152.699688,134.64046 155.485908,134.242192 154.424412,132.51664 C154.220724,132.186268 154.07334,131.780548 153.983088,131.32432" id="Fill-109" fill="#D54A41"></path>
                    <path d="M190.372032,127.186804 C190.255284,130.950892 189.737784,134.681032 187.435944,135.38566 C186.825708,135.572788 186.269292,135.599284 185.77746,135.533872 C185.414796,135.98182 184.973472,135.986788 184.379796,136.645048 C183.484728,137.640304 189.455436,136.943956 190.151784,136.645048 C190.848132,136.346968 191.14704,130.47562 191.893068,128.982736 C192.506616,127.756468 191.272896,127.470808 190.372032,127.186804" id="Fill-110" fill="#D54A41"></path>
                    <path d="M172.058328,91.562932 L156.95478,91.562932 C156.50352,91.562932 156.09366,91.301284 155.90322,90.892252 L149.800032,77.756032 C149.530104,77.175604 149.781816,76.486708 150.362244,76.21678 C150.9435,75.946852 151.632396,76.198564 151.902324,76.778992 L157.694184,89.244532 L172.058328,89.244532 C172.6992,89.244532 173.217528,89.763688 173.217528,90.403732 C173.217528,91.044604 172.6992,91.562932 172.058328,91.562932" id="Fill-111" fill="#75A1DE"></path>
                    <path d="M175.218804,87.003964 C172.166796,86.96008 169.139628,85.140964 167.63598,85.405924 C166.132332,85.671712 161.22312,89.077276 161.842464,89.209756 C162.46098,89.342236 166.353408,87.325228 166.485888,87.294592 C166.619196,87.263956 167.459616,88.691428 169.537896,89.21638 C171.617004,89.740504 169.5528,87.658084 175.996296,89.604712 C180.186804,90.869896 175.218804,87.003964 175.218804,87.003964" id="Fill-112" fill="#F09959"></path>
                    <path d="M200.144916,65.8122976 L200.593692,69.4253584 C200.593692,69.4253584 196.64496,69.6603448 194.679288,70.766056 C192.714444,71.87185 189.81396,75.066688 189.81396,75.066688 L192.183696,70.9872148 L192.524832,68.3776072 L200.144916,65.8122976" id="Fill-113" fill="#F2E5DE"></path>
                    <path d="M198.464076,70.235308 C195.5313,69.6856816 194.174208,72.3140848 192.272292,76.604284 C190.370376,80.89498 187.123788,86.105584 186.477948,86.777092 C185.832936,87.449428 175.5972,86.777092 175.5972,86.777092 C175.5972,86.777092 175.287528,89.740504 175.5972,90.094888 C175.906872,90.448444 177.676308,90.403732 177.676308,90.403732 C177.676308,90.403732 178.384248,90.969256 179.047476,91.416376 C179.710704,91.863496 185.327856,92.703916 187.937712,92.571436 C190.547568,92.438956 192.93552,92.21788 193.289076,91.819612 C193.64346,91.421344 200.76426,80.452 201.206412,76.515688 C201.648564,72.5794588 199.9611,70.5158344 198.464076,70.235308" id="Fill-114" fill="#F2E5DE"></path>
                    <path d="M189.81396,52.1895448 C184.26636,52.4549188 185.136588,60.8007448 185.136588,60.8007448 C185.136588,60.8007448 186.577308,61.2456292 189.596196,60.7480012 C189.364356,59.8523536 189.463716,57.5634304 189.463716,57.5634304 C189.463716,57.5634304 189.81396,59.4211312 190.259424,60.54895 C190.897812,60.8415652 191.619828,60.5821528 192.846924,60.2855632 C193.47786,62.9373988 195.258888,64.0578484 196.477704,64.4412124 C197.825688,64.8648172 199.251504,65.3700628 200.843748,64.573858 C202.435992,63.777736 201.560796,55.6394896 200.71458,54.0029476 C199.446084,51.5463544 197.33634,49.347766 193.687344,50.5087876 C191.857464,51.0910372 189.81396,52.1895448 189.81396,52.1895448" id="Fill-115" fill="#303C60"></path>
                    <path d="M199.461816,62.10145 L201.729708,65.414278 C201.729708,65.414278 199.2159,71.6949064 206.52714,74.54008 C212.25276,76.769056 211.57794,80.695432 208.991268,84.644164 C206.403768,88.592896 210.5388,92.041516 210.5388,92.041516 C210.5388,92.041516 211.169736,87.667192 216.733068,86.841676 C224.318376,85.715596 226.466208,75.532024 220.800204,70.43941 C216.112068,66.2256352 214.685424,69.7152412 211.5117,65.9337652 C208.338804,62.152372 202.347396,64.7065864 202.347396,64.7065864 L200.15154,61.5043792 L199.461816,62.10145" id="Fill-116" fill="#303C60"></path>
                    <path d="M223.41006,80.698744 C223.37694,80.698744 223.34382,80.690464 223.313184,80.673904 C223.21548,80.620084 223.179876,80.49754 223.232868,80.399836 C225.14058,76.913956 223.58394,72.691156 222.80148,71.5471912 C222.717852,71.4258892 222.639192,71.303014 222.556392,71.173018 C221.78718,69.9725008 220.830012,68.4783748 215.72208,67.5588808 C214.4925,67.3373908 213.496416,66.6063496 212.442372,65.8323352 C210.263904,64.2334672 207.795636,62.4211408 202.431852,64.8898228 C202.330836,64.936522 202.210776,64.8921412 202.164408,64.7908768 C202.11804,64.6896952 202.161924,64.5699664 202.26294,64.52335 C207.842004,61.955308 210.412944,63.8422372 212.680836,65.5070968 C213.696792,66.2527108 214.655616,66.9570076 215.794116,67.1618548 C221.074272,68.1125644 222.084432,69.688828 222.895872,70.9553368 C222.977844,71.082766 223.054848,71.2030744 223.134336,71.3193256 C223.954056,72.5178556 225.584388,76.942108 223.587252,80.593588 C223.549992,80.660656 223.481268,80.698744 223.41006,80.698744" id="Fill-117" fill="#303C60"></path>
                    <path d="M198.250452,65.4960016 C197.887788,65.4960016 197.494488,65.4644548 197.072208,65.4011956 C195.131376,65.110402 192.527316,64.007506 192.323628,57.8134036 C192.319488,57.7020376 192.407256,57.6088048 192.518208,57.6051249 C192.631644,57.6030916 192.722724,57.6887896 192.726864,57.8001556 C192.810492,60.3532936 193.317228,62.2422928 194.232168,63.414658 C194.92686,64.3054204 195.848424,64.809838 197.131824,65.0021824 C198.928584,65.2711168 200.119248,64.9395856 200.670696,64.0164484 C200.727828,63.92098 200.852028,63.8898472 200.947248,63.9467308 C201.042468,64.0039456 201.073932,64.1278144 201.0168,64.2234484 C200.510892,65.0700784 199.582704,65.4960016 198.250452,65.4960016" id="Fill-118" fill="#303C60"></path>
                    <polyline id="Fill-119" fill="#2E5B9A" points="122.798124 137.193184 124.288524 137.193184 130.087008 92.870344 126.808128 92.870344 122.798124 137.193184"></polyline>
                    <polyline id="Fill-120" fill="#2E5B9A" points="173.376504 137.193184 171.886104 137.193184 166.08762 92.870344 169.367328 92.870344 173.376504 137.193184"></polyline>
                    <path d="M231.829992,99.780004 C234.408384,102.134836 233.287272,104.48884 231.381216,108.862336 C229.47516,113.235004 229.138992,129.380176 229.138992,129.380176 L230.70888,129.155788 C230.70888,129.155788 230.484492,112.56184 232.614936,108.077392 C234.744552,103.592116 235.642104,101.349892 237.54816,102.807172 C239.454216,104.26528 231.829992,99.780004 231.829992,99.780004" id="Fill-121" fill="#74B570"></path>
                    <path d="M230.413284,96.731308 C230.726268,95.336128 232.585956,93.825856 235.073268,92.545768 C234.703152,94.603348 233.517456,97.96834 234.744552,98.658892 C236.399724,99.589564 234.906012,94.891492 235.5444,92.30896 C237.880188,91.168804 240.689592,90.236476 243.276264,89.772796 C243.272952,89.782732 243.26964,89.791012 243.266328,89.800948 C241.80822,93.50128 239.902164,94.95856 240.687108,95.519116 C241.277472,95.941396 243.200916,91.66726 245.740392,89.476372 C247.647276,89.374528 249.259392,89.632864 250.214076,90.388 C251.688744,91.55548 252.678204,92.591308 251.195256,96.145912 C250.348212,96.752008 249.250284,97.18588 247.975164,97.313392 C244.611828,97.64956 243.04194,97.762168 245.396772,98.88328 C246.549348,99.432244 248.4819,98.851816 250.049304,98.499088 C249.540912,99.435556 248.915772,100.495396 248.156496,101.703448 C247.675428,102.46852 247.14468,103.134232 246.580812,103.708864 C245.49696,103.916692 244.551384,103.919176 244.051272,103.704724 C242.481384,103.03156 238.444884,100.901116 237.435552,101.79784 C236.448576,102.676348 244.911564,103.231936 244.324512,105.463396 C240.2226,107.826508 235.528668,106.702084 234.699012,104.531896 C233.584524,101.617336 229.470192,100.931752 230.413284,96.731308" id="Fill-122" fill="#9CD499"></path>
                    <path d="M238.89366,112.674448 C234.408384,109.310284 229.811328,112.45006 227.457324,116.037784 C225.102492,119.625508 226.78416,127.698508 226.78416,127.698508 C226.78416,127.698508 227.680884,127.698508 227.680884,127.36234 C227.680884,127.026172 225.214272,117.83206 231.045048,113.682952 C234.692388,111.088 237.323772,112.337452 237.65994,113.571172 C237.996108,114.804064 236.20266,117.047116 236.20266,117.047116 L238.89366,112.674448" id="Fill-123" fill="#74B570"></path>
                    <path d="M228.578436,105.75982 C233.062884,105.75982 234.520992,112.711708 233.287272,116.748208 C232.053552,120.78388 230.371884,128.296324 230.371884,128.296324 L229.250772,127.175212 C229.250772,127.175212 233.51166,116.6356 232.502328,111.926764 C231.492996,107.2171 229.026384,106.432156 228.578436,106.432156 C228.12966,106.432156 228.578436,105.75982 228.578436,105.75982" id="Fill-124" fill="#9CD499"></path>
                    <path d="M232.34004,116.778844 C232.655508,116.361532 233.044668,116.016256 233.51994,115.7869 C233.45784,116.121412 233.380836,116.442676 233.287272,116.748208 C232.72506,118.587196 232.070112,121.147372 231.523632,123.390424 C231.473952,123.103108 231.397776,122.660128 231.279372,121.977856 C231.25122,121.816396 231.229692,121.64086 231.21396,121.455388 C231.653628,119.961676 232.068456,118.334656 232.34004,116.778844" id="Fill-125" fill="#74B570"></path>
                    <path d="M233.566308,116.812792 C242.087256,113.225068 237.59784,108.300952 245.110284,111.552508 C245.639376,111.781864 246.284388,112.359808 246.9294,113.155516 C246.260376,113.345128 245.450592,113.481748 244.549728,113.346784 C242.306676,113.010616 243.09162,114.804064 246.791952,115.25284 C247.489128,115.337296 248.05548,115.454044 248.525784,115.618816 C250.288596,119.004508 251.082648,123.459148 247.352508,125.007508 C246.617244,125.31304 245.708928,125.48692 244.697112,125.552332 C243.546192,124.637392 244.978632,119.34316 243.204228,120.074284 C241.500204,120.7756 243.73746,124.612552 243.4311,125.578828 C241.749432,125.548192 239.88726,125.274124 238.107888,124.8328 C237.404088,124.438672 236.866716,123.90958 236.701116,123.213232 C236.14056,120.859228 239.840064,119.40112 239.952672,117.383284 C240.055344,115.527736 238.596408,121.465324 234.730476,122.338864 C231.23466,120.706048 229.5828,118.49032 233.566308,116.812792" id="Fill-126" fill="#9CD499"></path>
                    <path d="M227.494584,110.468656 C228.391308,108.5626 226.036476,108.114652 226.149084,109.571932 C226.248444,110.863612 226.259208,114.003388 224.934408,114.857884 C222.649956,114.610312 219.541644,113.689576 217.192608,112.286944 C217.1628,112.097332 217.190952,111.901924 217.29114,111.702376 C218.300472,109.683712 224.803584,108.002044 222.78492,107.329708 C221.177772,106.793992 218.360916,109.956124 216.091368,111.549196 C214.72848,110.515024 213.815196,109.282132 213.815196,107.905996 C213.815196,106.042996 216.078948,103.934908 219.005928,102.926404 C220.323276,103.059712 221.546232,103.780072 223.458084,104.863096 C226.281564,106.462792 225.628272,103.87612 222.9588,102.341008 C225.263124,102.46024 227.560824,103.444732 229.25574,105.79708 C229.25574,105.79708 229.095108,106.802272 230.159088,108.358084 C233.062884,112.600756 229.711968,115.078132 225.706932,114.916672 C225.933804,113.798872 226.874412,111.786004 227.494584,110.468656" id="Fill-127" fill="#9CD499"></path>
                    <path d="M238.623732,112.484008 C240.816276,114.178096 243.252252,116.1595 246.24216,117.505 C249.232068,118.8505 248.634252,123.235588 248.634252,123.235588 C248.634252,123.235588 249.0822,119.448316 246.590748,118.152496 C244.099296,116.856676 242.454888,115.312456 240.561252,115.01272 C238.666788,114.713812 237.621024,114.414904 237.621024,114.414904 C237.621024,114.414904 238.21884,113.219272 237.869424,112.770496 C237.520836,112.32172 238.623732,112.484008 238.623732,112.484008" id="Fill-128" fill="#74B570"></path>
                    <path d="M249.431616,92.587168 C241.408296,94.730032 235.52784,99.863632 234.431568,101.108944 C233.335296,102.355084 233.335296,102.703672 233.335296,102.703672 L234.18234,104.2984 L234.580608,104.09968 C234.580608,104.09968 233.933112,102.753352 235.6272,101.009584 C238.549212,98.00146 242.105472,95.627584 244.548072,94.580992 C246.989844,93.5344 249.431616,92.587168 249.431616,92.587168" id="Fill-129" fill="#74B570"></path>
                    <path d="M227.284272,136.998604 L230.349528,136.998604 C232.529652,136.998604 234.296604,135.231652 234.296604,133.051528 L234.296604,126.00856 L223.337196,126.00856 L223.337196,133.051528 C223.337196,135.231652 225.104976,136.998604 227.284272,136.998604" id="Fill-130" fill="#75A1DE"></path>
                    <polygon id="Fill-131" fill="#FFFFFF" points="223.337196 128.039644 234.296604 128.039644 234.296604 127.267948 223.337196 127.267948"></polygon>
                    <polygon id="Fill-132" fill="#FFFFFF" points="223.337196 129.128464 234.296604 129.128464 234.296604 128.67472 223.337196 128.67472"></polygon>
                    <path d="M27.375264,127.410364 L29.9901708,127.410364 C30.542364,127.410364 30.9899808,126.963244 30.9899808,126.410968 L30.9899808,124.25734 C30.9899808,123.705064 30.542364,123.257944 29.9901708,123.257944 L27.375264,123.257944 C26.8230708,123.257944 26.375454,123.705064 26.375454,124.25734 L26.375454,126.410968 C26.375454,126.963244 26.8230708,127.410364 27.375264,127.410364" id="Fill-133" fill="#9EC8FF"></path>
                    <path d="M18.98514,127.410364 L21.6000468,127.410364 C22.15224,127.410364 22.5998568,126.963244 22.5998568,126.410968 L22.5998568,124.25734 C22.5998568,123.705064 22.15224,123.257944 21.6000468,123.257944 L18.98514,123.257944 C18.4329468,123.257944 17.98533,123.705064 17.98533,124.25734 L17.98533,126.410968 C17.98533,126.963244 18.4329468,127.410364 18.98514,127.410364" id="Fill-134" fill="#9EC8FF"></path>
                    <path d="M10.595016,127.410364 L13.2099228,127.410364 C13.762116,127.410364 14.2097328,126.963244 14.2097328,126.410968 L14.2097328,124.25734 C14.2097328,123.705064 13.762116,123.257944 13.2099228,123.257944 L10.595016,123.257944 C10.0428228,123.257944 9.595206,123.705064 9.595206,124.25734 L9.595206,126.410968 C9.595206,126.963244 10.0428228,127.410364 10.595016,127.410364" id="Fill-135" fill="#9EC8FF"></path>
                    <path d="M249.365376,50.0162932 L249.365376,47.4013036 C249.365376,46.8491932 248.918256,46.4014936 248.36598,46.4014936 L246.212352,46.4014936 C245.660076,46.4014936 245.212956,46.8491932 245.212956,47.4013036 L245.212956,50.0162932 C245.212956,50.5684036 245.660076,51.0161032 246.212352,51.0161032 L248.36598,51.0161032 C248.918256,51.0161032 249.365376,50.5684036 249.365376,50.0162932" id="Fill-136" fill="#9EC8FF"></path>
                    <path d="M249.365376,58.4064172 L249.365376,55.7914276 C249.365376,55.2393172 248.918256,54.7916176 248.36598,54.7916176 L246.212352,54.7916176 C245.660076,54.7916176 245.212956,55.2393172 245.212956,55.7914276 L245.212956,58.4064172 C245.212956,58.9585276 245.660076,59.4062272 246.212352,59.4062272 L248.36598,59.4062272 C248.918256,59.4062272 249.365376,58.9585276 249.365376,58.4064172" id="Fill-137" fill="#9EC8FF"></path>
                    <path d="M249.365376,66.7965412 L249.365376,64.1815516 C249.365376,63.6293584 248.918256,63.1817416 248.36598,63.1817416 L246.212352,63.1817416 C245.660076,63.1817416 245.212956,63.6293584 245.212956,64.1815516 L245.212956,66.7965412 C245.212956,67.3487344 245.660076,67.7962684 246.212352,67.7962684 L248.36598,67.7962684 C248.918256,67.7962684 249.365376,67.3487344 249.365376,66.7965412" id="Fill-138" fill="#9EC8FF"></path>
                </g>
            </g>
        </g>
    </g>
</svg>