<?xml version="1.0" encoding="UTF-8"?>
<svg width="268px" height="255px" viewBox="0 0 268 255" version="1.1" xmlns="http://www.w3.org/2000/svg" xmlns:xlink="http://www.w3.org/1999/xlink">
    <title>Group 2</title>
    <defs>
        <path d="M50.5234723,67.3052925 C84.9248023,54.5341377 119.888758,65.8250769 143.60185,90.4170081 C155.462122,102.7167 173.839582,98.4669897 192.550726,94.2172797 C211.250278,89.9701365 230.282686,85.7229105 243.47521,97.9951953 C261.487522,114.750603 253.23733,157.829539 228.538918,176.487691 C194.969314,201.849331 92.8777423,188.980555 70.7939059,184.665019 C45.3513703,179.692051 26.7509299,164.605891 19.1936083,146.295499 C0.984232339,102.17643 35.3208955,72.9491061 50.5234723,67.3052925" id="path-1"></path>
    </defs>
    <g id="Page-1" stroke="none" stroke-width="1" fill="none" fill-rule="evenodd">
        <g id="11-copy" transform="translate(-73.000000, -132.000000)">
            <g id="Group-2" transform="translate(73.071158, 132.475485)">
                <g id="Group-20">
                    <mask id="mask-2" fill="white">
                        <use xlink:href="#path-1"></use>
                    </mask>
                    <use id="Mask" fill="#EBF6FF" transform="translate(133.590096, 126.886089) rotate(-40.000000) translate(-133.590096, -126.886089) " xlink:href="#path-1"></use>
                    <g mask="url(#mask-2)">
                        <g transform="translate(73.928842, 170.524515)">
                            <g id="Group-18" transform="translate(1.000000, 0.000000)">
                                <ellipse id="Oval" fill="#CCE2FF" fill-rule="nonzero" cx="8.34521725" cy="50.1824309" rx="6.12331707" ry="1.80773984"></ellipse>
                                <g id="Group" transform="translate(0.579567, 0.000000)" fill-rule="nonzero">
                                    <path d="M4.34770732,37.7162764 C4.34770732,37.7162764 4.14657724,29.8160813 4.34770732,27.9543333 C4.54894309,26.0925854 4.34770732,25.4383577 4.34770732,25.4383577 C4.34770732,25.4383577 2.88843089,25.2874309 1.83173171,23.1237236 C0.774926829,20.9599106 0.070601626,19.7019756 0.0201869919,19.4503252 C-0.0302276423,19.1986748 0.171219512,17.8905366 0.774926829,17.3369268 C1.37895122,16.7835285 2.83812195,17.6388862 3.29111382,18.393626 C3.74378862,19.1483659 4.34770732,20.5070244 4.69997561,20.9096016 C5.05213821,21.3121789 5.25337398,20.7586748 5.25337398,20.7586748 C5.25337398,20.7586748 5.30389431,15.928065 5.25337398,12.0533252 C5.20306504,8.17869106 4.74478862,4.10282114 5.27588618,2.79447154 C5.80698374,1.48612195 7.6688374,0.0771544715 8.32285366,0.0268455285 C8.9770813,-0.0234634146 9.6815122,0.68096748 10.1346098,1.83839024 C10.5873902,2.99570732 10.4363577,2.69385366 10.5370813,5.71302439 C10.6378049,8.73219512 10.5370813,23.8783577 10.5370813,23.8783577 C10.5370813,23.8783577 10.8893496,24.4317561 11.0905854,25.1362927 C11.2918211,25.8408293 11.0905854,26.7968049 11.0905854,26.7968049 C11.0905854,26.7968049 13.1536748,25.9415528 14.160065,23.0228943 C15.1663496,20.1044472 15.9716098,19.5507317 16.5754228,19.2993984 C17.1793415,19.047748 18.0850081,19.7522846 18.4372764,20.4566098 C18.7895447,21.1611463 18.5883089,22.5700081 18.4372764,23.1738211 C18.2862439,23.7778455 16.7263496,27.1491789 14.562748,29.1117561 C12.398935,31.0740163 10.5874959,30.9735041 10.5874959,30.9735041 L10.5874959,37.7162764 C10.5873902,37.7162764 6.05852846,39.2258618 4.34770732,37.7162764 Z" id="Path" fill="#9CD499"></path>
                                    <g transform="translate(0.422764, 1.162602)" fill="#54AD79" id="Path">
                                        <path d="M5.27546341,20.453122 C4.72090244,21.3087967 4.6610813,22.3087398 4.64469919,23.3009675 C4.62313821,24.6101626 4.58952846,25.9159756 4.60643902,27.2258049 C4.6244065,28.6053902 4.61436585,29.9863496 4.69120325,31.3644553 C4.77015447,32.7826179 4.90269106,34.1966585 4.90913821,35.6180976 C4.90956098,35.7031789 5.0416748,35.7033902 5.04125203,35.6180976 C5.03543902,34.3324715 4.93112195,33.0516016 4.84804878,31.7694634 C4.76339024,30.4652358 4.76634959,29.1622764 4.74774797,27.856252 C4.72904065,26.5505447 4.73136585,25.2492764 4.76761789,23.9439919 C4.80038211,22.7702927 4.7225935,21.5488211 5.38971545,20.519813 C5.43611382,20.4481545 5.3217561,20.3818862 5.27546341,20.453122 L5.27546341,20.453122 Z"></path>
                                        <path d="M9.12779675,22.862878 C10.0969837,24.6546585 9.61418699,26.8351707 9.38282927,28.7512439 C9.12388618,30.8956098 9.23803252,33.1040244 9.23803252,35.2605447 C9.23803252,35.345626 9.37014634,35.345626 9.37014634,35.2605447 C9.37014634,33.0462114 9.26847154,30.7922439 9.53439024,28.5906992 C9.76373984,26.6906911 10.2015122,24.5705285 9.24194309,22.7962927 C9.20146341,22.7213577 9.08731707,22.7879431 9.12779675,22.862878 L9.12779675,22.862878 Z"></path>
                                        <path d="M7.92978862,23.0458293 C8.33722764,25.1687398 8.22339837,27.3407967 8.15713008,29.488439 C8.09329268,31.5580813 8.16326016,33.6273008 8.16558537,35.6973659 C8.16569106,35.7824472 8.29780488,35.7824472 8.29769919,35.6973659 C8.29526829,33.5635691 8.22942276,31.4315691 8.2951626,29.2980894 C8.35984553,27.2003333 8.45507317,25.0834472 8.05714634,23.0107398 C8.04118699,22.9271382 7.91382927,22.9626504 7.92978862,23.0458293 L7.92978862,23.0458293 Z"></path>
                                        <path d="M6.93449593,23.3459919 C7.09630894,25.3796992 6.90669919,27.4134065 6.88503252,29.4485935 C6.86294309,31.5232033 7.18519512,33.5850244 7.25220325,35.6577317 C7.25495122,35.7426016 7.38706504,35.7430244 7.38431707,35.6577317 C7.31952846,33.6518211 7.02147967,31.6588049 7.01630081,29.6519431 C7.01080488,27.5476341 7.23402439,25.4492439 7.06671545,23.3459919 C7.05995122,23.2615447 6.92773171,23.2609106 6.93449593,23.3459919 L6.93449593,23.3459919 Z"></path>
                                        <path d="M5.82252033,23.4254715 C5.84947154,25.5557805 5.66239837,27.6816504 5.67486992,29.811748 C5.68078862,30.828813 5.78954472,31.8274878 5.88868293,32.838 C5.97577236,33.7255935 5.81744715,34.6409837 5.98369919,35.5164228 C5.99955285,35.6000244 6.12680488,35.5645122 6.11105691,35.4813333 C5.93613821,34.5602358 6.09319512,33.5760407 6.0012439,32.6394065 C5.90168293,31.624561 5.81152846,30.625252 5.80560976,29.6042764 C5.79366667,27.5433008 5.98052846,25.4868699 5.95452846,23.4254715 C5.95357724,23.3401789 5.82146341,23.3401789 5.82252033,23.4254715 L5.82252033,23.4254715 Z"></path>
                                        <path d="M16.4288293,18.399122 C17.0453252,20.5913659 16.9066585,22.718187 15.7625528,24.7091951 C14.6270081,26.6853008 12.6422358,28.8233252 10.3985203,29.4776585 C10.3169268,29.501439 10.3516992,29.6290081 10.4336098,29.6050163 C12.7016341,28.9433902 14.5932927,26.8596911 15.7974309,24.9087398 C17.0454309,22.8865528 17.1906504,20.6200081 16.556187,18.3639268 C16.533252,18.282122 16.4057886,18.317 16.4288293,18.399122 L16.4288293,18.399122 Z"></path>
                                        <path d="M15.5527561,18.9773577 C15.517878,20.8986098 15.3465528,22.8216585 14.4849593,24.5694715 C13.5643902,26.4366098 11.8005122,27.340374 10.3694553,28.7401463 C10.3084715,28.7997561 10.4019024,28.8932927 10.4627805,28.8336829 C11.1673171,28.1445772 11.9765935,27.5825122 12.7340813,26.9555528 C13.524122,26.3014309 14.126561,25.5452114 14.5991057,24.6361626 C15.5012846,22.9002927 15.6499919,20.8977642 15.6848841,18.9773577 C15.6864553,18.892065 15.5543415,18.8922764 15.5527561,18.9773577 L15.5527561,18.9773577 Z"></path>
                                        <path d="M10.3542358,27.0237236 C11.541252,26.6375285 12.422187,25.5735366 13.1368699,24.6023415 C13.5260244,24.073252 13.9160244,23.4973415 14.1536179,22.8826423 C14.5029268,21.9786667 14.648252,21.0111707 15.0404715,20.1227317 C15.0745041,20.0455772 14.9606748,19.978252 14.9263252,20.0560407 C14.6534309,20.6745447 14.4942602,21.3253902 14.3153252,21.9751789 C14.1065854,22.7327724 13.7811626,23.404122 13.3533252,24.058878 C12.6291301,25.1671545 11.6284472,26.4703252 10.3191463,26.8964715 C10.2383984,26.9225772 10.2729593,27.0501463 10.3542358,27.0237236 L10.3542358,27.0237236 Z"></path>
                                        <path d="M1.38349593,16.7864878 C1.97452033,17.7177317 2.70727642,18.5425447 3.35569106,19.432252 C3.98930894,20.301561 4.33597561,21.2688455 4.79890244,22.2274634 C4.836,22.3040894 4.94993496,22.237187 4.91304878,22.1607724 C4.47707317,21.258065 4.14784553,20.3489106 3.57595122,19.5152195 C2.91813008,18.5566016 2.12174797,17.7033577 1.49764228,16.7197967 C1.45208943,16.6482439 1.33773171,16.7143008 1.38349593,16.7864878 L1.38349593,16.7864878 Z"></path>
                                        <path d="M0.701788618,17.0885528 C1.58134959,19.3197967 3.06821138,21.2992846 4.61077236,23.1146341 C4.66594309,23.1796341 4.75895122,23.0857805 4.70409756,23.0210976 C3.17834146,21.2256179 1.6995122,19.2614553 0.829146341,17.0534634 C0.798284553,16.974935 0.670504065,17.0092846 0.701788618,17.0885528 L0.701788618,17.0885528 Z"></path>
                                        <path d="M0.024203252,16.9915285 C-0.0381544715,18.2955447 0.62199187,19.4906992 1.31669919,20.5472927 C1.64835772,21.0517561 2.00104878,21.5542114 2.40013821,22.0075203 C2.8871626,22.5609187 3.471,23.0159187 3.93561789,23.5911951 C3.98920325,23.6574634 4.08210569,23.5632927 4.02915447,23.4976585 C3.63714634,23.0125366 3.17073171,22.6017154 2.72978862,22.1628862 C2.26654472,21.7017561 1.89334959,21.1573415 1.52469919,20.6200081 C0.795430894,19.5574959 0.092796748,18.3205935 0.156422764,16.9914228 C0.160439024,16.9062358 0.0282195122,16.9066585 0.024203252,16.9915285 L0.024203252,16.9915285 Z"></path>
                                        <path d="M8.01592683,0.225227642 C9.63109756,3.76091057 9.30747154,7.64357724 9.07061789,11.414 C8.95013008,13.3334553 8.95192683,15.2450894 8.97845528,17.1672927 C8.99113821,18.0927236 9.03426016,19.0251301 8.97729268,19.9492927 C8.93723577,20.5977073 8.82668293,21.3048862 9.04176423,21.9336423 C9.06913821,22.0137561 9.19681301,21.9791587 9.16912195,21.8985528 C8.93036585,21.200252 9.08795122,20.3887561 9.12526016,19.6682602 C9.17525203,18.7034065 9.11786179,17.7244959 9.10496748,16.7586911 C9.07939024,14.8465285 9.10486179,12.9491626 9.22630081,11.0403821 C9.4605122,7.36095935 9.7027561,3.60142276 8.12996748,0.158430894 C8.09466667,0.0811707317 7.9808374,0.148390244 8.01592683,0.225227642 L8.01592683,0.225227642 Z"></path>
                                        <path d="M7.02295935,0.0791626016 C6.66741463,0.661837398 6.00906504,0.969504065 5.63217073,1.55143902 C5.27895122,2.09669919 5.16131707,2.77121951 5.0806748,3.40346341 C4.85439024,5.18002439 4.888,6.96958537 5.01186992,8.75269919 C5.27546341,12.547748 5.46327642,16.3229268 5.46507317,20.1290732 C5.46507317,20.2141545 5.59718699,20.2141545 5.59718699,20.1290732 C5.59539024,16.5269106 5.49022764,12.9307724 5.1893252,9.34055285 C5.04558537,7.62539837 4.98365041,5.90062602 5.1267561,4.18335772 C5.19577236,3.35621951 5.28698374,2.50096748 5.66905691,1.75225203 C6.01847154,1.06747967 6.74921951,0.781796748 7.13721138,0.14595935 C7.18160163,0.0728211382 7.0672439,0.00655284553 7.02295935,0.0791626016 L7.02295935,0.0791626016 Z"></path>
                                        <path d="M7.65837398,1.29756911 C7.98781301,1.90603252 7.9075935,2.67123577 7.87334959,3.33825203 C7.83202439,4.14213821 7.90082927,4.92139837 7.96741463,5.72317073 C8.12669106,7.64252033 8.12795935,9.55542276 8.13430081,11.4798455 C8.14064228,13.3596667 8.12563415,15.2393821 8.05260163,17.1178293 C7.98749593,18.7958862 7.85707317,20.4741545 7.88772358,22.1544309 C7.88930894,22.2395122 8.02142276,22.2397236 8.0198374,22.1544309 C7.98929268,20.4744715 8.11569919,18.7954634 8.18471545,17.1178293 C8.26482927,15.1708943 8.27233333,13.2218455 8.26588618,11.2735366 C8.25922764,9.27766667 8.23217073,7.30156098 8.06528455,5.31150407 C8.00060163,4.53985366 7.98474797,3.80730894 8.02036585,3.03513008 C8.04805691,2.43395935 8.06729268,1.77518699 7.77262602,1.23087805 C7.73193496,1.15594309 7.61778862,1.22263415 7.65837398,1.29756911 L7.65837398,1.29756911 Z"></path>
                                        <path d="M6.85512195,1.66135772 C6.90025203,2.32742276 6.61509756,2.99158537 6.42886992,3.61960163 C6.2057561,4.37180488 6.16643902,5.18562602 6.09044715,5.96298374 C5.91309756,7.77717073 5.99839024,9.63384553 6.01963415,11.4544797 C6.04098374,13.2784959 6.09456911,15.1011382 6.15639837,16.9240976 C6.22086992,18.8243171 6.2411626,20.7352114 5.9043252,22.6134472 C5.88931707,22.696626 6.0166748,22.7323496 6.03168293,22.6485366 C6.33512195,20.9557886 6.35097561,19.2389431 6.30690244,17.5247398 C6.25828455,15.6369919 6.18504065,13.7507236 6.15713821,11.8623415 C6.12934146,9.97026016 6.05144715,8.04678862 6.20491057,6.15946341 C6.2766748,5.27652033 6.34643089,4.36218699 6.59882114,3.51105691 C6.77617073,2.91337398 7.03025203,2.29560976 6.98734146,1.66125203 C6.98163415,1.57680488 6.84941463,1.57627642 6.85512195,1.66135772 L6.85512195,1.66135772 Z"></path>
                                        <path d="M6.93449587,4.83853659 C6.93660976,7.76163415 7.02243089,10.6836748 7.19333333,13.6018049 C7.36317886,16.5034472 7.65509756,19.3388211 7.05593496,22.2163659 C7.03860163,22.2993333 7.16595935,22.3348455 7.18329268,22.2514553 C7.75550407,19.503065 7.52488618,16.7916667 7.35060163,14.0174878 C7.15866667,10.9618537 7.06872358,7.90008943 7.06650407,4.83853659 C7.06650407,4.75334959 6.93439024,4.75334959 6.93449587,4.83853659 L6.93449587,4.83853659 Z"></path>
                                    </g>
                                </g>
                                <path d="M0.0114774175,36.7123171 L16.3827051,36.7123171 C16.3827051,36.7123171 17.0506725,50.331561 8.19703839,50.6315122 C-0.656384371,50.9315691 0.0114774175,36.7123171 0.0114774175,36.7123171 Z" id="Path" fill="#75A1DE" fill-rule="nonzero"></path>
                                <path d="M19.2125831,33.9788293 C19.2125831,34.1747805 19.0537295,34.3334228 18.8578839,34.3334228 L17.633453,34.3334228 C17.4375018,34.3334228 17.2788595,34.1746748 17.2788595,33.9788293 L17.2788595,33.9788293 C17.2788595,33.782878 17.4376075,33.6241301 17.633453,33.6241301 L18.8578839,33.6241301 C19.0537295,33.6241301 19.2125831,33.7829837 19.2125831,33.9788293 L19.2125831,33.9788293 Z" id="Path" fill="#141514" fill-rule="nonzero"></path>
                                <path d="M21.8234693,47.2329106 C21.8234693,47.3399756 21.7366969,47.4266423 21.6296319,47.4266423 L19.4064205,47.4266423 C19.2993555,47.4266423 19.2125831,47.3399756 19.2125831,47.2329106 L19.2125831,47.2329106 C19.2125831,47.1258455 19.2993555,47.0391788 19.4064205,47.0391788 L21.6296319,47.0391788 C21.7366969,47.0390732 21.8234693,47.1258455 21.8234693,47.2329106 L21.8234693,47.2329106 Z" id="Path" fill="#141514" fill-rule="nonzero"></path>
                                <path d="M16.3942254,16.8730488 C16.3942254,17.0106585 16.2826156,17.1221626 16.1451116,17.1221626 L15.2636481,17.1221626 C15.1260384,17.1221626 15.0145343,17.0105528 15.0145343,16.8730488 L15.0145343,16.8730488 C15.0145343,16.7353333 15.1261441,16.6238292 15.2636481,16.6238292 L16.1451116,16.6238292 C16.2826156,16.6237236 16.3942254,16.7353333 16.3942254,16.8730488 L16.3942254,16.8730488 Z" id="Path" fill="#141514" fill-rule="nonzero"></path>
                                <path d="M3.71372945,32.957748 C3.71372945,33.1044472 3.59482701,33.2232439 3.44823352,33.2232439 L2.61718473,33.2232439 C2.47059124,33.2232439 2.3516888,33.1044472 2.3516888,32.957748 L2.3516888,32.957748 C2.3516888,32.8111545 2.47059124,32.6923577 2.61718473,32.6923577 L3.44823352,32.6923577 C3.59482701,32.6923577 3.71372945,32.8111545 3.71372945,32.957748 L3.71372945,32.957748 Z" id="Path" fill="#141514" fill-rule="nonzero"></path>
                            </g>
                            <g id="Group-19" transform="translate(0.000000, 36.674797)" fill="#2E5B9A" fill-rule="nonzero">
                                <g transform="translate(0.054788, 0.000000)">
                                    <path d="M0.0112692518,0.727260163 L16.3824969,0.727260163 C16.3824969,0.727260163 16.3876758,0.835804878 16.3911636,1.0304878 C16.4004644,0.40997561 16.3824969,0.0375203252 16.3824969,0.0375203252 L0.0112692518,0.0375203252 C0.0112692518,0.0375203252 -0.00638115472,0.42001626 0.00249689406,1.05585366 C0.00577331682,0.844682927 0.0112692518,0.727260163 0.0112692518,0.727260163 Z" id="Path"></path>
                                    <g id="Group" transform="translate(0.367977, 0.000000)">
                                        <path d="M0.154308943,0.293926829 C0.00338211382,1.48707317 -0.302382114,3.8267561 1.06790244,4.4613252 C1.88584553,4.84012195 2.79922764,4.303 3.27177236,3.64200813 C3.8445122,2.8410813 3.90602439,1.69147967 3.74653659,0.754528455 C3.6955935,0.455211382 3.22505691,0.533422764 3.2274878,0.824918699 C3.2381626,2.145 3.5738374,4.43162602 5.23878862,4.5771626 C6.10788618,4.65294309 6.8651626,4.0619187 7.18530081,3.30263415 C7.53239024,2.4794065 7.39795122,1.52491057 7.6298374,0.671666667 C7.45671545,0.648097561 7.28380488,0.624845528 7.11078862,0.601276423 C7.10708943,1.53347154 7.09430081,2.39305691 7.553,3.23256098 C7.91636585,3.89725203 8.46617073,4.3739187 9.25092683,4.35743089 C10.098252,4.33988618 10.7977154,3.7144065 11.278187,3.07719512 C11.5055285,2.77555285 11.6904878,2.3837561 11.7227236,2.00400813 C11.7623577,1.5374878 11.6329919,0.988211382 11.877561,0.56703252 C11.7134228,0.522642276 11.5493902,0.478252033 11.385252,0.433650407 C11.3627398,0.905349593 11.2173089,1.37102439 11.2828374,1.84504878 C11.3479431,2.31569106 11.522122,2.74130894 11.7552764,3.15276423 C12.1485528,3.84673171 12.7293252,4.20756098 13.5347967,4.13230894 C14.2729431,4.06318699 14.929813,3.61854472 15.3247805,3.00479675 C15.7555772,2.33556098 15.7593821,1.45758537 15.8995285,0.699569106 C15.9610407,0.366642276 15.4518211,0.224382114 15.3898862,0.559 C15.1766016,1.71378049 15.1850569,3.01420325 13.9003821,3.50862602 C13.0801138,3.82443089 12.5265041,3.4415122 12.1278374,2.73782114 C11.9258618,2.38153659 11.8148862,1.98995122 11.7907886,1.58325203 C11.7683821,1.20688618 11.8958455,0.812235772 11.9139187,0.433650407 C11.9266016,0.166146341 11.549813,0.0793739837 11.4216098,0.300268293 C11.0985122,0.856626016 11.2808293,1.47069106 11.1807398,2.0740813 C11.0589837,2.80747154 10.292935,3.51634146 9.62391057,3.75478049 C8.79592683,4.04976423 8.28829268,3.47565041 7.92598374,2.81265041 C7.56082114,2.14447154 7.63681301,1.33382114 7.63966667,0.601170732 C7.64093496,0.302065041 7.19904065,0.242349593 7.12061789,0.53099187 C6.77099187,1.8176748 7.19692683,3.69474797 5.48917073,4.03412195 C4.03010569,4.32434959 3.76386992,1.7656748 3.75626016,0.824813008 C3.5832439,0.848170732 3.41033333,0.871634146 3.23721138,0.89499187 C3.37334146,1.69422764 3.28498374,2.56395935 2.87965854,3.27515447 C2.53352033,3.88266667 1.58642276,4.37909756 1.01791057,3.77697561 C0.613747967,3.34882114 0.59197561,2.56892683 0.576121951,2.02028455 C0.559634146,1.44395122 0.610894309,0.865292683 0.683186992,0.293926829 C0.725463415,-0.0435447154 0.196479675,-0.0394227642 0.154308943,0.293926829 L0.154308943,0.293926829 Z" id="Path"></path>
                                        <path d="M12.530626,0.79701626 C12.5801951,1.41034146 12.581252,2.78326829 13.4521463,2.83653659 C14.4798862,2.89931707 15.2348374,1.24747154 14.7272033,0.440097561 C14.5462602,0.152512195 14.0888293,0.417373984 14.2708293,0.706756098 C14.4697398,1.02298374 14.2843577,1.50155285 14.1330081,1.80118699 C14.0389431,1.98762602 13.712252,2.42021951 13.4468618,2.30110569 C13.2417154,2.20904878 13.1917236,1.84473171 13.153252,1.65501626 C13.0958618,1.37282114 13.0822276,1.08322764 13.0590813,0.796910569 C13.031813,0.459756098 12.5031463,0.45700813 12.530626,0.79701626 L12.530626,0.79701626 Z" id="Path"></path>
                                        <path d="M8.33997561,0.657292683 C8.40592683,1.30031707 8.14952033,1.90455285 8.43192683,2.52273984 C8.61382114,2.92077236 9.25039837,3.25613008 9.67834146,3.159 C10.7033333,2.9261626 10.4145854,1.37979675 10.4048618,0.629390244 C10.4004228,0.288747967 9.87196748,0.288325203 9.8764065,0.629390244 C9.88391057,1.2113252 10.0325122,1.90201626 9.78635772,2.45213821 C9.56081301,2.95639024 8.91694309,2.39495935 8.82404065,2.07439837 C8.69626016,1.63430081 8.91504065,1.11218699 8.86843089,0.657292683 C8.8340813,0.321617886 8.30520325,0.318341463 8.33997561,0.657292683 L8.33997561,0.657292683 Z" id="Path"></path>
                                        <path d="M4.34495935,0.852715447 C4.25892683,1.54488618 4.39960163,2.86581301 5.27673171,2.99517886 C6.50179675,3.17601626 6.51120325,1.51360163 6.62397561,0.727365854 C6.67174797,0.394227642 6.16263415,0.250699187 6.11433333,0.586796748 C6.04246341,1.0884065 6.1218374,2.41493496 5.41539837,2.47792683 C4.83050407,2.53013821 4.82955285,1.2055122 4.87341463,0.852715447 C4.91547967,0.515243902 4.38649593,0.519154472 4.34495935,0.852715447 L4.34495935,0.852715447 Z" id="Path"></path>
                                        <path d="M1.11356098,0.839292683 C1.3850813,1.48749593 0.79395122,2.82226829 1.78543902,3.07782927 C2.97002439,3.38295935 2.97636585,1.52057724 2.97361789,0.824918699 C2.9722439,0.484065041 2.44378862,0.484065041 2.4451626,0.824918699 C2.44653659,1.17539024 2.44917886,1.52681301 2.39506504,1.87421951 C2.36420325,2.07154472 2.14891057,2.8434065 1.81598374,2.50625203 C1.62669106,2.31452846 1.68386992,1.81820325 1.68482114,1.57712195 C1.68598374,1.30031707 1.73301626,0.961365854 1.62309756,0.698723577 C1.49362602,0.389365854 0.98197561,0.52496748 1.11356098,0.839292683 L1.11356098,0.839292683 Z" id="Path"></path>
                                        <path d="M2.22173171,4.17722764 C2.20281301,5.01630894 2.72482114,5.97704065 3.55978049,6.22869106 C4.69194309,6.56996748 5.2638374,5.1917561 5.23656911,4.31695122 C5.22589431,3.97694309 4.69743902,3.97588618 4.70811382,4.31695122 C4.72766667,4.94369919 4.4353252,5.94068293 3.60395935,5.69008943 C3.04823577,5.5226748 2.73856098,4.69553659 2.75018699,4.17722764 C2.75779675,3.83626829 2.22934146,3.83711382 2.22173171,4.17722764 L2.22173171,4.17722764 Z" id="Path"></path>
                                        <path d="M6.10503252,4.17722764 C6.06761789,5.06344715 6.54565854,5.90982114 7.52752846,5.84904878 C8.47853659,5.79039024 9.08013008,4.9045935 9.06395935,4.00960163 C9.05782927,3.66917073 8.52926829,3.66853659 8.53550407,4.00960163 C8.54660163,4.62831707 8.2219187,5.16068293 7.60108943,5.30865041 C6.87668293,5.4812439 6.6087561,4.76074797 6.6334878,4.17722764 C6.64786179,3.83647967 6.11930081,3.83785366 6.10503252,4.17722764 L6.10503252,4.17722764 Z" id="Path"></path>
                                        <path d="M9.9603252,3.87008943 C10.0066179,4.81570732 10.7228862,5.67698374 11.7045447,5.6904065 C12.6511138,5.7034065 13.2109593,4.5819187 13.1707967,3.75826829 C13.1543089,3.41910569 12.625748,3.41741463 12.6423415,3.75826829 C12.670878,4.34284553 12.3529593,5.0924065 11.7045447,5.16195122 C11.0237886,5.23477236 10.5178455,4.4660813 10.4887805,3.87008943 C10.472187,3.53092683 9.94373171,3.52934146 9.9603252,3.87008943 L9.9603252,3.87008943 Z" id="Path"></path>
                                        <path d="M4.34495935,5.85369919 C4.58012195,7.76480488 7.39298374,7.48694309 7.35979675,5.60226016 C7.35377236,5.26182927 6.82531707,5.26119512 6.83134146,5.60226016 C6.8521626,6.78906504 5.02708943,7.10296748 4.87341463,5.85369919 C4.8324065,5.51992683 4.30342276,5.51591057 4.34495935,5.85369919 L4.34495935,5.85369919 Z" id="Path"></path>
                                        <path d="M7.73489431,5.50396748 C7.41898374,6.39430894 8.51077236,6.83356098 9.19966667,6.92434959 C10.2650325,7.0649187 10.6459431,5.94882114 10.8145203,5.11354472 C10.8818455,4.78082927 10.3724146,4.63920325 10.3050894,4.97297561 C10.200878,5.48885366 10.0572439,6.36968293 9.39286992,6.40498374 C9.00878862,6.42538211 8.05482114,6.1784878 8.2443252,5.64453659 C8.35868293,5.32249593 7.84787805,5.18530894 7.73489431,5.50396748 L7.73489431,5.50396748 Z" id="Path"></path>
                                        <path d="M6.35647154,6.63581301 C6.37021138,7.35229268 6.87964228,8.11717886 7.65393496,8.16114634 C8.51256911,8.2100813 9.02569919,7.48134146 9.16626829,6.70620325 C9.22672358,6.37306504 8.71750407,6.2305935 8.6568374,6.56563415 C8.56869106,7.05160163 8.32982927,7.60330894 7.76945528,7.6392439 C7.23666667,7.6734878 6.89369919,7.09609756 6.88492683,6.63581301 C6.87837398,6.2955935 6.3499187,6.29485366 6.35647154,6.63581301 L6.35647154,6.63581301 Z" id="Path"></path>
                                        <path d="M3.62795122,7.87852846 C3.53261789,8.16695935 3.65934146,8.45285366 3.83510569,8.67839837 C3.99300813,8.88111382 4.30331707,9.05455285 4.56120325,8.94674797 C4.91347154,8.79952033 5.01482927,8.35889431 4.87172358,8.02850407 C4.72333333,7.68585366 4.31895935,7.4513252 3.95221138,7.58217073 C3.63355285,7.69589431 3.77084553,8.2065935 4.09256911,8.09181301 C4.23387805,8.04139837 4.33544715,8.13535772 4.40002439,8.25965041 C4.42813821,8.31355285 4.40530894,8.37569919 4.38818699,8.42791057 C4.37360163,8.47272358 4.39104065,8.43509756 4.36292683,8.46426829 C4.37286179,8.45369919 4.38512195,8.44756911 4.39981301,8.44587805 C4.36979675,8.4534878 4.37117073,8.45454472 4.40414634,8.44915447 C4.33745528,8.45539024 4.44980488,8.46363415 4.38173984,8.44693496 C4.35299187,8.43721138 4.35034959,8.43678862 4.37413008,8.44608943 C4.35817073,8.43805691 4.34252846,8.42917886 4.32741463,8.41966667 C4.30331707,8.40518699 4.23419512,8.33796748 4.21347967,8.30943089 C4.17056911,8.24982114 4.15313008,8.21282927 4.13526829,8.15522764 C4.11370732,8.08589431 4.11656098,8.08272358 4.13769919,8.01899187 C4.24486992,7.69462602 3.7344878,7.55669919 3.62795122,7.87852846 L3.62795122,7.87852846 Z" id="Path"></path>
                                        <path d="M11.8306341,6.26917073 C11.4905203,6.41100813 11.3154959,6.73833333 11.3630569,7.10413008 C11.4072358,7.44477236 11.6420813,7.81014634 12.0314472,7.77209756 C12.9488455,7.68268293 13.0054959,6.13610569 12.0125285,6.14794309 C11.6719919,6.15206504 11.6715691,6.68052033 12.0125285,6.67639837 C12.3476748,6.6724878 12.2454715,7.17346341 11.9929756,7.2469187 C11.9791301,7.25082927 11.9896992,7.25970732 11.9571463,7.22895122 C11.9197317,7.19365041 11.9033496,7.13541463 11.887813,7.06692683 C11.8684715,6.98226829 11.8870732,6.81369106 11.9708862,6.77870732 C12.1038455,6.72343089 12.1973821,6.60590244 12.1554228,6.45360163 C12.1210732,6.32825203 11.9636992,6.21368293 11.8306341,6.26917073 L11.8306341,6.26917073 Z" id="Path"></path>
                                        <path d="M8.89231707,9.18687805 C8.66127642,9.4781626 8.62745528,9.86847967 8.83196748,10.1874553 C9.0456748,10.5205935 9.46801626,10.5749187 9.7641626,10.3154472 C10.220748,9.91561789 10.0641138,8.74572358 9.28823577,9.03521138 C8.97200813,9.15326829 9.10887805,9.66417886 9.42880488,9.54485366 C9.42256911,9.54707317 9.52625203,9.51758537 9.48217886,9.52297561 C9.54443089,9.51557724 9.44497561,9.49443902 9.49063415,9.52033333 C9.47182114,9.50955285 9.47626016,9.51208943 9.48788618,9.53312195 C9.46791057,9.49634146 9.49908943,9.58427642 9.50194309,9.59769919 C9.49274797,9.55246341 9.50278862,9.64536585 9.50268293,9.64399187 C9.50310569,9.65910569 9.49539024,9.74386992 9.49845528,9.7251626 C9.48418699,9.81066667 9.47256098,9.84015447 9.43134146,9.90578862 C9.39022764,9.97142276 9.32501626,9.971 9.28823577,9.92090244 C9.22038211,9.82842276 9.18402439,9.66407317 9.26593496,9.56070732 C9.35534959,9.44804065 9.3764878,9.29753659 9.26593496,9.18708943 C9.17292683,9.09376423 8.9818374,9.07378862 8.89231707,9.18687805 L8.89231707,9.18687805 Z" id="Path"></path>
                                        <path d="M5.20454472,10.5277805 C4.91125203,10.7651626 4.92034146,11.1759837 5.15095935,11.4525772 C5.4068374,11.7597154 5.81512195,11.7956504 6.14530081,11.5923008 C6.78673984,11.197439 6.42453659,10.109561 5.67074797,10.1988699 C5.52774797,10.2157805 5.40652033,10.306252 5.40652033,10.4630976 C5.40652033,10.5941545 5.52743089,10.7442358 5.67074797,10.7273252 C5.90073171,10.7000569 6.05757724,10.9540325 5.88466667,11.1299024 C5.71133333,11.3064065 5.3701626,11.0698699 5.5781626,10.9013984 C5.6904065,10.8108211 5.67201626,10.6217398 5.5781626,10.5277805 C5.46845528,10.4179675 5.31636585,10.4374146 5.20454472,10.5277805 L5.20454472,10.5277805 Z" id="Path"></path>
                                        <path d="M14.0607154,4.66118699 C13.626748,5.00056098 13.7550569,5.83182114 14.3949106,5.73373984 C14.9609919,5.64707317 15.1328455,4.65230894 14.541187,4.48130081 C14.213122,4.38660163 14.0740325,4.89645528 14.4008293,4.99094309 C14.3887805,4.98745528 14.3433333,4.9411626 14.3843415,4.98143089 C14.3456585,4.9434878 14.3897317,5.01863415 14.3741951,4.97276423 C14.3975528,5.0416748 14.3767317,4.93439837 14.3815935,5.01049593 C14.3814878,5.0085935 14.3759919,5.09906504 14.3825447,5.05657724 C14.3658455,5.16639024 14.3532683,5.19978862 14.2544472,5.22399187 C14.2700894,5.22029268 14.3266341,5.23286992 14.2773821,5.21944715 C14.308878,5.22790244 14.3209268,5.24111382 14.3396341,5.26605691 C14.3289593,5.25178862 14.3282195,5.25020325 14.3271626,5.22515447 C14.3240976,5.15307317 14.3463984,5.10339837 14.434439,5.0345935 C14.5480569,4.94560163 14.5270244,4.75345528 14.434439,4.66097561 C14.3233577,4.55010569 14.1740163,4.5724065 14.0607154,4.66118699 L14.0607154,4.66118699 Z" id="Path"></path>
                                        <path d="M11.7394228,10.0674959 C11.1770407,10.3581463 11.4707561,11.4462358 12.1350244,11.168374 C12.6608374,10.9483252 12.7149512,9.99404065 12.082813,9.87323577 C11.7498862,9.80960976 11.6078374,10.318935 11.9422439,10.382878 C11.9450976,10.3833008 12.023626,10.4123659 11.9880081,10.3936585 C11.9512276,10.3742114 12.0132683,10.4263171 11.9889593,10.3921789 C12.0274309,10.4462927 11.9866341,10.365122 12.0079837,10.4296992 C12.0081951,10.4305447 12.0207724,10.5154146 12.0174959,10.4736667 C12.0244715,10.5628699 12.0062927,10.6256504 11.9463659,10.6817724 C11.9726829,10.657252 11.9325203,10.6646504 11.970252,10.6819837 C12.0039675,10.697626 11.9504878,10.6516504 11.9710976,10.6834634 C11.9921301,10.7163333 11.9609512,10.6487967 11.9593659,10.6419268 C11.9484797,10.5958455 11.9786016,10.5381382 12.0062927,10.5236585 C12.3089919,10.3672358 12.0416992,9.91117886 11.7394228,10.0674959 L11.7394228,10.0674959 Z" id="Path"></path>
                                        <path d="M1.64317886,6.11126829 C1.50482927,6.29189431 1.52839837,6.57715447 1.60956911,6.77595935 C1.72371545,7.05508943 1.94281301,7.23074797 2.25301626,7.18593496 C2.55191057,7.14281301 2.73644715,6.84180488 2.64449593,6.56087805 C2.5669187,6.32370732 2.35490244,6.11454472 2.14447154,5.98866667 C1.85139024,5.81321951 1.58578862,6.27022764 1.87781301,6.44482927 C1.94281301,6.48382927 2.03804065,6.56415447 2.09268293,6.63866667 C2.11022764,6.66244715 2.1249187,6.68823577 2.1390813,6.71402439 C2.12121951,6.68157724 2.14595122,6.79286992 2.14373171,6.72850407 C2.1415122,6.66223577 2.20038211,6.65399187 2.11255285,6.67629268 C2.12999187,6.67195935 2.18526829,6.68305691 2.13517073,6.66804878 C2.15155285,6.67301626 2.19298374,6.70852846 2.15260976,6.67195935 C2.13717886,6.65790244 2.10895935,6.61044715 2.09923577,6.58339024 C2.07165041,6.50655285 2.07471545,6.49355285 2.07471545,6.4384878 C2.07471545,6.36069919 2.06213821,6.4822439 2.07841463,6.41121951 C2.08750407,6.37179675 2.05981301,6.43003252 2.09965854,6.37803252 C2.1874878,6.26346341 2.11741463,6.08262602 2.00485366,6.01656911 C1.86882927,5.93687805 1.73069106,5.99733333 1.64317886,6.11126829 L1.64317886,6.11126829 Z" id="Path"></path>
                                    </g>
                                </g>
                            </g>
                        </g>
                    </g>
                </g>
                <g id="Group-21" transform="translate(116.428842, 126.524515) scale(-1, 1) translate(-116.428842, -126.524515) translate(48.928842, 46.524515)">
                    <path d="M45.6544681,159.910355 L45.6544681,159.910355 C47.9182979,159.910355 49.7537589,158.074894 49.7537589,155.811064 L49.7537589,74.0896454 L41.5551773,74.0896454 L41.5551773,155.811064 C41.5551773,158.074894 43.3906383,159.910355 45.6544681,159.910355" id="Fill-4" fill="#6791C9"></path>
                    <path d="M49.7537589,74.0896454 L41.5551773,74.0896454 L41.5551773,155.811064 C41.5551773,158.074894 43.3906383,159.910355 45.6544681,159.910355 L45.6544681,95.3174468 C45.6544681,93.8740426 46.8243972,92.7041135 48.267234,92.7041135 L49.7537589,92.7041135 L49.7537589,74.0896454" id="Fill-5" fill="#2E5B9A"></path>
                    <path d="M24.5055319,19.5086525 L24.5055319,19.5086525 C10.9713475,19.5086525 -1.61257926e-14,30.48 -1.61257926e-14,44.0141844 L-1.61257926e-14,68.5668085 C-1.61257926e-14,71.6170213 2.47262411,74.0896454 5.52283688,74.0896454 L83.5965957,74.0896454 L83.5965957,19.5086525 L24.5055319,19.5086525" id="Fill-6" fill="#9EC8FF"></path>
                    <path d="M-1.61257926e-14,50.9656738 L-1.61257926e-14,68.5668085 C-1.61257926e-14,71.6170213 2.47262411,74.0896454 5.52283688,74.0896454 L83.5965957,74.0896454 L83.5965957,50.9656738 L-1.61257926e-14,50.9656738" id="Fill-7" fill="#75A1DE"></path>
                    <path d="M108.102128,74.0896454 L59.0910638,74.0896454 L59.0910638,44.0141844 C59.0910638,30.48 70.0624113,19.5086525 83.5965957,19.5086525 C97.1307801,19.5086525 108.102128,30.48 108.102128,44.0141844 L108.102128,74.0896454" id="Fill-8" fill="#E7F3FE"></path>
                    <path d="M62.8470922,74.0896454 L62.8470922,44.0141844 C62.8470922,32.5724823 72.155461,23.2641135 83.5965957,23.2641135 C95.0377305,23.2641135 104.346099,32.5724823 104.346099,44.0141844 L104.346099,74.0896454 L62.8470922,74.0896454" id="Fill-9" fill="#2E5B9A"></path>
                    <path d="M132.756879,69.6686525 L0.110638298,69.6686525 C0.621276596,72.1906383 2.84992908,74.0896454 5.5222695,74.0896454 L132.756879,74.0896454 C133.977872,74.0896454 134.967376,73.1001418 134.967376,71.8791489 C134.967376,70.658156 133.977872,69.6686525 132.756879,69.6686525" id="Fill-10" fill="#303C60"></path>
                    <path d="M104.413617,74.0896454 L89.5869504,74.0896454 C88.1628369,74.0896454 87.0087943,75.2436879 87.0087943,76.6678014 C87.0087943,78.0919149 88.1628369,79.2459574 89.5869504,79.2459574 L104.413617,79.2459574 C105.837163,79.2459574 106.991773,78.0919149 106.991773,76.6678014 C106.991773,75.2436879 105.837163,74.0896454 104.413617,74.0896454" id="Fill-11" fill="#303C60"></path>
                    <path d="M89.5869504,74.0896454 L89.5869504,74.0896454 C88.1628369,74.0896454 87.0087943,75.2436879 87.0087943,76.6678014 C87.0087943,78.0919149 88.1628369,79.2459574 89.5869504,79.2459574 C91.0104965,79.2459574 92.1651064,78.0919149 92.1651064,76.6678014 C92.1651064,75.2436879 91.0104965,74.0896454 89.5869504,74.0896454" id="Fill-12" fill="#9EC8FF"></path>
                    <path d="M44.5895035,50.7846809 L42.089078,50.7846809 L42.089078,1.24992908 C42.089078,0.559432624 42.6485106,-3.22515852e-14 43.3390071,-3.22515852e-14 C44.0295035,-3.22515852e-14 44.5895035,0.559432624 44.5895035,1.24992908 L44.5895035,50.7846809" id="Fill-13" fill="#CCE2FF"></path>
                    <path d="M43.3390071,45.0746099 C40.1855319,45.0746099 37.6289362,47.6312057 37.6289362,50.7846809 C37.6289362,53.9387234 40.1855319,56.4947518 43.3390071,56.4947518 C46.4930496,56.4947518 49.049078,53.9387234 49.049078,50.7846809 C49.049078,47.6312057 46.4930496,45.0746099 43.3390071,45.0746099" id="Fill-14" fill="#6791C9"></path>
                    <path d="M42.089078,2.2751773 L33.5279433,6.6587234 C31.7588652,7.56425532 31.7611348,10.0930496 33.5319149,10.9957447 L42.0289362,15.3265248 L42.089078,2.2751773" id="Fill-16" fill="#75A1DE"></path>
                </g>
            </g>
        </g>
    </g>
</svg>