<?xml version="1.0" encoding="UTF-8"?>
<svg width="260px" height="203px" viewBox="0 0 260 203" version="1.1" xmlns="http://www.w3.org/2000/svg" xmlns:xlink="http://www.w3.org/1999/xlink">
    <title>11136</title>
    <defs>
        <path d="M0.806564956,11.1596856 C0.414701803,11.1596856 0.0973647712,10.8411466 0.0973647712,10.4492834 L0.0973647712,0.771705964 C0.0973647712,0.379722607 0.414701803,0.0620249653 0.806564956,0.0620249653 L10.5718909,0.0620249653 C10.963754,0.0620249653 11.2810911,0.379722607 11.2810911,0.771705964 C11.2810911,1.16356912 10.963754,1.48126676 10.5718909,1.48126676 L1.51696718,1.48126676 L1.51696718,10.4492834 C1.51696718,10.8411466 1.19842811,11.1596856 0.806564956,11.1596856 L0.806564956,11.1596856 Z" id="path-1"></path>
    </defs>
    <g id="Page-1" stroke="none" stroke-width="1" fill="none" fill-rule="evenodd">
        <g id="11-copy-22" transform="translate(-77.000000, -392.000000)">
            <g id="Group-4" transform="translate(40.000000, 392.000000)">
                <g id="11136" transform="translate(37.000000, 0.000000)">
                    <path d="M19.3074341,202.36246 C19.3074341,202.36246 -15.8200925,157.027739 20.8128618,117.558946 C61.5268423,73.6931114 23.0593435,24.6152566 63.6259547,7.14344891 C94.9054092,-6.32846972 112.146186,2.13589459 131.822284,10.6002589 C148.130282,17.6158114 166.11031,24.6313638 195.143042,19.156699 C248.635969,9.06946833 247.500046,87.8868516 231.690892,116.014332 C218.582709,139.3362 269.101803,150.894961 243.243643,202.256681 L19.3074341,202.36246" id="Fill-2" fill="#EDF2FF"></path>
                    <path d="M162.510217,67.9708276 L157.208044,67.9708276 C161.202404,60.5612483 167.997503,52.4329727 179.003329,50.5861674 C179.003329,50.5861674 179.19926,50.5563569 179.521405,50.5563569 C180.680166,50.5563569 183.470088,50.9420897 184.656496,54.4880906 C186.171059,59.0203606 177.91669,59.2926214 172.865742,61.2797041 C170.423209,62.2410911 166.428849,64.6438373 162.510217,67.9708276" id="Fill-3" fill="#D9E5FC"></path>
                    <path d="M153.633195,67.9708276 L151.528433,67.9708276 C152.153491,60.7819417 154.777531,50.7022839 164.051225,45.6660009 C164.051225,45.6660009 164.819325,45.2634397 165.884327,45.2634397 C166.924087,45.2634397 168.246325,45.6473694 169.409894,47.1658992 C171.764679,50.2390199 165.511697,52.6228941 162.166436,55.4760425 C159.892187,57.4160055 156.021637,62.3429034 153.633195,67.9708276" id="Fill-4" fill="#D9E5FC"></path>
                    <path d="M65.3648174,68.0455941 C67.9678225,60.6391401 80.5471105,63.9395654 80.5471105,63.9395654 C80.5471105,63.9395654 88.2329172,77.8021452 90.7283403,78.3024318 C93.2249653,78.8027184 86.4719371,65.1670828 86.4719371,65.1670828 C91.387055,65.0540915 103.384558,71.9525659 103.384558,71.9525659 C103.384558,71.9525659 101.461304,87.3238188 104.003606,87.1943597 C106.545908,87.0650208 105.012113,73.4969394 105.012113,73.4969394 C109.63153,75.2616459 113.634304,81.0965603 113.634304,81.0965603 C118.48331,90.4765141 106.188904,96.2198336 106.188904,96.2198336 C106.188904,96.2198336 105.637171,101.561193 108.492002,107.945076 C108.492002,107.945076 109.154323,109.133888 109.770966,111.116043 L108.483588,111.021082 C108.403051,110.668886 108.311697,110.326306 108.20712,109.996949 L108.205918,109.990939 L108.20111,109.976514 C108.127785,109.770966 108.020804,109.47767 107.888581,109.121868 L107.888581,109.120666 L107.887379,109.118262 C107.550809,108.318909 107.327231,107.731114 107.188997,107.307998 L107.187795,107.304392 C106.187702,104.799353 104.721221,101.524891 103.636986,100.780832 C103.636986,100.780832 103.794452,100.590911 103.955525,100.210467 C103.854554,100.392335 103.747573,100.582016 103.636986,100.780832 C101.085067,105.34147 90.0059177,105.317429 83.9584836,103.605733 C77.9110495,101.894637 80.7153953,100.35976 84.2289413,97.7923347 C87.7412853,95.2249098 94.6145169,96.4758669 96.7421174,95.5243366 C98.869718,94.5729265 95.9595932,93.2506889 91.843828,93.2642718 C87.7268608,93.2777346 85.378086,97.220527 78.7200185,97.3635691 C72.060749,97.506491 67.9377716,84.6977346 67.9377716,84.6977346 C72.3997226,86.4509015 80.7718909,84.5344984 81.2034212,82.983153 C81.6337494,81.4319279 69.4992141,80.6970042 67.6444753,80.0856496 C65.7899769,79.4741748 62.7618123,75.4521683 65.3648174,68.0455941" id="Fill-5" fill="#CDE0FB"></path>
                    <path d="M46.0867129,184.461766 C41.5263153,176.507906 54.0436986,167.908553 54.0436986,167.908553 C54.0436986,167.908553 72.1629219,171.693759 74.5104947,169.869071 C76.8568655,168.045585 59.6505871,163.607675 59.6505871,163.607675 C63.3021267,159.175774 78.5565418,153.836338 78.5565418,153.836338 C78.5565418,153.836338 90.6766528,167.266667 92.5013407,164.920296 C94.3272307,162.575127 81.163754,153.575497 81.163754,153.575497 C86.2483588,150.839667 94.4606565,151.754415 94.4606565,151.754415 C106.453352,154.626075 102.147665,169.877485 102.147665,169.877485 C102.147665,169.877485 106.448544,174.441609 114.268978,176.790384 C114.268978,176.790384 115.825613,177.111327 118.049376,178.080166 L116.983172,179.145169 C116.609339,178.946833 116.23791,178.766528 115.86528,178.606657 L115.85927,178.604253 L115.842441,178.597041 C115.60564,178.505687 115.265465,178.375867 114.849561,178.220804 L114.847157,178.220804 L114.845955,178.219602 C113.881923,177.908276 113.190754,177.65705 112.712344,177.455109 L112.707536,177.453907 C109.730097,176.427369 105.716505,175.224133 104.231993,175.613592 C104.231993,175.613592 104.183911,175.329912 103.971151,174.89718 C104.054092,175.125566 104.140638,175.363569 104.231993,175.613592 C106.315118,181.350902 97.8395747,191.125844 91.7104022,195.164679 C85.5824318,199.204716 86.3661581,195.554138 86.7772538,190.489968 C87.1895515,185.424595 93.5398983,180.30393 94.3236246,177.696718 C95.1061489,175.089505 91.7164124,176.653352 88.5863153,180.302728 C85.4562182,183.952104 87.1498844,189.036708 82.1938974,195.032455 C77.2391123,201.027 62.7702265,194.895423 62.7702265,194.895423 C67.7250116,192.290615 72.4201572,183.426815 71.3779935,181.861766 C70.3358299,180.29792 60.4249376,190.462321 58.4691077,191.635506 C56.5133981,192.808692 50.6471105,192.415626 46.0867129,184.461766" id="Fill-6" fill="#AFCDFB"></path>
                    <path d="M191.97448,110.489783 C185.257513,110.489783 174.910402,107.841701 173.466759,102.803976 C173.132594,102.933796 172.731114,103.230698 172.29117,103.640592 L172.29117,76.9567545 C174.171151,75.8088118 176.444198,74.7222931 178.652335,74.4249098 C178.652335,74.4249098 173.793712,88.0009246 176.375682,88.7488303 C176.43338,88.7656588 176.491077,88.7739528 176.548775,88.7738326 C179.034582,88.77227 180.698197,73.2309293 180.698197,73.2309293 C180.698197,73.2309293 191.179935,70.0945816 197.261026,70.0945816 C198.207027,70.0945816 199.048451,70.1707906 199.725196,70.346528 C199.725196,70.346528 189.486269,82.7298844 192.172816,82.8191956 C192.182432,82.8195562 192.192048,82.8196764 192.201664,82.8196764 C194.939898,82.819436 206.112806,70.5175774 206.112806,70.5175774 C206.112806,70.5175774 206.195747,70.515534 206.352011,70.515534 C208.185113,70.515534 219.909755,70.8133981 220.724734,78.4103745 C221.609431,86.6533241 217.523717,90.0553213 215.469441,90.2352658 C215.387702,90.242478 215.286731,90.2458437 215.171336,90.2458437 C214.201294,90.2458437 212.127785,90.0050763 209.852335,89.7643088 C207.575682,89.5235414 205.097087,89.2827739 203.314471,89.2827739 C201.817938,89.2827739 200.813037,89.4525012 200.83227,89.9346371 C200.894776,91.4948775 207.768007,94.9919556 212.769672,94.9918354 C213.214424,94.9918354 213.643551,94.9641886 214.052242,94.905289 C214.052242,94.905289 207.671845,105.490522 201.287841,105.490522 C200.82626,105.490522 200.364679,105.435229 199.906704,105.317429 C193.095978,103.560055 191.636708,98.9389552 187.407952,97.9293666 C186.011188,97.5958021 184.714193,97.4439852 183.674434,97.4439852 C181.567268,97.4439852 180.514286,98.0682016 181.825705,99.067693 C183.782617,100.560379 191.149884,100.936736 194.140546,104.42552 C197.131207,107.915025 199.642256,110.170042 193.011835,110.466944 C192.67767,110.482571 192.331484,110.489783 191.97448,110.489783 M173.276838,102.140453 C173.351364,102.569579 173.466759,102.803976 173.466759,102.803976 C173.400647,102.571983 173.336939,102.352011 173.276838,102.140453" id="Fill-7" fill="#CDE0FB"></path>
                    <path d="M215.769949,183.8319 C212.799723,183.8319 210.68294,182.751271 209.81387,181.647804 C208.074526,179.442071 201.317892,163.958669 199.042441,163.958669 C198.94748,163.958669 198.859732,163.985113 198.7816,164.041609 C196.817476,165.444383 198.412575,178.215996 203.169025,183.598706 C203.169025,183.598706 202.779565,183.614332 202.100416,183.614332 C199.469163,183.614332 192.490153,183.393158 186.953583,181.236708 C188.05104,180.579196 189.221822,179.942117 189.693019,178.746093 C189.693019,178.746093 191.784558,171.765881 185.691447,171.560333 C185.658992,171.559131 185.626537,171.559131 185.595284,171.559131 C185.038742,171.559131 184.448544,171.720203 183.836708,172.014702 C183.268146,171.497827 182.418308,171.156449 181.181415,171.114378 C181.150162,171.114378 181.118909,171.113176 181.087656,171.113176 C180.449376,171.113176 179.752196,171.330744 179.015349,171.72381 C179.058622,171.134813 179.030975,170.555432 178.955247,169.881091 C180.728248,169.131022 181.830513,167.416921 181.830513,167.416921 C181.830513,167.416921 179.611558,166.053814 178.641516,165.786963 C178.945631,161.404346 180.157282,157.960518 178.848266,154.330374 C177.337309,150.137679 175.167638,147.189089 173.984836,147.189089 C173.531669,147.189089 173.222746,147.624226 173.15423,148.590661 C172.92945,151.736385 177.214702,159.405363 176.71706,165.475636 C176.165326,165.40712 175.833564,165.383079 175.827554,165.383079 C176.31558,165.737679 176.094406,166.147573 175.510217,166.294221 C175.478964,166.302635 175.453722,166.307443 175.440499,166.309847 C175.368377,166.324272 175.290245,166.331484 175.206103,166.331484 C174.464448,166.331484 173.306889,165.804993 172.29117,165.250855 L172.29117,122.403144 C174.577439,119.496625 177.886639,117.266852 182.665927,117.266852 C183.348682,117.266852 184.063893,117.312529 184.807952,117.40749 C184.807952,117.40749 195.07693,120.051965 199.930744,125.65104 C199.930744,125.65104 180.03828,130.448359 181.159778,134.095331 C181.324457,134.630236 181.909847,134.858622 182.790939,134.858622 C187.904392,134.858622 202.939436,127.151179 202.939436,127.151179 C202.939436,127.151179 218.805086,140.508183 221.167083,147.487194 C221.167083,147.487194 212.814147,146.560425 206.694591,146.560425 C202.73509,146.560425 199.708368,146.948682 200.488488,148.228849 C202.471845,151.486362 225.933148,155.200647 225.933148,155.200647 C225.933148,155.200647 237.030328,171.221359 227.935737,178.683588 C223.206935,182.564956 218.987795,183.8319 215.769949,183.8319" id="Fill-8" fill="#DFEBFA"></path>
                    <path d="M88.1367545,122.688026 C87.7052242,123.849191 86.9563569,125.196671 86.1714286,125.530837 C85.2807212,125.91068 84.9092926,126.447989 84.9092926,126.447989 L84.1904762,126.030883 L83.3322238,125.530837 C83.3322238,125.530837 83.3526583,125.435876 83.3947295,125.280814 C83.4355987,125.125751 83.5005086,124.910587 83.587055,124.671382 C83.587055,124.671382 83.8503005,124.333611 83.6892279,123.908091 C83.5281553,123.482571 83.5606103,122.82626 83.8358761,122.425982 C84.1111419,122.025705 84.3767915,121.038835 84.5426722,121.068886 C84.9441516,121.137402 84.3455386,122.493296 84.5174295,122.744521 C84.6724919,122.971706 84.8672215,122.893574 84.9032825,122.876745 L84.9092926,122.873139 C86.0355987,122.377901 87.4023116,119.706981 88.0069348,120.067591 C88.2329172,120.202219 88.3206657,122.19399 88.1367545,122.688026" id="Fill-9" fill="#FFB27D"></path>
                    <path d="M84.2397596,124.304762 L85.6509478,125.29644 C85.7507166,125.36736 85.8889505,125.342117 85.9586685,125.242349 L89.5743874,120.098844 C89.6441054,119.999075 89.6200647,119.859639 89.5202959,119.789921 L88.1091077,118.798243 C88.0093389,118.728525 87.8711049,118.752566 87.8001849,118.852335 L84.1856681,123.995839 C84.1159501,124.095608 84.1399908,124.235044 84.2397596,124.304762" id="Fill-10" fill="#2B478B"></path>
                    <path d="M85.5307443,125.212298 L86.3589459,125.794082 C86.4346741,125.848174 86.5404531,125.828941 86.5933426,125.753213 L90.2691632,120.523162 C90.3232547,120.446232 90.3040222,120.340453 90.228294,120.287564 L89.4012945,119.705779 C89.3255663,119.65289 89.2197873,119.67092 89.1668978,119.74785 L85.4898752,124.977901 C85.4369857,125.053629 85.4550162,125.159408 85.5307443,125.212298" id="Fill-11" fill="#233862"></path>
                    <path d="M63.9934166,116.92307 C63.9934166,116.92307 71.1748497,129.448266 73.7796579,131.752566 L83.3322238,124.631715 C83.3322238,124.631715 84.7181692,125.056033 85.3251965,126.447989 C85.3251965,126.447989 79.5241794,138.266389 73.8133148,138.767638 C68.1012483,139.267684 60.0856033,124.601664 60.0856033,124.601664 L63.9934166,116.92307" id="Fill-12" fill="#D54A41"></path>
                    <path d="M47.7429958,202.112436 L43.5938141,202.112436 C43.0715303,201.828756 42.6061026,201.179658 42.4589736,200.210818 C42.2564309,198.874156 40.7582154,198.145724 40.4340268,197.051872 C40.1104392,195.959223 41.7706889,194.42062 41.7706889,194.42062 L42.048479,194.062413 L42.337448,193.690985 L45.0913084,194.338881 C45.0913084,194.338881 45.1595839,194.995192 45.2008137,195.830606 C45.2308645,196.432825 45.2466112,197.130005 45.212834,197.740638 C45.1318169,199.198706 45.6203236,200.768562 46.9158761,201.052242 C47.8735368,201.261396 47.8308645,201.829958 47.7429958,202.112436" id="Fill-13" fill="#233862"></path>
                    <path d="M71.8227462,202.112436 L62.3340083,202.112436 C61.8775959,201.555895 62.0457605,199.500416 62.1148775,198.829681 C62.1290615,198.693851 62.138798,198.615719 62.138798,198.615719 C62.138798,198.615719 65.3790014,196.024133 65.8241147,198.008692 C65.8376976,198.069995 65.8541655,198.131299 65.872196,198.191401 C66.4328248,200.047342 68.9474804,200.89117 70.4007397,201.125566 C71.3443366,201.279427 71.6941285,201.769857 71.8227462,202.112436" id="Fill-14" fill="#233862"></path>
                    <path d="M70.0148867,149.147203 C70.0148867,149.147203 69.5232547,155.285992 68.9438742,162.66528 C68.1589459,172.687841 67.212945,185.000277 67.1197873,187.333426 C66.9582339,191.383079 66.3094961,197.862043 66.3094961,197.862043 C66.3094961,197.862043 64.7714933,199.400647 61.6932039,198.752751 C61.6932039,198.752751 58.9500416,189.5043 58.1665557,179.718539 C58.1544152,179.558669 58.1421544,179.396394 58.1301341,179.235321 C57.4012205,169.274064 56.2677023,148.297365 56.2677023,148.297365 L70.0148867,149.147203" id="Fill-15" fill="#75A1DE"></path>
                    <path d="M70.0148867,149.147203 C70.0148867,149.147203 69.5232547,155.285992 68.9438742,162.66528 L58.1665557,179.718539 C58.1544152,179.558669 58.1421544,179.396394 58.1301341,179.235321 C57.4012205,169.274064 56.2677023,148.297365 56.2677023,148.297365 L70.0148867,149.147203" id="Fill-16" fill="#6791C9"></path>
                    <path d="M67.7682848,149.876838 C67.7682848,149.876838 58.8996764,172.107258 53.0684882,182.55534 C47.2373,193.002219 45.4150162,195.918354 45.4150162,195.918354 C45.4150162,195.918354 42.0743227,194.581692 41.7705687,193.67055 C41.7705687,193.67055 44.0004623,173.501618 47.9055109,168.585298 C50.1120851,165.806195 52.7040314,157.468886 52.8255571,154.553953 C52.9470828,151.637818 53.6151734,145.868054 53.6151734,145.868054 L67.7682848,149.876838" id="Fill-17" fill="#75A1DE"></path>
                    <path d="M65.5602681,117.467591 C62.0949237,118.561442 56.0985761,115.610448 56.0985761,115.610448 C56.0985761,115.610448 59.2937032,113.21239 59.12638,108.226352 L63.6259547,111.851687 C63.6259547,111.851687 63.6185021,112.717152 63.4196856,114.231715 C63.3671567,114.630791 63.8168377,115.509478 64.206417,116.004716 C65.2569949,117.33657 65.5602681,117.467591 65.5602681,117.467591" id="Fill-18" fill="#FFB27D"></path>
                    <path d="M63.6259547,111.851687 C63.6259547,111.851687 63.6185021,112.717152 63.4196856,114.231715 C61.4027924,113.886731 59.1150809,110.626815 59.1150809,110.626815 C60.1418585,110.329912 61.0411003,110.277023 61.8059547,110.385206 L63.6259547,111.851687" id="Fill-19" fill="#ED975D"></path>
                    <path d="M64.6857883,111.769949 C64.6857883,111.769949 58.9617013,112.720758 58.424392,109.14711 C57.8870828,105.573463 56.7862598,103.289598 60.4183264,102.531114 C64.050393,101.772631 64.9670643,103.029958 65.4365788,104.179103 C65.9060934,105.328248 66.1609246,111.430975 64.6857883,111.769949" id="Fill-20" fill="#FFB27D"></path>
                    <path d="M70.3971336,149.65927 C70.2925566,149.745816 70.1711512,149.797503 70.0329172,149.797503 C68.7311142,149.779473 64.9366528,150.503098 61.7256588,150.172538 C59.0186778,149.912899 56.6227832,149.111142 54.0497087,147.958391 C53.7080906,147.804531 52.9217198,147.385021 52.9393897,147.002774 C52.9508091,146.584466 52.9923994,145.978641 53.0445677,145.214147 C53.2266759,142.558853 53.5440129,137.991123 53.2346093,132.721405 C53.1789552,131.739344 53.1497457,130.765696 53.1462598,129.807675 C53.1196949,122.665187 54.5359316,116.383356 57.3818678,114.256958 C57.6249191,114.082663 59.1172446,114.812298 60.488405,115.489043 C61.7553491,116.114101 63.0221729,116.182617 64.2191586,115.939806 L65.4162644,116.998798 C66.8740915,118.352288 68.4702728,120.191401 69.1650485,122.984928 C69.7552473,125.362552 70.1014332,129.649006 70.2925566,134.091724 C70.3791031,136.105132 70.4488211,138.135368 70.4668516,140.062228 L70.4668516,140.130744 C70.4836801,140.321868 70.4836801,140.531022 70.4836801,140.722145 C70.5533981,145.667314 70.4836801,149.58835 70.3971336,149.65927" id="Fill-21" fill="#F37168"></path>
                    <path d="M53.0445677,145.214147 C53.2266759,142.558853 53.5440129,137.991123 53.2346093,132.721405 C53.1789552,131.739344 53.1497457,130.765696 53.1462598,129.807675 C54.3318262,126.932409 55.3006657,124.846879 55.3006657,124.846879 L58.2888026,124.846879 C58.2888026,124.846879 60.4796301,139.809801 53.0445677,145.214147" id="Fill-22" fill="#D54A41"></path>
                    <path d="M37.7378641,162.173648 L50.4821914,163.989921 C52.1407582,164.22552 53.6912621,163.061951 53.9275821,161.403144 L54.7146741,155.880999 C54.9508738,154.222191 53.7873047,152.671567 52.1286177,152.435969 L39.3842903,150.619695 C37.7257235,150.382894 36.1753398,151.546463 35.9388997,153.20527 L35.1519279,158.728618 C34.915608,160.386223 36.0792973,161.936847 37.7378641,162.173648" id="Fill-23" fill="#233862"></path>
                    <path d="M42.8936292,149.888858 C42.9176699,149.721775 43.0482108,149.595562 43.2065187,149.570319 C43.243301,149.564309 43.2808044,149.563107 43.3198706,149.569117 L43.8857883,149.649653 L45.9828571,149.94896 L47.1259917,150.111234 C47.3316597,150.141285 47.4750624,150.332409 47.4457328,150.536755 L47.2761258,151.729172 L42.7240222,151.080074 L42.8936292,149.888858 Z M52.8483957,154.081553 L52.8483957,154.081553 C52.4903098,153.184836 51.7172816,152.476838 50.7370227,152.237633 L50.7363014,152.237633 L50.7340176,152.236431 C50.637975,152.213592 50.5403699,152.193158 50.4397596,152.178733 L47.9021452,151.818123 L48.0717522,150.626907 C48.1099769,150.360055 48.0417013,150.094406 47.8795469,149.879242 C47.7175127,149.662876 47.4810726,149.52344 47.2153028,149.484975 L46.5533426,149.391216 L43.8889135,149.011373 L43.4084605,148.942857 C42.8582894,148.864725 42.345742,149.248174 42.2676098,149.798706 L42.0980028,150.991123 L37.7176699,150.367268 C36.0529727,150.129265 34.4970596,151.297642 34.2590569,152.96246 L33.4635506,158.549515 C33.2262691,160.214332 34.3941655,161.769764 36.0588627,162.007767 L48.7802312,163.820435 C49.0047712,163.85289 49.2269071,163.8589 49.443754,163.842071 L49.4460379,163.842071 C49.7942672,163.815626 50.1290337,163.727878 50.4390384,163.590846 C51.374221,163.178548 52.0842626,162.305871 52.2388442,161.224041 L53.0351919,155.638188 C53.1124827,155.092464 53.0397596,154.561165 52.8483957,154.081553 L52.8483957,154.081553 Z" id="Fill-24" fill="#4169E2"></path>
                    <path d="M47.4291447,145.728618 C47.4291447,145.728618 46.7597319,146.620527 46.7332871,146.976329 C46.5533426,149.391216 47.6565696,149.725381 44.8002959,151.06565 C44.8002959,151.06565 43.5808322,151.530837 43.5601572,150.584836 C43.539362,149.637633 44.4063893,149.622006 44.247841,148.297365 C44.0650116,146.768377 44.0834027,146.753953 45.0867406,145.955802 L45.7511049,144.857143 L47.4291447,145.728618" id="Fill-25" fill="#FFB27D"></path>
                    <path d="M45.7270643,146.412575 C46.8031253,146.621729 47.9695793,146.536385 47.9695793,146.536385 C47.9695793,146.536385 51.1641054,136.668886 51.5752011,135.76736 C51.986417,134.865834 61.0640592,124.195377 61.0640592,124.195377 L57.2824595,114.731761 C57.2824595,114.731761 47.4640037,131.132316 46.4670365,133.436616 C44.8196486,137.24466 44.247841,145.782709 44.247841,145.782709 C44.247841,145.782709 44.881914,146.247896 45.7270643,146.412575" id="Fill-26" fill="#F37168"></path>
                    <path d="M58.4197041,108.803329 C58.4197041,108.803329 59.0071382,108.704762 58.9122977,107.895793 C58.8175774,107.086824 58.8187795,106.029034 59.4766528,106.226167 C60.1344059,106.423301 60.1671012,106.949792 60.4374387,106.642071 C60.7077762,106.335552 60.7127046,105.03976 62.6699769,104.949607 C64.6272492,104.858252 65.4227554,105.539806 66.3329357,105.139528 C67.2429958,104.739251 67.2910772,103.36172 67.2910772,103.36172 C67.2910772,103.36172 67.0323994,103.854554 66.6413777,104.010818 C66.6413777,104.010818 68.1601479,101.933703 66.4018123,100.509293 C64.6435969,99.0851225 62.8510032,100.01742 61.8333611,100.079085 C59.5916875,100.214674 58.1435969,100.349182 57.4113176,101.822275 C56.6790384,103.295608 56.9812298,107.384928 58.4197041,108.803329" id="Fill-27" fill="#303C60"></path>
                    <path d="M46.3733981,146.790014 C46.3733981,146.790014 47.0178086,147.461951 47.0585576,147.742025 C47.1890985,148.638742 47.4886454,149.027 47.3385113,149.124364 C47.0264632,149.327508 46.6133241,148.662783 46.4160703,148.066574 C46.2186963,147.470365 46.3733981,146.790014 46.3733981,146.790014" id="Fill-28" fill="#FFB27D"></path>
                    <path d="M165.215996,201.088303 L103.026352,201.088303 C99.1185391,201.088303 95.9511789,197.919741 95.9511789,194.011928 L95.9511789,75.0467221 C95.9511789,71.1387887 99.1185391,67.9708276 103.026352,67.9708276 L165.215996,67.9708276 C169.12381,67.9708276 172.29117,71.1387887 172.29117,75.0467221 L172.29117,194.011928 C172.29117,197.919741 169.12381,201.088303 165.215996,201.088303" id="Fill-29" fill="#4169E2"></path>
                    <path d="M103.026352,68.8588904 C99.6149792,68.8588904 96.8394822,71.634748 96.8394822,75.0467221 L96.8394822,194.011928 C96.8394822,197.424503 99.6149792,200.2 103.026352,200.2 L165.215996,200.2 C168.627369,200.2 171.404068,197.424503 171.404068,194.011928 L171.404068,75.0467221 C171.404068,71.634748 168.627369,68.8588904 165.215996,68.8588904 L103.026352,68.8588904 Z M165.215996,201.976607 L103.026352,201.976607 C98.6353213,201.976607 95.0628756,198.404161 95.0628756,194.011928 L95.0628756,75.0467221 C95.0628756,70.6552104 98.6353213,67.0826445 103.026352,67.0826445 L165.215996,67.0826445 C169.607027,67.0826445 173.179473,70.6552104 173.179473,75.0467221 L173.179473,194.011928 C173.179473,198.404161 169.607027,201.976607 165.215996,201.976607 L165.215996,201.976607 Z" id="Fill-30" fill="#2B478B"></path>
                    <polygon id="Fill-31" fill="#F0F2FC" points="109.016089 153.210079 159.22626 153.210079 159.22626 102.998706 109.016089 102.998706"></polygon>
                    <polygon id="Fill-32" fill="#2B478B" points="114.049006 149.936939 124.02589 149.936939 124.02589 147.940361 114.049006 147.940361"></polygon>
                    <polygon id="Fill-33" fill="#2B478B" points="126.021267 149.936939 130.01202 149.936939 130.01202 147.940361 126.021267 147.940361"></polygon>
                    <polygon id="Fill-34" fill="#2B478B" points="134.002774 149.936939 135.998151 149.936939 135.998151 147.940361 134.002774 147.940361"></polygon>
                    <polygon id="Fill-35" fill="#2B478B" points="137.993528 149.936939 142.103282 149.936939 142.103282 147.940361 137.993528 147.940361"></polygon>
                    <polygon id="Fill-36" fill="#2B478B" points="144.098659 149.936939 156.188719 149.936939 156.188719 147.940361 144.098659 147.940361"></polygon>
                    <polygon id="Fill-37" fill="#2B478B" points="112.053629 149.936939 114.049006 149.936939 114.049006 147.940361 112.053629 147.940361"></polygon>
                    <polygon id="Fill-38" fill="#2B478B" points="122.030513 147.940361 124.02589 147.940361 124.02589 145.944984 122.030513 145.944984"></polygon>
                    <polygon id="Fill-39" fill="#2B478B" points="128.016644 147.940361 130.01202 147.940361 130.01202 145.944984 128.016644 145.944984"></polygon>
                    <polygon id="Fill-40" fill="#2B478B" points="132.007397 147.940361 140.107906 147.940361 140.107906 145.944984 132.007397 145.944984"></polygon>
                    <polygon id="Fill-41" fill="#2B478B" points="144.098659 147.940361 146.094036 147.940361 146.094036 145.944984 144.098659 145.944984"></polygon>
                    <polygon id="Fill-42" fill="#2B478B" points="154.075543 147.940361 156.188719 147.940361 156.188719 145.944984 154.075543 145.944984"></polygon>
                    <polygon id="Fill-43" fill="#2B478B" points="112.053629 147.940361 114.049006 147.940361 114.049006 145.944984 112.053629 145.944984"></polygon>
                    <polygon id="Fill-44" fill="#2B478B" points="116.044383 145.944984 120.035136 145.944984 120.035136 143.949607 116.044383 143.949607"></polygon>
                    <polygon id="Fill-45" fill="#2B478B" points="122.030513 145.944984 124.02589 145.944984 124.02589 143.949607 122.030513 143.949607"></polygon>
                    <polygon id="Fill-46" fill="#2B478B" points="126.021267 145.944984 132.007397 145.944984 132.007397 143.949607 126.021267 143.949607"></polygon>
                    <polygon id="Fill-47" fill="#2B478B" points="134.002774 145.944984 142.103282 145.944984 142.103282 143.949607 134.002774 143.949607"></polygon>
                    <polygon id="Fill-48" fill="#2B478B" points="144.098659 145.944984 146.094036 145.944984 146.094036 143.949607 144.098659 143.949607"></polygon>
                    <polygon id="Fill-49" fill="#2B478B" points="148.089413 145.944984 152.080166 145.944984 152.080166 143.949607 148.089413 143.949607"></polygon>
                    <polygon id="Fill-50" fill="#2B478B" points="154.075543 145.944984 156.188719 145.944984 156.188719 143.949607 154.075543 143.949607"></polygon>
                    <polygon id="Fill-51" fill="#2B478B" points="112.053629 145.944984 114.049006 145.944984 114.049006 143.949607 112.053629 143.949607"></polygon>
                    <polygon id="Fill-52" fill="#2B478B" points="116.044383 143.949607 120.035136 143.949607 120.035136 141.95423 116.044383 141.95423"></polygon>
                    <polygon id="Fill-53" fill="#2B478B" points="122.030513 143.949607 124.02589 143.949607 124.02589 141.95423 122.030513 141.95423"></polygon>
                    <polygon id="Fill-54" fill="#2B478B" points="126.021267 143.949607 128.016644 143.949607 128.016644 141.95423 126.021267 141.95423"></polygon>
                    <polygon id="Fill-55" fill="#2B478B" points="130.01202 143.949607 132.007397 143.949607 132.007397 141.95423 130.01202 141.95423"></polygon>
                    <polygon id="Fill-56" fill="#2B478B" points="134.002774 143.949607 135.998151 143.949607 135.998151 141.95423 134.002774 141.95423"></polygon>
                    <polygon id="Fill-57" fill="#2B478B" points="144.098659 143.949607 146.094036 143.949607 146.094036 141.95423 144.098659 141.95423"></polygon>
                    <polygon id="Fill-58" fill="#2B478B" points="148.089413 143.949607 152.080166 143.949607 152.080166 141.95423 148.089413 141.95423"></polygon>
                    <polygon id="Fill-59" fill="#2B478B" points="154.075543 143.949607 156.188719 143.949607 156.188719 141.95423 154.075543 141.95423"></polygon>
                    <polygon id="Fill-60" fill="#2B478B" points="112.053629 143.949607 114.049006 143.949607 114.049006 141.95423 112.053629 141.95423"></polygon>
                    <polygon id="Fill-61" fill="#2B478B" points="122.030513 141.95423 124.02589 141.95423 124.02589 139.958853 122.030513 139.958853"></polygon>
                    <polygon id="Fill-62" fill="#2B478B" points="126.021267 141.95423 132.007397 141.95423 132.007397 139.958853 126.021267 139.958853"></polygon>
                    <polygon id="Fill-63" fill="#2B478B" points="134.002774 141.95423 137.993528 141.95423 137.993528 139.958853 134.002774 139.958853"></polygon>
                    <polygon id="Fill-64" fill="#2B478B" points="140.107906 141.95423 142.103282 141.95423 142.103282 139.958853 140.107906 139.958853"></polygon>
                    <polygon id="Fill-65" fill="#2B478B" points="144.098659 141.95423 146.094036 141.95423 146.094036 139.958853 144.098659 139.958853"></polygon>
                    <polygon id="Fill-66" fill="#2B478B" points="154.075543 141.95423 156.188719 141.95423 156.188719 139.958853 154.075543 139.958853"></polygon>
                    <polygon id="Fill-67" fill="#2B478B" points="112.053629 141.95423 114.049006 141.95423 114.049006 139.958853 112.053629 139.958853"></polygon>
                    <polygon id="Fill-68" fill="#2B478B" points="114.049006 139.958853 124.02589 139.958853 124.02589 137.963477 114.049006 137.963477"></polygon>
                    <polygon id="Fill-69" fill="#2B478B" points="126.021267 139.958853 128.016644 139.958853 128.016644 137.963477 126.021267 137.963477"></polygon>
                    <polygon id="Fill-70" fill="#2B478B" points="130.01202 139.958853 134.002774 139.958853 134.002774 137.963477 130.01202 137.963477"></polygon>
                    <polygon id="Fill-71" fill="#2B478B" points="135.998151 139.958853 137.993528 139.958853 137.993528 137.963477 135.998151 137.963477"></polygon>
                    <polygon id="Fill-72" fill="#2B478B" points="144.098659 139.958853 156.188719 139.958853 156.188719 137.963477 144.098659 137.963477"></polygon>
                    <polygon id="Fill-73" fill="#2B478B" points="112.053629 139.958853 114.049006 139.958853 114.049006 137.963477 112.053629 137.963477"></polygon>
                    <polygon id="Fill-74" fill="#2B478B" points="132.007397 137.963477 137.993528 137.963477 137.993528 135.9681 132.007397 135.9681"></polygon>
                    <polygon id="Fill-75" fill="#2B478B" points="140.107906 137.963477 142.103282 137.963477 142.103282 135.9681 140.107906 135.9681"></polygon>
                    <polygon id="Fill-76" fill="#2B478B" points="114.049006 135.9681 122.030513 135.9681 122.030513 133.972723 114.049006 133.972723"></polygon>
                    <polygon id="Fill-77" fill="#2B478B" points="126.021267 135.9681 132.007397 135.9681 132.007397 133.972723 126.021267 133.972723"></polygon>
                    <polygon id="Fill-78" fill="#2B478B" points="134.002774 135.9681 150.08479 135.9681 150.08479 133.972723 134.002774 133.972723"></polygon>
                    <polygon id="Fill-79" fill="#2B478B" points="152.080166 135.9681 156.188719 135.9681 156.188719 133.972723 152.080166 133.972723"></polygon>
                    <polygon id="Fill-80" fill="#2B478B" points="116.044383 133.972723 120.035136 133.972723 120.035136 131.977346 116.044383 131.977346"></polygon>
                    <polygon id="Fill-81" fill="#2B478B" points="124.02589 133.972723 128.016644 133.972723 128.016644 131.977346 124.02589 131.977346"></polygon>
                    <polygon id="Fill-82" fill="#2B478B" points="130.01202 133.972723 132.007397 133.972723 132.007397 131.977346 130.01202 131.977346"></polygon>
                    <polygon id="Fill-83" fill="#2B478B" points="135.998151 133.972723 137.993528 133.972723 137.993528 131.977346 135.998151 131.977346"></polygon>
                    <polygon id="Fill-84" fill="#2B478B" points="140.107906 133.972723 144.098659 133.972723 144.098659 131.977346 140.107906 131.977346"></polygon>
                    <polygon id="Fill-85" fill="#2B478B" points="146.094036 133.972723 150.08479 133.972723 150.08479 131.977346 146.094036 131.977346"></polygon>
                    <polygon id="Fill-86" fill="#2B478B" points="114.049006 131.977346 116.044383 131.977346 116.044383 129.981969 114.049006 129.981969"></polygon>
                    <polygon id="Fill-87" fill="#2B478B" points="118.03976 131.977346 126.021267 131.977346 126.021267 129.981969 118.03976 129.981969"></polygon>
                    <polygon id="Fill-88" fill="#2B478B" points="128.016644 131.977346 140.107906 131.977346 140.107906 129.981969 128.016644 129.981969"></polygon>
                    <polygon id="Fill-89" fill="#2B478B" points="148.089413 131.977346 152.080166 131.977346 152.080166 129.981969 148.089413 129.981969"></polygon>
                    <polygon id="Fill-90" fill="#2B478B" points="154.075543 131.977346 156.188719 131.977346 156.188719 129.981969 154.075543 129.981969"></polygon>
                    <polygon id="Fill-91" fill="#2B478B" points="112.053629 131.977346 114.049006 131.977346 114.049006 129.981969 112.053629 129.981969"></polygon>
                    <polygon id="Fill-92" fill="#2B478B" points="114.049006 129.981969 120.035136 129.981969 120.035136 127.986593 114.049006 127.986593"></polygon>
                    <polygon id="Fill-93" fill="#2B478B" points="126.021267 129.981969 130.01202 129.981969 130.01202 127.986593 126.021267 127.986593"></polygon>
                    <polygon id="Fill-94" fill="#2B478B" points="135.998151 129.981969 137.993528 129.981969 137.993528 127.986593 135.998151 127.986593"></polygon>
                    <polygon id="Fill-95" fill="#2B478B" points="142.103282 129.981969 146.094036 129.981969 146.094036 127.986593 142.103282 127.986593"></polygon>
                    <polygon id="Fill-96" fill="#2B478B" points="148.089413 129.981969 156.188719 129.981969 156.188719 127.986593 148.089413 127.986593"></polygon>
                    <polygon id="Fill-97" fill="#2B478B" points="112.053629 129.981969 114.049006 129.981969 114.049006 127.986593 112.053629 127.986593"></polygon>
                    <polygon id="Fill-98" fill="#2B478B" points="118.03976 127.986593 130.01202 127.986593 130.01202 125.991216 118.03976 125.991216"></polygon>
                    <polygon id="Fill-99" fill="#2B478B" points="134.002774 127.986593 135.998151 127.986593 135.998151 125.991216 134.002774 125.991216"></polygon>
                    <polygon id="Fill-100" fill="#2B478B" points="140.107906 127.986593 144.098659 127.986593 144.098659 125.991216 140.107906 125.991216"></polygon>
                    <polygon id="Fill-101" fill="#2B478B" points="150.08479 127.986593 152.080166 127.986593 152.080166 125.991216 150.08479 125.991216"></polygon>
                    <polygon id="Fill-102" fill="#2B478B" points="112.053629 127.986593 114.049006 127.986593 114.049006 125.991216 112.053629 125.991216"></polygon>
                    <polygon id="Fill-103" fill="#2B478B" points="114.049006 125.991216 122.030513 125.991216 122.030513 123.995839 114.049006 123.995839"></polygon>
                    <polygon id="Fill-104" fill="#2B478B" points="124.02589 125.991216 126.021267 125.991216 126.021267 123.995839 124.02589 123.995839"></polygon>
                    <polygon id="Fill-105" fill="#2B478B" points="128.016644 125.991216 132.007397 125.991216 132.007397 123.995839 128.016644 123.995839"></polygon>
                    <polygon id="Fill-106" fill="#2B478B" points="134.002774 125.991216 142.103282 125.991216 142.103282 123.995839 134.002774 123.995839"></polygon>
                    <polygon id="Fill-107" fill="#2B478B" points="144.098659 125.991216 152.080166 125.991216 152.080166 123.995839 144.098659 123.995839"></polygon>
                    <polygon id="Fill-108" fill="#2B478B" points="154.075543 125.991216 156.188719 125.991216 156.188719 123.995839 154.075543 123.995839"></polygon>
                    <polygon id="Fill-109" fill="#2B478B" points="114.049006 123.995839 116.044383 123.995839 116.044383 122.000462 114.049006 122.000462"></polygon>
                    <polygon id="Fill-110" fill="#2B478B" points="118.03976 123.995839 120.035136 123.995839 120.035136 122.000462 118.03976 122.000462"></polygon>
                    <polygon id="Fill-111" fill="#2B478B" points="122.030513 123.995839 126.021267 123.995839 126.021267 122.000462 122.030513 122.000462"></polygon>
                    <polygon id="Fill-112" fill="#2B478B" points="130.01202 123.995839 135.998151 123.995839 135.998151 122.000462 130.01202 122.000462"></polygon>
                    <polygon id="Fill-113" fill="#2B478B" points="137.993528 123.995839 144.098659 123.995839 144.098659 122.000462 137.993528 122.000462"></polygon>
                    <polygon id="Fill-114" fill="#2B478B" points="146.094036 123.995839 148.089413 123.995839 148.089413 122.000462 146.094036 122.000462"></polygon>
                    <polygon id="Fill-115" fill="#2B478B" points="150.08479 123.995839 156.188719 123.995839 156.188719 122.000462 150.08479 122.000462"></polygon>
                    <polygon id="Fill-116" fill="#2B478B" points="112.053629 123.995839 114.049006 123.995839 114.049006 122.000462 112.053629 122.000462"></polygon>
                    <polygon id="Fill-117" fill="#2B478B" points="114.049006 122.000462 116.044383 122.000462 116.044383 120.005086 114.049006 120.005086"></polygon>
                    <polygon id="Fill-118" fill="#2B478B" points="122.030513 122.000462 126.021267 122.000462 126.021267 120.005086 122.030513 120.005086"></polygon>
                    <polygon id="Fill-119" fill="#2B478B" points="128.016644 122.000462 132.007397 122.000462 132.007397 120.005086 128.016644 120.005086"></polygon>
                    <polygon id="Fill-120" fill="#2B478B" points="134.002774 122.000462 137.993528 122.000462 137.993528 120.005086 134.002774 120.005086"></polygon>
                    <polygon id="Fill-121" fill="#2B478B" points="140.107906 122.000462 152.080166 122.000462 152.080166 120.005086 140.107906 120.005086"></polygon>
                    <polygon id="Fill-122" fill="#2B478B" points="112.053629 122.000462 114.049006 122.000462 114.049006 120.005086 112.053629 120.005086"></polygon>
                    <polygon id="Fill-123" fill="#2B478B" points="128.016644 120.005086 130.01202 120.005086 130.01202 118.009709 128.016644 118.009709"></polygon>
                    <polygon id="Fill-124" fill="#2B478B" points="132.007397 120.005086 135.998151 120.005086 135.998151 118.009709 132.007397 118.009709"></polygon>
                    <polygon id="Fill-125" fill="#2B478B" points="137.993528 120.005086 144.098659 120.005086 144.098659 118.009709 137.993528 118.009709"></polygon>
                    <polygon id="Fill-126" fill="#2B478B" points="114.049006 118.009709 124.02589 118.009709 124.02589 116.014332 114.049006 116.014332"></polygon>
                    <polygon id="Fill-127" fill="#2B478B" points="126.021267 118.009709 130.01202 118.009709 130.01202 116.014332 126.021267 116.014332"></polygon>
                    <polygon id="Fill-128" fill="#2B478B" points="134.002774 118.009709 135.998151 118.009709 135.998151 116.014332 134.002774 116.014332"></polygon>
                    <polygon id="Fill-129" fill="#2B478B" points="142.103282 118.009709 146.094036 118.009709 146.094036 116.014332 142.103282 116.014332"></polygon>
                    <polygon id="Fill-130" fill="#2B478B" points="148.089413 118.009709 150.08479 118.009709 150.08479 116.014332 148.089413 116.014332"></polygon>
                    <polygon id="Fill-131" fill="#2B478B" points="154.075543 118.009709 156.188719 118.009709 156.188719 116.014332 154.075543 116.014332"></polygon>
                    <polygon id="Fill-132" fill="#2B478B" points="112.053629 118.009709 114.049006 118.009709 114.049006 116.014332 112.053629 116.014332"></polygon>
                    <polygon id="Fill-133" fill="#2B478B" points="122.030513 116.014332 124.02589 116.014332 124.02589 114.018955 122.030513 114.018955"></polygon>
                    <polygon id="Fill-134" fill="#2B478B" points="137.993528 116.014332 142.103282 116.014332 142.103282 114.018955 137.993528 114.018955"></polygon>
                    <polygon id="Fill-135" fill="#2B478B" points="144.098659 116.014332 148.089413 116.014332 148.089413 114.018955 144.098659 114.018955"></polygon>
                    <polygon id="Fill-136" fill="#2B478B" points="150.08479 116.014332 156.188719 116.014332 156.188719 114.018955 150.08479 114.018955"></polygon>
                    <polygon id="Fill-137" fill="#2B478B" points="112.053629 116.014332 114.049006 116.014332 114.049006 114.018955 112.053629 114.018955"></polygon>
                    <polygon id="Fill-138" fill="#2B478B" points="116.044383 114.018955 120.035136 114.018955 120.035136 112.023578 116.044383 112.023578"></polygon>
                    <polygon id="Fill-139" fill="#2B478B" points="122.030513 114.018955 124.02589 114.018955 124.02589 112.023578 122.030513 112.023578"></polygon>
                    <polygon id="Fill-140" fill="#2B478B" points="126.021267 114.018955 130.01202 114.018955 130.01202 112.023578 126.021267 112.023578"></polygon>
                    <polygon id="Fill-141" fill="#2B478B" points="132.007397 114.018955 135.998151 114.018955 135.998151 112.023578 132.007397 112.023578"></polygon>
                    <polygon id="Fill-142" fill="#2B478B" points="137.993528 114.018955 140.107906 114.018955 140.107906 112.023578 137.993528 112.023578"></polygon>
                    <polygon id="Fill-143" fill="#2B478B" points="146.094036 114.018955 152.080166 114.018955 152.080166 112.023578 146.094036 112.023578"></polygon>
                    <polygon id="Fill-144" fill="#2B478B" points="112.053629 114.018955 114.049006 114.018955 114.049006 112.023578 112.053629 112.023578"></polygon>
                    <polygon id="Fill-145" fill="#2B478B" points="116.044383 112.023578 120.035136 112.023578 120.035136 110.027 116.044383 110.027"></polygon>
                    <polygon id="Fill-146" fill="#2B478B" points="122.030513 112.023578 124.02589 112.023578 124.02589 110.027 122.030513 110.027"></polygon>
                    <polygon id="Fill-147" fill="#2B478B" points="126.021267 112.023578 128.016644 112.023578 128.016644 110.027 126.021267 110.027"></polygon>
                    <polygon id="Fill-148" fill="#2B478B" points="130.01202 112.023578 140.107906 112.023578 140.107906 110.027 130.01202 110.027"></polygon>
                    <polygon id="Fill-149" fill="#2B478B" points="142.103282 112.023578 148.089413 112.023578 148.089413 110.027 142.103282 110.027"></polygon>
                    <polygon id="Fill-150" fill="#2B478B" points="150.08479 112.023578 156.188719 112.023578 156.188719 110.027 150.08479 110.027"></polygon>
                    <polygon id="Fill-151" fill="#2B478B" points="112.053629 112.023578 114.049006 112.023578 114.049006 110.027 112.053629 110.027"></polygon>
                    <polygon id="Fill-152" fill="#2B478B" points="122.030513 110.027 124.02589 110.027 124.02589 108.031623 122.030513 108.031623"></polygon>
                    <polygon id="Fill-153" fill="#2B478B" points="130.01202 110.027 134.002774 110.027 134.002774 108.031623 130.01202 108.031623"></polygon>
                    <polygon id="Fill-154" fill="#2B478B" points="135.998151 110.027 144.098659 110.027 144.098659 108.031623 135.998151 108.031623"></polygon>
                    <polygon id="Fill-155" fill="#2B478B" points="152.080166 110.027 154.075543 110.027 154.075543 108.031623 152.080166 108.031623"></polygon>
                    <polygon id="Fill-156" fill="#2B478B" points="112.053629 110.027 114.049006 110.027 114.049006 108.031623 112.053629 108.031623"></polygon>
                    <polygon id="Fill-157" fill="#2B478B" points="114.049006 108.031623 124.02589 108.031623 124.02589 106.036246 114.049006 106.036246"></polygon>
                    <polygon id="Fill-158" fill="#2B478B" points="126.021267 108.031623 130.01202 108.031623 130.01202 106.036246 126.021267 106.036246"></polygon>
                    <polygon id="Fill-159" fill="#2B478B" points="137.993528 108.031623 140.107906 108.031623 140.107906 106.036246 137.993528 106.036246"></polygon>
                    <polygon id="Fill-160" fill="#2B478B" points="142.103282 108.031623 144.098659 108.031623 144.098659 106.036246 142.103282 106.036246"></polygon>
                    <polygon id="Fill-161" fill="#2B478B" points="146.094036 108.031623 150.08479 108.031623 150.08479 106.036246 146.094036 106.036246"></polygon>
                    <polygon id="Fill-162" fill="#2B478B" points="154.075543 108.031623 156.188719 108.031623 156.188719 106.036246 154.075543 106.036246"></polygon>
                    <polygon id="Fill-163" fill="#2B478B" points="112.053629 108.031623 114.049006 108.031623 114.049006 106.036246 112.053629 106.036246"></polygon>
                    <g id="Group-166" transform="translate(104.576976, 98.807212)">
                        <mask id="mask-2" fill="white">
                            <use xlink:href="#path-1"></use>
                        </mask>
                        <g id="Clip-165"></g>
                        <polygon id="Fill-164" fill="#E0E4FA" mask="url(#mask-2)" points="0.0973647712 11.1596856 11.2810911 11.1596856 11.2810911 0.0620249653 0.0973647712 0.0620249653"></polygon>
                    </g>
                    <path d="M162.858807,110.010171 C162.465742,110.010171 162.148405,109.691632 162.148405,109.299769 L162.148405,100.245086 L153.180028,100.245086 C152.788165,100.245086 152.470828,99.9272677 152.470828,99.5354045 C152.470828,99.1434212 152.788165,98.8256033 153.180028,98.8256033 L162.858807,98.8256033 C163.25067,98.8256033 163.568007,99.1434212 163.568007,99.5354045 L163.568007,109.299769 C163.568007,109.691632 163.25067,110.010171 162.858807,110.010171" id="Fill-167" fill="#E0E4FA"></path>
                    <path d="M162.858807,158.644475 L153.093481,158.644475 C152.701618,158.644475 152.384281,158.325936 152.384281,157.934073 C152.384281,157.54221 152.701618,157.224873 153.093481,157.224873 L162.148405,157.224873 L162.148405,148.256496 C162.148405,147.864632 162.465742,147.546093 162.858807,147.546093 C163.25067,147.546093 163.568007,147.864632 163.568007,148.256496 L163.568007,157.934073 C163.568007,158.325936 163.25067,158.644475 162.858807,158.644475" id="Fill-168" fill="#E0E4FA"></path>
                    <path d="M115.062321,158.687748 L105.383541,158.687748 C104.991678,158.687748 104.674341,158.369209 104.674341,157.977346 L104.674341,148.213222 C104.674341,147.821359 104.991678,147.50282 105.383541,147.50282 C105.775405,147.50282 106.093944,147.821359 106.093944,148.213222 L106.093944,157.268146 L115.062321,157.268146 C115.454184,157.268146 115.771521,157.585483 115.771521,157.977346 C115.771521,158.369209 115.454184,158.687748 115.062321,158.687748" id="Fill-169" fill="#E0E4FA"></path>
                    <path d="M159.22626,172.10846 L159.22626,173.465557 C159.22626,174.204808 158.621637,174.810633 157.881184,174.810633 L110.361165,174.810633 C109.620712,174.810633 109.016089,174.204808 109.016089,173.465557 L109.016089,172.10846 C109.016089,171.369209 109.620712,170.763384 110.361165,170.763384 L157.881184,170.763384 C158.621637,170.763384 159.22626,171.369209 159.22626,172.10846" id="Fill-170" fill="#FFFFFF"></path>
                    <path d="M144.098659,170.763384 L144.098659,174.810633 L110.361165,174.810633 C109.620712,174.810633 109.016089,174.204808 109.016089,173.465557 L109.016089,172.10846 C109.016089,171.369209 109.620712,170.763384 110.361165,170.763384 L144.098659,170.763384" id="Fill-171" fill="#6A94CD"></path>
                    <polyline id="Fill-172" fill="#BFDAFF" points="137.069163 170.763384 133.335645 174.810633 126.351826 174.810633 130.084142 170.763384 137.069163 170.763384"></polyline>
                    <polyline id="Fill-173" fill="#BFDAFF" points="144.098659 170.763384 144.098659 174.810633 137.624503 174.810633 141.358021 170.763384 144.098659 170.763384"></polyline>
                    <polyline id="Fill-174" fill="#BFDAFF" points="125.822931 170.763384 122.090615 174.810633 115.105594 174.810633 118.839112 170.763384 125.822931 170.763384"></polyline>
                    <path d="M114.577901,170.763384 L110.845585,174.810633 L110.333518,174.810633 C109.593065,174.810633 108.98724,174.204808 108.98724,173.465557 L108.98724,172.10846 C108.98724,171.369209 109.593065,170.763384 110.333518,170.763384 L114.577901,170.763384" id="Fill-175" fill="#BFDAFF"></path>
                    <path d="M128.971059,168.454276 L129.236708,168.138141 C129.477115,168.346093 129.717522,168.465095 130.028849,168.465095 C130.301711,168.465095 130.473601,168.338881 130.473601,168.141748 C130.473601,167.962644 130.373833,167.86528 129.907443,167.754693 C129.372538,167.628479 129.07203,167.471012 129.07203,167.001017 C129.07203,166.570689 129.430236,166.273786 129.92908,166.273786 C130.294498,166.273786 130.585391,166.384374 130.83902,166.588719 L130.603421,166.922885 C130.377439,166.7546 130.151456,166.664448 129.921868,166.664448 C129.66343,166.664448 129.513176,166.796671 129.513176,166.969764 C129.513176,167.163292 129.627369,167.248636 130.108183,167.364031 C130.63828,167.492649 130.914748,167.682571 130.914748,168.105687 C130.914748,168.575682 130.545724,168.855756 130.018031,168.855756 C129.634582,168.855756 129.272769,168.72233 128.971059,168.454276" id="Fill-176" fill="#FFFFFF"></path>
                    <path d="M131.32344,167.564771 C131.32344,166.850763 131.858345,166.266574 132.618031,166.266574 C133.080814,166.266574 133.360888,166.427647 133.601294,166.657235 L133.317614,166.982987 C133.116875,166.796671 132.901711,166.67166 132.614424,166.67166 C132.134813,166.67166 131.786223,167.065927 131.786223,167.564771 C131.786223,168.055201 132.134813,168.457883 132.614424,168.457883 C132.923347,168.457883 133.120481,168.331669 133.335645,168.130929 L133.619325,168.418215 C133.357282,168.689875 133.069995,168.862968 132.6,168.862968 C131.869163,168.862968 131.32344,168.292002 131.32344,167.564771" id="Fill-177" fill="#FFFFFF"></path>
                    <path d="M135.602681,167.823209 L135.168747,166.818308 L134.738419,167.823209 L135.602681,167.823209 Z M134.971613,166.291817 L135.380305,166.291817 L136.483773,168.819695 L136.018585,168.819695 L135.763754,168.21387 L134.576144,168.21387 L134.318909,168.819695 L133.866944,168.819695 L134.971613,166.291817 L134.971613,166.291817 Z" id="Fill-178" fill="#FFFFFF"></path>
                    <polyline id="Fill-179" fill="#FFFFFF" points="136.915303 166.309847 137.323994 166.309847 138.667869 168.044383 138.667869 166.309847 139.101803 166.309847 139.101803 168.819695 138.732779 168.819695 137.349237 167.033472 137.349237 168.819695 136.915303 168.819695 136.915303 166.309847"></polyline>
                    <path d="M204.107813,162.013777 C204.161905,161.867129 204.086177,161.74933 203.939528,161.74933 C203.79288,161.74933 203.630606,161.867129 203.577716,162.013777 C203.524827,162.160425 203.600555,162.279427 203.746001,162.279427 C203.892649,162.279427 204.054924,162.160425 204.107813,162.013777" id="Fill-198" fill="#EBF3FA"></path>
                    <path d="M259.636986,202.74711 L0.387656033,202.74711 C0.216366158,202.74711 0.076208969,202.607675 0.076208969,202.435784 L0.076208969,202.287933 C0.076208969,202.116043 0.216366158,201.976607 0.387656033,201.976607 L259.636986,201.976607 C259.807675,201.976607 259.948313,202.116043 259.948313,202.287933 L259.948313,202.435784 C259.948313,202.607675 259.807675,202.74711 259.636986,202.74711" id="Fill-230" fill="#2E3552"></path>
                </g>
            </g>
        </g>
    </g>
</svg>