<?xml version="1.0" encoding="UTF-8"?>
<svg width="160px" height="160px" viewBox="0 0 160 160" version="1.1" xmlns="http://www.w3.org/2000/svg" xmlns:xlink="http://www.w3.org/1999/xlink">
    <title>Group</title>
    <g id="Page-1" stroke="none" stroke-width="1" fill="none" fill-rule="evenodd">
        <g id="11-copy-19" transform="translate(-127.000000, -248.000000)" fill-rule="nonzero">
            <g id="Group" transform="translate(127.000000, 248.000000)">
                <path d="M76.5200716,59.4875714 C69.3858474,52.253689 57.8150178,52.2577112 50.6852238,59.4871018 L50.1100002,60.0703606 C42.0447826,68.2482416 42.047422,81.5098832 50.105221,89.6802418 L79.9969252,119.989505 L109.88863,89.6802418 C117.951208,81.505037 117.935464,68.2344478 109.88385,60.0703606 L109.308627,59.4871018 C102.174658,52.2534786 90.6113438,52.2503016 83.473779,59.4875714 L79.9969252,63.0129934 L76.5200716,59.4875714 Z" id="Path" stroke="#4169E2" stroke-width="4.8"></path>
                <path d="M80,160 C35.81722,160 0,124.18278 0,80 C0,35.81722 35.81722,0 80,0 C124.18278,0 160,35.81722 160,80 C160,124.18278 124.18278,160 80,160 Z M80,156 C121.973641,156 156,121.973641 156,80 C156,38.026359 121.973641,4 80,4 C38.026359,4 4,38.026359 4,80 C4,121.973641 38.026359,156 80,156 Z" id="Shape" fill="#4169E2"></path>
            </g>
        </g>
    </g>
</svg>