<?xml version="1.0" encoding="UTF-8"?>
<svg width="100px" height="100px" viewBox="0 0 100 100" version="1.1" xmlns="http://www.w3.org/2000/svg" xmlns:xlink="http://www.w3.org/1999/xlink">
    <title>send</title>
    <g id="Page-1" stroke="none" stroke-width="1" fill="none" fill-rule="evenodd">
        <g id="01-copy-2" transform="translate(-157.000000, -311.000000)" fill-rule="nonzero">
            <g id="Group" transform="translate(24.000000, 311.000000)">
                <g id="send" transform="translate(133.000000, 0.000000)">
                    <path d="M99.1419922,0.858398437 C98.3134766,0.029296875 97.0697266,-0.22578125 95.9824219,0.209960937 L1.84179688,37.8658203 C0.764453125,38.2964844 0.0431640625,39.3224609 0.001953125,40.4818359 C-0.0392578125,41.6412109 0.607617188,42.7158203 1.65117188,43.221875 L38.7736328,61.2261719 L56.7779297,98.3488281 C57.2689453,99.3613281 58.2943359,100.000006 59.4132813,100.000006 C59.4480469,100.000006 59.4830078,100.000006 59.5179688,99.9980469 C60.6773437,99.9568359 61.703125,99.2355469 62.1339844,98.1583984 L99.790625,4.01816406 C100.225781,2.93007812 99.9707031,1.68710937 99.1419922,0.858398437 Z" id="Path" fill="#4DBBEB"></path>
                    <path d="M99.1419922,0.858398438 L38.7738281,61.2259766 L56.778125,98.3486328 C57.2691406,99.3611328 58.2945312,99.9998047 59.4134766,99.9998047 C59.4482422,99.9998047 59.4832031,99.9998047 59.5181641,99.9978516 C60.6775391,99.9566406 61.7033203,99.2353516 62.1341797,98.1582031 L99.790625,4.01816406 C100.225781,2.93007813 99.9707031,1.68710938 99.1419922,0.858398438 L99.1419922,0.858398438 Z" id="Path" fill="#2488FF"></path>
                </g>
            </g>
        </g>
    </g>
</svg>